<svg width="81" height="167" viewBox="0 0 81 167" fill="none" xmlns="http://www.w3.org/2000/svg">
<mask id="mask0_5475_17016" style="mask-type:alpha" maskUnits="userSpaceOnUse" x="0" y="0" width="81" height="167">
<path d="M81 0H0.787354V167H81V0Z" fill="#D9D9D9"/>
</mask>
<g mask="url(#mask0_5475_17016)">
<g opacity="0.2">
<path d="M385.958 161.908C406.889 142.034 388.935 105.276 345.86 79.8208L341.526 77.2598C298.452 51.8042 246.553 47.2786 225.622 67.1531L189.824 101.144C168.114 121.758 114.304 117.066 69.6267 90.6625C24.9493 64.2593 6.33346 26.1497 28.0438 5.53548L61.7356 -26.4556C82.6668 -46.33 64.7119 -83.0867 21.6377 -108.542C-21.4363 -133.997 -73.336 -138.524 -94.2671 -118.649L-126.555 -87.991C-148.266 -67.3768 -202.076 -72.069 -246.753 -98.4722C-291.43 -124.875 -310.046 -162.984 -288.336 -183.599L-258.855 -211.591C-237.924 -231.466 -255.879 -268.222 -298.953 -293.678C-342.028 -319.133 -393.926 -323.66 -414.858 -303.785" stroke="url(#paint0_linear_5475_17016)" stroke-miterlimit="10"/>
<path d="M384.121 169.984C405.051 150.109 387.096 113.353 344.022 87.8973L339.689 85.3363C296.615 59.8806 244.715 55.3551 223.784 75.2294L187.986 109.22C166.276 129.835 112.466 125.142 67.7889 98.7389C23.1113 72.3357 4.49551 34.2262 26.2057 13.6119L59.8977 -18.3792C80.8289 -38.2537 62.8738 -75.0103 19.7998 -100.466C-23.2744 -125.921 -75.1739 -130.447 -96.1051 -110.573L-128.393 -79.9146C-150.104 -59.3003 -203.914 -63.9925 -248.591 -90.3957C-293.268 -116.799 -311.884 -154.908 -290.174 -175.522L-260.693 -203.515C-239.763 -223.389 -257.717 -260.145 -300.792 -285.602C-343.866 -311.057 -395.765 -315.583 -416.696 -295.709" stroke="url(#paint1_linear_5475_17016)" stroke-miterlimit="10"/>
<path d="M382.283 178.076C403.214 158.202 385.259 121.444 342.185 95.9887L337.852 93.4278C294.778 67.9722 242.878 63.4465 221.947 83.321L186.15 117.312C164.439 137.926 110.629 133.234 65.9516 106.83C21.2742 80.4272 2.65826 42.3177 24.3685 21.7035L58.0604 -10.2876C78.9916 -30.1621 61.0366 -66.9187 17.9625 -92.3743C-25.1115 -117.83 -77.0112 -122.356 -97.9423 -102.481L-130.231 -71.823C-151.94 -51.2088 -205.75 -55.9009 -250.428 -82.3041C-295.106 -108.707 -313.721 -146.816 -292.01 -167.431L-262.53 -195.423C-241.6 -215.298 -259.555 -252.054 -302.629 -277.51C-345.703 -302.965 -397.602 -307.492 -418.534 -287.617" stroke="url(#paint2_linear_5475_17016)" stroke-miterlimit="10"/>
<path d="M380.445 186.149C401.375 166.275 383.42 129.517 340.346 104.062L336.013 101.501C292.939 76.0457 241.039 71.5201 220.109 91.3946L184.311 125.385C162.6 145.999 108.791 141.307 64.1132 114.904C19.4357 88.5008 0.819894 50.3912 22.5301 29.777L56.2221 -2.21412C77.1532 -22.0886 59.1982 -58.8452 16.1242 -84.3009C-26.95 -109.757 -78.8496 -114.282 -99.7806 -94.4076L-132.069 -63.7495C-153.779 -43.1352 -207.589 -47.8275 -252.266 -74.2307C-296.944 -100.634 -315.56 -138.743 -293.849 -159.358L-264.369 -187.35C-243.437 -207.224 -261.392 -243.981 -304.466 -269.437C-347.541 -294.892 -399.441 -299.418 -420.371 -279.543" stroke="url(#paint3_linear_5475_17016)" stroke-miterlimit="10"/>
<path d="M378.608 194.239C399.539 174.363 381.584 137.607 338.51 112.151L334.176 109.59C291.102 84.1348 239.203 79.6092 218.272 99.4836L182.474 133.474C160.764 154.089 106.954 149.397 62.2764 122.993C17.599 96.5898 -1.01686 58.4803 20.6934 37.866L54.3854 5.87494C75.3164 -13.9996 57.3615 -50.7561 14.2874 -76.2118C-28.7867 -101.667 -80.6863 -106.193 -101.617 -86.3185L-133.905 -55.6605C-155.616 -35.0462 -209.426 -39.7384 -254.103 -66.1416C-298.78 -92.5448 -317.396 -130.655 -295.686 -151.268L-266.206 -179.261C-245.275 -199.135 -263.229 -235.892 -306.304 -261.347C-349.378 -286.804 -401.278 -291.329 -422.208 -271.455" stroke="url(#paint4_linear_5475_17016)" stroke-miterlimit="10"/>
<path d="M376.769 202.316C397.701 182.442 379.746 145.686 336.672 120.23L332.338 117.669C289.264 92.2133 237.365 87.6876 216.433 107.562L180.635 141.553C158.926 162.168 105.115 157.475 60.438 131.072C15.7605 104.668 -2.85532 66.5587 18.8549 45.9446L52.5469 13.9535C73.478 -5.92097 55.523 -42.6776 12.4489 -68.1332C-30.6252 -93.5889 -82.5248 -98.1145 -103.456 -78.2401L-135.744 -47.5819C-157.454 -26.9677 -211.264 -31.6598 -255.941 -58.063C-300.619 -84.4662 -319.234 -122.576 -297.525 -143.19L-268.045 -171.182C-247.113 -191.056 -265.068 -227.814 -308.142 -253.269C-351.216 -278.725 -403.116 -283.25 -424.047 -263.376" stroke="url(#paint5_linear_5475_17016)" stroke-miterlimit="10"/>
<path d="M374.933 210.405C395.864 190.531 377.909 153.774 334.835 128.318L330.502 125.758C287.428 100.302 235.528 95.7766 214.597 115.651L178.799 149.642C157.089 170.256 103.279 165.564 58.6012 139.161C13.9238 112.757 -4.69205 74.6478 17.0182 54.0335L50.7102 22.0424C71.6413 2.16796 53.6864 -34.5887 10.6122 -60.0444C-32.4618 -85.4999 -84.3614 -90.0256 -105.293 -70.1511L-137.581 -39.493C-159.29 -18.8787 -213.1 -23.5709 -257.779 -49.9741C-302.456 -76.3773 -321.071 -114.487 -299.362 -135.101L-269.881 -163.093C-248.95 -182.967 -266.905 -219.725 -309.979 -245.18C-353.053 -270.636 -404.952 -275.161 -425.884 -255.287" stroke="url(#paint6_linear_5475_17016)" stroke-miterlimit="10"/>
<path d="M373.095 218.478C394.025 198.604 376.07 161.848 332.996 136.392L328.663 133.831C285.589 108.375 233.689 103.85 212.759 123.724L176.961 157.715C155.25 178.329 101.44 173.636 56.7629 147.234C12.0853 120.83 -6.53051 82.7208 15.1797 62.1067L48.8717 30.1156C69.8029 10.2411 51.8479 -26.5155 8.77379 -51.9712C-34.3003 -77.4268 -86.1999 -81.9524 -107.131 -62.078L-139.419 -31.4198C-161.129 -10.8056 -214.939 -15.4977 -259.617 -41.9009C-304.294 -68.3041 -322.91 -106.414 -301.2 -127.028L-271.719 -155.02C-250.789 -174.895 -268.744 -211.651 -311.818 -237.106C-354.892 -262.563 -406.791 -267.088 -427.722 -247.214" stroke="url(#paint7_linear_5475_17016)" stroke-miterlimit="10"/>
<path d="M371.258 226.567C392.188 206.693 374.233 169.936 331.159 144.48L326.826 141.919C283.752 116.464 231.852 111.938 210.921 131.813L175.124 165.804C153.413 186.417 99.6035 181.725 54.9259 155.323C10.2485 128.919 -8.36733 90.8094 13.3429 70.1953L47.0348 38.2042C67.966 18.3297 50.0109 -18.4269 6.9369 -43.8826C-36.1372 -69.3382 -88.0367 -73.8638 -108.968 -53.9894L-141.256 -23.3312C-162.966 -2.71701 -216.776 -7.40919 -261.453 -33.8123C-306.131 -60.2155 -324.747 -98.3251 -303.036 -118.939L-273.556 -146.931C-252.625 -166.805 -270.579 -203.563 -313.654 -229.018C-356.728 -254.474 -408.628 -258.999 -429.56 -239.125" stroke="url(#paint8_linear_5475_17016)" stroke-miterlimit="10"/>
<path d="M369.419 234.647C390.349 214.773 372.394 178.016 329.32 152.56L324.987 149.999C281.913 124.543 230.013 120.018 209.083 139.892L173.285 173.883C151.574 194.497 97.7646 189.805 53.0871 163.402C8.40964 136.998 -10.2062 98.889 11.504 78.2748L45.1959 46.2837C66.1271 26.4093 48.1722 -10.3473 5.09808 -35.8031C-37.976 -61.2587 -89.8756 -65.7843 -110.807 -45.9098L-143.095 -15.2517C-164.805 5.36258 -218.615 0.670396 -263.293 -25.7328C-307.97 -52.136 -326.586 -90.2456 -304.875 -110.86L-275.395 -138.852C-254.463 -158.726 -272.419 -195.482 -315.492 -220.939C-358.567 -246.394 -410.467 -250.92 -431.398 -231.046" stroke="url(#paint9_linear_5475_17016)" stroke-miterlimit="10"/>
</g>
</g>
<defs>
<linearGradient id="paint0_linear_5475_17016" x1="348.728" y1="197.258" x2="439.709" y2="-167.683" gradientUnits="userSpaceOnUse">
<stop offset="0.0604165" stop-color="#6E45BA"/>
<stop offset="0.289583" stop-color="#AD95D9"/>
<stop offset="0.51875" stop-color="#6E45BA"/>
<stop offset="0.742708" stop-color="#C4B4E4"/>
<stop offset="1" stop-color="#6E45BA"/>
</linearGradient>
<linearGradient id="paint1_linear_5475_17016" x1="346.89" y1="205.335" x2="437.871" y2="-159.606" gradientUnits="userSpaceOnUse">
<stop offset="0.0604165" stop-color="#6E45BA"/>
<stop offset="0.289583" stop-color="#AD95D9"/>
<stop offset="0.51875" stop-color="#6E45BA"/>
<stop offset="0.742708" stop-color="#C4B4E4"/>
<stop offset="1" stop-color="#6E45BA"/>
</linearGradient>
<linearGradient id="paint2_linear_5475_17016" x1="345.053" y1="213.426" x2="436.034" y2="-151.515" gradientUnits="userSpaceOnUse">
<stop offset="0.0604165" stop-color="#6E45BA"/>
<stop offset="0.289583" stop-color="#AD95D9"/>
<stop offset="0.51875" stop-color="#6E45BA"/>
<stop offset="0.742708" stop-color="#C4B4E4"/>
<stop offset="1" stop-color="#6E45BA"/>
</linearGradient>
<linearGradient id="paint3_linear_5475_17016" x1="343.215" y1="221.5" x2="434.196" y2="-143.442" gradientUnits="userSpaceOnUse">
<stop offset="0.0604165" stop-color="#6E45BA"/>
<stop offset="0.289583" stop-color="#AD95D9"/>
<stop offset="0.51875" stop-color="#6E45BA"/>
<stop offset="0.742708" stop-color="#C4B4E4"/>
<stop offset="1" stop-color="#6E45BA"/>
</linearGradient>
<linearGradient id="paint4_linear_5475_17016" x1="341.378" y1="229.589" x2="432.359" y2="-135.352" gradientUnits="userSpaceOnUse">
<stop offset="0.0604165" stop-color="#6E45BA"/>
<stop offset="0.289583" stop-color="#AD95D9"/>
<stop offset="0.51875" stop-color="#6E45BA"/>
<stop offset="0.742708" stop-color="#C4B4E4"/>
<stop offset="1" stop-color="#6E45BA"/>
</linearGradient>
<linearGradient id="paint5_linear_5475_17016" x1="339.539" y1="237.668" x2="430.52" y2="-127.274" gradientUnits="userSpaceOnUse">
<stop offset="0.0604165" stop-color="#6E45BA"/>
<stop offset="0.289583" stop-color="#AD95D9"/>
<stop offset="0.51875" stop-color="#6E45BA"/>
<stop offset="0.742708" stop-color="#C4B4E4"/>
<stop offset="1" stop-color="#6E45BA"/>
</linearGradient>
<linearGradient id="paint6_linear_5475_17016" x1="337.702" y1="245.757" x2="428.684" y2="-119.185" gradientUnits="userSpaceOnUse">
<stop offset="0.0604165" stop-color="#6E45BA"/>
<stop offset="0.289583" stop-color="#AD95D9"/>
<stop offset="0.51875" stop-color="#6E45BA"/>
<stop offset="0.742708" stop-color="#C4B4E4"/>
<stop offset="1" stop-color="#6E45BA"/>
</linearGradient>
<linearGradient id="paint7_linear_5475_17016" x1="335.865" y1="253.829" x2="426.846" y2="-111.112" gradientUnits="userSpaceOnUse">
<stop offset="0.0604165" stop-color="#6E45BA"/>
<stop offset="0.289583" stop-color="#AD95D9"/>
<stop offset="0.51875" stop-color="#6E45BA"/>
<stop offset="0.742708" stop-color="#C4B4E4"/>
<stop offset="1" stop-color="#6E45BA"/>
</linearGradient>
<linearGradient id="paint8_linear_5475_17016" x1="334.027" y1="261.919" x2="425.008" y2="-103.023" gradientUnits="userSpaceOnUse">
<stop offset="0.0604165" stop-color="#6E45BA"/>
<stop offset="0.289583" stop-color="#AD95D9"/>
<stop offset="0.51875" stop-color="#6E45BA"/>
<stop offset="0.742708" stop-color="#C4B4E4"/>
<stop offset="1" stop-color="#6E45BA"/>
</linearGradient>
<linearGradient id="paint9_linear_5475_17016" x1="332.189" y1="269.998" x2="423.17" y2="-94.9434" gradientUnits="userSpaceOnUse">
<stop offset="0.0604165" stop-color="#6E45BA"/>
<stop offset="0.289583" stop-color="#AD95D9"/>
<stop offset="0.51875" stop-color="#6E45BA"/>
<stop offset="0.742708" stop-color="#C4B4E4"/>
<stop offset="1" stop-color="#6E45BA"/>
</linearGradient>
</defs>
</svg>
