<svg width="124" height="92" viewBox="0 0 124 92" fill="none" xmlns="http://www.w3.org/2000/svg">
<g clip-path="url(#clip0_5475_16987)">
<g opacity="0.5">
<path d="M131.811 23.4498C95.4631 52.1933 59.591 67.5937 51.6793 57.8549C43.7675 48.1161 66.8117 16.9255 103.159 -11.8182C139.507 -40.5618 162.551 -71.7524 154.639 -81.4913C146.728 -91.2301 110.855 -75.8297 74.5076 -47.0861L73.6952 -46.4436C37.3477 -17.7001 1.47548 -2.29981 -6.43625 -12.0386C-14.348 -21.7773 8.69618 -52.9681 45.0436 -81.7116L41.794 -79.1419C78.1415 -107.885 101.186 -139.076 93.2739 -148.815C85.3622 -158.554 49.49 -143.153 13.1424 -114.41" stroke="url(#paint0_linear_5475_16987)" stroke-miterlimit="10"/>
<path d="M134.268 26.18C97.9208 54.9236 62.0486 70.324 54.1369 60.5852C46.2251 50.8464 69.2693 19.6557 105.617 -9.08791C141.965 -37.8315 165.008 -69.0222 157.097 -78.761C149.185 -88.4998 113.312 -73.0994 76.9652 -44.3559L76.1529 -43.7134C39.8054 -14.9698 3.93312 0.430446 -3.97861 -9.30832C-11.8903 -19.0471 11.1538 -50.2378 47.5013 -78.9814L44.2517 -76.4116C80.5991 -105.155 103.643 -136.346 95.7315 -146.085C87.8198 -155.823 51.9475 -140.423 15.6001 -111.68" stroke="url(#paint1_linear_5475_16987)" stroke-miterlimit="10"/>
<path d="M136.72 28.9018C100.372 57.6453 64.5001 73.0457 56.5882 63.3069C48.6765 53.5681 71.7208 22.3774 108.069 -6.36618C144.416 -35.1098 167.459 -66.3004 159.548 -76.0392C151.637 -85.7781 115.764 -70.3778 79.4166 -41.6341L78.6043 -40.9917C42.2568 -12.2481 6.38454 3.15217 -1.52719 -6.58659C-9.43892 -16.3253 13.6052 -47.5161 49.9527 -76.2596L46.7031 -73.6899C83.0506 -102.434 106.095 -133.624 98.183 -143.363C90.2713 -153.101 54.399 -137.702 18.0515 -108.958" stroke="url(#paint2_linear_5475_16987)" stroke-miterlimit="10"/>
<path d="M139.185 31.6251C102.838 60.3686 66.9659 75.7689 59.0542 66.0302C51.1425 56.2914 74.1866 25.1007 110.534 -3.64289C146.882 -32.3865 169.926 -63.5772 162.014 -73.3159C154.102 -83.0547 118.23 -67.6545 81.8826 -38.9109L81.0702 -38.2684C44.7227 -9.52486 8.85048 5.87545 0.938754 -3.86332C-6.97298 -13.6021 16.0712 -44.7929 52.4187 -73.5364L49.169 -70.9666C85.5165 -99.7101 108.56 -130.901 100.649 -140.639C92.7371 -150.378 56.865 -134.978 20.5175 -106.234" stroke="url(#paint3_linear_5475_16987)" stroke-miterlimit="10"/>
<path d="M141.638 34.3468C105.29 63.0904 69.4176 78.4907 61.5059 68.752C53.5941 59.0132 76.6384 27.8224 112.986 -0.921141C149.333 -29.6647 172.377 -60.8555 164.466 -70.5942C156.554 -80.333 120.682 -64.9327 84.3343 -36.1891L83.5219 -35.5467C47.1743 -6.80309 11.3022 8.59721 3.39041 -1.14155C-4.52131 -10.8803 18.5228 -42.0711 54.8703 -70.8147L51.6207 -68.2448C87.9682 -96.9884 111.013 -128.18 103.1 -137.918C95.1889 -147.657 59.3166 -132.256 22.9691 -103.512" stroke="url(#paint4_linear_5475_16987)" stroke-miterlimit="10"/>
<path d="M144.095 37.0772C107.748 65.8208 71.8752 81.2211 63.9635 71.4823C56.0518 61.7435 79.0959 30.5528 115.443 1.80924C151.791 -26.9343 174.835 -58.1251 166.923 -67.8638C159.012 -77.6026 123.139 -62.2023 86.7919 -33.4588L85.9794 -32.8163C49.632 -4.07271 13.7598 11.3276 5.84806 1.58882C-2.06368 -8.14995 20.9805 -39.3406 57.328 -68.0843L54.0783 -65.5144C90.4258 -94.258 113.47 -125.449 105.558 -135.188C97.6465 -144.927 61.7742 -129.526 25.4268 -100.782" stroke="url(#paint5_linear_5475_16987)" stroke-miterlimit="10"/>
<path d="M146.546 39.7988C110.199 68.5423 74.3265 83.9426 66.4148 74.2038C58.5031 64.4651 81.5472 33.2743 117.895 4.53077C154.243 -24.2128 177.286 -55.4035 169.375 -65.1423C161.463 -74.8811 125.59 -59.4808 89.2432 -30.7372L88.4308 -30.0947C52.0833 -1.3512 16.2111 14.0491 8.29935 4.31034C0.387618 -5.42843 23.4318 -36.6192 59.7793 -65.3627L56.5295 -62.7929C92.8771 -91.5364 115.921 -122.727 108.009 -132.466C100.098 -142.204 64.2255 -126.805 27.8781 -98.0609" stroke="url(#paint6_linear_5475_16987)" stroke-miterlimit="10"/>
<path d="M149.004 42.5286C112.657 71.2721 76.7846 86.6724 68.8729 76.9336C60.9611 67.1949 84.0053 36.0041 120.353 7.26054C156.7 -21.483 179.745 -52.6738 171.832 -62.4126C163.921 -72.1513 128.049 -56.751 91.7012 -28.0074L90.8888 -27.365C54.5414 1.37858 18.6691 16.7789 10.7574 7.04011C2.84563 -2.69866 25.8898 -33.8894 62.2372 -62.633L58.9876 -60.0631C95.3351 -88.8067 118.379 -119.998 110.468 -129.736C102.556 -139.475 66.6835 -124.074 30.336 -95.3311" stroke="url(#paint7_linear_5475_16987)" stroke-miterlimit="10"/>
<path d="M151.456 45.25C115.109 73.9935 79.2361 89.3939 71.3244 79.6551C63.4127 69.9163 86.4568 38.7255 122.804 9.98201C159.151 -18.7616 182.196 -49.9522 174.284 -59.691C166.372 -69.4299 130.5 -54.0296 94.1528 -25.2859L93.3404 -24.6435C56.9929 4.10007 21.1206 19.5004 13.2089 9.7616C5.29719 0.0228331 28.3413 -31.1679 64.6889 -59.9114L61.4392 -57.3417C97.7866 -86.0852 120.831 -117.275 112.919 -127.015C105.007 -136.754 69.1351 -121.353 32.7877 -92.6097" stroke="url(#paint8_linear_5475_16987)" stroke-miterlimit="10"/>
<path d="M153.922 47.9734C117.575 76.717 81.7018 92.1173 73.7901 82.3785C65.8784 72.6397 88.9225 41.449 125.27 12.7054C161.617 -16.0382 184.662 -47.2289 176.75 -56.9676C168.838 -66.7064 132.966 -51.3061 96.6185 -22.5626L95.806 -21.9201C59.4586 6.82348 23.5863 22.2238 15.6746 12.485C7.76289 2.74625 30.8071 -28.4445 67.1546 -57.188L63.9048 -54.6183C100.252 -83.3618 123.297 -114.552 115.385 -124.291C107.473 -134.03 71.6008 -118.63 35.2534 -89.8862" stroke="url(#paint9_linear_5475_16987)" stroke-miterlimit="10"/>
<path d="M156.373 50.6951C120.026 79.4387 84.1537 94.839 76.242 85.1003C68.3303 75.3615 91.3744 44.1707 127.722 15.4272C164.069 -13.3164 187.114 -44.5072 179.201 -54.2459C171.29 -63.9847 135.418 -48.5844 99.0704 -19.8408L98.258 -19.1984C61.9105 9.54522 26.0382 24.9456 18.1265 15.2068C10.2148 5.46798 33.2589 -25.7227 69.6064 -54.4664L66.3568 -51.8965C102.705 -80.6401 125.748 -111.831 117.837 -121.57C109.925 -131.309 74.0528 -115.908 37.7053 -87.1645" stroke="url(#paint10_linear_5475_16987)" stroke-miterlimit="10"/>
<path d="M158.831 53.4255C122.483 82.1691 86.6114 97.5695 78.6997 87.8307C70.7878 78.0918 93.8321 46.9012 130.179 18.1575C166.527 -10.586 189.571 -41.7767 181.66 -51.5155C173.747 -61.2543 137.876 -45.8539 101.528 -17.1104L100.716 -16.4679C64.3681 12.2757 28.4958 27.6759 20.5841 17.9371C12.6724 8.19838 35.7165 -22.9923 72.064 -51.7359L68.8144 -49.1661C105.162 -77.9097 128.206 -109.101 120.294 -118.839C112.383 -128.578 76.5104 -113.177 40.1628 -84.4341" stroke="url(#paint11_linear_5475_16987)" stroke-miterlimit="10"/>
</g>
</g>
<defs>
<linearGradient id="paint0_linear_5475_16987" x1="16.7984" y1="-117.301" x2="129.531" y2="25.2533" gradientUnits="userSpaceOnUse">
<stop stop-color="#BBF8E9"/>
<stop offset="1" stop-color="#3FECC1"/>
</linearGradient>
<linearGradient id="paint1_linear_5475_16987" x1="19.256" y1="-114.571" x2="131.988" y2="27.9836" gradientUnits="userSpaceOnUse">
<stop stop-color="#BBF8E9"/>
<stop offset="1" stop-color="#3FECC1"/>
</linearGradient>
<linearGradient id="paint2_linear_5475_16987" x1="21.7073" y1="-111.849" x2="134.439" y2="30.7053" gradientUnits="userSpaceOnUse">
<stop stop-color="#BBF8E9"/>
<stop offset="1" stop-color="#3FECC1"/>
</linearGradient>
<linearGradient id="paint3_linear_5475_16987" x1="24.1733" y1="-109.125" x2="136.905" y2="33.4285" gradientUnits="userSpaceOnUse">
<stop stop-color="#BBF8E9"/>
<stop offset="1" stop-color="#3FECC1"/>
</linearGradient>
<linearGradient id="paint4_linear_5475_16987" x1="26.625" y1="-106.404" x2="139.356" y2="36.1503" gradientUnits="userSpaceOnUse">
<stop stop-color="#BBF8E9"/>
<stop offset="1" stop-color="#3FECC1"/>
</linearGradient>
<linearGradient id="paint5_linear_5475_16987" x1="29.0826" y1="-103.674" x2="141.815" y2="38.8807" gradientUnits="userSpaceOnUse">
<stop stop-color="#BBF8E9"/>
<stop offset="1" stop-color="#3FECC1"/>
</linearGradient>
<linearGradient id="paint6_linear_5475_16987" x1="31.5339" y1="-100.952" x2="144.266" y2="41.6022" gradientUnits="userSpaceOnUse">
<stop stop-color="#BBF8E9"/>
<stop offset="1" stop-color="#3FECC1"/>
</linearGradient>
<linearGradient id="paint7_linear_5475_16987" x1="33.992" y1="-98.2222" x2="146.724" y2="44.332" gradientUnits="userSpaceOnUse">
<stop stop-color="#BBF8E9"/>
<stop offset="1" stop-color="#3FECC1"/>
</linearGradient>
<linearGradient id="paint8_linear_5475_16987" x1="36.4435" y1="-95.5007" x2="149.175" y2="47.0535" gradientUnits="userSpaceOnUse">
<stop stop-color="#BBF8E9"/>
<stop offset="1" stop-color="#3FECC1"/>
</linearGradient>
<linearGradient id="paint9_linear_5475_16987" x1="38.9092" y1="-92.7773" x2="151.641" y2="49.7769" gradientUnits="userSpaceOnUse">
<stop stop-color="#BBF8E9"/>
<stop offset="1" stop-color="#3FECC1"/>
</linearGradient>
<linearGradient id="paint10_linear_5475_16987" x1="41.3611" y1="-90.0555" x2="154.093" y2="52.4986" gradientUnits="userSpaceOnUse">
<stop stop-color="#BBF8E9"/>
<stop offset="1" stop-color="#3FECC1"/>
</linearGradient>
<linearGradient id="paint11_linear_5475_16987" x1="43.8188" y1="-87.3252" x2="156.55" y2="55.2291" gradientUnits="userSpaceOnUse">
<stop stop-color="#BBF8E9"/>
<stop offset="1" stop-color="#3FECC1"/>
</linearGradient>
<clipPath id="clip0_5475_16987">
<rect width="124" height="92" fill="white"/>
</clipPath>
</defs>
</svg>
