<svg width="85" height="90" viewBox="0 0 85 90" fill="none" xmlns="http://www.w3.org/2000/svg">
<g clip-path="url(#clip0_5475_17031)">
<path opacity="0.1" d="M0.723395 16.2125L0.723389 89.287H77.7632V16.2125H0.723395Z" stroke="url(#paint0_linear_5475_17031)" stroke-miterlimit="10"/>
<path opacity="0.2" d="M9.27051 10.031V79.4294H82.4353V10.031H9.27051Z" stroke="url(#paint1_linear_5475_17031)" stroke-miterlimit="10"/>
<path opacity="0.3" d="M17.8176 3.84933V69.5718H87.1067V3.84933H17.8176Z" stroke="url(#paint2_linear_5475_17031)" stroke-miterlimit="10"/>
<path opacity="0.4" d="M26.3741 -2.34174V59.7141H91.7976V-2.34174H26.3741Z" stroke="url(#paint3_linear_5475_17031)" stroke-miterlimit="10"/>
<path opacity="0.5" d="M34.9213 -8.52328V49.8569H96.4696V-8.52328H34.9213Z" stroke="url(#paint4_linear_5475_17031)" stroke-miterlimit="10"/>
<path opacity="0.6" d="M43.4681 -14.7048V39.9995H101.141V-14.7048H43.4681Z" stroke="url(#paint5_linear_5475_17031)" stroke-miterlimit="10"/>
<path d="M52.0154 -20.8773V30.1512H105.813V-20.8773H52.0154Z" stroke="url(#paint6_linear_5475_17031)" stroke-miterlimit="10"/>
<path d="M60.5719 -27.0588V20.2939H110.495V-27.0588H60.5719Z" stroke="url(#paint7_linear_5475_17031)" stroke-miterlimit="10"/>
</g>
<defs>
<linearGradient id="paint0_linear_5475_17031" x1="7.05544" y1="79.8288" x2="1.018" y2="25.5394" gradientUnits="userSpaceOnUse">
<stop stop-color="#1DE9B6"/>
<stop offset="1" stop-color="#1DC4E9"/>
</linearGradient>
<linearGradient id="paint1_linear_5475_17031" x1="15.284" y1="70.4471" x2="9.55032" y2="18.8887" gradientUnits="userSpaceOnUse">
<stop stop-color="#1DE9B6"/>
<stop offset="1" stop-color="#1DC4E9"/>
</linearGradient>
<linearGradient id="paint2_linear_5475_17031" x1="23.5126" y1="61.0659" x2="18.0826" y2="12.2379" gradientUnits="userSpaceOnUse">
<stop stop-color="#1DE9B6"/>
<stop offset="1" stop-color="#1DC4E9"/>
</linearGradient>
<linearGradient id="paint3_linear_5475_17031" x1="31.7515" y1="51.6825" x2="26.6244" y2="5.57884" gradientUnits="userSpaceOnUse">
<stop stop-color="#1DE9B6"/>
<stop offset="1" stop-color="#1DC4E9"/>
</linearGradient>
<linearGradient id="paint4_linear_5475_17031" x1="39.98" y1="42.3009" x2="35.1566" y2="-1.07186" gradientUnits="userSpaceOnUse">
<stop stop-color="#1DE9B6"/>
<stop offset="1" stop-color="#1DC4E9"/>
</linearGradient>
<linearGradient id="paint5_linear_5475_17031" x1="48.2084" y1="32.9192" x2="43.6887" y2="-7.72258" gradientUnits="userSpaceOnUse">
<stop stop-color="#1DE9B6"/>
<stop offset="1" stop-color="#1DC4E9"/>
</linearGradient>
<linearGradient id="paint6_linear_5475_17031" x1="56.4372" y1="23.5468" x2="52.2211" y2="-14.3642" gradientUnits="userSpaceOnUse">
<stop stop-color="#1DE9B6"/>
<stop offset="1" stop-color="#1DC4E9"/>
</linearGradient>
<linearGradient id="paint7_linear_5475_17031" x1="64.6755" y1="14.1651" x2="60.7629" y2="-21.0149" gradientUnits="userSpaceOnUse">
<stop stop-color="#1DE9B6"/>
<stop offset="1" stop-color="#1DC4E9"/>
</linearGradient>
<clipPath id="clip0_5475_17031">
<rect width="85" height="90" fill="white"/>
</clipPath>
</defs>
</svg>
