<svg width="97" height="98" viewBox="0 0 97 98" fill="none" xmlns="http://www.w3.org/2000/svg">
<g clip-path="url(#clip0_5475_16955)">
<path opacity="0.2" d="M120.678 -21.7707C175.256 8.82682 155.135 -10.6203 110.875 25.5638C72.4438 56.9782 91.7785 107.763 48.1198 83.2817C13.1893 63.6988 16.4108 15.1835 37.0297 -17.9953C53.5261 -44.5337 89.5505 -53.3467 117.501 -37.6819C139.856 -25.1487 147.282 2.22541 134.085 23.4562" stroke="url(#paint0_linear_5475_16955)" stroke-miterlimit="10"/>
<path opacity="0.3" d="M121.947 -23.6587C174.3 5.69168 154.437 -6.87309 112.59 28.6141C76.3689 59.2488 87.6929 101.899 45.8151 78.4213C12.3131 59.6389 20.6187 15.3484 40.3959 -16.468C56.2195 -41.9241 89.442 -54.5522 116.247 -39.5247C137.689 -27.5036 144.811 -1.24938 132.152 19.114" stroke="url(#paint1_linear_5475_16955)" stroke-miterlimit="10"/>
<path opacity="0.4" d="M123.217 -25.5408C173.337 2.55802 153.747 -3.12147 114.306 31.6703C80.2879 61.5209 83.6067 96.0345 43.515 73.5529C11.4414 55.5716 24.8311 15.5059 43.7713 -14.9555C58.9176 -39.3219 89.3364 -55.7709 115 -41.3882C135.529 -29.8791 142.347 -4.74489 130.228 14.7512" stroke="url(#paint2_linear_5475_16955)" stroke-miterlimit="10"/>
<path opacity="0.5" d="M124.485 -27.4288C172.373 -0.581515 153.056 0.624278 116.026 34.7191C84.213 63.7913 79.521 90.1697 41.2104 68.6919C10.5653 51.5117 29.0452 15.6692 47.136 -13.434C61.6096 -36.7182 89.2259 -56.9823 113.744 -43.2369C133.36 -32.2399 139.873 -8.22555 128.294 10.4032" stroke="url(#paint3_linear_5475_16955)" stroke-miterlimit="10"/>
<path opacity="0.6" d="M125.76 -29.3182C171.415 -3.72256 152.452 4.44915 117.746 37.7679C88.2091 66.1263 75.4331 84.2995 38.9104 63.8242C9.68584 47.44 33.2578 15.8267 50.5052 -11.92C64.3062 -34.1218 89.1144 -58.1994 112.493 -45.093C131.195 -34.6079 137.405 -11.7136 126.364 6.04781" stroke="url(#paint4_linear_5475_16955)" stroke-miterlimit="10"/>
<path opacity="0.7" d="M127.03 -31.2004C170.453 -6.85623 151.771 8.21105 119.469 40.8225C92.1433 68.407 71.3487 78.4414 36.6057 58.9633C8.80959 43.3801 37.4672 15.9974 53.8698 -10.3986C66.9977 -31.5181 89.0045 -59.4108 111.236 -46.9418C129.026 -36.9687 134.932 -15.1943 124.43 1.69979" stroke="url(#paint5_linear_5475_16955)" stroke-miterlimit="10"/>
<path opacity="0.7" d="M128.298 -33.0884C169.496 -9.99137 151.086 11.9553 121.185 43.8787C96.0703 70.6836 67.2631 72.5772 34.301 54.1026C7.93337 39.3202 41.675 16.1623 57.2407 -8.87868C69.6911 -28.9085 88.8941 -60.6221 109.991 -48.7994C126.867 -39.3384 132.471 -18.6781 122.507 -2.65712" stroke="url(#paint6_linear_5475_16955)" stroke-miterlimit="10"/>
<path opacity="0.6" d="M129.566 -34.9764C168.532 -13.131 150.395 15.701 122.899 46.929C99.9874 72.9497 63.1708 66.7143 31.9949 49.236C7.0556 35.2544 45.8814 16.3213 60.6037 -7.36315C72.3815 -26.3107 88.7824 -61.8392 108.734 -50.6541C124.696 -41.705 129.996 -22.1646 120.573 -7.00512" stroke="url(#paint7_linear_5475_16955)" stroke-miterlimit="10"/>
<path opacity="0.6" d="M130.841 -36.8658C167.575 -16.272 149.7 19.435 124.626 49.9763C103.91 75.2086 59.0848 60.8497 29.6964 44.3737C6.18558 31.193 50.0954 16.4846 63.9743 -5.84323C75.0799 -23.7085 88.6721 -63.0505 107.484 -52.5043C122.534 -44.0672 127.53 -25.6468 118.646 -11.3547" stroke="url(#paint8_linear_5475_16955)" stroke-miterlimit="10"/>
<path opacity="0.5" d="M132.11 -38.7479C166.612 -19.4056 148.985 23.1676 126.342 53.0325C107.818 77.4644 54.9988 54.9854 27.3979 39.5115C5.31552 27.1316 54.3156 16.6464 67.3515 -4.32482C77.7793 -21.1004 88.5744 -64.2649 106.241 -54.356C120.376 -46.4309 125.069 -29.1305 116.724 -15.7057" stroke="url(#paint9_linear_5475_16955)" stroke-miterlimit="10"/>
<path opacity="0.4" d="M133.379 -40.6359C165.655 -22.5409 148.204 26.8534 128.056 56.0828C111.671 79.6898 50.9131 49.1209 25.0918 34.6449C4.4379 23.0658 58.5221 16.8054 70.7149 -2.80929C80.4698 -18.5025 88.4567 -65.4804 104.982 -56.2166C118.204 -48.8035 122.593 -32.623 114.787 -20.0655" stroke="url(#paint10_linear_5475_16955)" stroke-miterlimit="10"/>
<path opacity="0.2" d="M134.647 -42.5239C164.691 -25.6804 147.512 30.5991 129.776 59.1316C115.59 81.9621 46.8253 43.2507 22.7915 29.7767C3.56609 18.9984 62.7358 16.9687 74.0836 -1.29528C83.1662 -15.9062 88.3511 -66.6997 103.736 -58.0742C116.046 -51.1732 120.132 -36.1067 112.864 -24.4224" stroke="url(#paint11_linear_5475_16955)" stroke-miterlimit="10"/>
</g>
<defs>
<linearGradient id="paint0_linear_5475_16955" x1="13.7902" y1="14.3952" x2="185.385" y2="60.555" gradientUnits="userSpaceOnUse">
<stop offset="0.00302487" stop-color="#F6CE55"/>
<stop offset="0.00312487" stop-color="#F21C0D"/>
<stop offset="0.164583" stop-color="#F5C73D"/>
<stop offset="0.315625" stop-color="#2AB6F7"/>
<stop offset="0.419792" stop-color="#1DE9B6"/>
<stop offset="0.586458" stop-color="#F55247"/>
<stop offset="0.711458" stop-color="#F7D56E"/>
<stop offset="0.961458" stop-color="#9FDFF5"/>
</linearGradient>
<linearGradient id="paint1_linear_5475_16955" x1="14.4197" y1="13.0898" x2="182.588" y2="61.0487" gradientUnits="userSpaceOnUse">
<stop offset="0.00302487" stop-color="#F6CE55"/>
<stop offset="0.00312487" stop-color="#F21C0D"/>
<stop offset="0.164583" stop-color="#F5C73D"/>
<stop offset="0.315625" stop-color="#2AB6F7"/>
<stop offset="0.419792" stop-color="#1DE9B6"/>
<stop offset="0.586458" stop-color="#F55247"/>
<stop offset="0.711458" stop-color="#F7D56E"/>
<stop offset="0.961458" stop-color="#9FDFF5"/>
</linearGradient>
<linearGradient id="paint2_linear_5475_16955" x1="14.8271" y1="11.6747" x2="179.893" y2="61.3249" gradientUnits="userSpaceOnUse">
<stop offset="0.00302487" stop-color="#F6CE55"/>
<stop offset="0.00312487" stop-color="#F21C0D"/>
<stop offset="0.164583" stop-color="#F5C73D"/>
<stop offset="0.315625" stop-color="#2AB6F7"/>
<stop offset="0.419792" stop-color="#1DE9B6"/>
<stop offset="0.586458" stop-color="#F55247"/>
<stop offset="0.711458" stop-color="#F7D56E"/>
<stop offset="0.961458" stop-color="#9FDFF5"/>
</linearGradient>
<linearGradient id="paint3_linear_5475_16955" x1="15.0255" y1="10.2069" x2="177.43" y2="61.3653" gradientUnits="userSpaceOnUse">
<stop offset="0.00302487" stop-color="#F6CE55"/>
<stop offset="0.00312487" stop-color="#F21C0D"/>
<stop offset="0.164583" stop-color="#F5C73D"/>
<stop offset="0.315625" stop-color="#2AB6F7"/>
<stop offset="0.419792" stop-color="#1DE9B6"/>
<stop offset="0.586458" stop-color="#F55247"/>
<stop offset="0.711458" stop-color="#F7D56E"/>
<stop offset="0.961458" stop-color="#9FDFF5"/>
</linearGradient>
<linearGradient id="paint4_linear_5475_16955" x1="15.0583" y1="8.7679" x2="175.44" y2="61.1204" gradientUnits="userSpaceOnUse">
<stop offset="0.00302487" stop-color="#F6CE55"/>
<stop offset="0.00312487" stop-color="#F21C0D"/>
<stop offset="0.164583" stop-color="#F5C73D"/>
<stop offset="0.315625" stop-color="#2AB6F7"/>
<stop offset="0.419792" stop-color="#1DE9B6"/>
<stop offset="0.586458" stop-color="#F55247"/>
<stop offset="0.711458" stop-color="#F7D56E"/>
<stop offset="0.961458" stop-color="#9FDFF5"/>
</linearGradient>
<linearGradient id="paint5_linear_5475_16955" x1="14.9695" y1="7.48902" x2="174.172" y2="60.5375" gradientUnits="userSpaceOnUse">
<stop offset="0.00302487" stop-color="#F6CE55"/>
<stop offset="0.00312487" stop-color="#F21C0D"/>
<stop offset="0.164583" stop-color="#F5C73D"/>
<stop offset="0.315625" stop-color="#2AB6F7"/>
<stop offset="0.419792" stop-color="#1DE9B6"/>
<stop offset="0.586458" stop-color="#F55247"/>
<stop offset="0.711458" stop-color="#F7D56E"/>
<stop offset="0.961458" stop-color="#9FDFF5"/>
</linearGradient>
<linearGradient id="paint6_linear_5475_16955" x1="14.8125" y1="6.49637" x2="173.937" y2="59.5832" gradientUnits="userSpaceOnUse">
<stop offset="0.00302487" stop-color="#F6CE55"/>
<stop offset="0.00312487" stop-color="#F21C0D"/>
<stop offset="0.164583" stop-color="#F5C73D"/>
<stop offset="0.315625" stop-color="#2AB6F7"/>
<stop offset="0.419792" stop-color="#1DE9B6"/>
<stop offset="0.586458" stop-color="#F55247"/>
<stop offset="0.711458" stop-color="#F7D56E"/>
<stop offset="0.961458" stop-color="#9FDFF5"/>
</linearGradient>
<linearGradient id="paint7_linear_5475_16955" x1="14.6113" y1="5.82445" x2="174.75" y2="58.2797" gradientUnits="userSpaceOnUse">
<stop offset="0.00302487" stop-color="#F6CE55"/>
<stop offset="0.00312487" stop-color="#F21C0D"/>
<stop offset="0.164583" stop-color="#F5C73D"/>
<stop offset="0.315625" stop-color="#2AB6F7"/>
<stop offset="0.419792" stop-color="#1DE9B6"/>
<stop offset="0.586458" stop-color="#F55247"/>
<stop offset="0.711458" stop-color="#F7D56E"/>
<stop offset="0.961458" stop-color="#9FDFF5"/>
</linearGradient>
<linearGradient id="paint8_linear_5475_16955" x1="14.3673" y1="5.40337" x2="176.333" y2="56.7445" gradientUnits="userSpaceOnUse">
<stop offset="0.00302487" stop-color="#F6CE55"/>
<stop offset="0.00312487" stop-color="#F21C0D"/>
<stop offset="0.164583" stop-color="#F5C73D"/>
<stop offset="0.315625" stop-color="#2AB6F7"/>
<stop offset="0.419792" stop-color="#1DE9B6"/>
<stop offset="0.586458" stop-color="#F55247"/>
<stop offset="0.711458" stop-color="#F7D56E"/>
<stop offset="0.961458" stop-color="#9FDFF5"/>
</linearGradient>
<linearGradient id="paint9_linear_5475_16955" x1="14.0604" y1="5.13437" x2="178.355" y2="55.0775" gradientUnits="userSpaceOnUse">
<stop offset="0.00302487" stop-color="#F6CE55"/>
<stop offset="0.00312487" stop-color="#F21C0D"/>
<stop offset="0.164583" stop-color="#F5C73D"/>
<stop offset="0.315625" stop-color="#2AB6F7"/>
<stop offset="0.419792" stop-color="#1DE9B6"/>
<stop offset="0.586458" stop-color="#F55247"/>
<stop offset="0.711458" stop-color="#F7D56E"/>
<stop offset="0.961458" stop-color="#9FDFF5"/>
</linearGradient>
<linearGradient id="paint10_linear_5475_16955" x1="13.6736" y1="4.93961" x2="180.594" y2="53.3638" gradientUnits="userSpaceOnUse">
<stop offset="0.00302487" stop-color="#F6CE55"/>
<stop offset="0.00312487" stop-color="#F21C0D"/>
<stop offset="0.164583" stop-color="#F5C73D"/>
<stop offset="0.315625" stop-color="#2AB6F7"/>
<stop offset="0.419792" stop-color="#1DE9B6"/>
<stop offset="0.586458" stop-color="#F55247"/>
<stop offset="0.711458" stop-color="#F7D56E"/>
<stop offset="0.961458" stop-color="#9FDFF5"/>
</linearGradient>
<linearGradient id="paint11_linear_5475_16955" x1="13.2251" y1="4.79988" x2="182.961" y2="51.666" gradientUnits="userSpaceOnUse">
<stop offset="0.00302487" stop-color="#F6CE55"/>
<stop offset="0.00312487" stop-color="#F21C0D"/>
<stop offset="0.164583" stop-color="#F5C73D"/>
<stop offset="0.315625" stop-color="#2AB6F7"/>
<stop offset="0.419792" stop-color="#1DE9B6"/>
<stop offset="0.586458" stop-color="#F55247"/>
<stop offset="0.711458" stop-color="#F7D56E"/>
<stop offset="0.961458" stop-color="#9FDFF5"/>
</linearGradient>
<clipPath id="clip0_5475_16955">
<rect width="97" height="98" fill="white"/>
</clipPath>
</defs>
</svg>
