<svg width="48" height="43" viewBox="0 0 48 43" fill="none" xmlns="http://www.w3.org/2000/svg">
<path d="M21.1387 4.07325C22.6486 4.12917 24.1678 4.16645 25.687 4.11985C26.1437 4.10587 26.5958 4.08723 27.0525 4.07325C27.0105 4.07325 26.9686 4.06858 26.9266 4.06392C25.0066 3.94742 23.0587 3.96606 21.1433 4.07325" fill="#EEEEEE"/>
<path d="M44.5191 3.77654C44.5191 3.77654 33.9917 5.36101 30.8181 11.3773C30.7622 11.1909 30.436 8.38082 30.3567 7.36489C30.3055 6.71713 30.1004 5.38431 29.7276 4.83906C29.5132 4.52217 28.9773 4.35906 28.3296 4.22858C28.2876 3.52489 28.2177 3.02624 28.0919 2.73265C28.0173 2.56022 27.8216 2.4111 27.5373 2.28527C27.5373 2.24799 27.542 2.20605 27.542 2.16877V1.78663C27.542 1.11556 26.9967 0.570312 26.3257 0.570312H21.8565C21.1855 0.570312 20.6402 1.11556 20.6402 1.78663V2.16877C20.6402 2.20605 20.6402 2.24333 20.6449 2.28061C20.3979 2.3878 20.2255 2.51828 20.1509 2.66275C19.9692 3.02158 19.8666 3.56217 19.82 4.18197C19.1117 4.3078 18.7342 4.38702 18.4453 4.6713C17.914 5.20256 17.7649 6.5913 17.695 7.26237C17.5925 8.21305 17.3082 10.9439 17.3082 11.0698C16.7909 10.1144 16.1664 9.28956 15.4674 8.56723C15.267 8.35752 15.0573 8.16179 14.8476 7.97072C10.3459 3.93032 3.60254 3.77188 3.60254 3.77188C11.1987 7.86354 13.6546 9.84879 15.761 18.9688C16.3249 21.4014 17.1777 23.368 18.1237 24.9432C18.2309 26.1875 18.3567 27.2733 18.4919 27.9257C19.0371 30.5075 19.3913 33.1172 20.123 35.6617C20.8593 38.2062 21.9964 40.718 23.935 42.7498C24.9463 41.3145 25.8037 39.7953 26.4934 38.2294C27.4907 35.9553 28.2643 33.3549 28.6185 31.6865C28.8795 30.4609 29.3967 28.0096 29.5692 26.77C29.6251 26.3646 29.6857 25.8799 29.7416 25.3486C30.7901 23.7082 31.7455 21.6158 32.356 18.9688C34.4624 9.85345 36.9136 7.86354 44.5144 3.77188M17.1497 18.9828C16.996 17.6267 16.8748 16.2566 16.5532 14.9238C16.1338 13.549 15.8402 12.6216 15.034 11.6103C14.7777 11.2795 14.5121 10.9579 14.2464 10.641C14.4095 10.8088 14.5727 10.9766 14.7358 11.149C15.7843 12.2441 16.5113 13.0969 17.0705 14.3552C17.1497 14.5323 17.4573 15.236 17.653 16.2053C17.7602 16.7179 17.7789 17.0488 17.8581 17.9436C17.8721 18.116 18.0165 19.761 18.0864 20.4135C18.1703 21.1871 18.3474 22.2962 18.7575 23.6523C18.0771 22.1564 17.3408 20.6325 17.1451 18.9828M27.7843 22.3521C27.5467 23.657 27.3229 26.3832 27.1505 27.7207C26.9128 29.5475 26.4002 32.3855 25.7338 34.8694C25.2725 36.5844 24.6993 38.2388 24.0235 39.8093C22.728 37.5863 21.9684 34.8461 21.4791 32.064C20.9897 29.2818 20.7521 26.4298 20.3886 23.615C20.1509 21.7649 20.0763 20.8143 20.0111 19.803C19.8526 17.3517 19.8806 15.1894 19.9086 13.055C19.9226 11.8247 19.9458 11.3121 19.9505 9.8115C19.9552 7.72839 19.9505 6.84761 19.9505 6.84761C19.9319 4.2379 19.8713 2.8911 20.5656 2.55557C20.6542 2.51362 20.7334 2.49498 20.78 2.49032V1.77731C20.78 1.18547 21.26 0.71012 21.8472 0.71012H26.3257C26.9175 0.71012 27.3929 1.19013 27.3929 1.77731V2.481C27.6212 2.59284 27.7797 2.72799 27.8402 2.88178C28.255 3.86508 28.0173 7.11791 28.2317 13.083C28.3156 15.4038 27.9521 21.4201 27.7843 22.3521ZM30.8694 18.9828C30.6736 20.6325 29.9373 22.1564 29.2569 23.6523C29.667 22.2962 29.8441 21.1871 29.928 20.4135C29.9979 19.7564 30.1424 18.1113 30.1563 17.9436C30.2356 17.0488 30.2542 16.7179 30.3614 16.2053C30.5618 15.236 30.8647 14.5323 30.9439 14.3552C31.5031 13.0969 32.2301 12.2441 33.2787 11.149C33.4418 10.9812 33.6049 10.8134 33.768 10.641C33.5024 10.9626 33.2367 11.2841 32.9804 11.6103C32.1742 12.6216 31.8806 13.549 31.4612 14.9238C31.1396 16.2566 31.0185 17.6267 30.8647 18.9828" fill="#EEEEEE"/>
<path d="M22.1872 32.2908C22.6113 34.4857 23.096 35.3386 23.6319 37.4263L21.6094 26.8477C21.6793 28.2271 21.9263 30.9347 22.1919 32.2908" fill="#EEEEEE"/>
<path d="M25.6219 32.4001C25.8875 31.044 26.1299 28.3365 26.2044 26.957L24.1819 37.5357C24.7178 35.4479 25.1978 34.5951 25.6266 32.4001" fill="#EEEEEE"/>
<path d="M24.8019 8.28906H23.3293C22.4904 8.28906 21.8101 8.96945 21.8101 9.80829V22.4281C21.8101 23.267 22.4904 23.9474 23.3293 23.9474H24.8019C25.6407 23.9474 26.3211 23.267 26.3211 22.4281V9.80829C26.3211 8.96945 25.6407 8.28906 24.8019 8.28906Z" fill="#EEEEEE"/>
<path d="M21.8141 3.79928C21.8141 3.79928 21.8141 3.75733 21.8141 3.73869C21.8654 2.83461 21.8561 1.91189 21.8141 1.00781C21.7908 1.72082 21.7769 2.4385 21.7955 3.15617C21.8002 3.37054 21.8095 3.58491 21.8141 3.79928Z" fill="#EEEEEE"/>
<path d="M21.3947 3.79928C21.3947 3.79928 21.3947 3.75733 21.3947 3.73869C21.446 2.83461 21.4366 1.91189 21.3947 1.00781C21.3714 1.72082 21.3574 2.4385 21.3761 3.15617C21.3807 3.37054 21.39 3.58491 21.3947 3.79928Z" fill="#EEEEEE"/>
<path d="M22.6486 3.79928C22.6486 3.79928 22.6486 3.75733 22.6486 3.73869C22.6999 2.83461 22.6906 1.91189 22.6486 1.00781C22.6253 1.72082 22.6113 2.4385 22.63 3.15617C22.6346 3.37054 22.644 3.58491 22.6486 3.79928Z" fill="#EEEEEE"/>
<path d="M22.2338 3.79928C22.2338 3.79928 22.2338 3.75733 22.2338 3.73869C22.2851 2.83461 22.2758 1.91189 22.2338 1.00781C22.2105 1.72082 22.1965 2.4385 22.2152 3.15617C22.2198 3.37054 22.2292 3.58491 22.2338 3.79928Z" fill="#EEEEEE"/>
<path d="M23.4828 3.79928C23.4828 3.79928 23.4828 3.75733 23.4828 3.73869C23.5341 2.83461 23.5248 1.91189 23.4828 1.00781C23.4595 1.72082 23.4456 2.4385 23.4642 3.15617C23.4689 3.37054 23.4782 3.58491 23.4828 3.79928Z" fill="#EEEEEE"/>
<path d="M23.068 3.79928C23.068 3.79928 23.068 3.75733 23.068 3.73869C23.1193 2.83461 23.11 1.91189 23.068 1.00781C23.0447 1.72082 23.0308 2.4385 23.0494 3.15617C23.0541 3.37054 23.0634 3.58491 23.068 3.79928Z" fill="#EEEEEE"/>
<path d="M24.3217 3.79928C24.3217 3.79928 24.3217 3.75733 24.3217 3.73869C24.373 2.83461 24.3636 1.91189 24.3217 1.00781C24.2984 1.72082 24.2844 2.4385 24.3031 3.15617C24.3077 3.37054 24.317 3.58491 24.3217 3.79928Z" fill="#EEEEEE"/>
<path d="M23.9023 3.79928C23.9023 3.79928 23.9023 3.75733 23.9023 3.73869C23.9536 2.83461 23.9442 1.91189 23.9023 1.00781C23.879 1.72082 23.865 2.4385 23.8836 3.15617C23.8883 3.37054 23.8976 3.58491 23.9023 3.79928Z" fill="#EEEEEE"/>
<path d="M25.156 3.79928C25.156 3.79928 25.156 3.75733 25.156 3.73869C25.2072 2.83461 25.1979 1.91189 25.156 1.00781C25.1327 1.72082 25.1187 2.4385 25.1373 3.15617C25.142 3.37054 25.1513 3.58491 25.156 3.79928Z" fill="#EEEEEE"/>
<path d="M24.7363 3.79928C24.7363 3.79928 24.7363 3.75733 24.7363 3.73869C24.7875 2.83461 24.7782 1.91189 24.7363 1.00781C24.713 1.72082 24.699 2.4385 24.7176 3.15617C24.7223 3.37054 24.7316 3.58491 24.7363 3.79928Z" fill="#EEEEEE"/>
<path d="M25.9899 3.79928C25.9899 3.79928 25.9899 3.75733 25.9899 3.73869C26.0412 2.83461 26.0319 1.91189 25.9899 1.00781C25.9666 1.72082 25.9526 2.4385 25.9713 3.15617C25.9759 3.37054 25.9853 3.58491 25.9899 3.79928Z" fill="#EEEEEE"/>
<path d="M25.5705 3.79928C25.5705 3.79928 25.5705 3.75733 25.5705 3.73869C25.6218 2.83461 25.6124 1.91189 25.5705 1.00781C25.5472 1.72082 25.5332 2.4385 25.5518 3.15617C25.5565 3.37054 25.5658 3.58491 25.5705 3.79928Z" fill="#EEEEEE"/>
<path d="M26.801 3.79928C26.801 3.79928 26.801 3.75733 26.801 3.73869C26.8522 2.83461 26.8429 1.91189 26.801 1.00781C26.7777 1.72082 26.7637 2.4385 26.7823 3.15617C26.787 3.37054 26.7963 3.58491 26.801 3.79928Z" fill="#EEEEEE"/>
<path d="M26.3862 3.79928C26.3862 3.79928 26.3862 3.75733 26.3862 3.73869C26.4374 2.83461 26.4281 1.91189 26.3862 1.00781C26.3629 1.72082 26.3489 2.4385 26.3675 3.15617C26.3722 3.37054 26.3815 3.58491 26.3862 3.79928Z" fill="#EEEEEE"/>
<path d="M37.3794 14.8547C37.0532 15.0645 36.727 15.2788 36.4381 15.5398C36.2377 15.7355 36.0559 15.9499 35.8882 16.1782C35.506 16.7002 35.1985 17.2687 34.8024 17.7814C34.3597 18.3266 33.8377 18.7973 33.353 19.3006C34.2198 18.7227 35.1286 18.1495 35.7857 17.3247C36.3262 16.6443 36.8482 15.9452 37.468 15.3347C38.153 14.7336 38.6237 14.3328 39.3973 14.0578C39.6443 13.9646 39.896 13.8808 40.1476 13.7969C40.0031 13.8342 39.8587 13.8714 39.7142 13.9041C38.8894 14.0951 38.0925 14.3887 37.3794 14.8501" fill="#EEEEEE"/>
<path d="M47.9999 6.10547C47.7343 6.11945 47.4734 6.13809 47.2077 6.15207C45.6978 6.21266 44.2671 6.45499 43.0462 6.98159C42.4823 7.21926 41.9324 7.47557 41.457 7.80644C41.1355 8.06741 40.8466 8.35635 40.5996 8.67324C40.0264 9.40023 39.6116 10.2298 39.0058 10.9288C38.33 11.6744 37.4725 12.2802 36.7036 12.9513C38.1809 12.2756 39.7374 11.6185 40.744 10.4907C41.5689 9.55402 42.3564 8.5847 43.3537 7.7878C44.4815 7.02353 45.2551 6.51557 46.6438 6.3012C47.0912 6.22663 47.5433 6.16605 47.9953 6.10547" fill="#EEEEEE"/>
<path d="M9.72136 15.534C10.3412 16.1444 10.8631 16.8435 11.4037 17.5192C12.0608 18.3441 12.9695 18.9173 13.8363 19.4951C13.3516 18.9918 12.8297 18.5212 12.387 17.9759C11.9909 17.4679 11.6833 16.8947 11.3011 16.3728C11.1334 16.1444 10.9516 15.9301 10.7512 15.7343C10.4623 15.4734 10.1361 15.259 9.80991 15.0493C9.0969 14.5926 8.3 14.2943 7.47514 14.1033C7.33068 14.066 7.18621 14.0287 7.04175 13.9961C7.2934 14.08 7.54504 14.1639 7.79203 14.2571C8.56563 14.532 9.03165 14.9328 9.72136 15.534Z" fill="#EEEEEE"/>
<path d="M11.2963 12.8458C10.5274 12.1748 9.66994 11.5736 8.99421 10.8233C8.38838 10.1243 7.9736 9.2901 7.4004 8.56777C7.15341 8.25088 6.86449 7.96194 6.54294 7.70097C6.0676 7.3701 5.51768 7.11378 4.95379 6.87611C3.73282 6.34951 2.30214 6.10718 0.79224 6.0466C0.531268 6.02796 0.265631 6.01398 0 6C0.452039 6.06058 0.90409 6.12116 1.35147 6.19573C2.74021 6.4101 3.5138 6.91806 4.64157 7.68233C5.64351 8.47923 6.42641 9.44855 7.25127 10.3853C8.25787 11.5177 9.8144 12.1748 11.2917 12.8458" fill="#EEEEEE"/>
</svg>
