<?xml version="1.0" encoding="UTF-8"?>
<svg id="Layer_1" data-name="Layer 1" xmlns="http://www.w3.org/2000/svg" viewBox="0 0 184.27 161.96">
  <defs>
    <style>
      .cls-1 {
        fill: #005a64;
      }
    </style>
  </defs>
  <path class="cls-1" d="M81.13,13.45c5.8,.21,11.64,.35,17.45,.18,1.75-.05,3.49-.12,5.24-.19-.16,0-.32-.02-.49-.03-7.37-.45-14.84-.37-22.21,.04"/>
  <path class="cls-1" d="M170.9,12.3s-40.42,6.09-52.59,29.17c-.22-.71-1.46-11.51-1.77-15.4-.2-2.49-.98-7.61-2.42-9.7-.83-1.21-2.88-1.85-5.37-2.34-.15-2.71-.42-4.61-.92-5.74-.29-.66-1.04-1.23-2.13-1.71,.01-.15,.02-.3,.02-.45v-1.46c0-2.58-2.09-4.67-4.67-4.67h-17.15c-2.58,0-4.67,2.09-4.67,4.67v1.46c0,.15,0,.29,.02,.44-.94,.42-1.61,.91-1.89,1.47-.71,1.38-1.09,3.46-1.28,5.83-2.71,.48-4.17,.78-5.28,1.88-2.04,2.04-2.61,7.37-2.88,9.95-.39,3.65-1.48,14.13-1.48,14.62-1.98-3.66-4.38-6.84-7.06-9.61-.77-.8-1.57-1.56-2.38-2.29C39.73,12.91,13.84,12.3,13.84,12.3c29.17,15.71,38.59,23.34,46.67,58.34,2.16,9.35,5.43,16.89,9.08,22.94,.41,4.77,.89,8.95,1.42,11.45,2.09,9.91,3.45,19.93,6.27,29.71,2.82,9.77,7.2,19.41,14.63,27.22,3.89-5.51,7.18-11.34,9.83-17.36,3.83-8.73,6.8-18.71,8.15-25.13,.99-4.71,2.98-14.12,3.65-18.88,.22-1.55,.44-3.41,.66-5.46,4.02-6.3,7.69-14.34,10.03-24.49,8.08-35,17.5-42.63,46.67-58.34m-105.06,58.39c-.6-5.21-1.05-10.47-2.29-15.58-1.61-5.28-2.73-8.84-5.83-12.72-.98-1.26-2-2.5-3.03-3.73,.62,.65,1.25,1.29,1.87,1.94,4.03,4.2,6.82,7.48,8.97,12.31,.3,.68,1.48,3.39,2.24,7.11,.4,1.97,.49,3.23,.78,6.67,.06,.66,.6,6.98,.88,9.49,.33,2.97,1.01,7.23,2.58,12.44-2.61-5.74-5.43-11.59-6.18-17.92m40.85,12.94c-.92,5.02-1.77,15.48-2.44,20.62-.9,7.01-2.88,17.9-5.45,27.44-1.77,6.58-3.96,12.94-6.56,18.96-4.97-8.53-7.89-19.05-9.77-29.73-1.88-10.67-2.79-21.63-4.19-32.44-.92-7.1-1.2-10.75-1.45-14.63-.6-9.4-.49-17.7-.39-25.91,.06-4.73,.15-6.69,.17-12.45,.02-8,0-11.38,0-11.38-.07-10.01-.31-15.19,2.35-16.47,.34-.16,.65-.23,.83-.26v-2.74c0-2.27,1.84-4.1,4.1-4.1h17.19c2.27,0,4.1,1.84,4.1,4.1v2.7c.87,.44,1.48,.95,1.73,1.54,1.58,3.78,.69,16.26,1.51,39.17,.32,8.9-1.07,32.01-1.72,35.58m11.85-12.94c-.75,6.33-3.57,12.18-6.18,17.92,1.57-5.21,2.25-9.47,2.58-12.44,.28-2.52,.82-8.83,.88-9.49,.3-3.43,.38-4.7,.79-6.67,.76-3.72,1.94-6.43,2.24-7.11,2.15-4.83,4.94-8.1,8.97-12.31,.62-.65,1.25-1.29,1.87-1.94-1.03,1.23-2.04,2.47-3.03,3.73-3.09,3.89-4.21,7.44-5.83,12.72-1.24,5.11-1.69,10.37-2.29,15.58"/>
  <path class="cls-1" d="M85.17,121.79c1.64,8.43,3.49,11.69,5.54,19.71l-7.77-40.61c.27,5.29,1.22,15.69,2.23,20.9"/>
  <path class="cls-1" d="M98.35,122.2c1.01-5.21,1.95-15.61,2.23-20.9l-7.77,40.61c2.05-8.02,3.9-11.28,5.54-19.71"/>
  <path class="cls-1" d="M95.2,29.63h-5.65c-3.22,0-5.83,2.61-5.83,5.83v48.45c0,3.22,2.61,5.83,5.83,5.83h5.65c3.22,0,5.83-2.61,5.83-5.83V35.46c0-3.22-2.61-5.83-5.83-5.83"/>
  <path class="cls-1" d="M83.73,12.4c0-.08,0-.15,.01-.23,.19-3.48,.16-7.01-.02-10.48-.09,2.74-.15,5.49-.08,8.24,.02,.83,.05,1.65,.08,2.47"/>
  <path class="cls-1" d="M82.13,12.4c0-.08,0-.15,.01-.23,.19-3.48,.16-7.01-.02-10.48-.09,2.74-.15,5.49-.08,8.24,.02,.83,.05,1.65,.08,2.47"/>
  <path class="cls-1" d="M86.94,12.4c0-.08,0-.15,.01-.23,.19-3.48,.16-7.01-.02-10.48-.09,2.74-.15,5.49-.08,8.24,.02,.83,.05,1.65,.08,2.47"/>
  <path class="cls-1" d="M85.34,12.4c0-.08,0-.15,.01-.23,.19-3.48,.16-7.01-.02-10.48-.09,2.74-.15,5.49-.08,8.24,.02,.83,.05,1.65,.08,2.47"/>
  <path class="cls-1" d="M90.14,12.4c0-.08,0-.15,.01-.23,.19-3.48,.16-7.01-.02-10.48-.09,2.74-.15,5.49-.08,8.24,.02,.83,.05,1.65,.08,2.47"/>
  <path class="cls-1" d="M88.54,12.4c0-.08,0-.15,.01-.23,.19-3.48,.16-7.01-.02-10.48-.09,2.74-.15,5.49-.08,8.24,.02,.83,.05,1.65,.08,2.47"/>
  <path class="cls-1" d="M93.35,12.4c0-.08,0-.15,.01-.23,.19-3.48,.16-7.01-.02-10.48-.09,2.74-.15,5.49-.08,8.24,.02,.83,.05,1.65,.08,2.47"/>
  <path class="cls-1" d="M91.75,12.4c0-.08,0-.15,.01-.23,.19-3.48,.16-7.01-.02-10.48-.09,2.74-.15,5.49-.08,8.24,.02,.83,.05,1.65,.08,2.47"/>
  <path class="cls-1" d="M96.56,12.4c0-.08,0-.15,.01-.23,.19-3.48,.16-7.01-.02-10.48-.09,2.74-.15,5.49-.08,8.24,.02,.83,.05,1.65,.08,2.47"/>
  <path class="cls-1" d="M94.95,12.4c0-.08,0-.15,.01-.23,.19-3.48,.16-7.01-.02-10.48-.09,2.74-.15,5.49-.08,8.24,.02,.83,.05,1.65,.08,2.47"/>
  <path class="cls-1" d="M99.76,12.4c0-.08,0-.15,.01-.23,.19-3.48,.16-7.01-.02-10.48-.09,2.74-.15,5.49-.08,8.24,.02,.83,.05,1.65,.08,2.47"/>
  <path class="cls-1" d="M98.16,12.4c0-.08,0-.15,.01-.23,.19-3.48,.16-7.01-.02-10.48-.09,2.74-.15,5.49-.08,8.24,.02,.83,.05,1.65,.08,2.47"/>
  <path class="cls-1" d="M102.88,12.4c0-.08,0-.15,.01-.23,.19-3.48,.16-7.01-.02-10.48-.09,2.74-.15,5.49-.08,8.24,.02,.83,.05,1.65,.08,2.47"/>
  <path class="cls-1" d="M101.28,12.4c0-.08,0-.15,.01-.23,.19-3.48,.16-7.01-.02-10.48-.09,2.74-.15,5.49-.08,8.24,.02,.83,.05,1.65,.08,2.47"/>
  <path class="cls-1" d="M143.48,54.82c-1.26,.8-2.5,1.63-3.62,2.63-.77,.76-1.47,1.58-2.11,2.45-1.47,2-2.64,4.2-4.17,6.15-1.69,2.09-3.7,3.9-5.56,5.84,3.33-2.22,6.81-4.42,9.34-7.59,2.07-2.61,4.07-5.29,6.46-7.63,2.64-2.3,4.43-3.84,7.4-4.9,.95-.35,1.92-.68,2.88-.99-.55,.14-1.11,.28-1.66,.42-3.16,.73-6.22,1.87-8.96,3.63"/>
  <path class="cls-1" d="M184.27,21.25c-1.01,.06-2.02,.12-3.04,.18-5.79,.24-11.28,1.17-15.97,3.19-2.16,.91-4.28,1.89-6.1,3.16-1.24,.99-2.34,2.11-3.29,3.33-2.2,2.78-3.79,5.97-6.12,8.66-2.6,2.87-5.89,5.18-8.84,7.76,5.68-2.59,11.65-5.11,15.52-9.45,3.16-3.59,6.18-7.32,10.02-10.38,4.34-2.93,7.3-4.88,12.63-5.71,1.71-.28,3.45-.52,5.19-.75"/>
  <path class="cls-1" d="M37.31,57.44c2.38,2.34,4.39,5.02,6.46,7.63,2.52,3.16,6,5.37,9.33,7.59-1.86-1.94-3.87-3.74-5.56-5.84-1.53-1.95-2.71-4.15-4.17-6.15-.64-.87-1.34-1.7-2.11-2.45-1.11-1-2.36-1.83-3.62-2.63-2.74-1.76-5.8-2.9-8.96-3.63-.55-.14-1.11-.28-1.66-.42,.96,.32,1.93,.64,2.88,.99,2.97,1.06,4.76,2.6,7.4,4.9"/>
  <path class="cls-1" d="M43.36,47.12c-2.96-2.57-6.25-4.89-8.84-7.76-2.33-2.69-3.92-5.88-6.12-8.66-.95-1.22-2.05-2.33-3.29-3.33-1.82-1.27-3.95-2.25-6.1-3.16-4.69-2.02-10.17-2.95-15.97-3.19-1.01-.06-2.02-.12-3.03-.18,1.74,.23,3.47,.47,5.19,.75,5.34,.83,8.3,2.78,12.63,5.71,3.84,3.06,6.86,6.79,10.02,10.38,3.87,4.34,9.84,6.86,15.52,9.45"/>
</svg>