<svg width="69" height="60" viewBox="0 0 69 60" fill="none" xmlns="http://www.w3.org/2000/svg">
<path d="M30.0703 4.98579C32.2181 5.06534 34.3792 5.11838 36.5403 5.05209C37.1899 5.0322 37.8329 5.00568 38.4826 4.98579C38.4229 4.98579 38.3633 4.97916 38.3036 4.97253C35.5724 4.8068 32.8015 4.83332 30.0769 4.98579" fill="#005A64"/>
<path d="M63.3281 4.56082C63.3281 4.56082 48.3531 6.81472 43.8387 15.3729C43.7591 15.1077 43.2951 11.1104 43.1824 9.66523C43.1095 8.74379 42.8178 6.84786 42.2875 6.07226C41.9826 5.62148 41.2202 5.38946 40.2988 5.20385C40.2391 4.20285 40.1397 3.49354 39.9607 3.0759C39.8546 2.83063 39.5762 2.6185 39.1718 2.43951C39.1718 2.38648 39.1785 2.32682 39.1785 2.27379V1.7302C39.1785 0.775605 38.4029 0 37.4483 0H31.091C30.1364 0 29.3608 0.775605 29.3608 1.7302V2.27379C29.3608 2.32682 29.3608 2.37986 29.3675 2.43289C29.0161 2.58536 28.7709 2.77097 28.6648 2.97647C28.4063 3.48691 28.2604 4.25588 28.1941 5.13755C27.1865 5.31654 26.6495 5.42924 26.2385 5.83361C25.4828 6.58933 25.2707 8.5648 25.1713 9.51939C25.0254 10.8717 24.621 14.7564 24.621 14.9354C23.8852 13.5764 22.9969 12.4031 22.0026 11.3755C21.7175 11.0772 21.4192 10.7988 21.1209 10.527C14.7173 4.77958 5.125 4.5542 5.125 4.5542C15.9304 10.3745 19.4239 13.1985 22.4202 26.1717C23.2223 29.6321 24.4354 32.4296 25.7811 34.6702C25.9336 36.4402 26.1126 37.9848 26.3049 38.9128C27.0805 42.5854 27.5843 46.2977 28.625 49.9171C29.6724 53.5366 31.2899 57.1097 34.0476 60C35.4861 57.9582 36.7058 55.7971 37.6869 53.5698C39.1056 50.3348 40.206 46.6357 40.7098 44.2625C41.081 42.5191 41.8168 39.0321 42.0621 37.2688C42.1417 36.6921 42.2278 36.0027 42.3074 35.2469C43.7989 32.9135 45.1579 29.937 46.0263 26.1717C49.0226 13.2052 52.5095 10.3745 63.3215 4.5542M24.3957 26.1916C24.1769 24.2625 24.0045 22.3136 23.5471 20.4176C22.9505 18.462 22.5329 17.1429 21.3861 15.7043C21.0215 15.2337 20.6436 14.7763 20.2657 14.3255C20.4978 14.5641 20.7298 14.8028 20.9618 15.0481C22.4534 16.6059 23.4875 17.819 24.283 19.6089C24.3957 19.8608 24.8332 20.8618 25.1116 22.2406C25.2641 22.9698 25.2906 23.4405 25.4033 24.7133C25.4232 24.9586 25.6287 27.2986 25.7281 28.2267C25.8474 29.3271 26.0993 30.9049 26.6827 32.8339C25.7148 30.706 24.6675 28.5383 24.389 26.1916M39.5232 30.9844C39.1851 32.8406 38.8669 36.7186 38.6216 38.6212C38.2835 41.2198 37.5544 45.2569 36.6064 48.7902C35.9501 51.2297 35.1348 53.583 34.1735 55.817C32.3307 52.655 31.2501 48.757 30.5541 44.7995C29.858 40.8419 29.5199 36.7849 29.0028 32.7809C28.6648 30.1492 28.5587 28.7968 28.4659 27.3583C28.2405 23.8714 28.2803 20.7955 28.3201 17.7594C28.34 16.0093 28.3731 15.2801 28.3797 13.1455C28.3863 10.1823 28.3797 8.9294 28.3797 8.9294C28.3532 5.2171 28.267 3.3013 29.2548 2.824C29.3807 2.76434 29.4934 2.73783 29.5597 2.7312V1.71694C29.5597 0.875049 30.2425 0.198875 31.0777 0.198875H37.4483C38.2902 0.198875 38.9663 0.881678 38.9663 1.71694V2.71794C39.2912 2.87703 39.5166 3.06928 39.6027 3.28804C40.1927 4.68678 39.8546 9.31389 40.1596 17.7991C40.2789 21.1004 39.7618 29.6586 39.5232 30.9844ZM43.9116 26.1916C43.6332 28.5383 42.5858 30.706 41.618 32.8339C42.2013 30.9049 42.4532 29.3271 42.5726 28.2267C42.672 27.292 42.8775 24.9519 42.8974 24.7133C43.0101 23.4405 43.0366 22.9698 43.1891 22.2406C43.4741 20.8618 43.905 19.8608 44.0177 19.6089C44.8132 17.819 45.8473 16.6059 47.3388 15.0481C47.5709 14.8094 47.8029 14.5708 48.0349 14.3255C47.657 14.7829 47.2792 15.2403 46.9146 15.7043C45.7678 17.1429 45.3501 18.462 44.7535 20.4176C44.2961 22.3136 44.1238 24.2625 43.905 26.1916" fill="#005A64"/>
<path d="M31.5622 45.1246C32.1655 48.2469 32.8549 49.46 33.6172 52.4299L30.7402 37.3818C30.8397 39.344 31.191 43.1956 31.5689 45.1246" fill="#005A64"/>
<path d="M36.4468 45.278C36.8247 43.3489 37.1694 39.4974 37.2754 37.5352L34.3984 52.5832C35.1608 49.6134 35.8436 48.4003 36.4534 45.278" fill="#005A64"/>
<path d="M35.2793 10.9795H33.1845C31.9912 10.9795 31.0234 11.9473 31.0234 13.1406V31.0922C31.0234 32.2854 31.9912 33.2533 33.1845 33.2533H35.2793C36.4725 33.2533 37.4403 32.2854 37.4403 31.0922V13.1406C37.4403 11.9473 36.4725 10.9795 35.2793 10.9795Z" fill="#005A64"/>
<path d="M31.031 4.59583C31.031 4.59583 31.031 4.53617 31.031 4.50965C31.1039 3.22361 31.0906 1.91105 31.031 0.625C30.9978 1.63925 30.978 2.66013 31.0045 3.68102C31.0111 3.98595 31.0244 4.2909 31.031 4.59583Z" fill="#005A64"/>
<path d="M30.4353 4.59583C30.4353 4.59583 30.4353 4.53617 30.4353 4.50965C30.5082 3.22361 30.495 1.91105 30.4353 0.625C30.4022 1.63925 30.3823 2.66013 30.4088 3.68102C30.4154 3.98595 30.4287 4.2909 30.4353 4.59583Z" fill="#005A64"/>
<path d="M32.2185 4.59583C32.2185 4.59583 32.2185 4.53617 32.2185 4.50965C32.2915 3.22361 32.2782 1.91105 32.2185 0.625C32.1854 1.63925 32.1655 2.66013 32.192 3.68102C32.1986 3.98595 32.2119 4.2909 32.2185 4.59583Z" fill="#005A64"/>
<path d="M31.6267 4.59583C31.6267 4.59583 31.6267 4.53617 31.6267 4.50965C31.6996 3.22361 31.6863 1.91105 31.6267 0.625C31.5935 1.63925 31.5736 2.66013 31.6002 3.68102C31.6068 3.98595 31.62 4.2909 31.6267 4.59583Z" fill="#005A64"/>
<path d="M33.404 4.59583C33.404 4.59583 33.404 4.53617 33.404 4.50965C33.4769 3.22361 33.4637 1.91105 33.404 0.625C33.3709 1.63925 33.351 2.66013 33.3775 3.68102C33.3842 3.98595 33.3974 4.2909 33.404 4.59583Z" fill="#005A64"/>
<path d="M32.8142 4.59583C32.8142 4.59583 32.8142 4.53617 32.8142 4.50965C32.8871 3.22361 32.8738 1.91105 32.8142 0.625C32.781 1.63925 32.7611 2.66013 32.7877 3.68102C32.7943 3.98595 32.8075 4.2909 32.8142 4.59583Z" fill="#005A64"/>
<path d="M34.5974 4.59583C34.5974 4.59583 34.5974 4.53617 34.5974 4.50965C34.6703 3.22361 34.657 1.91105 34.5974 0.625C34.5642 1.63925 34.5444 2.66013 34.5709 3.68102C34.5775 3.98595 34.5908 4.2909 34.5974 4.59583Z" fill="#005A64"/>
<path d="M34.0017 4.59583C34.0017 4.59583 34.0017 4.53617 34.0017 4.50965C34.0747 3.22361 34.0614 1.91105 34.0017 0.625C33.9686 1.63925 33.9487 2.66013 33.9752 3.68102C33.9818 3.98595 33.9951 4.2909 34.0017 4.59583Z" fill="#005A64"/>
<path d="M35.7849 4.59583C35.7849 4.59583 35.7849 4.53617 35.7849 4.50965C35.8578 3.22361 35.8446 1.91105 35.7849 0.625C35.7518 1.63925 35.7319 2.66013 35.7584 3.68102C35.765 3.98595 35.7783 4.2909 35.7849 4.59583Z" fill="#005A64"/>
<path d="M35.1872 4.59583C35.1872 4.59583 35.1872 4.53617 35.1872 4.50965C35.2601 3.22361 35.2469 1.91105 35.1872 0.625C35.1541 1.63925 35.1342 2.66013 35.1607 3.68102C35.1674 3.98595 35.1806 4.2909 35.1872 4.59583Z" fill="#005A64"/>
<path d="M36.9724 4.59583C36.9724 4.59583 36.9724 4.53617 36.9724 4.50965C37.0453 3.22361 37.0321 1.91105 36.9724 0.625C36.9393 1.63925 36.9194 2.66013 36.9459 3.68102C36.9525 3.98595 36.9658 4.2909 36.9724 4.59583Z" fill="#005A64"/>
<path d="M36.3729 4.59583C36.3729 4.59583 36.3729 4.53617 36.3729 4.50965C36.4458 3.22361 36.4325 1.91105 36.3729 0.625C36.3397 1.63925 36.3198 2.66013 36.3463 3.68102C36.353 3.98595 36.3663 4.2909 36.3729 4.59583Z" fill="#005A64"/>
<path d="M38.1248 4.59583C38.1248 4.59583 38.1248 4.53617 38.1248 4.50965C38.1977 3.22361 38.1844 1.91105 38.1248 0.625C38.0916 1.63925 38.0717 2.66013 38.0983 3.68102C38.1049 3.98595 38.1181 4.2909 38.1248 4.59583Z" fill="#005A64"/>
<path d="M37.5349 4.59583C37.5349 4.59583 37.5349 4.53617 37.5349 4.50965C37.6078 3.22361 37.5946 1.91105 37.5349 0.625C37.5018 1.63925 37.4819 2.66013 37.5084 3.68102C37.515 3.98595 37.5283 4.2909 37.5349 4.59583Z" fill="#005A64"/>
<path d="M53.171 20.3193C52.7069 20.6176 52.2429 20.9225 51.8319 21.2937C51.5468 21.5722 51.2883 21.8771 51.0496 22.2019C50.5061 22.9444 50.0686 23.7531 49.5051 24.4823C48.8753 25.2579 48.1329 25.9275 47.4434 26.6434C48.6764 25.8214 49.9691 25.006 50.9038 23.8327C51.6728 22.8648 52.4152 21.8705 53.2969 21.0021C54.2714 20.1469 54.9409 19.5768 56.0413 19.1857C56.3927 19.0531 56.7506 18.9338 57.1086 18.8145C56.9031 18.8675 56.6976 18.9205 56.4921 18.9669C55.3188 19.2387 54.1852 19.6563 53.171 20.3126" fill="#005A64"/>
<path d="M68.2797 7.87695C67.9019 7.89684 67.5307 7.92336 67.1528 7.94325C65.005 8.02943 62.9699 8.37414 61.2331 9.12323C60.431 9.46131 59.6487 9.82591 58.9726 10.2966C58.5152 10.6678 58.1042 11.0788 57.7528 11.5296C56.9375 12.5637 56.3474 13.7437 55.4857 14.7381C54.5245 15.7987 53.3047 16.6605 52.2109 17.6151C54.3123 16.6539 56.5265 15.7192 57.9583 14.1149C59.1317 12.7825 60.252 11.4036 61.6706 10.2701C63.2748 9.18289 64.3753 8.46031 66.3507 8.15537C66.9871 8.04931 67.6301 7.96313 68.2732 7.87695" fill="#005A64"/>
<path d="M13.8293 21.2872C14.711 22.1556 15.4534 23.15 16.2224 24.1112C17.1571 25.2846 18.4497 26.0999 19.6827 26.9219C18.9933 26.206 18.2509 25.5365 17.6211 24.7609C17.0576 24.0383 16.6201 23.2229 16.0765 22.4804C15.8379 22.1556 15.5793 21.8507 15.2943 21.5723C14.8833 21.201 14.4193 20.8961 13.9552 20.5978C12.941 19.9481 11.8074 19.5239 10.6341 19.2521C10.4286 19.199 10.2231 19.146 10.0176 19.0996C10.3755 19.2189 10.7335 19.3383 11.0848 19.4708C12.1853 19.862 12.8482 20.432 13.8293 21.2872Z" fill="#005A64"/>
<path d="M16.0689 17.4618C14.9751 16.5072 13.7553 15.652 12.7941 14.5847C11.9323 13.5904 11.3423 12.4038 10.527 11.3763C10.1756 10.9255 9.76463 10.5145 9.30723 10.1432C8.63106 9.67258 7.84881 9.30798 7.0467 8.9699C5.30988 8.22081 3.27476 7.87609 1.12695 7.78992C0.755721 7.7634 0.377857 7.74352 0 7.72363C0.643019 7.80981 1.28605 7.89599 1.92244 8.00205C3.8979 8.30699 4.99833 9.02957 6.60256 10.1167C8.02781 11.2503 9.14147 12.6292 10.3148 13.9616C11.7467 15.5725 13.9608 16.5072 16.0622 17.4618" fill="#005A64"/>
</svg>
