<svg width="135" height="69" viewBox="0 0 135 69" fill="none" xmlns="http://www.w3.org/2000/svg">
<g clip-path="url(#clip0_5475_17116)">
<path d="M32.6193 27.2441C41.0016 37.0278 52.6828 42.9541 65.5106 43.9308C78.3383 44.9073 90.7783 40.8173 100.539 32.4148C110.299 24.0122 116.211 12.3029 117.185 -0.555851C118.159 -13.4145 114.079 -25.8845 105.697 -35.6683C97.3145 -45.4521 85.6332 -51.3785 72.8055 -52.355C59.9778 -53.3315 47.5378 -49.2415 37.7776 -40.839C28.0173 -32.4364 22.1052 -20.7271 21.131 -7.86841C20.1568 4.99024 24.237 17.4603 32.6193 27.2441ZM32.3828 27.4476C14.9398 7.08834 17.2641 -23.5909 37.5744 -41.076C57.8847 -58.5612 88.4902 -56.2312 105.933 -35.8719C123.376 -15.5126 121.052 15.1666 100.742 32.6518C80.4313 50.1369 49.8259 47.807 32.3828 27.4476Z" fill="url(#paint0_linear_5475_17116)"/>
<path d="M44.2416 24.9288C51.7201 33.6576 62.1411 38.9429 73.5841 39.814C85.027 40.6852 96.1274 37.0361 104.833 29.5416C113.538 22.047 118.813 11.5989 119.682 0.128326C120.551 -11.3422 116.911 -22.4691 109.435 -31.1956C101.958 -39.922 91.5347 -45.2097 80.0917 -46.0808C68.6488 -46.9519 57.5487 -43.3029 48.8433 -35.8083C40.1378 -28.3138 34.8629 -17.8656 33.9938 -6.39509C33.1248 5.07547 36.7631 16.1999 44.2416 24.9288ZM44.0051 25.1324C28.4306 6.9541 30.5079 -20.4354 48.6402 -36.0454C66.7724 -51.6554 94.0987 -49.575 109.671 -31.3991C125.243 -13.2232 123.17 14.1666 105.036 29.7786C86.9012 45.3907 59.5775 43.3083 44.0051 25.1324Z" fill="url(#paint1_linear_5475_17116)"/>
<path d="M55.8623 22.6112C62.4349 30.2827 71.5954 34.9314 81.658 35.6975C91.7206 36.4635 101.474 33.257 109.129 26.6665C116.784 20.076 121.42 10.8954 122.184 0.808544C122.949 -9.27832 119.75 -19.0552 113.175 -26.7292C106.6 -34.403 97.4421 -39.0492 87.3791 -39.8153C77.3165 -40.5813 67.5631 -37.3748 59.9077 -30.7843C52.2523 -24.1938 47.6172 -15.0132 46.853 -4.92638C46.0888 5.16048 49.2896 14.9398 55.8623 22.6112ZM55.6257 22.8149C41.9219 6.81997 43.7481 -17.2846 59.7046 -31.0214C75.661 -44.7583 99.7073 -42.9277 113.411 -26.9327C127.115 -10.9378 125.289 13.1666 109.332 26.9036C93.3763 40.6405 69.3296 38.8098 55.6257 22.8149Z" fill="url(#paint2_linear_5475_17116)"/>
<path d="M67.4847 20.2962C79.1879 33.956 99.7967 35.525 113.423 23.7935C127.051 12.0621 128.616 -8.59639 116.913 -22.2562C105.21 -35.916 84.6005 -37.485 70.9735 -25.7536C57.3466 -14.0221 55.7815 6.63637 67.4847 20.2962ZM67.2482 20.4998C55.413 6.68588 56.9898 -14.1268 70.7705 -25.9906C84.5511 -37.8544 105.314 -36.2737 117.149 -22.4598C128.985 -8.6459 127.407 12.1668 113.626 24.0306C99.846 35.8943 79.0834 34.3136 67.2482 20.4998Z" fill="url(#paint3_linear_5475_17116)"/>
<path d="M79.1071 17.9811C88.9437 29.4622 106.265 30.7807 117.718 20.9205C129.171 11.0601 130.486 -6.30218 120.65 -17.7833C110.814 -29.2645 93.4927 -30.5831 82.0395 -20.7227C70.586 -10.8624 69.2705 6.49987 79.1071 17.9811ZM78.8706 18.1846C68.906 6.55412 70.2338 -10.9713 81.8363 -20.9598C93.4387 -30.9484 110.922 -29.6175 120.886 -17.987C130.851 -6.35643 129.526 11.1668 117.923 21.1554C106.32 31.1441 88.8352 29.8151 78.8706 18.1846Z" fill="url(#paint4_linear_5475_17116)"/>
<path d="M90.7297 15.6615C98.6998 24.964 112.736 26.0325 122.017 18.0434C131.296 10.0541 132.362 -4.01642 124.393 -13.3189C116.423 -22.6214 102.386 -23.6901 93.1062 -15.7008C83.8257 -7.71153 82.7597 6.35896 90.7297 15.6615ZM90.4932 15.8651C82.3973 6.41558 83.476 -7.82237 92.9028 -15.9378C102.33 -24.0533 116.533 -22.972 124.629 -13.5225C132.725 -4.07305 131.644 10.1669 122.218 18.2824C112.79 26.398 98.589 25.3146 90.4932 15.8651Z" fill="url(#paint5_linear_5475_17116)"/>
<path d="M102.352 13.3463C108.456 20.4702 119.204 21.2885 126.311 15.1703C133.418 9.05213 134.234 -1.72218 128.131 -8.84605C122.027 -15.9699 111.279 -16.7882 104.172 -10.67C97.0651 -4.55182 96.2495 6.22249 102.352 13.3463ZM102.116 13.55C95.891 6.28385 96.7206 -4.66673 103.969 -10.9071C111.218 -17.1474 122.142 -16.3158 128.367 -9.04964C134.592 -1.78354 133.763 9.16704 126.515 15.4074C119.266 21.6477 108.342 20.816 102.116 13.55Z" fill="url(#paint6_linear_5475_17116)"/>
<path d="M113.974 11.0312C118.212 15.9765 125.672 16.5443 130.605 12.2973C135.538 8.05017 136.105 0.572048 131.868 -4.37317C127.632 -9.31839 120.171 -9.88633 115.238 -5.63923C110.304 -1.39214 109.738 6.08598 113.974 11.0312ZM113.738 11.2348C109.382 6.14971 109.964 -1.51112 115.035 -5.8763C120.105 -10.2415 127.75 -9.65947 132.104 -4.57677C136.462 0.508319 135.879 8.16915 130.808 12.5343C125.738 16.8995 118.093 16.3175 113.738 11.2348Z" fill="url(#paint7_linear_5475_17116)"/>
<path d="M125.595 8.7137C127.965 11.4803 132.142 11.7982 134.901 9.42221C137.662 7.04619 137.978 2.85985 135.608 0.0932806C133.239 -2.67329 129.062 -2.99122 126.302 -0.615211C123.542 1.7652 123.225 5.94712 125.595 8.7137ZM125.358 8.9173C122.872 6.0156 123.202 1.64182 126.098 -0.852278C128.994 -3.34434 133.357 -3.01439 135.844 -0.110319C138.333 2.79375 138 7.16721 135.104 9.65923C132.208 12.1534 127.847 11.8214 125.358 8.9173Z" fill="url(#paint8_linear_5475_17116)"/>
</g>
<defs>
<linearGradient id="paint0_linear_5475_17116" x1="41.5174" y1="26.0889" x2="79.3291" y2="56.8772" gradientUnits="userSpaceOnUse">
<stop stop-color="#D3C7EB"/>
<stop offset="0.448899" stop-color="#3EBFEA"/>
<stop offset="1" stop-color="#30B1E4"/>
</linearGradient>
<linearGradient id="paint1_linear_5475_17116" x1="52.1605" y1="23.9193" x2="85.9185" y2="51.407" gradientUnits="userSpaceOnUse">
<stop stop-color="#D3C7EB"/>
<stop offset="0.448899" stop-color="#3EBFEA"/>
<stop offset="1" stop-color="#30B1E4"/>
</linearGradient>
<linearGradient id="paint2_linear_5475_17116" x1="62.8025" y1="21.7473" x2="92.5095" y2="45.9365" gradientUnits="userSpaceOnUse">
<stop stop-color="#D3C7EB"/>
<stop offset="0.448899" stop-color="#3EBFEA"/>
<stop offset="1" stop-color="#30B1E4"/>
</linearGradient>
<linearGradient id="paint3_linear_5475_17116" x1="73.4456" y1="19.5779" x2="99.0993" y2="40.4665" gradientUnits="userSpaceOnUse">
<stop stop-color="#D3C7EB"/>
<stop offset="0.448899" stop-color="#3EBFEA"/>
<stop offset="1" stop-color="#30B1E4"/>
</linearGradient>
<linearGradient id="paint4_linear_5475_17116" x1="84.0888" y1="17.4084" x2="105.689" y2="34.9964" gradientUnits="userSpaceOnUse">
<stop stop-color="#D3C7EB"/>
<stop offset="0.448899" stop-color="#3EBFEA"/>
<stop offset="1" stop-color="#30B1E4"/>
</linearGradient>
<linearGradient id="paint5_linear_5475_17116" x1="94.7327" y1="15.2344" x2="112.281" y2="29.5238" gradientUnits="userSpaceOnUse">
<stop stop-color="#D3C7EB"/>
<stop offset="0.448899" stop-color="#3EBFEA"/>
<stop offset="1" stop-color="#30B1E4"/>
</linearGradient>
<linearGradient id="paint6_linear_5475_17116" x1="105.376" y1="13.065" x2="118.872" y2="24.0538" gradientUnits="userSpaceOnUse">
<stop stop-color="#D3C7EB"/>
<stop offset="0.448899" stop-color="#3EBFEA"/>
<stop offset="1" stop-color="#30B1E4"/>
</linearGradient>
<linearGradient id="paint7_linear_5475_17116" x1="116.019" y1="10.8954" x2="125.462" y2="18.5836" gradientUnits="userSpaceOnUse">
<stop stop-color="#D3C7EB"/>
<stop offset="0.448899" stop-color="#3EBFEA"/>
<stop offset="1" stop-color="#30B1E4"/>
</linearGradient>
<linearGradient id="paint8_linear_5475_17116" x1="126.661" y1="8.72357" x2="132.052" y2="13.1132" gradientUnits="userSpaceOnUse">
<stop stop-color="#D3C7EB"/>
<stop offset="0.448899" stop-color="#3EBFEA"/>
<stop offset="1" stop-color="#30B1E4"/>
</linearGradient>
<clipPath id="clip0_5475_17116">
<rect width="135" height="69" fill="white"/>
</clipPath>
</defs>
</svg>
