<svg width="79" height="64" viewBox="0 0 79 64" fill="none" xmlns="http://www.w3.org/2000/svg">
<g clip-path="url(#clip0_5475_16813)">
<g opacity="0.5">
<path d="M83.9763 16.3129C60.8193 36.3084 37.9652 47.0217 32.9247 40.2469C27.8841 33.472 42.5655 11.7742 65.7221 -8.22139C88.8796 -28.2169 103.56 -49.9148 98.5202 -56.6896C93.4798 -63.4644 70.6253 -52.7511 47.4685 -32.7556L46.951 -32.3086C23.7941 -12.3131 0.940032 -1.5999 -4.1005 -8.37471C-9.14103 -15.1495 5.54032 -36.8474 28.6972 -56.8429L26.6268 -55.0552C49.7837 -75.0507 64.465 -96.7488 59.4245 -103.524C54.384 -110.298 31.5299 -99.5847 8.373 -79.5897" stroke="url(#paint0_linear_5475_16813)" stroke-miterlimit="10"/>
<path d="M85.542 18.2122C62.3851 38.2077 39.531 48.921 34.4905 42.1462C29.4499 35.3713 44.1313 13.6735 67.2884 -6.32207C90.4452 -26.3176 105.126 -48.0155 100.086 -54.7903C95.0455 -61.5651 72.191 -50.8518 49.0343 -30.8563L48.5168 -30.4094C25.3599 -10.4138 2.50583 0.299392 -2.53471 -6.4754C-7.57523 -13.2502 7.1061 -34.9481 30.263 -54.9436L28.1926 -53.156C51.3495 -73.1513 66.031 -94.8495 60.9903 -101.624C55.9498 -108.399 33.0957 -97.6854 9.93881 -77.6904" stroke="url(#paint1_linear_5475_16813)" stroke-miterlimit="10"/>
<path d="M87.1037 20.1056C63.9468 40.1011 41.0928 50.8144 36.0522 44.0396C31.0117 37.2647 45.6931 15.5669 68.8501 -4.42867C92.0069 -24.4242 106.688 -46.1221 101.648 -52.8969C96.6072 -59.6717 73.7527 -48.9585 50.5961 -28.9629L50.0786 -28.516C26.9217 -8.52044 4.0676 2.19279 -0.972935 -4.582C-6.01347 -11.3568 8.66788 -33.0547 31.8247 -53.0502L29.7544 -51.2626C52.9113 -71.2584 67.5927 -92.9558 62.5521 -99.7305C57.5116 -106.505 34.6574 -95.7924 11.5006 -75.7967" stroke="url(#paint2_linear_5475_16813)" stroke-miterlimit="10"/>
<path d="M88.6746 22C65.5178 41.9956 42.6638 52.7088 37.6233 45.9341C32.5828 39.1592 47.2641 17.4613 70.421 -2.53421C93.5778 -22.5297 108.259 -44.2277 103.218 -51.0024C98.1781 -57.7772 75.3242 -47.064 52.1672 -27.0685L51.6496 -26.6215C28.4927 -6.62601 5.63864 4.08725 0.598108 -2.68755C-4.44243 -9.46236 10.239 -31.1603 33.3958 -51.1558L31.3254 -49.3681C54.4823 -69.3636 69.1636 -91.0614 64.1232 -97.8361C59.0826 -104.611 36.2285 -93.898 13.0717 -73.9023" stroke="url(#paint3_linear_5475_16813)" stroke-miterlimit="10"/>
<path d="M90.2369 23.8934C67.0801 43.889 44.2257 54.6022 39.1852 47.8275C34.1446 41.0526 48.826 19.3547 71.9827 -0.640815C95.1395 -20.6363 109.821 -42.3343 104.781 -49.109C99.7398 -55.8838 76.8859 -45.1706 53.7291 -25.1751L53.2115 -24.7281C30.0546 -4.7326 7.20054 5.98064 2.16 -0.794146C-2.88054 -7.56896 11.8008 -29.2669 34.9577 -49.2624L32.8874 -47.4747C56.0442 -67.4702 70.7259 -89.1684 65.6849 -95.9431C60.6445 -102.718 37.7904 -92.0043 14.6335 -72.0086" stroke="url(#paint4_linear_5475_16813)" stroke-miterlimit="10"/>
<path d="M91.8026 25.7928C68.6458 45.7883 45.7915 56.5016 40.751 49.7268C35.7104 42.952 50.3918 21.2541 73.5484 1.25855C96.7058 -18.737 111.387 -40.4349 106.346 -47.2097C101.306 -53.9845 78.4516 -43.2712 55.2949 -23.2757L54.7772 -22.8288C31.6204 -2.83324 8.76634 7.88004 3.72579 1.10522C-1.31474 -5.66958 13.3666 -27.3675 36.5235 -47.363L34.4532 -45.5753C57.61 -65.5708 72.2915 -87.269 67.2506 -94.0438C62.2103 -100.819 39.3562 -90.1049 16.1993 -70.1096" stroke="url(#paint5_linear_5475_16813)" stroke-miterlimit="10"/>
<path d="M93.3643 27.6861C70.2075 47.6816 47.3533 58.3948 42.3127 51.62C37.2722 44.8453 51.9535 23.1473 75.1107 3.1518C98.2675 -16.8437 112.948 -38.5416 107.908 -45.3165C102.868 -52.0912 80.0133 -41.378 56.8566 -21.3824L56.339 -20.9355C33.1822 -0.939999 10.3281 9.77325 5.28756 2.99846C0.247022 -3.77634 14.9284 -25.4742 38.0853 -45.4698L36.0149 -43.682C59.1718 -63.6776 73.8533 -85.3753 68.8123 -92.1501C63.7721 -98.9248 40.918 -88.212 17.7611 -68.2163" stroke="url(#paint6_linear_5475_16813)" stroke-miterlimit="10"/>
<path d="M94.9299 29.585C71.7731 49.5806 48.9192 60.2938 43.8787 53.519C38.8381 46.7442 53.5195 25.0463 76.6764 5.05077C99.8331 -14.9447 114.515 -36.6427 109.474 -43.4175C104.433 -50.1923 81.5796 -39.479 58.4225 -19.4835L57.905 -19.0366C34.7481 0.95897 11.894 11.6722 6.85348 4.89743C1.81294 -1.87737 16.4943 -23.5753 39.6511 -43.5708L37.5808 -41.7831C60.7377 -61.7786 75.4189 -83.4767 70.3786 -90.2514C65.3382 -97.0262 42.4839 -86.3126 19.327 -66.3173" stroke="url(#paint7_linear_5475_16813)" stroke-miterlimit="10"/>
<path d="M96.4923 31.4782C73.3355 51.4738 50.4811 62.1871 45.4406 55.4122C40.4001 48.6374 55.0814 26.9395 78.238 6.94401C101.395 -13.0515 116.076 -34.7494 111.036 -41.5242C105.995 -48.299 83.1413 -37.5858 59.9845 -17.5902L59.4669 -17.1433C36.31 2.85222 13.4559 13.5655 8.41536 6.79068C3.37484 0.0158808 18.0562 -21.682 41.2131 -41.6775L39.1427 -39.8899C62.2996 -59.8854 76.9812 -81.583 71.9402 -88.3584C66.8999 -95.1332 44.0458 -84.4196 20.8889 -64.4241" stroke="url(#paint8_linear_5475_16813)" stroke-miterlimit="10"/>
<path d="M98.0632 33.3728C74.9064 53.3683 52.052 64.0815 47.0115 57.3068C41.971 50.532 56.6523 28.834 79.809 8.83851C102.966 -11.157 117.647 -32.8549 112.607 -39.6297C107.566 -46.4045 84.7122 -35.6913 61.5554 -15.6958L61.0378 -15.2488C37.8809 4.74673 15.0268 15.46 9.98628 8.6852C4.94577 1.9104 19.6272 -19.7875 42.784 -39.783L40.7136 -37.9953C63.8705 -57.9909 78.5521 -79.6886 73.5112 -86.4633C68.4708 -93.2381 45.6167 -82.5252 22.4599 -62.5296" stroke="url(#paint9_linear_5475_16813)" stroke-miterlimit="10"/>
<path d="M99.6248 35.2662C76.468 55.2617 53.614 65.9749 48.5735 59.2002C43.533 52.4254 58.2143 30.7275 81.3712 10.7319C104.528 -9.26359 119.21 -30.9615 114.169 -37.7363C109.128 -44.5111 86.2745 -33.7978 63.1174 -13.8023L62.5998 -13.3554C39.4429 6.64015 16.5888 17.3534 11.5483 10.5786C6.50777 3.80381 21.1891 -17.8941 44.346 -37.8897L42.2756 -36.1019C65.4328 -56.0974 80.1138 -77.7956 75.0734 -84.5703C70.0331 -91.3451 47.1787 -80.6315 24.0219 -60.6362" stroke="url(#paint10_linear_5475_16813)" stroke-miterlimit="10"/>
<path d="M101.19 37.1656C78.0337 57.1611 55.1798 67.8744 50.1393 61.0996C45.0987 54.3248 59.7801 32.6269 82.9369 12.6313C106.094 -7.36418 120.775 -29.062 115.735 -35.8369C110.694 -42.6117 87.8401 -31.8984 64.6831 -11.9029L64.1656 -11.4559C41.0087 8.5396 18.1546 19.2528 13.1141 12.478C8.07357 5.70323 22.7549 -15.9947 45.9118 -35.9902L43.8414 -34.2025C66.9985 -54.198 81.6794 -75.8962 76.6391 -82.6709C71.5988 -89.4457 48.7445 -78.7321 25.5876 -58.7368" stroke="url(#paint11_linear_5475_16813)" stroke-miterlimit="10"/>
</g>
</g>
<defs>
<linearGradient id="paint0_linear_5475_16813" x1="10.7022" y1="-81.6007" x2="90.4341" y2="10.7368" gradientUnits="userSpaceOnUse">
<stop stop-color="#BBF8E9"/>
<stop offset="1" stop-color="#3FECC1"/>
</linearGradient>
<linearGradient id="paint1_linear_5475_16813" x1="12.268" y1="-79.7014" x2="91.9998" y2="12.6361" gradientUnits="userSpaceOnUse">
<stop stop-color="#BBF8E9"/>
<stop offset="1" stop-color="#3FECC1"/>
</linearGradient>
<linearGradient id="paint2_linear_5475_16813" x1="13.8297" y1="-77.8077" x2="93.5615" y2="14.5295" gradientUnits="userSpaceOnUse">
<stop stop-color="#BBF8E9"/>
<stop offset="1" stop-color="#3FECC1"/>
</linearGradient>
<linearGradient id="paint3_linear_5475_16813" x1="15.4008" y1="-75.9133" x2="95.1324" y2="16.4239" gradientUnits="userSpaceOnUse">
<stop stop-color="#BBF8E9"/>
<stop offset="1" stop-color="#3FECC1"/>
</linearGradient>
<linearGradient id="paint4_linear_5475_16813" x1="16.9627" y1="-74.0203" x2="96.6941" y2="18.3174" gradientUnits="userSpaceOnUse">
<stop stop-color="#BBF8E9"/>
<stop offset="1" stop-color="#3FECC1"/>
</linearGradient>
<linearGradient id="paint5_linear_5475_16813" x1="18.5285" y1="-72.1209" x2="98.2604" y2="20.2166" gradientUnits="userSpaceOnUse">
<stop stop-color="#BBF8E9"/>
<stop offset="1" stop-color="#3FECC1"/>
</linearGradient>
<linearGradient id="paint6_linear_5475_16813" x1="20.0902" y1="-70.2275" x2="99.8221" y2="22.1099" gradientUnits="userSpaceOnUse">
<stop stop-color="#BBF8E9"/>
<stop offset="1" stop-color="#3FECC1"/>
</linearGradient>
<linearGradient id="paint7_linear_5475_16813" x1="21.6562" y1="-68.3285" x2="101.388" y2="24.0089" gradientUnits="userSpaceOnUse">
<stop stop-color="#BBF8E9"/>
<stop offset="1" stop-color="#3FECC1"/>
</linearGradient>
<linearGradient id="paint8_linear_5475_16813" x1="23.2181" y1="-66.4353" x2="102.949" y2="25.9022" gradientUnits="userSpaceOnUse">
<stop stop-color="#BBF8E9"/>
<stop offset="1" stop-color="#3FECC1"/>
</linearGradient>
<linearGradient id="paint9_linear_5475_16813" x1="24.789" y1="-64.5408" x2="104.521" y2="27.7966" gradientUnits="userSpaceOnUse">
<stop stop-color="#BBF8E9"/>
<stop offset="1" stop-color="#3FECC1"/>
</linearGradient>
<linearGradient id="paint10_linear_5475_16813" x1="26.351" y1="-62.6473" x2="106.083" y2="29.6901" gradientUnits="userSpaceOnUse">
<stop stop-color="#BBF8E9"/>
<stop offset="1" stop-color="#3FECC1"/>
</linearGradient>
<linearGradient id="paint11_linear_5475_16813" x1="27.9168" y1="-60.7479" x2="107.648" y2="31.5896" gradientUnits="userSpaceOnUse">
<stop stop-color="#BBF8E9"/>
<stop offset="1" stop-color="#3FECC1"/>
</linearGradient>
<clipPath id="clip0_5475_16813">
<rect width="79" height="64" fill="white"/>
</clipPath>
</defs>
</svg>
