<svg width="87" height="63" viewBox="0 0 87 63" fill="none" xmlns="http://www.w3.org/2000/svg">
<g clip-path="url(#clip0_5475_17082)">
<path opacity="0.2" d="M108.237 -13.9955C157.188 5.67433 139.142 -6.82742 99.4449 16.4338C64.9754 36.6288 82.3168 69.2761 43.1591 53.5382C11.8296 40.9492 14.719 9.76079 33.2123 -11.5685C48.008 -28.6289 80.3186 -34.2944 105.388 -24.2241C125.438 -16.1671 132.098 1.43056 120.261 15.0789" stroke="url(#paint0_linear_5475_17082)" stroke-miterlimit="10"/>
<path opacity="0.3" d="M109.375 -15.2091C156.331 3.65899 138.516 -4.41836 100.982 18.3948C68.4958 38.0886 78.6523 65.5064 41.0918 50.4138C11.0436 38.3394 18.493 9.86691 36.2313 -10.5865C50.4236 -26.9512 80.2211 -35.0692 104.263 -25.4087C123.494 -17.6808 129.882 -0.803117 118.528 12.2876" stroke="url(#paint1_linear_5475_17082)" stroke-miterlimit="10"/>
<path opacity="0.4" d="M110.514 -16.4191C155.467 1.64446 137.897 -2.00664 102.522 20.3595C72.0109 39.5491 74.9875 61.7365 39.029 47.2841C10.2619 35.7246 22.2713 9.9681 39.2589 -9.61422C52.8437 -25.2783 80.1265 -35.8527 103.144 -26.6067C121.557 -19.208 127.672 -3.05027 116.802 9.48292" stroke="url(#paint2_linear_5475_17082)" stroke-miterlimit="10"/>
<path opacity="0.5" d="M111.652 -17.6328C154.603 -0.373862 137.277 0.40129 104.065 22.3194C75.5313 41.0087 71.323 57.9662 36.9619 44.1591C9.47606 33.1146 26.0509 10.073 42.2766 -8.6362C55.2581 -23.6046 80.0274 -36.6315 102.018 -27.7952C119.611 -20.7257 125.453 -5.28788 115.068 6.68775" stroke="url(#paint3_linear_5475_17082)" stroke-miterlimit="10"/>
<path opacity="0.6" d="M112.795 -18.8475C153.743 -2.39313 136.735 2.86011 105.608 24.2793C79.1153 42.5097 67.6565 54.1925 34.899 41.0298C8.68728 30.4971 29.8291 10.1742 45.2985 -7.66293C57.6766 -21.9355 79.9273 -37.414 100.895 -28.9884C117.67 -22.248 123.24 -7.53024 113.337 3.88782" stroke="url(#paint4_linear_5475_17082)" stroke-miterlimit="10"/>
<path opacity="0.7" d="M113.934 -20.0575C152.88 -4.40763 136.125 5.27848 107.152 26.243C82.644 43.9759 63.9932 50.4265 32.832 37.9049C7.90143 27.8871 33.6046 10.284 48.3163 -6.68486C60.0908 -20.2617 79.8288 -38.1927 99.7688 -30.1769C115.724 -23.7656 121.021 -9.76783 111.602 1.09267" stroke="url(#paint5_linear_5475_17082)" stroke-miterlimit="10"/>
<path opacity="0.7" d="M115.072 -21.2711C152.022 -6.42304 135.51 7.68552 108.692 28.2078C86.1662 45.4394 60.3288 46.6568 30.7649 34.7802C7.11556 25.2773 37.3787 10.3901 51.3396 -5.70773C62.5065 -18.584 79.7298 -38.9714 98.652 -31.3711C113.788 -25.289 118.815 -12.0073 109.878 -1.70816" stroke="url(#paint6_linear_5475_17082)" stroke-miterlimit="10"/>
<path opacity="0.6" d="M116.209 -22.4848C151.158 -8.44129 134.89 10.0935 110.229 30.1687C89.6795 46.8963 56.6584 42.8878 28.6965 31.6518C6.32827 22.6636 41.1514 10.4923 54.3559 -4.7334C64.9195 -16.914 79.6296 -39.7537 97.5243 -32.5633C111.841 -26.8103 116.595 -14.2486 108.143 -4.50324" stroke="url(#paint7_linear_5475_17082)" stroke-miterlimit="10"/>
<path opacity="0.6" d="M117.352 -23.6995C150.299 -10.4606 134.267 12.4939 111.778 32.1276C93.1973 48.3484 52.9936 39.1177 26.6349 28.5259C5.54788 20.0526 44.9309 10.5972 57.379 -3.75638C67.3397 -15.2412 79.5306 -40.5325 96.4031 -33.7528C109.901 -28.3289 114.383 -16.4873 106.414 -7.29946" stroke="url(#paint8_linear_5475_17082)" stroke-miterlimit="10"/>
<path opacity="0.5" d="M118.491 -24.9093C149.435 -12.475 133.625 14.8935 113.317 34.0924C96.7025 49.7986 49.3289 35.3478 24.5734 25.4003C4.76761 17.4418 48.7162 10.7013 60.4081 -2.78019C69.7609 -13.5645 79.4431 -41.3131 95.288 -34.9431C107.966 -29.8484 112.175 -18.7267 104.691 -10.0965" stroke="url(#paint9_linear_5475_17082)" stroke-miterlimit="10"/>
<path opacity="0.4" d="M119.629 -26.123C148.577 -14.4905 132.925 17.2629 114.854 36.0533C100.159 51.2292 45.6643 31.5778 22.505 22.2718C3.98033 14.828 52.4888 10.8035 63.4246 -1.80593C72.1739 -11.8944 79.3374 -42.0945 94.1586 -36.1392C106.018 -31.3736 109.955 -20.9719 102.953 -12.8992" stroke="url(#paint10_linear_5475_17082)" stroke-miterlimit="10"/>
<path opacity="0.2" d="M120.766 -27.3367C147.713 -16.5088 132.305 19.6709 116.397 38.0132C103.673 52.69 41.998 27.8041 20.442 19.1422C3.19854 12.2133 56.2683 10.9085 66.4462 -0.832625C74.5924 -10.2254 79.2428 -42.8783 93.0414 -37.3334C104.082 -32.897 107.748 -23.2114 101.229 -15.7001" stroke="url(#paint11_linear_5475_17082)" stroke-miterlimit="10"/>
</g>
<defs>
<linearGradient id="paint0_linear_5475_17082" x1="12.3686" y1="9.25402" x2="157.033" y2="63.5483" gradientUnits="userSpaceOnUse">
<stop offset="0.00302487" stop-color="#F6CE55"/>
<stop offset="0.00312487" stop-color="#F21C0D"/>
<stop offset="0.164583" stop-color="#F5C73D"/>
<stop offset="0.315625" stop-color="#2AB6F7"/>
<stop offset="0.419792" stop-color="#1DE9B6"/>
<stop offset="0.586458" stop-color="#F55247"/>
<stop offset="0.711458" stop-color="#F7D56E"/>
<stop offset="0.961458" stop-color="#9FDFF5"/>
</linearGradient>
<linearGradient id="paint1_linear_5475_17082" x1="12.933" y1="8.41494" x2="153.74" y2="64.44" gradientUnits="userSpaceOnUse">
<stop offset="0.00302487" stop-color="#F6CE55"/>
<stop offset="0.00312487" stop-color="#F21C0D"/>
<stop offset="0.164583" stop-color="#F5C73D"/>
<stop offset="0.315625" stop-color="#2AB6F7"/>
<stop offset="0.419792" stop-color="#1DE9B6"/>
<stop offset="0.586458" stop-color="#F55247"/>
<stop offset="0.711458" stop-color="#F7D56E"/>
<stop offset="0.961458" stop-color="#9FDFF5"/>
</linearGradient>
<linearGradient id="paint2_linear_5475_17082" x1="13.2986" y1="7.50519" x2="150.567" y2="65.1112" gradientUnits="userSpaceOnUse">
<stop offset="0.00302487" stop-color="#F6CE55"/>
<stop offset="0.00312487" stop-color="#F21C0D"/>
<stop offset="0.164583" stop-color="#F5C73D"/>
<stop offset="0.315625" stop-color="#2AB6F7"/>
<stop offset="0.419792" stop-color="#1DE9B6"/>
<stop offset="0.586458" stop-color="#F55247"/>
<stop offset="0.711458" stop-color="#F7D56E"/>
<stop offset="0.961458" stop-color="#9FDFF5"/>
</linearGradient>
<linearGradient id="paint3_linear_5475_17082" x1="13.4765" y1="6.56151" x2="147.671" y2="65.5395" gradientUnits="userSpaceOnUse">
<stop offset="0.00302487" stop-color="#F6CE55"/>
<stop offset="0.00312487" stop-color="#F21C0D"/>
<stop offset="0.164583" stop-color="#F5C73D"/>
<stop offset="0.315625" stop-color="#2AB6F7"/>
<stop offset="0.419792" stop-color="#1DE9B6"/>
<stop offset="0.586458" stop-color="#F55247"/>
<stop offset="0.711458" stop-color="#F7D56E"/>
<stop offset="0.961458" stop-color="#9FDFF5"/>
</linearGradient>
<linearGradient id="paint4_linear_5475_17082" x1="13.5059" y1="5.63645" x2="145.338" y2="65.6757" gradientUnits="userSpaceOnUse">
<stop offset="0.00302487" stop-color="#F6CE55"/>
<stop offset="0.00312487" stop-color="#F21C0D"/>
<stop offset="0.164583" stop-color="#F5C73D"/>
<stop offset="0.315625" stop-color="#2AB6F7"/>
<stop offset="0.419792" stop-color="#1DE9B6"/>
<stop offset="0.586458" stop-color="#F55247"/>
<stop offset="0.711458" stop-color="#F7D56E"/>
<stop offset="0.961458" stop-color="#9FDFF5"/>
</linearGradient>
<linearGradient id="paint5_linear_5475_17082" x1="13.4263" y1="4.81432" x2="143.877" y2="65.4601" gradientUnits="userSpaceOnUse">
<stop offset="0.00302487" stop-color="#F6CE55"/>
<stop offset="0.00312487" stop-color="#F21C0D"/>
<stop offset="0.164583" stop-color="#F5C73D"/>
<stop offset="0.315625" stop-color="#2AB6F7"/>
<stop offset="0.419792" stop-color="#1DE9B6"/>
<stop offset="0.586458" stop-color="#F55247"/>
<stop offset="0.711458" stop-color="#F7D56E"/>
<stop offset="0.961458" stop-color="#9FDFF5"/>
</linearGradient>
<linearGradient id="paint6_linear_5475_17082" x1="13.2855" y1="4.17623" x2="143.647" y2="64.8544" gradientUnits="userSpaceOnUse">
<stop offset="0.00302487" stop-color="#F6CE55"/>
<stop offset="0.00312487" stop-color="#F21C0D"/>
<stop offset="0.164583" stop-color="#F5C73D"/>
<stop offset="0.315625" stop-color="#2AB6F7"/>
<stop offset="0.419792" stop-color="#1DE9B6"/>
<stop offset="0.586458" stop-color="#F55247"/>
<stop offset="0.711458" stop-color="#F7D56E"/>
<stop offset="0.961458" stop-color="#9FDFF5"/>
</linearGradient>
<linearGradient id="paint7_linear_5475_17082" x1="13.105" y1="3.74434" x2="144.668" y2="63.8698" gradientUnits="userSpaceOnUse">
<stop offset="0.00302487" stop-color="#F6CE55"/>
<stop offset="0.00312487" stop-color="#F21C0D"/>
<stop offset="0.164583" stop-color="#F5C73D"/>
<stop offset="0.315625" stop-color="#2AB6F7"/>
<stop offset="0.419792" stop-color="#1DE9B6"/>
<stop offset="0.586458" stop-color="#F55247"/>
<stop offset="0.711458" stop-color="#F7D56E"/>
<stop offset="0.961458" stop-color="#9FDFF5"/>
</linearGradient>
<linearGradient id="paint8_linear_5475_17082" x1="12.8861" y1="3.47357" x2="146.598" y2="62.6087" gradientUnits="userSpaceOnUse">
<stop offset="0.00302487" stop-color="#F6CE55"/>
<stop offset="0.00312487" stop-color="#F21C0D"/>
<stop offset="0.164583" stop-color="#F5C73D"/>
<stop offset="0.315625" stop-color="#2AB6F7"/>
<stop offset="0.419792" stop-color="#1DE9B6"/>
<stop offset="0.586458" stop-color="#F55247"/>
<stop offset="0.711458" stop-color="#F7D56E"/>
<stop offset="0.961458" stop-color="#9FDFF5"/>
</linearGradient>
<linearGradient id="paint9_linear_5475_17082" x1="12.6109" y1="3.30071" x2="149.044" y2="61.1643" gradientUnits="userSpaceOnUse">
<stop offset="0.00302487" stop-color="#F6CE55"/>
<stop offset="0.00312487" stop-color="#F21C0D"/>
<stop offset="0.164583" stop-color="#F5C73D"/>
<stop offset="0.315625" stop-color="#2AB6F7"/>
<stop offset="0.419792" stop-color="#1DE9B6"/>
<stop offset="0.586458" stop-color="#F55247"/>
<stop offset="0.711458" stop-color="#F7D56E"/>
<stop offset="0.961458" stop-color="#9FDFF5"/>
</linearGradient>
<linearGradient id="paint10_linear_5475_17082" x1="12.2639" y1="3.17551" x2="151.729" y2="59.6237" gradientUnits="userSpaceOnUse">
<stop offset="0.00302487" stop-color="#F6CE55"/>
<stop offset="0.00312487" stop-color="#F21C0D"/>
<stop offset="0.164583" stop-color="#F5C73D"/>
<stop offset="0.315625" stop-color="#2AB6F7"/>
<stop offset="0.419792" stop-color="#1DE9B6"/>
<stop offset="0.586458" stop-color="#F55247"/>
<stop offset="0.711458" stop-color="#F7D56E"/>
<stop offset="0.961458" stop-color="#9FDFF5"/>
</linearGradient>
<linearGradient id="paint11_linear_5475_17082" x1="11.8618" y1="3.08569" x2="154.533" y2="58.0466" gradientUnits="userSpaceOnUse">
<stop offset="0.00302487" stop-color="#F6CE55"/>
<stop offset="0.00312487" stop-color="#F21C0D"/>
<stop offset="0.164583" stop-color="#F5C73D"/>
<stop offset="0.315625" stop-color="#2AB6F7"/>
<stop offset="0.419792" stop-color="#1DE9B6"/>
<stop offset="0.586458" stop-color="#F55247"/>
<stop offset="0.711458" stop-color="#F7D56E"/>
<stop offset="0.961458" stop-color="#9FDFF5"/>
</linearGradient>
<clipPath id="clip0_5475_17082">
<rect width="87" height="63" fill="white"/>
</clipPath>
</defs>
</svg>
