<svg width="147" height="167" viewBox="0 0 147 167" fill="none" xmlns="http://www.w3.org/2000/svg">
<g clip-path="url(#clip0_5475_17040)">
<g opacity="0.4">
<path d="M130.724 193.262C200.849 193.262 257.696 179.176 257.696 161.8C257.696 144.424 200.849 130.337 130.724 130.337C60.5996 130.337 3.75244 144.424 3.75244 161.8C3.75244 179.176 60.5996 193.262 130.724 193.262Z" stroke="url(#paint0_linear_5475_17040)" stroke-miterlimit="10"/>
<path d="M130.562 181.357C196.449 181.357 249.861 168.123 249.861 151.798C249.861 135.473 196.449 122.239 130.562 122.239C64.6749 122.239 11.2628 135.473 11.2628 151.798C11.2628 168.123 64.6749 181.357 130.562 181.357Z" stroke="url(#paint1_linear_5475_17040)" stroke-miterlimit="10"/>
<path d="M130.382 169.606C192.36 169.606 242.604 157.154 242.604 141.794C242.604 126.436 192.36 113.984 130.382 113.984C68.404 113.984 18.1608 126.436 18.1608 141.794C18.1608 157.154 68.404 169.606 130.382 169.606Z" stroke="url(#paint2_linear_5475_17040)" stroke-miterlimit="10"/>
<path d="M130.22 158.028C188.697 158.028 236.102 146.282 236.102 131.792C236.102 117.302 188.697 105.556 130.22 105.556C71.743 105.556 24.3381 117.302 24.3381 131.792C24.3381 146.282 71.743 158.028 130.22 158.028Z" stroke="url(#paint3_linear_5475_17040)" stroke-miterlimit="10"/>
<path d="M130.04 146.675C185.483 146.675 230.429 135.54 230.429 121.806C230.429 108.072 185.483 96.9374 130.04 96.9374C74.5967 96.9374 29.6511 108.072 29.6511 121.806C29.6511 135.54 74.5967 146.675 130.04 146.675Z" stroke="url(#paint4_linear_5475_17040)" stroke-miterlimit="10"/>
<path d="M129.878 135.565C182.834 135.565 225.764 124.926 225.764 111.803C225.764 98.6805 182.834 88.0421 129.878 88.0421C76.9213 88.0421 33.9917 98.6805 33.9917 111.803C33.9917 124.926 76.9213 135.565 129.878 135.565Z" stroke="url(#paint5_linear_5475_17040)" stroke-miterlimit="10"/>
<path d="M129.715 124.731C180.832 124.731 222.27 114.465 222.27 101.8C222.27 89.1363 180.832 78.8699 129.715 78.8699C78.5991 78.8699 37.1611 89.1363 37.1611 101.8C37.1611 114.465 78.5991 124.731 129.715 124.731Z" stroke="url(#paint6_linear_5475_17040)" stroke-miterlimit="10"/>
<path d="M129.536 114.209C179.508 114.209 220.018 104.175 220.018 91.7978C220.018 79.4201 179.508 69.3862 129.536 69.3862C79.5631 69.3862 39.0524 79.4201 39.0524 91.7978C39.0524 104.175 79.5631 114.209 129.536 114.209Z" stroke="url(#paint7_linear_5475_17040)" stroke-miterlimit="10"/>
<path d="M129.374 104.033C178.958 104.033 219.155 94.0767 219.155 81.7947C219.155 69.5129 178.958 59.5565 129.374 59.5565C79.7892 59.5565 39.593 69.5129 39.593 81.7947C39.593 94.0767 79.7892 104.033 129.374 104.033Z" stroke="url(#paint8_linear_5475_17040)" stroke-miterlimit="10"/>
<path d="M129.211 94.2028C179.183 94.2028 219.694 84.1691 219.694 71.7917C219.694 59.4143 179.183 49.3804 129.211 49.3804C79.239 49.3804 38.7283 59.4143 38.7283 71.7917C38.7283 84.1691 79.239 94.2028 129.211 94.2028Z" stroke="url(#paint9_linear_5475_17040)" stroke-miterlimit="10"/>
<path d="M129.031 84.7366C180.148 84.7366 221.585 74.4703 221.585 61.8061C221.585 49.1419 180.148 38.8756 129.031 38.8756C77.9149 38.8756 36.4769 49.1419 36.4769 61.8061C36.4769 74.4703 77.9149 84.7366 129.031 84.7366Z" stroke="url(#paint10_linear_5475_17040)" stroke-miterlimit="10"/>
<path d="M128.869 75.5645C181.825 75.5645 224.755 64.9263 224.755 51.8033C224.755 38.6804 181.825 28.0422 128.869 28.0422C75.9126 28.0422 32.9829 38.6804 32.9829 51.8033C32.9829 64.9263 75.9126 75.5645 128.869 75.5645Z" stroke="url(#paint11_linear_5475_17040)" stroke-miterlimit="10"/>
<path d="M128.707 66.6694C184.15 66.6694 229.096 55.5352 229.096 41.8006C229.096 28.066 184.15 16.9319 128.707 16.9319C73.2639 16.9319 28.3184 28.066 28.3184 41.8006C28.3184 55.5352 73.2639 66.6694 128.707 66.6694Z" stroke="url(#paint12_linear_5475_17040)" stroke-miterlimit="10"/>
<path d="M128.527 58.0334C187.004 58.0334 234.409 46.2873 234.409 31.7975C234.409 17.3078 187.004 5.56158 128.527 5.56158C70.0502 5.56158 22.6453 17.3078 22.6453 31.7975C22.6453 46.2873 70.0502 58.0334 128.527 58.0334Z" stroke="url(#paint13_linear_5475_17040)" stroke-miterlimit="10"/>
<path d="M128.365 49.6055C190.343 49.6055 240.586 37.1542 240.586 21.7947C240.586 6.43523 190.343 -6.01608 128.365 -6.01608C66.3867 -6.01608 16.1434 6.43523 16.1434 21.7947C16.1434 37.1542 66.3867 49.6055 128.365 49.6055Z" stroke="url(#paint14_linear_5475_17040)" stroke-miterlimit="10"/>
<path d="M127.32 41.3505C193.207 41.3505 246.619 28.1166 246.619 11.7918C246.619 -4.53303 193.207 -17.7669 127.32 -17.7669C61.4329 -17.7669 8.02075 -4.53303 8.02075 11.7918C8.02075 28.1166 61.4329 41.3505 127.32 41.3505Z" stroke="url(#paint15_linear_5475_17040)" stroke-miterlimit="10"/>
<path d="M128.022 33.2686C198.147 33.2686 254.994 19.1824 254.994 1.8062C254.994 -15.57 198.147 -29.6562 128.022 -29.6562C57.8981 -29.6562 1.0509 -15.57 1.0509 1.8062C1.0509 19.1824 57.8981 33.2686 128.022 33.2686Z" stroke="url(#paint16_linear_5475_17040)" stroke-miterlimit="10"/>
</g>
</g>
<defs>
<linearGradient id="paint0_linear_5475_17040" x1="36.6197" y1="135.51" x2="192.679" y2="61.6695" gradientUnits="userSpaceOnUse">
<stop stop-color="#61F0CC"/>
<stop offset="0.555208" stop-color="#1DC4E9"/>
<stop offset="0.997917" stop-color="#04A9F5"/>
</linearGradient>
<linearGradient id="paint1_linear_5475_17040" x1="42.1441" y1="127.098" x2="188.769" y2="57.7159" gradientUnits="userSpaceOnUse">
<stop stop-color="#61F0CC"/>
<stop offset="0.555208" stop-color="#1DC4E9"/>
<stop offset="0.997917" stop-color="#04A9F5"/>
</linearGradient>
<linearGradient id="paint2_linear_5475_17040" x1="47.2099" y1="118.555" x2="185.146" y2="53.2984" gradientUnits="userSpaceOnUse">
<stop stop-color="#61F0CC"/>
<stop offset="0.555208" stop-color="#1DC4E9"/>
<stop offset="0.997917" stop-color="#04A9F5"/>
</linearGradient>
<linearGradient id="paint3_linear_5475_17040" x1="51.7463" y1="109.869" x2="181.883" y2="48.2924" gradientUnits="userSpaceOnUse">
<stop stop-color="#61F0CC"/>
<stop offset="0.555208" stop-color="#1DC4E9"/>
<stop offset="0.997917" stop-color="#04A9F5"/>
</linearGradient>
<linearGradient id="paint4_linear_5475_17040" x1="55.6373" y1="101.025" x2="179.012" y2="42.6347" gradientUnits="userSpaceOnUse">
<stop stop-color="#61F0CC"/>
<stop offset="0.555208" stop-color="#1DC4E9"/>
<stop offset="0.997917" stop-color="#04A9F5"/>
</linearGradient>
<linearGradient id="paint5_linear_5475_17040" x1="58.8123" y1="91.9483" x2="176.668" y2="36.1879" gradientUnits="userSpaceOnUse">
<stop stop-color="#61F0CC"/>
<stop offset="0.555208" stop-color="#1DC4E9"/>
<stop offset="0.997917" stop-color="#04A9F5"/>
</linearGradient>
<linearGradient id="paint6_linear_5475_17040" x1="61.1194" y1="82.6393" x2="174.87" y2="28.8091" gradientUnits="userSpaceOnUse">
<stop stop-color="#61F0CC"/>
<stop offset="0.555208" stop-color="#1DC4E9"/>
<stop offset="0.997917" stop-color="#04A9F5"/>
</linearGradient>
<linearGradient id="paint7_linear_5475_17040" x1="62.4744" y1="73.0703" x2="173.668" y2="20.4358" gradientUnits="userSpaceOnUse">
<stop stop-color="#61F0CC"/>
<stop offset="0.555208" stop-color="#1DC4E9"/>
<stop offset="0.997917" stop-color="#04A9F5"/>
</linearGradient>
<linearGradient id="paint8_linear_5475_17040" x1="62.8332" y1="63.2121" x2="173.166" y2="10.9875" gradientUnits="userSpaceOnUse">
<stop stop-color="#61F0CC"/>
<stop offset="0.555208" stop-color="#1DC4E9"/>
<stop offset="0.997917" stop-color="#04A9F5"/>
</linearGradient>
<linearGradient id="paint9_linear_5475_17040" x1="62.1503" y1="53.0645" x2="173.344" y2="0.429981" gradientUnits="userSpaceOnUse">
<stop stop-color="#61F0CC"/>
<stop offset="0.555208" stop-color="#1DC4E9"/>
<stop offset="0.997917" stop-color="#04A9F5"/>
</linearGradient>
<linearGradient id="paint10_linear_5475_17040" x1="60.4352" y1="42.645" x2="174.186" y2="-11.1851" gradientUnits="userSpaceOnUse">
<stop stop-color="#61F0CC"/>
<stop offset="0.555208" stop-color="#1DC4E9"/>
<stop offset="0.997917" stop-color="#04A9F5"/>
</linearGradient>
<linearGradient id="paint11_linear_5475_17040" x1="57.8036" y1="31.9481" x2="175.658" y2="-23.8121" gradientUnits="userSpaceOnUse">
<stop stop-color="#61F0CC"/>
<stop offset="0.555208" stop-color="#1DC4E9"/>
<stop offset="0.997917" stop-color="#04A9F5"/>
</linearGradient>
<linearGradient id="paint12_linear_5475_17040" x1="54.3045" y1="21.0198" x2="177.679" y2="-37.3708" gradientUnits="userSpaceOnUse">
<stop stop-color="#61F0CC"/>
<stop offset="0.555208" stop-color="#1DC4E9"/>
<stop offset="0.997917" stop-color="#04A9F5"/>
</linearGradient>
<linearGradient id="paint13_linear_5475_17040" x1="50.0534" y1="9.8743" x2="180.19" y2="-51.7019" gradientUnits="userSpaceOnUse">
<stop stop-color="#61F0CC"/>
<stop offset="0.555208" stop-color="#1DC4E9"/>
<stop offset="0.997917" stop-color="#04A9F5"/>
</linearGradient>
<linearGradient id="paint14_linear_5475_17040" x1="45.1925" y1="-1.44445" x2="183.129" y2="-66.7015" gradientUnits="userSpaceOnUse">
<stop stop-color="#61F0CC"/>
<stop offset="0.555208" stop-color="#1DC4E9"/>
<stop offset="0.997917" stop-color="#04A9F5"/>
</linearGradient>
<linearGradient id="paint15_linear_5475_17040" x1="38.9021" y1="-12.908" x2="185.526" y2="-82.2901" gradientUnits="userSpaceOnUse">
<stop stop-color="#61F0CC"/>
<stop offset="0.555208" stop-color="#1DC4E9"/>
<stop offset="0.997917" stop-color="#04A9F5"/>
</linearGradient>
<linearGradient id="paint16_linear_5475_17040" x1="33.9183" y1="-24.4843" x2="189.977" y2="-98.3242" gradientUnits="userSpaceOnUse">
<stop stop-color="#61F0CC"/>
<stop offset="0.555208" stop-color="#1DC4E9"/>
<stop offset="0.997917" stop-color="#04A9F5"/>
</linearGradient>
<clipPath id="clip0_5475_17040">
<rect width="147" height="167" fill="white"/>
</clipPath>
</defs>
</svg>
