<svg width="22" height="16" viewBox="0 0 22 16" fill="none" xmlns="http://www.w3.org/2000/svg">
<g id="Group">
<g id="Vector">
<path d="M0.292999 8.7193L7.293 15.7193C7.4816 15.9014 7.7342 16.0022 7.9964 16C8.2586 15.9977 8.50941 15.8925 8.69482 15.7071C8.88023 15.5217 8.9854 15.2709 8.98767 15.0087C8.98995 14.7465 8.88916 14.4939 8.707 14.3053L3.414 9.0123L21 9.0123C21.2652 9.0123 21.5196 8.90694 21.7071 8.71941C21.8946 8.53187 22 8.27752 22 8.0123C22 7.74709 21.8946 7.49273 21.7071 7.3052C21.5196 7.11766 21.2652 7.0123 21 7.0123L3.414 7.0123L8.707 1.71931C8.80251 1.62707 8.87869 1.51672 8.9311 1.39472C8.98351 1.27271 9.0111 1.14149 9.01225 1.00871C9.0134 0.875936 8.9881 0.744258 8.93782 0.621362C8.88754 0.498466 8.81329 0.386813 8.71939 0.29292C8.6255 0.199028 8.51385 0.124774 8.39095 0.0744934C8.26806 0.0242128 8.13638 -0.0010891 8.0036 6.48499e-05C7.87082 0.0012188 7.7396 0.0288057 7.6176 0.0812149C7.49559 0.133624 7.38525 0.209805 7.293 0.305314L0.292999 7.3053C0.105528 7.49283 0.000213623 7.74714 0.000213623 8.0123C0.000213623 8.27747 0.105528 8.53177 0.292999 8.7193Z" fill="#231F20"/>
<path d="M0.292999 8.7193L7.293 15.7193C7.4816 15.9014 7.7342 16.0022 7.9964 16C8.2586 15.9977 8.50941 15.8925 8.69482 15.7071C8.88023 15.5217 8.9854 15.2709 8.98767 15.0087C8.98995 14.7465 8.88916 14.4939 8.707 14.3053L3.414 9.0123L21 9.0123C21.2652 9.0123 21.5196 8.90694 21.7071 8.71941C21.8946 8.53187 22 8.27752 22 8.0123C22 7.74709 21.8946 7.49273 21.7071 7.3052C21.5196 7.11766 21.2652 7.0123 21 7.0123L3.414 7.0123L8.707 1.71931C8.80251 1.62707 8.87869 1.51672 8.9311 1.39472C8.98351 1.27271 9.0111 1.14149 9.01225 1.00871C9.0134 0.875936 8.9881 0.744258 8.93782 0.621362C8.88754 0.498466 8.81329 0.386813 8.71939 0.29292C8.6255 0.199028 8.51385 0.124774 8.39095 0.0744934C8.26806 0.0242128 8.13638 -0.0010891 8.0036 6.48499e-05C7.87082 0.0012188 7.7396 0.0288057 7.6176 0.0812149C7.49559 0.133624 7.38525 0.209805 7.293 0.305314L0.292999 7.3053C0.105528 7.49283 0.000213623 7.74714 0.000213623 8.0123C0.000213623 8.27747 0.105528 8.53177 0.292999 8.7193Z" fill="black" fill-opacity="0.2"/>
<path d="M0.292999 8.7193L7.293 15.7193C7.4816 15.9014 7.7342 16.0022 7.9964 16C8.2586 15.9977 8.50941 15.8925 8.69482 15.7071C8.88023 15.5217 8.9854 15.2709 8.98767 15.0087C8.98995 14.7465 8.88916 14.4939 8.707 14.3053L3.414 9.0123L21 9.0123C21.2652 9.0123 21.5196 8.90694 21.7071 8.71941C21.8946 8.53187 22 8.27752 22 8.0123C22 7.74709 21.8946 7.49273 21.7071 7.3052C21.5196 7.11766 21.2652 7.0123 21 7.0123L3.414 7.0123L8.707 1.71931C8.80251 1.62707 8.87869 1.51672 8.9311 1.39472C8.98351 1.27271 9.0111 1.14149 9.01225 1.00871C9.0134 0.875936 8.9881 0.744258 8.93782 0.621362C8.88754 0.498466 8.81329 0.386813 8.71939 0.29292C8.6255 0.199028 8.51385 0.124774 8.39095 0.0744934C8.26806 0.0242128 8.13638 -0.0010891 8.0036 6.48499e-05C7.87082 0.0012188 7.7396 0.0288057 7.6176 0.0812149C7.49559 0.133624 7.38525 0.209805 7.293 0.305314L0.292999 7.3053C0.105528 7.49283 0.000213623 7.74714 0.000213623 8.0123C0.000213623 8.27747 0.105528 8.53177 0.292999 8.7193Z" fill="black" fill-opacity="0.2"/>
<path d="M0.292999 8.7193L7.293 15.7193C7.4816 15.9014 7.7342 16.0022 7.9964 16C8.2586 15.9977 8.50941 15.8925 8.69482 15.7071C8.88023 15.5217 8.9854 15.2709 8.98767 15.0087C8.98995 14.7465 8.88916 14.4939 8.707 14.3053L3.414 9.0123L21 9.0123C21.2652 9.0123 21.5196 8.90694 21.7071 8.71941C21.8946 8.53187 22 8.27752 22 8.0123C22 7.74709 21.8946 7.49273 21.7071 7.3052C21.5196 7.11766 21.2652 7.0123 21 7.0123L3.414 7.0123L8.707 1.71931C8.80251 1.62707 8.87869 1.51672 8.9311 1.39472C8.98351 1.27271 9.0111 1.14149 9.01225 1.00871C9.0134 0.875936 8.9881 0.744258 8.93782 0.621362C8.88754 0.498466 8.81329 0.386813 8.71939 0.29292C8.6255 0.199028 8.51385 0.124774 8.39095 0.0744934C8.26806 0.0242128 8.13638 -0.0010891 8.0036 6.48499e-05C7.87082 0.0012188 7.7396 0.0288057 7.6176 0.0812149C7.49559 0.133624 7.38525 0.209805 7.293 0.305314L0.292999 7.3053C0.105528 7.49283 0.000213623 7.74714 0.000213623 8.0123C0.000213623 8.27747 0.105528 8.53177 0.292999 8.7193Z" fill="black" fill-opacity="0.2"/>
<path d="M0.292999 8.7193L7.293 15.7193C7.4816 15.9014 7.7342 16.0022 7.9964 16C8.2586 15.9977 8.50941 15.8925 8.69482 15.7071C8.88023 15.5217 8.9854 15.2709 8.98767 15.0087C8.98995 14.7465 8.88916 14.4939 8.707 14.3053L3.414 9.0123L21 9.0123C21.2652 9.0123 21.5196 8.90694 21.7071 8.71941C21.8946 8.53187 22 8.27752 22 8.0123C22 7.74709 21.8946 7.49273 21.7071 7.3052C21.5196 7.11766 21.2652 7.0123 21 7.0123L3.414 7.0123L8.707 1.71931C8.80251 1.62707 8.87869 1.51672 8.9311 1.39472C8.98351 1.27271 9.0111 1.14149 9.01225 1.00871C9.0134 0.875936 8.9881 0.744258 8.93782 0.621362C8.88754 0.498466 8.81329 0.386813 8.71939 0.29292C8.6255 0.199028 8.51385 0.124774 8.39095 0.0744934C8.26806 0.0242128 8.13638 -0.0010891 8.0036 6.48499e-05C7.87082 0.0012188 7.7396 0.0288057 7.6176 0.0812149C7.49559 0.133624 7.38525 0.209805 7.293 0.305314L0.292999 7.3053C0.105528 7.49283 0.000213623 7.74714 0.000213623 8.0123C0.000213623 8.27747 0.105528 8.53177 0.292999 8.7193Z" fill="black" fill-opacity="0.2"/>
<path d="M0.292999 8.7193L7.293 15.7193C7.4816 15.9014 7.7342 16.0022 7.9964 16C8.2586 15.9977 8.50941 15.8925 8.69482 15.7071C8.88023 15.5217 8.9854 15.2709 8.98767 15.0087C8.98995 14.7465 8.88916 14.4939 8.707 14.3053L3.414 9.0123L21 9.0123C21.2652 9.0123 21.5196 8.90694 21.7071 8.71941C21.8946 8.53187 22 8.27752 22 8.0123C22 7.74709 21.8946 7.49273 21.7071 7.3052C21.5196 7.11766 21.2652 7.0123 21 7.0123L3.414 7.0123L8.707 1.71931C8.80251 1.62707 8.87869 1.51672 8.9311 1.39472C8.98351 1.27271 9.0111 1.14149 9.01225 1.00871C9.0134 0.875936 8.9881 0.744258 8.93782 0.621362C8.88754 0.498466 8.81329 0.386813 8.71939 0.29292C8.6255 0.199028 8.51385 0.124774 8.39095 0.0744934C8.26806 0.0242128 8.13638 -0.0010891 8.0036 6.48499e-05C7.87082 0.0012188 7.7396 0.0288057 7.6176 0.0812149C7.49559 0.133624 7.38525 0.209805 7.293 0.305314L0.292999 7.3053C0.105528 7.49283 0.000213623 7.74714 0.000213623 8.0123C0.000213623 8.27747 0.105528 8.53177 0.292999 8.7193Z" fill="black" fill-opacity="0.2"/>
<path d="M0.292999 8.7193L7.293 15.7193C7.4816 15.9014 7.7342 16.0022 7.9964 16C8.2586 15.9977 8.50941 15.8925 8.69482 15.7071C8.88023 15.5217 8.9854 15.2709 8.98767 15.0087C8.98995 14.7465 8.88916 14.4939 8.707 14.3053L3.414 9.0123L21 9.0123C21.2652 9.0123 21.5196 8.90694 21.7071 8.71941C21.8946 8.53187 22 8.27752 22 8.0123C22 7.74709 21.8946 7.49273 21.7071 7.3052C21.5196 7.11766 21.2652 7.0123 21 7.0123L3.414 7.0123L8.707 1.71931C8.80251 1.62707 8.87869 1.51672 8.9311 1.39472C8.98351 1.27271 9.0111 1.14149 9.01225 1.00871C9.0134 0.875936 8.9881 0.744258 8.93782 0.621362C8.88754 0.498466 8.81329 0.386813 8.71939 0.29292C8.6255 0.199028 8.51385 0.124774 8.39095 0.0744934C8.26806 0.0242128 8.13638 -0.0010891 8.0036 6.48499e-05C7.87082 0.0012188 7.7396 0.0288057 7.6176 0.0812149C7.49559 0.133624 7.38525 0.209805 7.293 0.305314L0.292999 7.3053C0.105528 7.49283 0.000213623 7.74714 0.000213623 8.0123C0.000213623 8.27747 0.105528 8.53177 0.292999 8.7193Z" fill="black" fill-opacity="0.2"/>
</g>
</g>
</svg>
