<svg width="170" height="60" viewBox="0 0 170 60" fill="none" xmlns="http://www.w3.org/2000/svg">
<path d="M30.0703 4.98628C32.2181 5.06583 34.3792 5.11887 36.5403 5.05258C37.1899 5.03269 37.8329 5.00617 38.4826 4.98628C38.4229 4.98628 38.3633 4.97965 38.3036 4.97302C35.5724 4.80729 32.8015 4.83381 30.0769 4.98628" fill="#005A64"/>
<path d="M63.3281 4.56082C63.3281 4.56082 48.3531 6.81472 43.8387 15.3729C43.7591 15.1077 43.2951 11.1104 43.1824 9.66523C43.1095 8.74379 42.8178 6.84786 42.2875 6.07226C41.9826 5.62148 41.2202 5.38946 40.2988 5.20385C40.2391 4.20285 40.1397 3.49354 39.9607 3.0759C39.8546 2.83063 39.5762 2.6185 39.1718 2.43951C39.1718 2.38648 39.1785 2.32682 39.1785 2.27379V1.7302C39.1785 0.775605 38.4029 0 37.4483 0H31.091C30.1364 0 29.3608 0.775605 29.3608 1.7302V2.27379C29.3608 2.32682 29.3608 2.37986 29.3675 2.43289C29.0161 2.58536 28.7709 2.77097 28.6648 2.97647C28.4063 3.48691 28.2604 4.25588 28.1941 5.13755C27.1865 5.31654 26.6495 5.42924 26.2385 5.83361C25.4828 6.58933 25.2707 8.5648 25.1713 9.51939C25.0254 10.8717 24.621 14.7564 24.621 14.9354C23.8852 13.5764 22.9969 12.4031 22.0026 11.3755C21.7175 11.0772 21.4192 10.7988 21.1209 10.527C14.7173 4.77958 5.125 4.5542 5.125 4.5542C15.9304 10.3745 19.4239 13.1985 22.4202 26.1717C23.2223 29.6321 24.4354 32.4296 25.7811 34.6702C25.9336 36.4402 26.1126 37.9848 26.3049 38.9128C27.0805 42.5854 27.5843 46.2977 28.625 49.9171C29.6724 53.5366 31.2899 57.1097 34.0476 60C35.4861 57.9582 36.7058 55.7971 37.6869 53.5698C39.1056 50.3348 40.206 46.6357 40.7098 44.2625C41.081 42.5191 41.8168 39.0321 42.0621 37.2688C42.1417 36.6921 42.2278 36.0027 42.3074 35.2469C43.7989 32.9135 45.1579 29.937 46.0263 26.1717C49.0226 13.2052 52.5095 10.3745 63.3215 4.5542M24.3957 26.1916C24.1769 24.2625 24.0045 22.3136 23.5471 20.4176C22.9505 18.462 22.5329 17.1429 21.3861 15.7043C21.0215 15.2337 20.6436 14.7763 20.2657 14.3255C20.4978 14.5641 20.7298 14.8028 20.9618 15.0481C22.4534 16.6059 23.4875 17.819 24.283 19.6089C24.3957 19.8608 24.8332 20.8618 25.1116 22.2406C25.2641 22.9698 25.2906 23.4405 25.4033 24.7133C25.4232 24.9586 25.6287 27.2986 25.7281 28.2267C25.8474 29.3271 26.0993 30.9049 26.6827 32.8339C25.7148 30.706 24.6675 28.5383 24.389 26.1916M39.5232 30.9844C39.1851 32.8406 38.8669 36.7186 38.6216 38.6212C38.2835 41.2198 37.5544 45.2569 36.6064 48.7902C35.9501 51.2297 35.1348 53.583 34.1735 55.817C32.3307 52.655 31.2501 48.757 30.5541 44.7995C29.858 40.8419 29.5199 36.7849 29.0028 32.7809C28.6648 30.1492 28.5587 28.7968 28.4659 27.3583C28.2405 23.8714 28.2803 20.7955 28.3201 17.7594C28.34 16.0093 28.3731 15.2801 28.3797 13.1455C28.3863 10.1823 28.3797 8.9294 28.3797 8.9294C28.3532 5.2171 28.267 3.3013 29.2548 2.824C29.3807 2.76434 29.4934 2.73783 29.5597 2.7312V1.71694C29.5597 0.875049 30.2425 0.198875 31.0777 0.198875H37.4483C38.2902 0.198875 38.9663 0.881678 38.9663 1.71694V2.71794C39.2912 2.87703 39.5166 3.06928 39.6027 3.28804C40.1927 4.68678 39.8546 9.31389 40.1596 17.7991C40.2789 21.1004 39.7618 29.6586 39.5232 30.9844ZM43.9116 26.1916C43.6332 28.5383 42.5858 30.706 41.618 32.8339C42.2013 30.9049 42.4532 29.3271 42.5726 28.2267C42.672 27.292 42.8775 24.9519 42.8974 24.7133C43.0101 23.4405 43.0366 22.9698 43.1891 22.2406C43.4741 20.8618 43.905 19.8608 44.0177 19.6089C44.8132 17.819 45.8473 16.6059 47.3388 15.0481C47.5709 14.8094 47.8029 14.5708 48.0349 14.3255C47.657 14.7829 47.2792 15.2403 46.9146 15.7043C45.7678 17.1429 45.3501 18.462 44.7535 20.4176C44.2961 22.3136 44.1238 24.2625 43.905 26.1916" fill="#005A64"/>
<path d="M31.5622 45.1251C32.1655 48.2474 32.8549 49.4605 33.6172 52.4304L30.7402 37.3823C30.8397 39.3445 31.191 43.1961 31.5689 45.1251" fill="#005A64"/>
<path d="M36.4478 45.2775C36.8257 43.3484 37.1704 39.4969 37.2764 37.5347L34.3994 52.5827C35.1618 49.6129 35.8446 48.3998 36.4544 45.2775" fill="#005A64"/>
<path d="M35.2803 10.9795H33.1855C31.9922 10.9795 31.0244 11.9473 31.0244 13.1406V31.0922C31.0244 32.2854 31.9922 33.2533 33.1855 33.2533H35.2803C36.4735 33.2533 37.4413 32.2854 37.4413 31.0922V13.1406C37.4413 11.9473 36.4735 10.9795 35.2803 10.9795Z" fill="#005A64"/>
<path d="M31.031 4.59534C31.031 4.59534 31.031 4.53568 31.031 4.50916C31.1039 3.22312 31.0906 1.91056 31.031 0.624512C30.9978 1.63876 30.978 2.65964 31.0045 3.68053C31.0111 3.98546 31.0244 4.29041 31.031 4.59534Z" fill="#005A64"/>
<path d="M30.4343 4.59534C30.4343 4.59534 30.4343 4.53568 30.4343 4.50916C30.5072 3.22312 30.494 1.91056 30.4343 0.624512C30.4012 1.63876 30.3813 2.65964 30.4078 3.68053C30.4144 3.98546 30.4277 4.29041 30.4343 4.59534Z" fill="#005A64"/>
<path d="M32.2175 4.59534C32.2175 4.59534 32.2175 4.53568 32.2175 4.50916C32.2905 3.22312 32.2772 1.91056 32.2175 0.624512C32.1844 1.63876 32.1645 2.65964 32.191 3.68053C32.1976 3.98546 32.2109 4.29041 32.2175 4.59534Z" fill="#005A64"/>
<path d="M31.6277 4.59534C31.6277 4.59534 31.6277 4.53568 31.6277 4.50916C31.7006 3.22312 31.6873 1.91056 31.6277 0.624512C31.5945 1.63876 31.5746 2.65964 31.6012 3.68053C31.6078 3.98546 31.621 4.29041 31.6277 4.59534Z" fill="#005A64"/>
<path d="M33.404 4.59534C33.404 4.59534 33.404 4.53568 33.404 4.50916C33.4769 3.22312 33.4637 1.91056 33.404 0.624512C33.3709 1.63876 33.351 2.65964 33.3775 3.68053C33.3842 3.98546 33.3974 4.29041 33.404 4.59534Z" fill="#005A64"/>
<path d="M32.8152 4.59534C32.8152 4.59534 32.8152 4.53568 32.8152 4.50916C32.8881 3.22312 32.8748 1.91056 32.8152 0.624512C32.782 1.63876 32.7621 2.65964 32.7887 3.68053C32.7953 3.98546 32.8085 4.29041 32.8152 4.59534Z" fill="#005A64"/>
<path d="M34.5974 4.59534C34.5974 4.59534 34.5974 4.53568 34.5974 4.50916C34.6703 3.22312 34.657 1.91056 34.5974 0.624512C34.5642 1.63876 34.5444 2.65964 34.5709 3.68053C34.5775 3.98546 34.5908 4.29041 34.5974 4.59534Z" fill="#005A64"/>
<path d="M34.0007 4.59534C34.0007 4.59534 34.0007 4.53568 34.0007 4.50916C34.0737 3.22312 34.0604 1.91056 34.0007 0.624512C33.9676 1.63876 33.9477 2.65964 33.9742 3.68053C33.9808 3.98546 33.9941 4.29041 34.0007 4.59534Z" fill="#005A64"/>
<path d="M35.7849 4.59534C35.7849 4.59534 35.7849 4.53568 35.7849 4.50916C35.8578 3.22312 35.8446 1.91056 35.7849 0.624512C35.7518 1.63876 35.7319 2.65964 35.7584 3.68053C35.765 3.98546 35.7783 4.29041 35.7849 4.59534Z" fill="#005A64"/>
<path d="M35.1872 4.59534C35.1872 4.59534 35.1872 4.53568 35.1872 4.50916C35.2601 3.22312 35.2469 1.91056 35.1872 0.624512C35.1541 1.63876 35.1342 2.65964 35.1607 3.68053C35.1674 3.98546 35.1806 4.29041 35.1872 4.59534Z" fill="#005A64"/>
<path d="M36.9714 4.59534C36.9714 4.59534 36.9714 4.53568 36.9714 4.50916C37.0443 3.22312 37.0311 1.91056 36.9714 0.624512C36.9383 1.63876 36.9184 2.65964 36.9449 3.68053C36.9515 3.98546 36.9648 4.29041 36.9714 4.59534Z" fill="#005A64"/>
<path d="M36.3738 4.59534C36.3738 4.59534 36.3738 4.53568 36.3738 4.50916C36.4467 3.22312 36.4334 1.91056 36.3738 0.624512C36.3406 1.63876 36.3207 2.65964 36.3472 3.68053C36.3539 3.98546 36.3672 4.29041 36.3738 4.59534Z" fill="#005A64"/>
<path d="M38.1238 4.59534C38.1238 4.59534 38.1238 4.53568 38.1238 4.50916C38.1967 3.22312 38.1834 1.91056 38.1238 0.624512C38.0906 1.63876 38.0707 2.65964 38.0973 3.68053C38.1039 3.98546 38.1171 4.29041 38.1238 4.59534Z" fill="#005A64"/>
<path d="M37.5349 4.59534C37.5349 4.59534 37.5349 4.53568 37.5349 4.50916C37.6078 3.22312 37.5946 1.91056 37.5349 0.624512C37.5018 1.63876 37.4819 2.65964 37.5084 3.68053C37.515 3.98546 37.5283 4.29041 37.5349 4.59534Z" fill="#005A64"/>
<path d="M53.1719 20.3193C52.7078 20.6176 52.2438 20.9225 51.8328 21.2937C51.5477 21.5722 51.2892 21.8771 51.0505 22.2019C50.507 22.9444 50.0695 23.7531 49.506 24.4823C48.8762 25.2579 48.1338 25.9275 47.4443 26.6434C48.6773 25.8214 49.97 25.006 50.9047 23.8327C51.6737 22.8648 52.4161 21.8705 53.2978 21.0021C54.2723 20.1469 54.9418 19.5768 56.0422 19.1857C56.3936 19.0531 56.7515 18.9338 57.1095 18.8145C56.904 18.8675 56.6985 18.9205 56.493 18.9669C55.3197 19.2387 54.1861 19.6563 53.1719 20.3126" fill="#005A64"/>
<path d="M68.2807 7.87695C67.9029 7.89684 67.5317 7.92336 67.1538 7.94325C65.006 8.02943 62.9709 8.37414 61.2341 9.12323C60.432 9.46131 59.6497 9.82591 58.9736 10.2966C58.5162 10.6678 58.1052 11.0788 57.7538 11.5296C56.9385 12.5637 56.3484 13.7437 55.4867 14.7381C54.5255 15.7987 53.3057 16.6605 52.2119 17.6151C54.3133 16.6539 56.5275 15.7192 57.9593 14.1149C59.1327 12.7825 60.253 11.4036 61.6716 10.2701C63.2758 9.18289 64.3763 8.46031 66.3517 8.15537C66.9881 8.04931 67.6311 7.96313 68.2742 7.87695" fill="#005A64"/>
<path d="M13.8293 21.2872C14.711 22.1556 15.4534 23.15 16.2224 24.1112C17.1571 25.2846 18.4497 26.0999 19.6827 26.9219C18.9933 26.206 18.2509 25.5365 17.6211 24.7609C17.0576 24.0383 16.6201 23.2229 16.0765 22.4804C15.8379 22.1556 15.5793 21.8507 15.2943 21.5723C14.8833 21.201 14.4193 20.8961 13.9552 20.5978C12.941 19.9481 11.8074 19.5239 10.6341 19.2521C10.4286 19.199 10.2231 19.146 10.0176 19.0996C10.3755 19.2189 10.7335 19.3383 11.0848 19.4708C12.1853 19.862 12.8482 20.432 13.8293 21.2872Z" fill="#005A64"/>
<path d="M16.0689 17.4623C14.9751 16.5077 13.7553 15.6525 12.7941 14.5852C11.9323 13.5909 11.3423 12.4043 10.527 11.3768C10.1756 10.926 9.76463 10.515 9.30723 10.1437C8.63106 9.67307 7.84881 9.30847 7.0467 8.97039C5.30988 8.2213 3.27476 7.87658 1.12695 7.79041C0.755721 7.76389 0.377857 7.74401 0 7.72412C0.643019 7.8103 1.28605 7.89648 1.92244 8.00254C3.8979 8.30748 4.99833 9.03006 6.60256 10.1172C8.02781 11.2508 9.14147 12.6297 10.3148 13.9621C11.7467 15.573 13.9608 16.5077 16.0622 17.4623" fill="#005A64"/>
<path d="M82.1285 21.7167C82.7781 21.7167 83.083 21.9222 83.1162 23.0757V42.552L67.4849 21.4715H64.9658V21.7101C64.9658 21.7101 65.6486 21.7433 66.2916 22.0482V41.3919C66.2585 42.4791 65.9535 42.6846 65.337 42.6846V42.9232H67.5512V42.6846C66.9015 42.6846 66.5966 42.4791 66.5966 41.2527V22.2471C66.696 22.3465 66.8352 22.4526 66.9347 22.552L82.0224 42.9166H83.388V23.0624C83.4212 21.9024 83.7261 21.7035 84.3757 21.7035V21.4648H82.1285V21.7035V21.7167Z" fill="#005A64"/>
<path d="M103.62 21.7161C104.269 21.7161 104.574 21.9216 104.641 22.8762V36.088C104.641 39.7009 101.545 42.2862 97.6933 42.2862L95.5123 42.2531C93.2982 42.2531 89.5197 39.7009 89.5197 36.088L89.3804 22.5713C89.4799 21.8553 89.7914 21.683 90.335 21.683V21.4443H87.2393V21.683C87.8558 21.683 88.1607 21.8553 88.227 22.8099V36.0549C88.227 39.8334 91.4951 42.9027 95.5123 42.9027H97.6933C101.71 42.9027 104.945 39.8401 104.945 36.0549V23.148C104.945 21.8885 105.25 21.683 105.966 21.683V21.4443L103.62 21.4775V21.7161Z" fill="#005A64"/>
<path d="M124.397 41.8773V41.811L124.158 41.2674L117.078 22.1623C117.25 21.8243 117.522 21.7513 117.927 21.7513V21.5127H115.852L107.777 41.2674L107.473 42.0496C107.168 42.5269 106.723 42.7325 106.279 42.7325V42.9711H108.387V42.7325C107.811 42.7325 107.638 42.4938 107.943 41.7116L110.94 34.3533H120.611L123.575 42.4209C123.435 42.6927 123.197 42.759 122.825 42.759V42.9976H125.722V42.759C125.212 42.759 124.735 42.5203 124.397 41.8707M111.079 34.0748L116.017 21.9834L120.479 34.0748H111.079Z" fill="#005A64"/>
<path d="M145.271 28.1551C145.271 26.3188 144.522 24.6814 143.329 23.455C142.103 22.2618 140.432 21.5127 138.596 21.5127H127.804V21.7513C128.414 21.7513 128.725 21.9569 128.758 23.0109V41.4663C128.725 42.5203 128.42 42.7258 127.804 42.7258V42.9644H130.734V42.7258C130.084 42.7258 129.779 42.5203 129.779 41.2608V34.8239H137.509L141.592 41.3934C142.103 42.1756 142.103 42.686 141.453 42.686V42.9247H142.507V42.8584L142.54 42.9247H144.516V42.686C143.906 42.686 143.117 42.0761 142.64 41.3271H142.606L138.689 34.8239C142.301 34.7576 145.258 31.7944 145.258 28.1484M137.933 34.4129H129.792V21.8442H137.933C139.703 21.8442 141.267 22.5601 142.394 23.6804C143.521 24.8074 144.231 26.3718 144.231 28.1086C144.231 31.5823 141.407 34.4063 137.933 34.4063" fill="#005A64"/>
<path d="M148.234 21.7165C148.884 21.7165 149.189 21.922 149.189 23.1152V41.332C149.156 42.4921 148.851 42.6909 148.234 42.6909V42.9296H151.131V42.6909C150.482 42.6909 150.177 42.4854 150.177 41.2591L150.21 41.2259V23.1086C150.21 21.9153 150.515 21.7098 151.164 21.7098V21.4712H148.234V21.7098V21.7165Z" fill="#005A64"/>
<path d="M155.387 26.5495L155.354 26.5163C155.354 22.1212 160.498 21.4451 162.473 21.4451C165.403 21.4451 166.868 23.4205 166.868 23.4205L167.246 22.6383C167.246 22.6383 165.92 21.1401 162.513 21.1401C161.492 21.1401 154.677 21.1733 154.677 27.3052C154.677 34.9353 167.995 31.7666 167.995 37.9979C167.995 40.8948 166.431 42.9035 161.048 42.9035C158.191 42.9035 156.553 42.393 155.36 41.8163C154.545 41.4053 154.472 40.5568 154.472 40.5568L153.855 41.6837C153.855 41.6837 156.036 43.2482 161.108 43.2482C166.729 43.2482 169.52 41.0341 169.52 37.5936C169.52 31.1236 155.387 33.2714 155.387 26.5627" fill="#005A64"/>
<path d="M164.142 57.945C163.659 57.945 163.226 57.8366 162.841 57.6199C162.464 57.3962 162.163 57.0955 161.939 56.718C161.723 56.3335 161.614 55.9 161.614 55.4176C161.614 54.9422 161.719 54.5157 161.929 54.1381C162.146 53.7606 162.439 53.4635 162.81 53.2467C163.187 53.023 163.61 52.9111 164.079 52.9111C164.512 52.9111 164.893 53.009 165.222 53.2048C165.557 53.3935 165.82 53.6592 166.008 54.0018C166.197 54.3444 166.292 54.7394 166.292 55.1869C166.292 55.2148 166.288 55.2603 166.281 55.3232C166.281 55.3791 166.274 55.4525 166.26 55.5434H161.845V55.2393H166.05L165.956 55.3127C165.984 54.9002 165.921 54.5367 165.767 54.222C165.613 53.9074 165.39 53.6627 165.096 53.4879C164.809 53.3062 164.467 53.2153 164.068 53.2153C163.649 53.2153 163.278 53.3096 162.957 53.4984C162.642 53.6802 162.394 53.9354 162.212 54.264C162.037 54.5856 161.95 54.9631 161.95 55.3966C161.95 55.8441 162.041 56.2356 162.223 56.5712C162.411 56.9068 162.673 57.169 163.009 57.3577C163.345 57.5465 163.736 57.6409 164.184 57.6409C164.519 57.6409 164.827 57.578 165.106 57.4521C165.393 57.3263 165.634 57.1375 165.83 56.8858L166.05 57.106C165.834 57.3647 165.557 57.571 165.222 57.7248C164.893 57.8716 164.533 57.945 164.142 57.945Z" fill="#006980"/>
<path d="M158.087 57.8401V53.016H158.412V57.8401H158.087ZM158.412 54.8932L158.192 54.8303C158.192 54.215 158.353 53.7431 158.674 53.4145C159.003 53.0789 159.412 52.9111 159.901 52.9111C160.139 52.9111 160.359 52.9531 160.562 53.037C160.772 53.1209 160.964 53.2537 161.139 53.4355L160.918 53.6767C160.772 53.5159 160.611 53.4005 160.436 53.3306C160.268 53.2607 160.072 53.2257 159.849 53.2257C159.422 53.2257 159.076 53.3726 158.811 53.6662C158.545 53.9529 158.412 54.3619 158.412 54.8932Z" fill="#006980"/>
<path d="M154.618 57.945C154.136 57.945 153.702 57.8366 153.318 57.6199C152.94 57.3962 152.64 57.0955 152.416 56.718C152.199 56.3335 152.091 55.9 152.091 55.4176C152.091 54.9422 152.196 54.5157 152.405 54.1381C152.622 53.7606 152.916 53.4635 153.286 53.2467C153.664 53.023 154.087 52.9111 154.555 52.9111C154.989 52.9111 155.37 53.009 155.698 53.2048C156.034 53.3935 156.296 53.6592 156.485 54.0018C156.674 54.3444 156.768 54.7394 156.768 55.1869C156.768 55.2148 156.765 55.2603 156.758 55.3232C156.758 55.3791 156.751 55.4525 156.737 55.5434H152.322V55.2393H156.527L156.433 55.3127C156.46 54.9002 156.398 54.5367 156.244 54.222C156.09 53.9074 155.866 53.6627 155.573 53.4879C155.286 53.3062 154.943 53.2153 154.545 53.2153C154.125 53.2153 153.755 53.3096 153.433 53.4984C153.119 53.6802 152.87 53.9354 152.689 54.264C152.514 54.5856 152.426 54.9631 152.426 55.3966C152.426 55.8441 152.517 56.2356 152.699 56.5712C152.888 56.9068 153.15 57.169 153.486 57.3577C153.821 57.5465 154.213 57.6409 154.66 57.6409C154.996 57.6409 155.303 57.578 155.583 57.4521C155.87 57.3263 156.111 57.1375 156.307 56.8858L156.527 57.106C156.31 57.3647 156.034 57.571 155.698 57.7248C155.37 57.8716 155.01 57.945 154.618 57.945Z" fill="#006980"/>
<path d="M145.404 57.8384V50.749H145.74V57.8384H145.404ZM150.197 57.8384V50.749H150.533V57.8384H150.197ZM145.593 54.3461V54.042H150.365V54.3461H145.593Z" fill="#006980"/>
<path d="M139.798 57.945C139.54 57.945 139.295 57.9101 139.064 57.8401C138.841 57.7632 138.638 57.6619 138.456 57.536C138.274 57.4032 138.113 57.2529 137.974 57.0851L138.194 56.8543C138.404 57.127 138.645 57.3298 138.917 57.4626C139.19 57.5884 139.487 57.6514 139.809 57.6514C140.207 57.6514 140.526 57.5675 140.763 57.3997C141.001 57.2249 141.12 56.9872 141.12 56.6865C141.12 56.4209 141.05 56.2111 140.91 56.0573C140.777 55.9035 140.602 55.7846 140.386 55.7007C140.169 55.6168 139.938 55.5399 139.694 55.47C139.456 55.4001 139.229 55.3197 139.012 55.2288C138.795 55.1309 138.617 54.9981 138.477 54.8303C138.344 54.6555 138.278 54.4213 138.278 54.1277C138.278 53.8899 138.341 53.6802 138.467 53.4984C138.592 53.3166 138.771 53.1733 139.001 53.0684C139.232 52.9636 139.505 52.9111 139.819 52.9111C140.162 52.9111 140.477 52.9741 140.763 53.0999C141.05 53.2188 141.274 53.3935 141.434 53.6243L141.214 53.8445C141.074 53.6487 140.879 53.4949 140.627 53.3831C140.375 53.2642 140.096 53.2048 139.788 53.2048C139.396 53.2048 139.099 53.2922 138.897 53.467C138.694 53.6417 138.592 53.8585 138.592 54.1172C138.592 54.3619 138.659 54.5541 138.792 54.694C138.931 54.8338 139.11 54.9422 139.326 55.0191C139.543 55.096 139.77 55.1694 140.008 55.2393C140.253 55.3022 140.484 55.3861 140.7 55.491C140.917 55.5889 141.092 55.7287 141.225 55.9105C141.364 56.0853 141.434 56.33 141.434 56.6446C141.434 57.0431 141.284 57.3612 140.983 57.5989C140.69 57.8297 140.295 57.945 139.798 57.945Z" fill="#006980"/>
<path d="M134.943 57.945C134.461 57.945 134.028 57.8366 133.643 57.6199C133.265 57.3962 132.965 57.0955 132.741 56.718C132.524 56.3335 132.416 55.9 132.416 55.4176C132.416 54.9422 132.521 54.5157 132.731 54.1381C132.947 53.7606 133.241 53.4635 133.612 53.2467C133.989 53.023 134.412 52.9111 134.88 52.9111C135.314 52.9111 135.695 53.009 136.024 53.2048C136.359 53.3935 136.621 53.6592 136.81 54.0018C136.999 54.3444 137.093 54.7394 137.093 55.1869C137.093 55.2148 137.09 55.2603 137.083 55.3232C137.083 55.3791 137.076 55.4525 137.062 55.5434H132.647V55.2393H136.852L136.758 55.3127C136.786 54.9002 136.723 54.5367 136.569 54.222C136.415 53.9074 136.191 53.6627 135.898 53.4879C135.611 53.3062 135.269 53.2153 134.87 53.2153C134.451 53.2153 134.08 53.3096 133.758 53.4984C133.444 53.6802 133.196 53.9354 133.014 54.264C132.839 54.5856 132.752 54.9631 132.752 55.3966C132.752 55.8441 132.842 56.2356 133.024 56.5712C133.213 56.9068 133.475 57.169 133.811 57.3577C134.146 57.5465 134.538 57.6409 134.985 57.6409C135.321 57.6409 135.629 57.578 135.908 57.4521C136.195 57.3263 136.436 57.1375 136.632 56.8858L136.852 57.106C136.635 57.3647 136.359 57.571 136.024 57.7248C135.695 57.8716 135.335 57.945 134.943 57.945Z" fill="#006980"/>
<path d="M128.89 57.945C128.421 57.945 127.998 57.8331 127.621 57.6094C127.25 57.3857 126.953 57.0816 126.729 56.697C126.513 56.3125 126.404 55.8825 126.404 55.4071C126.404 54.9387 126.513 54.5157 126.729 54.1381C126.953 53.7606 127.25 53.4635 127.621 53.2467C127.998 53.023 128.421 52.9111 128.89 52.9111C129.351 52.9111 129.767 53.023 130.138 53.2467C130.515 53.4635 130.812 53.7606 131.029 54.1381C131.253 54.5157 131.365 54.9387 131.365 55.4071C131.365 55.8895 131.253 56.323 131.029 56.7075C130.812 57.0851 130.515 57.3857 130.138 57.6094C129.767 57.8331 129.351 57.945 128.89 57.945ZM128.89 57.6409C129.295 57.6409 129.659 57.543 129.98 57.3472C130.302 57.1515 130.557 56.8858 130.746 56.5502C130.935 56.2076 131.029 55.8231 131.029 55.3966C131.029 54.9841 130.935 54.6136 130.746 54.285C130.557 53.9564 130.302 53.6977 129.98 53.5089C129.659 53.3131 129.295 53.2153 128.89 53.2153C128.484 53.2153 128.117 53.3131 127.789 53.5089C127.467 53.6977 127.212 53.9564 127.023 54.285C126.834 54.6136 126.74 54.9876 126.74 55.4071C126.74 55.8336 126.834 56.2146 127.023 56.5502C127.212 56.8858 127.467 57.1515 127.789 57.3472C128.117 57.543 128.484 57.6409 128.89 57.6409Z" fill="#006980"/>
<path d="M122.017 57.9334C121.499 57.9334 121.021 57.8425 120.58 57.6607C120.147 57.479 119.769 57.2273 119.447 56.9056C119.133 56.577 118.888 56.1925 118.713 55.7521C118.539 55.3046 118.451 54.8187 118.451 54.2943C118.451 53.77 118.539 53.2876 118.713 52.8471C118.895 52.3996 119.147 52.0116 119.468 51.683C119.79 51.3474 120.168 51.0887 120.601 50.9069C121.035 50.7252 121.51 50.6343 122.027 50.6343C122.608 50.6343 123.135 50.7531 123.611 50.9908C124.086 51.2216 124.471 51.5537 124.764 51.9871L124.513 52.2388C124.233 51.8263 123.88 51.5117 123.454 51.295C123.034 51.0712 122.559 50.9594 122.027 50.9594C121.405 50.9594 120.849 51.1062 120.36 51.3998C119.877 51.6865 119.496 52.0815 119.217 52.5849C118.944 53.0883 118.808 53.6616 118.808 54.3048C118.808 54.941 118.944 55.5108 119.217 56.0142C119.489 56.5106 119.863 56.9022 120.339 57.1888C120.821 57.4685 121.374 57.6083 121.996 57.6083C122.583 57.6083 123.093 57.4824 123.527 57.2308C123.96 56.9791 124.296 56.619 124.534 56.1506C124.778 55.6751 124.904 55.1123 124.911 54.4621L125.037 54.567H121.87V54.2629H125.257V54.3258C125.257 55.0809 125.125 55.7276 124.859 56.2659C124.593 56.8043 124.216 57.2168 123.726 57.5034C123.244 57.7901 122.674 57.9334 122.017 57.9334Z" fill="#006980"/>
<path d="M112.709 57.945C112.227 57.945 111.793 57.8366 111.409 57.6199C111.031 57.3962 110.73 57.0955 110.507 56.718C110.29 56.3335 110.182 55.9 110.182 55.4176C110.182 54.9422 110.287 54.5157 110.496 54.1381C110.713 53.7606 111.007 53.4635 111.377 53.2467C111.755 53.023 112.178 52.9111 112.646 52.9111C113.08 52.9111 113.461 53.009 113.789 53.2048C114.125 53.3935 114.387 53.6592 114.576 54.0018C114.765 54.3444 114.859 54.7394 114.859 55.1869C114.859 55.2148 114.855 55.2603 114.848 55.3232C114.848 55.3791 114.841 55.4525 114.827 55.5434H110.412V55.2393H114.618L114.523 55.3127C114.551 54.9002 114.488 54.5367 114.335 54.222C114.181 53.9074 113.957 53.6627 113.663 53.4879C113.377 53.3062 113.034 53.2153 112.636 53.2153C112.216 53.2153 111.846 53.3096 111.524 53.4984C111.209 53.6802 110.961 53.9354 110.779 54.264C110.605 54.5856 110.517 54.9631 110.517 55.3966C110.517 55.8441 110.608 56.2356 110.79 56.5712C110.979 56.9068 111.241 57.169 111.576 57.3577C111.912 57.5465 112.304 57.6409 112.751 57.6409C113.087 57.6409 113.394 57.578 113.674 57.4521C113.961 57.3263 114.202 57.1375 114.397 56.8858L114.618 57.106C114.401 57.3647 114.125 57.571 113.789 57.7248C113.461 57.8716 113.101 57.945 112.709 57.945Z" fill="#006980"/>
<path d="M108.597 57.8401V54.9561C108.597 54.4318 108.446 54.0088 108.146 53.6872C107.845 53.3656 107.443 53.2048 106.94 53.2048C106.597 53.2048 106.293 53.2817 106.027 53.4355C105.769 53.5823 105.562 53.7851 105.409 54.0438C105.262 54.3024 105.188 54.6031 105.188 54.9457L104.968 54.8198C104.968 54.4563 105.056 54.1311 105.23 53.8445C105.412 53.5578 105.653 53.3306 105.954 53.1628C106.262 52.995 106.608 52.9111 106.992 52.9111C107.377 52.9111 107.712 52.9985 107.999 53.1733C108.293 53.3481 108.52 53.5893 108.681 53.8969C108.841 54.2046 108.922 54.5576 108.922 54.9561V57.8401H108.597ZM104.863 57.8401V53.016H105.188V57.8401H104.863Z" fill="#006980"/>
<path d="M102.847 57.8398V53.0156H103.172V57.8398H102.847ZM103.004 51.8096C102.913 51.8096 102.836 51.7746 102.773 51.7047C102.71 51.6348 102.679 51.5544 102.679 51.4635C102.679 51.3656 102.71 51.2852 102.773 51.2223C102.836 51.1594 102.913 51.1279 103.004 51.1279C103.102 51.1279 103.182 51.1594 103.245 51.2223C103.315 51.2852 103.35 51.3656 103.35 51.4635C103.35 51.5544 103.315 51.6348 103.245 51.7047C103.182 51.7746 103.102 51.8096 103.004 51.8096Z" fill="#006980"/>
<path d="M100.839 57.8396V50.5405H101.164V57.8396H100.839Z" fill="#006980"/>
<path d="M96.6456 60.0005C96.1841 60.0005 95.7647 59.9131 95.3871 59.7383C95.0096 59.5635 94.7055 59.3118 94.4747 58.9832L94.674 58.784C94.8628 59.0567 95.1284 59.2769 95.471 59.4447C95.8136 59.6125 96.2086 59.6964 96.6561 59.6964C97.3272 59.6964 97.8586 59.5111 98.2501 59.1406C98.6486 58.777 98.8479 58.2841 98.8479 57.6619V56.4348L98.9423 55.3022L98.8479 54.2011V53.016H99.173V57.6619C99.173 58.1303 99.0681 58.5393 98.8584 58.8889C98.6486 59.2384 98.3515 59.5111 97.967 59.7069C97.5894 59.9026 97.149 60.0005 96.6456 60.0005ZM96.8029 57.8401C96.3345 57.8401 95.915 57.7353 95.5444 57.5255C95.1809 57.3088 94.8907 57.0151 94.674 56.6446C94.4642 56.274 94.3594 55.8511 94.3594 55.3756C94.3594 54.9072 94.4642 54.4877 94.674 54.1172C94.8837 53.7466 95.1704 53.453 95.5339 53.2362C95.9045 53.0195 96.3205 52.9111 96.7819 52.9111C97.1525 52.9111 97.488 52.981 97.7887 53.1209C98.0963 53.2537 98.3515 53.446 98.5542 53.6977C98.764 53.9494 98.9073 54.25 98.9842 54.5996V56.1622C98.9003 56.5048 98.7535 56.8019 98.5438 57.0536C98.341 57.3053 98.0893 57.5011 97.7887 57.6409C97.495 57.7737 97.1664 57.8401 96.8029 57.8401ZM96.8448 57.536C97.2433 57.536 97.5929 57.4486 97.8936 57.2738C98.2012 57.092 98.4389 56.8404 98.6067 56.5187C98.7745 56.1901 98.8584 55.8091 98.8584 55.3756C98.8584 54.9492 98.771 54.5751 98.5962 54.2535C98.4284 53.9319 98.1907 53.6802 97.8831 53.4984C97.5824 53.3096 97.2294 53.2153 96.8239 53.2153C96.4114 53.2153 96.0443 53.3096 95.7227 53.4984C95.4011 53.6802 95.1494 53.9319 94.9676 54.2535C94.7859 54.5751 94.695 54.9457 94.695 55.3651C94.695 55.7846 94.7859 56.1587 94.9676 56.4873C95.1564 56.8159 95.4116 57.0746 95.7332 57.2633C96.0548 57.4451 96.4253 57.536 96.8448 57.536Z" fill="#006980"/>
<path d="M90.6593 57.945C90.1839 57.945 89.7574 57.8366 89.3799 57.6199C89.0093 57.3962 88.7157 57.0955 88.4989 56.718C88.2822 56.3405 88.1738 55.914 88.1738 55.4386C88.1738 54.9631 88.2822 54.5367 88.4989 54.1591C88.7157 53.7746 89.0093 53.4705 89.3799 53.2467C89.7504 53.023 90.1699 52.9111 90.6383 52.9111C91.0089 52.9111 91.341 52.981 91.6346 53.1209C91.9352 53.2537 92.1834 53.446 92.3792 53.6977C92.5819 53.9494 92.7218 54.25 92.7987 54.5996V56.2461C92.7148 56.5957 92.5714 56.8998 92.3687 57.1585C92.1729 57.4102 91.9282 57.6059 91.6346 57.7458C91.3479 57.8786 91.0228 57.945 90.6593 57.945ZM90.7012 57.6409C91.3025 57.6409 91.7814 57.4416 92.138 57.0431C92.4945 56.6376 92.6728 56.1028 92.6728 55.4386C92.6728 54.9911 92.5889 54.6031 92.4211 54.2745C92.2603 53.9389 92.0296 53.6802 91.729 53.4984C91.4283 53.3096 91.0788 53.2153 90.6803 53.2153C90.2608 53.2153 89.8867 53.3131 89.5581 53.5089C89.2365 53.6977 88.9813 53.9599 88.7926 54.2954C88.6038 54.624 88.5094 55.0016 88.5094 55.4281C88.5094 55.8546 88.6038 56.2356 88.7926 56.5712C88.9813 56.8998 89.24 57.162 89.5686 57.3577C89.9042 57.5465 90.2817 57.6409 90.7012 57.6409ZM92.6623 57.8401V56.5502L92.7567 55.3547L92.6623 54.1906V53.016H92.9874V57.8401H92.6623Z" fill="#006980"/>
<path d="M85.7274 57.8384V50.9483H86.063V57.8384H85.7274ZM83.0322 51.0532V50.749H88.7582V51.0532H83.0322Z" fill="#006980"/>
<path d="M79.8858 57.945C79.4034 57.945 78.9699 57.8366 78.5854 57.6199C78.2079 57.3962 77.9072 57.0955 77.6835 56.718C77.4668 56.3335 77.3584 55.9 77.3584 55.4176C77.3584 54.9422 77.4633 54.5157 77.673 54.1381C77.8897 53.7606 78.1834 53.4635 78.5539 53.2467C78.9315 53.023 79.3545 52.9111 79.8229 52.9111C80.2564 52.9111 80.6374 53.009 80.966 53.2048C81.3016 53.3935 81.5638 53.6592 81.7525 54.0018C81.9413 54.3444 82.0357 54.7394 82.0357 55.1869C82.0357 55.2148 82.0322 55.2603 82.0252 55.3232C82.0252 55.3791 82.0182 55.4525 82.0042 55.5434H77.5891V55.2393H81.7945L81.7001 55.3127C81.7281 54.9002 81.6651 54.5367 81.5113 54.222C81.3575 53.9074 81.1338 53.6627 80.8401 53.4879C80.5535 53.3062 80.2109 53.2153 79.8124 53.2153C79.3929 53.2153 79.0224 53.3096 78.7008 53.4984C78.3861 53.6802 78.1379 53.9354 77.9562 54.264C77.7814 54.5856 77.694 54.9631 77.694 55.3966C77.694 55.8441 77.7849 56.2356 77.9667 56.5712C78.1554 56.9068 78.4176 57.169 78.7532 57.3577C79.0888 57.5465 79.4803 57.6409 79.9278 57.6409C80.2633 57.6409 80.571 57.578 80.8506 57.4521C81.1373 57.3263 81.3785 57.1375 81.5742 56.8858L81.7945 57.106C81.5777 57.3647 81.3016 57.571 80.966 57.7248C80.6374 57.8716 80.2773 57.945 79.8858 57.945Z" fill="#006980"/>
<path d="M75.7735 57.8396V54.9557C75.7735 54.4313 75.6232 54.0083 75.3225 53.6867C75.0219 53.3651 74.6199 53.2043 74.1165 53.2043C73.7739 53.2043 73.4698 53.2812 73.2041 53.435C72.9454 53.5818 72.7392 53.7846 72.5854 54.0433C72.4386 54.302 72.3651 54.6026 72.3651 54.9452L72.1449 54.8193C72.1449 54.4558 72.2323 54.1307 72.4071 53.844C72.5889 53.5574 72.8301 53.3301 73.1307 53.1623C73.4383 52.9945 73.7844 52.9106 74.1689 52.9106C74.5535 52.9106 74.8891 52.998 75.1757 53.1728C75.4693 53.3476 75.6966 53.5888 75.8574 53.8964C76.0182 54.2041 76.0986 54.5571 76.0986 54.9557V57.8396H75.7735ZM72.04 57.8396V50.5405H72.3651V57.8396H72.04Z" fill="#006980"/>
<path d="M67.661 57.8384V50.9483H67.9966V57.8384H67.661ZM64.9658 51.0532V50.749H70.6918V51.0532H64.9658Z" fill="#006980"/>
</svg>
