<svg width="140" height="140" viewBox="0 0 140 140" fill="none" xmlns="http://www.w3.org/2000/svg">
<g clip-path="url(#clip0_909_9350)">
<path d="M0 121.8H140V123.2H0V121.8Z" fill="#0D0D0D"/>
<path d="M95.1751 55.3296H9.20709C7.59426 55.3312 6.04798 55.9727 4.90754 57.1131C3.76711 58.2535 3.12568 59.7998 3.12402 61.4127V90.5085H101.258V61.4127C101.257 59.7998 100.615 58.2535 99.4747 57.1131C98.3342 55.9727 96.7879 55.3312 95.1751 55.3296ZM6.92594 82.5021C6.93002 82.2721 7.02322 82.0526 7.18591 81.8899C7.34861 81.7272 7.56809 81.634 7.79814 81.6299H23.2742C23.5054 81.6302 23.7271 81.7222 23.8906 81.8857C24.0541 82.0492 24.1461 82.2709 24.1464 82.5021V86.1922C24.1461 86.4234 24.0541 86.6451 23.8906 86.8086C23.7271 86.9721 23.5054 87.0641 23.2742 87.0644H7.79814C7.56809 87.0603 7.34861 86.9671 7.18591 86.8044C7.02322 86.6417 6.93002 86.4223 6.92594 86.1922V82.5021Z" fill="white"/>
<path d="M95.1753 54.8823H9.20711C7.47577 54.8843 5.81592 55.573 4.59168 56.7972C3.36743 58.0215 2.67877 59.6813 2.67676 61.4127V90.9558H101.706V61.4127C101.704 59.6813 101.015 58.0215 99.7907 56.7972C98.5665 55.573 96.9066 54.8843 95.1753 54.8823ZM101.258 90.5309H3.12404V61.4127C3.1257 59.7998 3.76713 58.2536 4.90757 57.1131C6.048 55.9727 7.59429 55.3313 9.20711 55.3296H95.1753C96.7881 55.3313 98.3344 55.9727 99.4748 57.1131C100.615 58.2536 101.257 59.7998 101.258 61.4127V90.5309Z" fill="#006980"/>
<path d="M103.181 98.2915V117.435C103.179 118.597 102.717 119.711 101.895 120.533C101.074 121.354 99.9598 121.817 98.7979 121.819H5.53914C4.37718 121.817 3.26335 121.354 2.44171 120.533C1.62008 119.711 1.15765 118.597 1.15576 117.435V98.2915H103.181Z" fill="white"/>
<path d="M83.9706 108.378H22.0889C21.5497 108.376 21.0332 108.161 20.6519 107.78C20.2707 107.398 20.0557 106.882 20.0537 106.343C20.0557 105.804 20.2707 105.287 20.6519 104.906C21.0332 104.525 21.5497 104.31 22.0889 104.308H83.9706C84.5097 104.31 85.0263 104.525 85.4075 104.906C85.7887 105.287 86.0038 105.804 86.0057 106.343C86.0038 106.882 85.7887 107.398 85.4075 107.78C85.0263 108.161 84.5097 108.376 83.9706 108.378Z" fill="#006980"/>
<path d="M0.708503 98.0007V117.234C0.707413 117.892 0.836247 118.544 1.08762 119.152C1.33899 119.761 1.70795 120.313 2.17335 120.779C2.63875 121.244 3.19143 121.613 3.79972 121.864C4.408 122.116 5.05992 122.245 5.71809 122.243H98.798C100.079 122.241 101.306 121.732 102.211 120.826C103.117 119.921 103.626 118.693 103.629 117.413V98.0007C103.629 97.9771 103.625 97.9537 103.616 97.9318C103.607 97.91 103.594 97.8901 103.577 97.8735C103.56 97.8568 103.54 97.8436 103.519 97.8347C103.497 97.8259 103.473 97.8215 103.45 97.8218H0.887417C0.775596 97.8442 0.708503 97.9112 0.708503 98.0007ZM103.181 117.256C103.183 117.856 103.066 118.45 102.837 119.004C102.608 119.558 102.272 120.061 101.848 120.485C101.424 120.909 100.921 121.245 100.367 121.474C99.8124 121.703 99.2186 121.82 98.6191 121.819H5.71809C5.11861 121.82 4.52477 121.703 3.97068 121.474C3.41658 121.245 2.91313 120.909 2.48923 120.485C2.06532 120.061 1.72932 119.558 1.50049 119.004C1.27166 118.45 1.15452 117.856 1.15579 117.256V98.4703C1.15546 98.4468 1.15986 98.4234 1.16873 98.4015C1.17761 98.3796 1.19077 98.3598 1.20745 98.3431C1.22413 98.3264 1.24399 98.3133 1.26584 98.3044C1.2877 98.2955 1.31112 98.2911 1.3347 98.2914H103.025C103.048 98.2911 103.072 98.2955 103.094 98.3044C103.116 98.3133 103.135 98.3264 103.152 98.3431C103.169 98.3598 103.182 98.3796 103.191 98.4015C103.2 98.4234 103.204 98.4468 103.204 98.4703V117.256H103.181Z" fill="#006980"/>
<path d="M103.36 98.2022H0.93236C0.899803 98.2022 0.867686 98.1946 0.838561 98.1801C0.809435 98.1655 0.784102 98.1444 0.764567 98.1184C0.745033 98.0923 0.731836 98.0621 0.726023 98.03C0.72021 97.998 0.721942 97.9651 0.73108 97.9338L2.7215 90.4642L2.76622 90.4194H101.616C101.628 90.4202 101.639 90.4252 101.647 90.4334C101.655 90.4416 101.66 90.4526 101.661 90.4642L103.629 97.8891C103.637 97.9281 103.636 97.9685 103.627 98.0072C103.617 98.0458 103.598 98.0817 103.572 98.112C103.546 98.1423 103.514 98.1662 103.477 98.1818C103.44 98.1975 103.4 98.2044 103.36 98.2022Z" fill="#006980"/>
<path d="M24.8174 106.566H81.3764V139.375H24.8174V106.566Z" fill="white"/>
<path d="M81.3761 106.566V139.375H24.8169V106.566H24.3696V139.822H81.8234V106.566H81.3761Z" fill="#0D0D0D"/>
<path d="M28.1943 107.215H77.9995V133.828H28.1943V107.215Z" fill="#FFDA8B"/>
<path d="M53.0854 87.0648C50.2899 87.0648 47.5572 86.2358 45.2328 84.6828C42.9085 83.1297 41.0969 80.9222 40.0271 78.3395C38.9573 75.7568 38.6774 72.9149 39.2228 70.1731C39.7681 67.4314 41.1143 64.9129 43.091 62.9362C45.0677 60.9595 47.5862 59.6133 50.3279 59.068C53.0697 58.5226 55.9116 58.8025 58.4943 59.8723C61.077 60.9421 63.2844 62.7537 64.8375 65.0781C66.3906 67.4024 67.2196 70.1351 67.2196 72.9306C67.2154 76.6779 65.725 80.2706 63.0752 82.9204C60.4254 85.5702 56.8327 87.0606 53.0854 87.0648ZM53.0854 59.2437C50.3784 59.2437 47.7321 60.0464 45.4813 61.5503C43.2305 63.0543 41.4763 65.1919 40.4403 67.6928C39.4044 70.1938 39.1333 72.9458 39.6615 75.6008C40.1896 78.2558 41.4931 80.6946 43.4073 82.6087C45.3214 84.5229 47.7602 85.8264 50.4152 86.3545C53.0702 86.8826 55.8222 86.6116 58.3231 85.5757C60.8241 84.5397 62.9617 82.7854 64.4656 80.5346C65.9696 78.2838 66.7723 75.6376 66.7723 72.9306C66.7685 69.3018 65.3253 65.8226 62.7593 63.2567C60.1933 60.6907 56.7142 59.2475 53.0854 59.2437Z" fill="#006980"/>
<path d="M56.5004 81.1744C61.0535 79.2885 63.2156 74.0686 61.3297 69.5155C59.4438 64.9625 54.2239 62.8003 49.6708 64.6863C45.1178 66.5722 42.9556 71.7921 44.8416 76.3451C46.7275 80.8982 51.9474 83.0604 56.5004 81.1744Z" fill="#006980"/>
<path d="M92.8267 67.4066H88.1078C87.9359 67.4065 87.771 67.3381 87.6494 67.2165C87.5278 67.0949 87.4594 66.93 87.4593 66.758V62.0392C87.4594 61.8672 87.5278 61.7023 87.6494 61.5807C87.771 61.4591 87.9359 61.3907 88.1078 61.3906H92.8267C92.9987 61.3907 93.1636 61.4591 93.2852 61.5807C93.4068 61.7023 93.4751 61.8672 93.4753 62.0392V66.758C93.4751 66.93 93.4068 67.0949 93.2852 67.2165C93.1636 67.3381 92.9987 67.4065 92.8267 67.4066ZM24.1462 82.5024V86.1925C24.1459 86.4237 24.0539 86.6454 23.8904 86.8089C23.7269 86.9724 23.5053 87.0644 23.274 87.0647H7.79798C7.56794 87.0606 7.34845 86.9674 7.18575 86.8047C7.02306 86.642 6.92986 86.4226 6.92578 86.1925V82.5024C6.92986 82.2724 7.02306 82.0529 7.18575 81.8902C7.34845 81.7275 7.56794 81.6343 7.79798 81.6302H23.274C23.5053 81.6305 23.7269 81.7225 23.8904 81.886C24.0539 82.0495 24.1459 82.2712 24.1462 82.5024Z" fill="#0D0D0D"/>
<path d="M56.418 68.6366C56.9547 69.643 57.3797 70.4034 58.073 70.0455C58.7662 69.6653 59.6161 69.3522 59.0793 68.3458C58.5426 67.3395 56.7982 66.02 56.1049 66.3778C55.3893 66.758 55.8589 67.6302 56.418 68.6366ZM60.041 71.4097C60.135 71.5902 60.1745 71.7941 60.1546 71.9967C60.1348 72.1992 60.0565 72.3915 59.9292 72.5503C59.8299 72.6737 59.6984 72.7672 59.5493 72.8206C59.4001 72.8739 59.2391 72.885 59.0841 72.8526C58.9291 72.8202 58.786 72.7456 58.6707 72.637C58.5554 72.5284 58.4724 72.39 58.4308 72.2372C58.2519 71.611 58.1624 71.0296 58.7439 70.8506C58.9914 70.7805 59.2556 70.7977 59.4918 70.8996C59.7281 71.0014 59.9221 71.1816 60.041 71.4097Z" fill="white"/>
<path d="M94.8393 54.8825H77.5518L79.1843 52.5566H92.424C92.7738 52.5583 93.1167 52.6548 93.416 52.836C93.7154 53.0172 93.9599 53.2762 94.1236 53.5854L94.8393 54.8825Z" fill="#FFDA8B"/>
<path d="M52.437 42.6719L52.3699 42.7837C50.7149 45.4898 47.2261 47.3907 45.8619 48.0617C45.683 48.1511 45.5264 48.2182 45.4369 48.2629V55.2406H24.2357L24.929 51.3939H24.9066C24.75 51.3939 24.5935 51.4163 24.4369 51.4163C17.9289 51.6176 14.9769 50.1639 14.8427 50.0968L14.7085 50.0297V49.8731C14.7085 49.8061 15.2676 42.4259 17.7277 35.8955C20.5903 28.3588 27.1654 28.5377 27.2101 28.5601H27.2772L27.3219 28.6048C31.0344 31.1767 34.7916 28.6272 34.8363 28.6048L34.9034 28.5824C42.5072 26.0106 51.9226 41.9115 52.3251 42.5824L52.437 42.6719Z" fill="#006980"/>
<path d="M29.8044 79.7067C29.4242 79.2371 29.0664 78.4543 28.7756 77.269L29.2229 77.7386L29.2453 77.761C29.4242 77.8952 29.6702 78.0517 29.8715 77.9847C30.0951 77.9176 30.2293 77.5821 30.2964 77.3137C30.5424 76.3744 29.0216 75.3233 27.9034 74.2275C27.4338 73.7578 26.9194 72.9527 26.9194 72.7738L24.1686 59.0198C24.1052 58.4763 24.1203 57.9265 24.2133 57.3872L25.2645 51.3042H25.1079C18.421 51.3265 16.1846 50.2307 16.1622 50.2083L15.8715 50.0518L15.4018 56.5821C15.3347 57.7513 15.5575 58.9191 16.0504 59.9815L22.8715 72.9527C22.8715 73.3776 22.9833 73.7802 22.9833 74.1827C23.0057 75.4128 23.0057 76.531 23.1622 77.1125C23.2144 77.4062 23.3046 77.6919 23.4306 77.9623C24.5712 79.9974 25.5999 81.0486 26.4498 81.0486C26.5482 81.0463 26.6459 81.0313 26.7405 81.0038C26.7629 81.0038 26.7852 80.9815 26.8076 80.9591C26.9723 81.1185 27.1841 81.2204 27.4114 81.2498H27.4338C27.5652 81.2472 27.6933 81.2082 27.8038 81.1371C27.9144 81.066 28.003 80.9657 28.06 80.8473C28.1532 80.9104 28.2609 80.9489 28.3731 80.9591H28.4625C28.5869 80.9511 28.7073 80.9121 28.8128 80.8457C28.9182 80.7793 29.0054 80.6876 29.0664 80.5789C29.4242 80.8249 29.782 81.0709 30.028 81.0262C30.274 80.9815 30.3635 80.892 30.3859 80.646C30.453 80.4 30.0728 80.0422 29.8044 79.7067Z" fill="white"/>
<path d="M30.1625 79.9526C29.5585 79.2792 29.1353 78.4636 28.9325 77.582L29.3797 78.074L29.4021 78.0964C29.4819 78.1623 29.5769 78.2071 29.6785 78.2267C29.7802 78.2462 29.8851 78.2399 29.9836 78.2082C30.1055 78.1632 30.2144 78.0885 30.3003 77.9909C30.3861 77.8933 30.4464 77.7758 30.4756 77.6491C30.7216 76.6651 29.4245 75.3903 28.2839 74.2721C27.7919 73.8025 27.121 73.1315 27.121 72.9526L24.3031 58.8855C24.2282 58.3351 24.2433 57.7762 24.3478 57.2306L25.4436 50.9686H25.1753C18.3095 50.991 16.0283 49.8728 16.006 49.8504L15.6929 49.6938L15.2232 56.4031C15.1547 57.6037 15.3853 58.8024 15.8941 59.8919L22.8941 73.1986C22.8941 73.6236 22.9165 74.0485 22.9165 74.4734C22.9389 75.7482 22.9389 76.844 23.1178 77.4478C23.2098 77.7562 23.3296 78.0556 23.4756 78.3424C24.6385 80.4223 25.6897 81.5181 26.5619 81.5181C26.6675 81.5142 26.7724 81.4992 26.875 81.4734C26.8973 81.4734 26.9197 81.451 26.9421 81.4287C27.1063 81.6016 27.3302 81.7055 27.5682 81.7194H27.5906C27.7245 81.7152 27.855 81.6757 27.9688 81.6051C28.0827 81.5344 28.1759 81.435 28.2392 81.3168C28.3389 81.3837 28.4548 81.4223 28.5746 81.4287H28.6641C28.7916 81.4215 28.9155 81.3831 29.0247 81.3168C29.1339 81.2505 29.2251 81.1583 29.2903 81.0485C29.6481 81.2945 29.9836 81.4063 30.252 81.3392C30.3653 81.3248 30.4693 81.2687 30.5437 81.1819C30.6181 81.0952 30.6576 80.9838 30.6545 80.8696C30.6545 80.5341 30.4309 80.2657 30.1625 79.9526ZM30.1401 80.8696C29.827 80.9367 28.9101 80.4446 27.9708 78.5213C27.9465 78.4688 27.9025 78.428 27.8484 78.4076C27.7943 78.3873 27.7343 78.3891 27.6814 78.4125C27.6286 78.436 27.5871 78.4794 27.5659 78.5332C27.5447 78.587 27.5456 78.647 27.5682 78.7002C27.8977 79.448 28.3599 80.13 28.9325 80.713C28.9074 80.7722 28.8675 80.8239 28.8165 80.8631C28.7656 80.9023 28.7054 80.9276 28.6417 80.9367C28.0826 80.8919 27.2104 79.1699 27.0762 78.745C27.0583 78.6891 27.0198 78.6422 26.9686 78.6137C26.9173 78.5852 26.8571 78.5772 26.8002 78.5914C26.7433 78.6057 26.694 78.641 26.6622 78.6903C26.6304 78.7395 26.6185 78.7991 26.629 78.8568C26.629 78.8792 27.1881 80.2657 27.8813 80.9814C27.7472 81.2274 27.613 81.205 27.5906 81.205C27.4117 81.205 26.8973 80.9814 25.9804 79.0804C25.9545 78.9961 25.9084 78.9193 25.8462 78.8568C25.8215 78.8398 25.7936 78.828 25.7642 78.8221C25.7348 78.8163 25.7045 78.8165 25.6752 78.8228C25.6459 78.8291 25.6181 78.8413 25.5937 78.8587C25.5693 78.876 25.5486 78.8982 25.5331 78.9239C25.5111 78.9612 25.4995 79.0036 25.4995 79.0469C25.4995 79.0901 25.5111 79.1326 25.5331 79.1699C25.5331 79.1922 25.5555 79.2146 25.5778 79.2593C25.865 79.8649 26.2095 80.4415 26.6066 80.9814C25.9357 81.0261 24.9293 79.9526 23.8782 78.0517C23.7376 77.7988 23.6322 77.528 23.5651 77.2466C23.4085 76.7098 23.4085 75.5916 23.3861 74.4063C23.3861 73.959 23.3861 73.5117 23.3638 73.0645V73.0197L16.2967 59.6459C15.822 58.6258 15.6068 57.5041 15.6705 56.3807L16.0954 50.32C16.9005 50.6331 19.4053 51.3488 24.8845 51.3488H24.9069L23.9005 57.074C23.7963 57.6724 23.7812 58.2828 23.8558 58.8855L26.6513 72.9303C26.6737 73.2881 27.121 73.7354 27.9484 74.5405C28.9101 75.4798 30.2072 76.7545 30.0283 77.4926C30.0182 77.5472 29.9945 77.5984 29.9593 77.6415C29.9241 77.6845 29.8786 77.7179 29.827 77.7386C29.8008 77.7459 29.7734 77.7477 29.7464 77.7439C29.7195 77.74 29.6936 77.7306 29.6705 77.7162L28.9772 76.9782L28.9548 76.9558C28.8969 76.9139 28.8282 76.8896 28.7568 76.8856C28.6855 76.8817 28.6145 76.8983 28.5523 76.9335C28.4931 76.9703 28.4464 77.0242 28.4185 77.0881C28.3905 77.152 28.3826 77.2228 28.3957 77.2913L28.4628 77.6491C28.6849 78.5951 29.1383 79.4711 29.7823 80.1986C29.9836 80.467 30.1625 80.6683 30.1625 80.8025C30.1849 80.8472 30.1849 80.8696 30.1401 80.8696Z" fill="#006980"/>
<path d="M84.7309 52.0202C84.7354 52.0586 84.7296 52.0977 84.7138 52.1331C84.6981 52.1685 84.673 52.199 84.6414 52.2214C84.6159 52.2495 84.5848 52.2719 84.5502 52.2873C84.5155 52.3027 84.478 52.3108 84.4401 52.3109L79.2964 52.5345C79.1856 52.5394 79.0784 52.5756 78.9874 52.639C78.8963 52.7023 78.8251 52.7902 78.782 52.8924C78.7384 52.9927 78.7258 53.1038 78.7457 53.2113C78.7656 53.3189 78.8172 53.4181 78.8938 53.4962C79.4762 54.134 79.9793 54.8399 80.3922 55.5984C80.4163 55.6341 80.4327 55.6744 80.4404 55.7167C80.4481 55.7591 80.4469 55.8026 80.4369 55.8444C80.4282 55.9501 80.3793 56.0485 80.3002 56.1192C80.2212 56.19 80.118 56.2277 80.012 56.2246C79.915 56.226 79.8204 56.1944 79.7436 56.1352C79.2724 55.7906 78.7794 55.4768 78.2676 55.1959C77.7012 54.9014 77.0721 54.748 76.4337 54.7486H69.5903L52.3922 54.838C51.0727 54.838 49.5967 54.771 48.6574 53.7198L45.4146 50.477V48.1511C47.8299 47.4355 50.6701 44.7294 51.4082 44.0361L54.0471 46.9658C54.5588 47.5402 55.2274 47.9522 55.9705 48.1511L71.9385 52.2885H71.9832C72.3658 52.3144 72.75 52.2843 73.1238 52.1991L76.3666 50.7901C77.1354 50.5644 77.9433 50.5034 78.7372 50.6112C80.6875 50.875 82.6213 51.2483 84.5296 51.7294C84.5854 51.7563 84.6334 51.7972 84.6687 51.8482C84.704 51.8991 84.7254 51.9584 84.7309 52.0202Z" fill="white"/>
<path d="M84.5971 51.3041C82.6738 50.8228 80.725 50.4495 78.76 50.1859C77.898 50.0736 77.0221 50.1421 76.1881 50.3872L72.9677 51.7738C72.6512 51.8378 72.3288 51.8678 72.006 51.8632L56.0603 47.7259C55.4007 47.5549 54.8083 47.1885 54.3606 46.6747L51.4086 43.3872L51.252 43.5661C51.2073 43.6109 47.7632 47.0997 45.1242 47.793L44.9453 47.8377V50.7003L48.367 54.0773C49.4182 55.2626 51.006 55.3521 52.415 55.3521L69.613 55.2626H76.4565C77.0184 55.2605 77.5719 55.3989 78.0667 55.6652C78.5604 55.936 79.0383 56.2346 79.498 56.5597C79.6467 56.6713 79.8265 56.7338 80.0124 56.7386C80.2289 56.7395 80.4381 56.6599 80.5992 56.5152C80.7604 56.3706 80.8621 56.1713 80.8846 55.9559C80.904 55.7769 80.8648 55.5963 80.7728 55.4415C80.3297 54.6578 79.8049 53.9231 79.2073 53.2498C79.1883 53.2337 79.1756 53.2114 79.1715 53.1868C79.1674 53.1623 79.1722 53.137 79.1849 53.1156C79.1918 53.0909 79.2063 53.0689 79.2264 53.0529C79.2465 53.0368 79.2711 53.0275 79.2967 53.0262L84.4405 52.8025C84.5368 52.8011 84.6318 52.7806 84.7201 52.7423C84.8084 52.7039 84.8882 52.6483 84.9549 52.5789C85.0853 52.4395 85.1573 52.2554 85.1562 52.0645C85.1712 51.8915 85.1227 51.7189 85.0198 51.579C84.917 51.4391 84.7667 51.3414 84.5971 51.3041ZM78.7824 52.9144C78.7388 53.0147 78.7262 53.1258 78.7461 53.2334C78.766 53.3409 78.8176 53.4401 78.8942 53.5182C79.4765 54.156 79.9796 54.8619 80.3926 55.6204C80.4167 55.6561 80.4331 55.6964 80.4408 55.7387C80.4485 55.7811 80.4473 55.8246 80.4373 55.8664C80.4286 55.9722 80.3797 56.0705 80.3006 56.1412C80.2216 56.212 80.1184 56.2497 80.0124 56.2466C79.9154 56.248 79.8208 56.2164 79.744 56.1572C79.2728 55.8126 78.7797 55.4988 78.268 55.2179C77.7016 54.9235 77.0725 54.77 76.4341 54.7706H69.5907L52.3926 54.8601C51.0731 54.8601 49.5971 54.793 48.6578 53.7418L45.415 50.4767V48.1508C47.8303 47.4351 50.6705 44.7291 51.4086 44.0358L54.0475 46.9655C54.5592 47.5398 55.2278 47.9519 55.9709 48.1508L71.9389 52.2882H71.9836C72.3662 52.3141 72.7504 52.2839 73.1242 52.1987L76.367 50.7898C77.1358 50.564 77.9436 50.503 78.7376 50.6109C80.6879 50.8746 82.6217 51.2479 84.5299 51.7291C84.5934 51.7472 84.6494 51.7853 84.6897 51.8376C84.7299 51.8899 84.7523 51.9538 84.7536 52.0198C84.7582 52.0583 84.7523 52.0973 84.7365 52.1327C84.7208 52.1682 84.6958 52.1987 84.6641 52.2211C84.6386 52.2491 84.6076 52.2716 84.5729 52.287C84.5383 52.3024 84.5008 52.3104 84.4629 52.3105L79.3191 52.5342C79.2028 52.5401 79.0905 52.579 78.9955 52.6463C78.9004 52.7136 78.8265 52.8066 78.7824 52.9144Z" fill="#006980"/>
<path d="M45.862 47.9946C45.7179 48.0599 45.5682 48.1123 45.4148 48.1511V46.3843C45.4148 44.6847 44.7438 42.8955 43.5585 41.3747L42.0601 39.5185C42.0245 39.4711 42.0093 39.4114 42.0176 39.3527C42.026 39.294 42.0574 39.241 42.1049 39.2054C42.1523 39.1698 42.2119 39.1545 42.2707 39.1629C42.3294 39.1713 42.3824 39.2027 42.4179 39.2501L43.894 41.1064C45.1279 42.5926 45.8216 44.4531 45.862 46.3843V47.9946ZM26.9866 41.1511L25.0186 50.9466L24.9068 51.3939L24.4595 51.3716L24.5489 50.9466L26.5393 41.0616C26.5522 41.0033 26.5874 40.9524 26.6374 40.9197C26.6875 40.8871 26.7483 40.8754 26.8069 40.8871C26.8654 40.8988 26.9171 40.933 26.9507 40.9824C26.9843 41.0317 26.9972 41.0923 26.9866 41.1511ZM35.0154 28.7613C30.386 31.4003 27.255 28.7613 27.255 28.7613C28.0377 26.6814 27.7694 25.2054 27.7694 25.2054C28.6098 25.5021 29.4947 25.6534 30.386 25.6527C31.8321 25.6554 33.25 25.2525 34.4786 24.4897H34.5234C34.2278 25.1833 34.1178 25.9417 34.204 26.6906C34.2903 27.4396 34.5699 28.1532 35.0154 28.7613Z" fill="white"/>
<path d="M30.9453 30.1478C29.5629 30.1703 28.2115 29.7382 27.0986 28.9178L26.9868 28.806L27.0315 28.6494C27.7696 26.659 27.5459 25.2277 27.5236 25.2053L27.4565 24.8251L27.8143 24.9593C28.8798 25.3437 30.0182 25.483 31.1449 25.3669C32.2716 25.2507 33.3576 24.8821 34.3223 24.2884L34.367 24.266L34.7696 24.02L34.6801 24.5568C34.4147 25.2171 34.3186 25.9334 34.4006 26.6404C34.4827 27.3474 34.7402 28.0226 35.1498 28.6047L35.3287 28.806L35.105 28.9402C33.8532 29.7115 32.4156 30.1289 30.9453 30.1478ZM27.5012 28.6941C28.105 29.1191 30.7887 30.7964 34.6801 28.6941C34.3256 28.1477 34.0906 27.5325 33.9904 26.8889C33.8902 26.2452 33.9271 25.5877 34.0986 24.9593C32.9465 25.5633 31.6647 25.878 30.3638 25.8763C29.567 25.883 28.7742 25.7622 28.0156 25.5184C28.0585 26.6008 27.8836 27.6807 27.5012 28.6941Z" fill="#006980"/>
<path d="M37.923 15.499V17.8696C37.9274 18.8616 37.7357 19.8448 37.3587 20.7624C36.9818 21.6801 36.4272 22.5141 35.7268 23.2167C35.0263 23.9192 34.1939 24.4763 33.2774 24.8559C32.3608 25.2355 31.3783 25.4302 30.3863 25.4287C28.3827 25.4248 26.4622 24.6272 25.0455 23.2104C23.6287 21.7936 22.831 19.8732 22.8271 17.8696V15.499C22.8294 13.8211 23.4969 12.2126 24.6834 11.0261C25.8698 9.8397 27.4783 9.17217 29.1562 9.16992H31.5939C33.2718 9.17217 34.8803 9.8397 36.0668 11.0261C37.2532 12.2126 37.9208 13.8211 37.923 15.499Z" fill="white"/>
<path d="M31.5934 8.72266H29.1557C27.3593 8.72526 25.6373 9.44003 24.367 10.7103C23.0968 11.9805 22.382 13.7026 22.3794 15.499V17.8696C22.3803 19.5216 22.8924 21.1328 23.8454 22.4822C24.7983 23.8316 26.1455 24.853 27.7021 25.4063C28.5621 25.7193 29.4706 25.8783 30.3858 25.876C31.8708 25.8834 33.3278 25.4726 34.5903 24.6907C35.7539 23.9732 36.7143 22.9696 37.3799 21.7755C38.0455 20.5814 38.394 19.2367 38.3922 17.8696V15.499C38.3807 13.7015 37.6601 11.9811 36.3869 10.7121C35.1137 9.44316 33.391 8.72816 31.5934 8.72266ZM37.9225 17.8696C37.9269 18.8616 37.7352 19.8448 37.3583 20.7624C36.9814 21.6801 36.4267 22.5141 35.7263 23.2166C35.0259 23.9192 34.1934 24.4763 33.2769 24.8559C32.3604 25.2355 31.3778 25.4302 30.3858 25.4287C28.3822 25.4248 26.4618 24.6272 25.045 23.2104C23.6282 21.7936 22.8306 19.8732 22.8267 17.8696V15.499C22.8289 13.8211 23.4965 12.2126 24.6829 11.0262C25.8693 9.83972 27.4779 9.17219 29.1557 9.16994H31.5934C33.2713 9.17219 34.8799 9.83972 36.0663 11.0262C37.2527 12.2126 37.9203 13.8211 37.9225 15.499V17.8696Z" fill="#006980"/>
<path d="M43.2455 18.2053C42.4627 20.0615 40.6288 20.889 40.1368 21.0679C38.9739 25.3171 34.926 24.8251 34.4787 24.758C34.4245 24.7497 34.3748 24.7228 34.3382 24.6821C34.3015 24.6413 34.28 24.5891 34.2774 24.5344C34.255 24.4225 34.3445 24.3331 34.434 24.266C37.4755 22.3427 37.8557 19.1446 37.9228 18.8091L37.9451 16.1701C35.4627 15.2979 34.6352 13.7101 34.3445 12.8602C33.6736 13.9114 32.8014 14.5375 31.795 14.7388C30.14 15.0743 28.5298 14.135 27.9036 13.6877C27.0761 17.3107 23.7215 17.9593 22.8493 18.0711C23.4307 23.6174 27.8365 24.9593 27.8812 24.9816L28.2614 25.1382L27.926 25.3618C26.9196 26.0551 25.9132 26.413 24.9515 26.413C24.6501 26.4088 24.3501 26.3713 24.057 26.3011C22.3573 25.8986 21.3509 24.4896 21.0825 24.0647C19.2263 24.1542 17.8397 23.7069 16.9451 22.7005C15.6927 21.2915 15.8716 19.3011 15.9611 18.7644C12.271 15.3427 14.7087 11.5407 15.0665 11.0264C15.2231 5.16693 19.8972 4.09345 20.68 3.95927C24.3253 -1.8778 29.6256 0.671724 30.4084 1.09664C32.5106 0.291532 34.3892 0.246804 35.9547 0.96246C38.0122 1.90176 38.8844 3.80272 39.0857 4.27237C40.9867 5.01038 42.2838 6.15096 42.9324 7.69409C43.9835 10.1989 43.0218 12.8826 42.7982 13.4193C43.648 15.2308 43.8046 16.8411 43.2455 18.2053Z" fill="#0D0D0D"/>
<path d="M28.3511 2.662C28.2925 2.65939 28.2368 2.63554 28.1945 2.59491C27.3223 1.7898 26.2488 2.416 26.2265 2.43836C26.176 2.47098 26.1147 2.48224 26.056 2.46966C25.9973 2.45708 25.946 2.42168 25.9134 2.37127C25.8807 2.32085 25.8695 2.25954 25.8821 2.20082C25.8946 2.14211 25.93 2.09079 25.9804 2.05817C26.4501 1.76744 27.5907 1.45434 28.4629 2.28181C28.5037 2.32254 28.5285 2.37665 28.5326 2.43418C28.5367 2.49171 28.5199 2.54879 28.4852 2.59491C28.4701 2.61624 28.4499 2.63352 28.4265 2.64522C28.4031 2.65692 28.3772 2.66269 28.3511 2.662ZM37.5428 10.2882C37.488 10.2856 37.4358 10.2641 37.395 10.2274C37.3543 10.1908 37.3275 10.1411 37.3191 10.0869C37.2073 8.92398 36.022 8.65561 35.9773 8.65561C35.9189 8.64275 35.868 8.60753 35.8353 8.55751C35.8027 8.5075 35.791 8.44667 35.8027 8.38811C35.8144 8.32954 35.8486 8.27791 35.898 8.24429C35.9474 8.21068 36.0079 8.19776 36.0667 8.20833C36.6035 8.32015 37.6546 8.83452 37.7664 10.0422C37.7726 10.0739 37.7713 10.1066 37.7627 10.1377C37.754 10.1689 37.7382 10.1975 37.7164 10.2214C37.6947 10.2453 37.6677 10.2638 37.6375 10.2754C37.6074 10.287 37.5749 10.2914 37.5428 10.2882ZM17.2808 15.9016C17.241 15.8992 17.2023 15.8879 17.1674 15.8685C17.1326 15.8492 17.1026 15.8223 17.0795 15.7898C16.1849 14.2914 17.0571 13.2179 17.1018 13.1732C17.1404 13.1287 17.195 13.1013 17.2538 13.0972C17.3125 13.093 17.3705 13.1123 17.4149 13.1508C17.4594 13.1894 17.4868 13.244 17.491 13.3027C17.4952 13.3614 17.4759 13.4194 17.4373 13.4639C17.4149 13.5086 16.7217 14.3361 17.4597 15.5661C17.4888 15.6175 17.4981 15.6777 17.4857 15.7355C17.4733 15.7932 17.4402 15.8443 17.3926 15.8792C17.3479 15.8792 17.3255 15.9016 17.2808 15.9016Z" fill="white"/>
<path d="M33.1813 23.2597C33.0002 23.2609 32.8198 23.2383 32.6446 23.1926C32.3633 23.1059 32.1019 22.9644 31.8755 22.7763C31.6491 22.5883 31.462 22.3573 31.3251 22.0968C31.2999 22.0465 31.2953 21.9884 31.3125 21.9348C31.3296 21.8812 31.367 21.8365 31.4167 21.8102C31.4664 21.7838 31.5245 21.778 31.5784 21.794C31.6323 21.8099 31.6779 21.8464 31.7053 21.8955C31.9387 22.3037 32.3121 22.6136 32.7564 22.7677C33.2484 22.9019 33.8299 22.7901 34.4561 22.4099C34.5065 22.3773 34.5678 22.366 34.6265 22.3786C34.6852 22.3912 34.7366 22.4265 34.7692 22.477C34.8018 22.5274 34.8131 22.5887 34.8005 22.6474C34.7879 22.7061 34.7525 22.7574 34.7021 22.7901C34.2455 23.0781 33.7208 23.2401 33.1813 23.2597Z" fill="#006980"/>
<path d="M27.7692 21.9848C28.992 21.9848 29.9833 20.9935 29.9833 19.7707C29.9833 18.5479 28.992 17.5566 27.7692 17.5566C26.5464 17.5566 25.5552 18.5479 25.5552 19.7707C25.5552 20.9935 26.5464 21.9848 27.7692 21.9848Z" fill="#FFDA8B"/>
<path d="M120.939 94.1991C118.411 94.1544 112.798 93.7295 112.217 92.1192C112.038 91.6048 112.396 90.9786 113.29 90.2406C114.095 89.5697 114.9 89.2566 115.683 89.2566C115.925 89.2532 116.165 89.2833 116.399 89.3461C118.747 89.9052 120.447 93.148 120.939 94.1991Z" fill="white"/>
<path d="M135.542 85.0075C135.518 84.9544 135.474 84.9129 135.42 84.892C135.365 84.871 135.305 84.8724 135.252 84.8957C131.204 86.7295 128.386 91.5155 127.066 98.6944C126.741 100.537 126.517 102.396 126.395 104.263C126.328 103.793 126.261 103.279 126.172 102.72C125.828 98.0614 125.761 93.3865 125.97 88.7199H125.993C130.287 86.1481 128.274 74.6305 124.405 79.6177C120.335 84.8957 124.114 87.6912 125.523 88.4739C125.526 88.4739 125.529 88.4744 125.532 88.4755C125.535 88.4766 125.537 88.4783 125.539 88.4804C125.541 88.4824 125.543 88.4849 125.544 88.4877C125.545 88.4904 125.546 88.4934 125.546 88.4963C125.411 91.0906 125.344 94.7136 125.546 99.2311C124.226 93.1033 121.498 84.7838 115.839 78.835C115.798 78.7941 115.742 78.7714 115.683 78.7717C115.625 78.772 115.569 78.7953 115.528 78.8365C115.487 78.8778 115.463 78.9336 115.463 78.992C115.463 79.0503 115.486 79.1064 115.526 79.1481C121.028 84.918 123.734 92.9915 125.053 99.0522C124.216 97.2324 123.004 95.6093 121.498 94.2886C121.319 93.8637 119.44 89.5922 116.533 88.8541C115.347 88.5634 114.184 88.8989 113.022 89.8382C111.948 90.7104 111.546 91.5155 111.792 92.2311C112.597 94.4452 119.954 94.6017 121.184 94.6241C123.406 96.6074 124.954 99.2341 125.613 102.138C125.653 102.338 125.683 102.54 125.702 102.742C125.836 104.71 126.015 106.835 126.261 109.094C126.261 109.116 126.261 109.116 126.284 109.138V109.183C126.284 109.206 126.306 109.206 126.306 109.228L126.328 109.25C126.351 109.25 126.351 109.273 126.373 109.273L126.395 109.295C126.418 109.295 126.44 109.317 126.485 109.317H126.507C126.53 109.317 126.53 109.317 126.552 109.295C126.574 109.295 126.574 109.295 126.597 109.273C126.619 109.273 126.619 109.25 126.641 109.25L126.664 109.228C126.676 109.216 126.684 109.2 126.686 109.183C126.686 109.161 126.708 109.161 126.708 109.138V109.049C126.708 108.848 125.926 89.5922 135.386 85.2982C135.417 85.2923 135.446 85.2796 135.472 85.2609C135.497 85.2422 135.518 85.2181 135.533 85.1902C135.548 85.1623 135.557 85.1315 135.559 85.0999C135.56 85.0682 135.555 85.0367 135.542 85.0075ZM117.338 92.2982C118.52 92.7733 119.634 93.4051 120.648 94.1768C117.986 94.1097 112.798 93.6401 112.239 92.0969C112.06 91.5826 112.418 90.9564 113.312 90.2184C114.117 89.5474 114.923 89.2343 115.705 89.2343C115.947 89.231 116.188 89.2611 116.421 89.3238C118.434 89.8158 119.999 92.3206 120.692 93.6624C119.713 92.9409 118.646 92.3472 117.517 91.8957C117.489 91.8837 117.459 91.8777 117.429 91.878C117.399 91.8784 117.369 91.8851 117.341 91.8978C117.314 91.9105 117.29 91.9288 117.27 91.9515C117.25 91.9743 117.235 92.001 117.226 92.0298C117.213 92.0544 117.206 92.0815 117.204 92.1093C117.203 92.1371 117.208 92.1648 117.219 92.1904C117.229 92.2161 117.246 92.239 117.266 92.2577C117.287 92.2763 117.311 92.2902 117.338 92.2982Z" fill="#006980"/>
<path d="M126.284 83.621C126.038 84.4708 125.948 87.8925 125.948 88.72C125.881 88.6976 125.725 88.6082 125.501 88.4964C125.523 87.4005 125.59 84.359 125.859 83.5091C125.881 83.453 125.922 83.4064 125.976 83.3778C126.029 83.3492 126.09 83.3402 126.15 83.3526C126.177 83.3599 126.202 83.373 126.224 83.3909C126.246 83.4088 126.264 83.4312 126.277 83.4566C126.29 83.4819 126.297 83.5097 126.298 83.538C126.299 83.5664 126.294 83.5946 126.284 83.621Z" fill="white"/>
<path d="M115.66 80.7584C116.624 80.7584 117.405 79.9774 117.405 79.0139C117.405 78.0505 116.624 77.2695 115.66 77.2695C114.697 77.2695 113.916 78.0505 113.916 79.0139C113.916 79.9774 114.697 80.7584 115.66 80.7584Z" fill="#FFDA8B"/>
<path d="M135.341 86.1478C135.909 86.1478 136.37 85.6873 136.37 85.1191C136.37 84.5509 135.909 84.0903 135.341 84.0903C134.773 84.0903 134.312 84.5509 134.312 85.1191C134.312 85.6873 134.773 86.1478 135.341 86.1478Z" fill="#FFDA8B"/>
<path d="M137.622 104.912L132.568 121.819H120.737L115.661 104.934C115.58 104.665 115.564 104.381 115.615 104.105C115.665 103.829 115.781 103.569 115.951 103.346C116.119 103.124 116.335 102.945 116.583 102.82C116.832 102.696 117.105 102.631 117.383 102.63H135.923C136.2 102.631 136.474 102.696 136.722 102.82C136.971 102.945 137.187 103.124 137.354 103.346C137.517 103.568 137.626 103.825 137.673 104.097C137.72 104.369 137.702 104.648 137.622 104.912Z" fill="#FFDA8B"/>
<path d="M137.712 103.078C137.507 102.796 137.237 102.568 136.926 102.413C136.615 102.257 136.271 102.178 135.922 102.183H117.382C117.035 102.183 116.693 102.264 116.382 102.419C116.072 102.575 115.802 102.8 115.593 103.078C115.382 103.354 115.241 103.678 115.182 104.02C115.124 104.363 115.15 104.715 115.258 105.046L120.424 122.266H132.903L138.069 105.046C138.164 104.712 138.181 104.362 138.119 104.02C138.057 103.679 137.917 103.357 137.712 103.078ZM137.622 104.912L132.568 121.819H120.737L115.66 104.934C115.58 104.665 115.564 104.381 115.615 104.105C115.665 103.829 115.781 103.569 115.951 103.346C116.118 103.125 116.335 102.945 116.583 102.821C116.831 102.697 117.105 102.632 117.382 102.631H135.922C136.2 102.632 136.474 102.697 136.722 102.821C136.97 102.945 137.186 103.125 137.354 103.346C137.517 103.568 137.626 103.826 137.673 104.097C137.719 104.369 137.702 104.648 137.622 104.912Z" fill="#006980"/>
<path d="M136.728 107.237H116.287C115.955 107.238 115.626 107.173 115.319 107.046C115.013 106.919 114.734 106.733 114.499 106.498C114.264 106.263 114.078 105.985 113.951 105.678C113.825 105.371 113.759 105.042 113.76 104.71C113.759 104.378 113.825 104.05 113.951 103.743C114.078 103.436 114.264 103.157 114.499 102.923C114.734 102.688 115.013 102.502 115.319 102.375C115.626 102.248 115.955 102.183 116.287 102.183H136.728C137.06 102.183 137.389 102.248 137.695 102.375C138.002 102.502 138.281 102.688 138.516 102.923C138.75 103.157 138.936 103.436 139.063 103.743C139.19 104.05 139.255 104.378 139.255 104.71C139.257 105.043 139.193 105.372 139.067 105.68C138.941 105.988 138.755 106.267 138.52 106.502C138.285 106.737 138.005 106.923 137.698 107.05C137.39 107.176 137.06 107.24 136.728 107.237Z" fill="#006980"/>
</g>
<defs>
<clipPath id="clip0_909_9350">
<rect width="140" height="140" fill="white"/>
</clipPath>
</defs>
</svg>
