<svg width="16" height="16" viewBox="0 0 16 16" fill="none" xmlns="http://www.w3.org/2000/svg">
<g clip-path="url(#clip0_2054_1948)">
<path d="M7.97205 16.0053L7.50733 15.6069C6.86667 15.0705 1.27271 10.2393 1.27271 6.70545C1.27271 3.00551 4.27211 0.00610352 7.97205 0.00610352C11.672 0.00610352 14.6714 3.00551 14.6714 6.70545C14.6714 10.2394 9.07742 15.0705 8.43942 15.6096L7.97205 16.0053ZM7.97205 1.4547C5.07352 1.45798 2.72461 3.80689 2.72133 6.70542C2.72133 8.92548 6.16296 12.472 7.97205 14.0952C9.78117 12.4713 13.2228 8.92279 13.2228 6.70542C13.2195 3.80689 10.8706 1.45801 7.97205 1.4547Z" fill="#006980"/>
<path d="M7.97209 9.36093C6.50547 9.36093 5.31653 8.17199 5.31653 6.70537C5.31653 5.23874 6.50547 4.0498 7.97209 4.0498C9.43871 4.0498 10.6277 5.23874 10.6277 6.70537C10.6277 8.17199 9.43875 9.36093 7.97209 9.36093ZM7.97209 5.37755C7.23878 5.37755 6.64431 5.97202 6.64431 6.70534C6.64431 7.43865 7.23878 8.03312 7.97209 8.03312C8.7054 8.03312 9.29987 7.43865 9.29987 6.70534C9.29987 5.97202 8.70543 5.37755 7.97209 5.37755Z" fill="#006980"/>
</g>
<defs>
<clipPath id="clip0_2054_1948">
<rect width="16" height="16" fill="white"/>
</clipPath>
</defs>
</svg>
