<svg width="38" height="26" viewBox="0 0 38 26" fill="none" xmlns="http://www.w3.org/2000/svg">
<g clip-path="url(#clip0_2680_4387)">
<path d="M1.33301 1H37.333V25H1.33301V1Z" fill="#006C35"/>
<path d="M24.5969 18.8403H24.0969C24.0413 18.9132 23.9545 19 23.9059 19C23.8469 19 23.6872 18.8368 23.6872 18.7778C23.6872 18.7326 23.7636 18.6458 23.833 18.5903V18.4549H14.7705C13.5761 18.4549 12.9823 18.4444 12.583 18.0451H23.833V17.9097C23.767 17.8576 23.6872 17.7674 23.6872 17.7222C23.6872 17.6632 23.8469 17.5 23.9059 17.5C23.965 17.5 24.1247 17.6632 24.1247 17.7222C24.1247 17.7674 24.0448 17.8576 23.9788 17.9097V18.0451H25.5066C25.9163 18.0451 26.083 18.0799 26.083 18.4549C26.083 18.8542 25.9754 18.9271 25.8052 18.9271C25.7462 18.9271 25.649 18.9236 25.5761 18.8403H24.9823C24.9666 18.8658 24.9399 18.8875 24.9056 18.9029C24.8713 18.9182 24.8309 18.9264 24.7896 18.9264C24.7483 18.9264 24.7079 18.9182 24.6736 18.9029C24.6393 18.8875 24.6126 18.8658 24.5969 18.8403ZM24.9823 18.7153H25.5066C25.4788 18.6389 25.4788 18.559 25.5066 18.4549H23.9788V18.5903C24.017 18.6181 24.0691 18.6771 24.0969 18.7153H24.5969C24.6126 18.6898 24.6393 18.668 24.6736 18.6527C24.7079 18.6373 24.7483 18.6292 24.7896 18.6292C24.8309 18.6292 24.8713 18.6373 24.9056 18.6527C24.9399 18.668 24.9666 18.6898 24.9823 18.7153Z" fill="white"/>
<path d="M25.8469 12.4722C25.8816 12.5139 25.9025 12.5521 25.8434 12.6215C25.7879 12.6701 25.7497 12.6979 25.6906 12.7465C25.6663 12.7882 25.649 12.8542 25.7288 12.875C25.8816 12.9167 26.1629 12.7361 26.1629 12.7326C26.2219 12.691 26.2011 12.6146 26.1976 12.6146C26.1629 12.5799 26.09 12.6007 26.0413 12.5938C26.017 12.5938 26.0031 12.5486 26.0379 12.4826C26.0691 12.441 26.083 12.4167 26.1038 12.3681C26.1247 12.3194 26.1038 12.2847 26.0205 12.2569C25.9337 12.2431 25.899 12.25 25.8052 12.2569C25.7531 12.2674 25.7358 12.2917 25.7254 12.3507C25.7288 12.441 25.7879 12.434 25.8469 12.4722ZM25.1872 10.3264C25.1386 10.3924 25.1038 10.4444 25.1976 10.4965C25.2948 10.5451 25.4406 10.6806 25.3781 10.8333C25.3434 10.9514 25.3781 11.0451 25.4858 10.875C25.5969 10.6979 25.5101 10.4861 25.4025 10.3507C25.3087 10.2326 25.2462 10.2569 25.1872 10.3264ZM28.1108 7.90278C28.2427 8.01736 28.3156 7.98264 28.2323 7.78819C28.1351 7.59375 28.0413 7.38889 27.9545 7.20486C27.8608 7.01042 27.8365 7.05556 27.7288 7.19444C27.6073 7.32986 27.5969 7.43403 27.642 7.51389C27.8712 9.32986 27.9788 10.2778 28.0031 10.8264C28.0518 11.625 27.8469 12.0729 27.0309 12.5868C26.767 12.7569 26.4684 12.9514 27.1038 12.8021C27.6976 12.6597 28.333 12.2847 28.333 10.8507C28.333 9.77083 28.083 8.61458 28.1108 7.90278ZM27.1386 7.53472C27.0656 7.64931 27.0795 7.67361 27.1629 7.79861C27.2462 7.9375 27.3191 8.1875 27.3191 8.38194C27.3191 8.57639 27.392 8.55208 27.4268 8.37153C27.465 8.19792 27.4511 7.85764 27.3434 7.61806C27.2358 7.36458 27.1976 7.45486 27.1386 7.53472ZM27.8365 11.316C27.8122 11.1562 27.7636 10.9965 27.5483 10.691C27.333 10.3924 27.1386 10.1181 26.9476 9.85417C26.8886 9.17014 26.8018 8.4375 26.8018 8.05208C26.899 8.14236 26.9719 8.05208 26.9233 7.90278C26.8747 7.75347 26.7775 7.35417 26.708 7.18403C26.6455 7.02083 26.5761 7.05556 26.4788 7.20486C26.3955 7.35417 26.3365 7.42361 26.3955 7.53472C26.4198 8.19792 26.5136 8.84028 26.6247 9.42014C26.4302 9.17014 26.2497 8.93056 26.083 8.71181C26.0726 8.46181 26.0483 8.21181 26.0344 7.95833C26.142 8.03819 26.1906 8.01736 26.1316 7.86806C26.083 7.70833 25.9511 7.375 25.892 7.22917C25.8295 7.07986 25.7948 7.07986 25.7115 7.19444C25.5795 7.38889 25.5413 7.52431 25.6525 7.70833C25.6629 7.86806 25.6872 8.03819 25.6976 8.1875C25.59 8.05208 25.4962 7.91319 25.4094 7.78819C25.517 7.84375 25.6038 7.75347 25.4823 7.64931C25.3747 7.54861 25.1455 7.375 25.0518 7.25C24.9441 7.125 24.8469 7.125 24.8469 7.23958C24.8469 7.35417 24.8573 7.45486 24.8469 7.55903C24.8226 7.64931 24.8226 7.74306 24.965 7.90278C25.2427 8.22222 25.5066 8.55208 25.7601 8.86111C25.8538 10.0035 25.9163 10.7361 25.892 11.191C25.8781 11.4653 25.7844 11.625 25.6281 11.6701C25.4719 11.7292 25.3156 11.625 25.1698 11.4201C24.9059 11.0556 24.8122 11.125 24.6073 11.4444C24.4129 11.7396 24.2809 11.9931 24.1733 12.2083C24.0795 12.4132 23.9094 12.5972 23.7531 12.3229C23.6108 12.0486 23.5865 11.7396 23.5969 11.5243C23.5969 11.3056 23.5622 11.1354 23.4788 11.4792C23.2636 12.3229 23.3955 12.5069 23.6351 12.6875C23.9337 12.941 24.0309 12.9618 24.1872 12.7465C24.4997 12.3333 24.583 11.9688 24.7636 11.7639C24.9059 11.6042 24.9059 11.7292 24.9788 11.809C25.1594 12.0243 25.3156 12.1042 25.5656 12.1389C25.8191 12.184 26.274 11.9792 26.2393 11.1806C26.215 10.7014 26.1802 10.0486 26.1316 9.35417C26.3712 9.67361 26.5865 9.95833 26.7566 10.1875C26.84 10.6424 26.8886 11.0556 26.8643 11.3854C26.84 11.7639 26.9233 11.7639 27.0066 11.375C27.0309 11.2153 27.0309 10.8819 26.9962 10.4826C27.3191 10.8958 27.5101 11.1701 27.642 11.3646C27.7879 11.6042 27.8712 11.809 27.8365 11.316ZM24.5448 10.4167C24.5448 10.3368 24.583 10.3125 24.7254 10.1979C24.8469 10.1076 25.1837 9.87847 25.2913 9.77431C25.399 9.67361 25.4823 9.57986 25.5066 9.70833C25.517 9.83333 25.5413 9.87847 25.4094 9.94792C25.2775 10.0035 24.9302 10.2083 24.8226 10.2882C24.7011 10.3819 24.5448 10.4965 24.5448 10.4167ZM24.583 9.01042C24.5587 9.11458 24.4129 9.11458 24.4268 9C24.4372 8.88542 24.4268 8.90625 24.4268 8.81597C24.4129 8.72569 24.5344 8.66667 24.5934 8.74653C24.6663 8.82639 24.7879 9.07986 24.8226 9.17014C24.8712 9.26042 24.8955 9.23958 24.8955 9.11458C24.8816 8.96528 24.8573 8.82639 24.8712 8.72569C24.8816 8.66667 24.9198 8.59722 24.9893 8.54167C25.0761 8.48611 25.1212 8.47222 25.1594 8.57639C25.1837 8.66667 25.2531 8.67708 25.2184 8.76042C25.1698 8.87153 25.0622 8.64583 24.9893 8.80556C24.9545 8.92014 24.9893 9.23958 24.9788 9.35417C24.9788 9.45486 24.9302 9.60417 24.8469 9.43403C24.7879 9.31944 24.7011 9.125 24.583 9.01042ZM23.7531 8.08333C23.9233 8.16319 24.1038 8.21181 23.9719 8.01736C23.8365 7.83333 23.7288 7.52431 23.6594 7.29514C23.5726 7.06944 23.5518 7.07986 23.4163 7.27431C23.215 7.56944 23.3955 7.85764 23.4406 8.19792C23.6108 9.42014 23.7775 10.6667 23.8261 10.9965C23.8747 11.3646 23.9337 11.6042 23.8365 12.0035C23.8018 12.1285 23.8504 12.1632 23.9337 12.0139C24.2705 11.4097 24.0413 10.8819 24.0066 10.5417C23.9476 10.0139 23.7531 8.62153 23.7184 8.0625M22.9268 8.02778C23.0205 8.10764 23.1316 8.10764 23.0691 7.9375C23.0101 7.76389 22.9615 7.55903 22.9025 7.36458C22.8434 7.17014 22.8052 7.125 22.7323 7.21528C22.649 7.31944 22.59 7.35417 22.5309 7.42361C22.4684 7.47917 22.458 7.60417 22.5309 7.71875C22.7948 9.44444 22.8052 10.2083 22.8434 10.8507C22.8781 11.4896 22.9754 11.7847 22.5552 12.2188C22.0969 12.6875 21.8226 12.8021 21.6177 12.8472C21.3886 12.9097 21.2948 13 21.5413 13C22.3469 13 22.4268 12.7847 22.7566 12.4375C23.024 12.1562 23.1525 11.7986 23.1316 10.9514C23.1073 9.46528 22.8886 8.82639 22.9268 8.02778ZM19.9129 12.3924C20.0344 12.3229 20.0934 12.2674 20.1872 12.2326C20.2844 12.184 20.3573 12.1979 20.2844 12.3924C20.2115 12.6181 20.2497 12.6875 20.4059 12.6319C20.5483 12.5868 20.6316 12.5278 20.7531 12.4826C20.8608 12.4375 20.9823 12.4375 20.8122 12.5625C20.6802 12.6667 20.4893 12.8021 20.3816 12.8264C20.142 12.8819 20.0205 12.7917 20.0691 12.6076C20.1177 12.4375 20.1525 12.3681 20.0101 12.4271C19.84 12.4931 19.8538 12.4271 19.9129 12.3924ZM21.8469 8.50694C21.892 8.64583 21.9545 8.71181 21.9893 8.54167C22.0136 8.39236 22.0622 8.34722 22.0865 8.50694C22.1212 8.66667 22.2184 8.64583 22.2427 8.49653C22.2775 8.34722 22.3261 8.26736 22.3504 8.42708C22.3747 8.59722 22.3608 8.65625 22.3365 8.71181C22.3261 8.76042 22.2288 8.81597 22.1559 8.74653C22.0726 8.67708 22.0483 8.67708 21.9893 8.73611C21.8573 8.85069 21.8087 8.77083 21.7844 8.61111C21.774 8.47222 21.8226 8.41667 21.8469 8.50694ZM22.649 11.3854C22.5413 10.8715 22.0483 10.0486 21.3156 8.97569C21.2948 8.69097 21.2809 8.42708 21.2809 8.1875C21.3886 8.30208 21.4615 8.23264 21.4268 8.08333C21.3538 7.82292 21.2462 7.60417 21.1143 7.30903C21.0656 7.18403 20.9337 7.14931 20.8747 7.32986C20.7879 7.54861 20.7775 7.59375 20.8851 7.74306C20.8747 7.90278 20.9337 8.17708 20.958 8.42708C20.8261 8.24306 20.6559 8.01736 20.524 7.82292C20.7288 7.90278 20.8504 7.84375 20.6698 7.66319C20.4893 7.46875 20.2358 7.27431 20.0795 7.13542C19.9233 7 19.8538 7.09028 19.8781 7.21528C19.8886 7.34375 19.9025 7.43403 19.8886 7.53472C19.8781 7.63889 19.9129 7.70833 20.0691 7.76389C20.3816 8.15278 20.6941 8.55208 20.9823 8.96528C21.017 9.30556 21.09 9.68403 21.1247 9.99306C21.2219 10.7222 21.3643 11.6701 21.2462 12.0833C21.149 12.3924 21.2462 12.5278 21.4025 12.059C21.5448 11.5903 21.5309 11.1458 21.4372 10.4479C21.399 10.1771 21.3886 9.83333 21.3538 9.51389C21.8573 10.2535 22.3122 10.9618 22.517 11.4549C22.6247 11.7188 22.7219 11.7743 22.649 11.3854ZM21.7497 7.21528C21.7011 7.30903 21.6663 7.375 21.7601 7.44444C21.8573 7.51389 22.0031 7.69792 21.9406 7.90278C21.9059 8.0625 21.9406 8.1875 22.0483 7.95833C22.1559 7.71875 22.0726 7.43403 21.965 7.25C21.8677 7.09028 21.8087 7.125 21.7497 7.21528ZM18.1976 9.70833C18.1733 9.86806 18.208 9.96875 18.267 10.0486C18.3295 10.1285 18.4476 10.1181 18.4858 10.0278C18.5205 9.92361 18.5448 9.91319 18.6177 9.99306C18.7011 10.0729 18.9754 10.0035 18.8434 9.60417C18.7844 9.44444 18.7601 9.47917 18.7601 9.65972C18.7601 9.94792 18.6629 9.94792 18.5552 9.67361C18.5205 9.56944 18.4719 9.56944 18.4615 9.70833C18.4615 9.96875 18.34 10.0035 18.267 9.73958C18.2427 9.62847 18.2219 9.53472 18.1976 9.70833ZM19.8538 10.1181C20.1038 10.0625 19.9615 10.0382 19.7913 9.93403C19.6143 9.83333 19.5413 9.83333 19.5518 9.94792C19.5656 10.0139 19.5656 10.0833 19.59 10.1736C19.6733 10.1528 19.7566 10.1424 19.8538 10.1181ZM19.3608 9.55903C19.5518 9.29514 19.8643 9.375 20.2254 9.61458C20.5865 9.85417 20.4406 10.2326 20.0934 10.4271C20.0101 10.4722 19.9025 10.5174 19.767 10.5625C19.8052 10.6424 19.7566 10.6667 19.649 10.5972C19.3365 10.7014 18.9268 10.8507 18.642 10.9965C18.9893 11.0208 20.4302 10.9965 20.7184 10.9618C21.0066 10.941 20.958 10.9861 20.8747 11.2257C20.7879 11.4549 20.6941 11.4306 20.4545 11.4653C20.0691 11.5347 19.5031 11.6944 19.0969 11.8542C18.6872 12.0139 18.833 12.2986 19.2531 12.4479C19.5761 12.5278 19.5413 12.5625 19.4823 12.7465C19.4337 12.9167 19.4337 12.9618 19.0379 12.9062C18.0656 12.7569 17.715 12.2431 17.5587 11.8438C16.9615 12.6528 16.3712 13.1007 15.8191 12.9618C15.5448 12.9062 15.4129 12.6667 15.3886 12.3681C15.0031 12.5382 14.5587 12.6875 13.9823 12.8472C13.8504 12.8924 13.7427 12.8368 13.9233 12.7569C14.3052 12.5729 14.9059 12.2674 15.399 11.934C15.4476 11.7292 15.5552 11.4444 15.6629 11.2361C15.7219 11.1111 15.7601 11.1562 15.7601 11.2604C15.7601 11.3403 15.7358 11.5451 15.7462 11.6944C15.833 11.625 15.9511 11.559 16.0101 11.5C16.3469 11.2153 16.7184 11.0312 16.4684 10.5764C16.3608 10.3681 16.274 10.2222 16.2393 10.1285C16.024 10.0486 16.083 9.93403 16.1802 9.73958C16.274 9.54861 16.3122 9.5 16.5031 9.71875C16.7809 10.0278 16.8156 10.1632 16.6247 10.1424C16.9233 10.8715 16.8504 11.25 16.3851 11.684C16.1663 11.8993 15.9406 12.0729 15.6768 12.2083C15.6525 12.4028 15.7358 12.5972 16.1177 12.5382C16.6247 12.4722 17.1872 11.8438 17.4268 11.3646C17.3191 10.9618 17.0795 10.2431 16.9372 9.87847C16.8643 9.69444 16.9372 9.61458 16.9962 9.46528C17.0691 9.31944 17.1038 9.22569 17.1872 9.43403C17.2705 9.62847 17.5344 10.1181 17.6559 10.7014C17.7879 11.2847 17.7636 11.7847 18.0761 12.059C18.2219 12.184 18.399 12.2674 18.5934 12.3125C18.4476 11.9236 18.7497 11.625 19.1455 11.4896C18.9059 11.2708 18.5309 11.3056 18.1108 11.2847C17.8018 11.2708 17.8365 11.2361 17.9198 10.9757C18.0031 10.7118 18.1004 10.6771 18.3295 10.5868C18.642 10.4722 18.9511 10.3576 19.2775 10.2674C19.0726 9.98264 19.2045 9.77431 19.3608 9.55903ZM17.8469 7.21528C17.7636 7.29514 17.7636 7.30903 17.8365 7.40972C17.9094 7.48958 18.017 7.74306 17.9788 8.00347C17.9684 8.11806 17.9927 8.23264 18.0518 8.02778C18.1004 7.82292 18.0865 7.53472 18.0275 7.36458C17.9684 7.19444 17.8955 7.14931 17.8469 7.21528ZM16.215 7.66319C16.024 8.17708 16.0344 8.66667 16.4302 9.09028C16.6594 9.32986 16.8261 9.21528 16.9233 8.95139C17.0309 8.70139 17.1038 8.45139 17.1768 8.27778C17.2462 8.10764 17.3087 8.14236 17.2948 8.30208C17.2601 8.62153 17.2358 9.13542 17.5726 9.32986C17.9094 9.52431 18.4233 9.19444 18.6038 8.85069C19.1455 9.53472 19.6247 9.21528 19.6837 8.55208C19.6976 8.34722 19.6004 7.90278 19.5413 7.77778C19.4823 7.63889 19.517 7.63889 19.6004 7.70833C19.6837 7.78819 19.8295 7.83333 19.7566 7.60417C19.6733 7.38889 19.5761 7.26389 19.4441 7.15972C19.3261 7.05556 19.3018 7.11458 19.2531 7.19444C19.2045 7.27431 19.215 7.29514 19.1455 7.35417C19.0726 7.42361 19.083 7.45486 19.1455 7.58333C19.3469 8.08333 19.5413 8.81597 19.215 8.88542C18.9163 8.94097 18.7254 8.32292 18.7115 8.05208C18.7011 7.68403 18.6525 7.375 18.5795 7.18403C18.5275 7.05903 18.4962 7 18.4684 7C18.4198 7 18.3504 7.19792 18.3052 7.27431C18.2566 7.35417 18.3052 7.375 18.34 7.53472C18.5205 8.33681 18.4962 8.70139 18.1108 8.90625C17.7288 9.125 17.524 8.92014 17.524 8.66667C17.5136 8.41667 17.5136 8.10764 17.5483 7.87847C17.5726 7.64931 17.6316 7.61806 17.5483 7.50347C17.465 7.375 17.392 7.42361 17.2844 7.56944C17.0448 7.88889 16.8052 8.42708 16.7184 8.67708C16.6351 8.94097 16.4684 8.85069 16.3469 8.63194C16.215 8.37153 16.2288 7.90278 16.274 7.71875C16.3226 7.53472 16.2983 7.45486 16.215 7.66319ZM15.7219 7.46875C15.7462 7.39931 15.6872 7.32986 15.6386 7.43403C15.6038 7.51389 15.59 7.56944 15.6629 7.61806C15.6872 7.56944 15.7115 7.51389 15.7219 7.46875ZM15.4337 7.36458C15.5795 7.01042 16.0587 7.05556 15.9268 7.51389C15.9163 7.58333 15.8781 7.67361 15.833 7.76389C15.9025 7.85764 15.8677 7.97222 15.7219 7.94792C15.5656 8.1875 15.267 8.45139 14.7497 8.66667C14.5101 8.77083 14.4754 8.69097 14.6559 8.58681C15.0031 8.37153 15.3261 8.10764 15.5309 7.83333C15.3747 7.70833 15.3747 7.52431 15.4337 7.36458ZM15.3504 8.63194C15.208 8.80556 15.1004 9.05556 15.3018 9.20486C15.4129 9.29514 15.6386 9.19444 15.7219 9.02083C15.8087 8.84028 15.7705 8.81597 15.6281 8.96528C15.4233 9.18056 15.2184 8.98611 15.4337 8.69097C15.5795 8.48611 15.4962 8.4375 15.3504 8.63194ZM15.0275 11.1458C15.0518 11.2257 15.0379 11.4097 15.0031 11.4896C14.9545 11.5903 15.0031 11.6389 15.0761 11.5104C15.1455 11.375 15.1941 11.2153 15.1594 11.0556C15.1455 10.941 15.1455 10.9062 15.0379 10.8611C14.9198 10.816 14.8816 10.8819 14.8469 10.9757C14.7983 11.0903 14.8573 11.2153 15.0275 11.1458ZM13.1768 10.3924C12.9615 10.4479 12.9268 10.3681 12.9372 10.2431C12.9511 10.1181 12.9615 10.0833 13.1073 10.1424C13.1663 10.1632 13.2393 10.2431 13.3122 10.3472C13.2636 10.3576 13.215 10.3819 13.1768 10.3924ZM13.3573 9.87847C13.142 9.67361 12.9615 9.65972 12.7809 9.91319C12.6143 10.1528 12.6247 10.2083 12.6386 10.4271C12.649 10.6424 12.6038 10.7222 12.7809 10.7812C12.9511 10.8368 13.024 10.816 13.1316 10.7812C13.215 10.7569 13.333 10.7222 13.4545 10.6771C13.4788 10.7917 13.465 10.9167 13.3955 11.0104C12.9511 11.5104 12.267 11.8785 11.965 11.5451C11.7983 11.3646 11.7254 11.0764 11.774 10.7361C11.8226 10.4479 11.7254 10.5764 11.6906 10.6771C11.583 11.0104 11.5448 11.4896 11.6906 11.7292C11.8955 12.059 12.2184 12.2083 12.7358 11.9931C13.2497 11.7743 13.7531 11.3854 13.7323 10.8507C13.7323 10.7465 13.7184 10.6562 13.7184 10.5868C13.767 10.5625 13.8504 10.5069 13.9094 10.4826C13.9233 10.6667 13.899 10.8958 13.9094 11.0764C13.9337 11.6597 13.6941 11.8299 13.4788 11.9931C13.1768 12.2188 12.7705 12.3681 12.4233 12.4271C11.5934 12.5382 11.4025 12.0382 11.4129 11.3646C11.4129 11.2604 11.4615 11.191 11.4615 11.0417C11.4511 10.7569 11.4129 10.8021 11.3191 11.0903C11.2323 11.3646 11.1247 12.0035 11.4025 12.5278C11.6906 13.0556 12.6629 12.9062 13.4198 12.5625C14.1629 12.2188 14.2462 11.5694 14.2115 10.9167C14.2115 10.7465 14.1976 10.5625 14.1872 10.3681C14.2115 10.3576 14.2219 10.3368 14.2358 10.3229C14.3434 10.6562 14.8469 10.5625 15.0031 10.3681C15.0865 10.2778 15.0865 10.2674 15.1594 10.3681C15.267 10.5174 15.6386 10.5625 15.7358 10.3576C15.8191 10.1424 15.8087 9.93403 15.7844 9.77431C15.7601 9.61458 15.7219 9.62847 15.6143 9.70833C15.4962 9.79861 15.59 9.80903 15.6038 9.92361C15.6525 10.3576 15.2566 10.3229 15.208 9.87847C15.1837 9.60417 15.1351 9.70833 15.1004 9.83333C14.9302 10.3681 14.4372 10.4722 14.4858 9.85417C14.4997 9.67361 14.3781 9.72917 14.3191 9.79861C14.2601 9.84375 14.2115 9.90278 14.1525 9.93403C14.1143 9.43403 14.0795 8.86111 14.017 8.17708C14.1629 8.34722 14.2948 8.15278 14.1976 7.95833C14.1281 7.80903 14.017 7.47917 13.9476 7.29514C13.8851 7.11458 13.8504 7.17014 13.6941 7.31944C13.5518 7.47917 13.5761 7.51389 13.6455 7.67361C13.6212 7.86806 13.6594 8.0625 13.708 8.46181C13.7427 8.74653 13.84 9.34028 13.8851 10.0938C13.8156 10.1285 13.708 10.1979 13.6351 10.2326C13.5761 10.1076 13.4893 10.0035 13.3573 9.87847ZM10.7775 11.3299C10.7879 11.4444 10.7879 11.5243 10.7879 11.5694C10.7879 11.6493 10.7427 11.7292 10.7184 11.8299C10.5726 12.3229 10.7879 12.5625 10.9094 12.3785C11.017 12.1979 11.0761 12.2188 11.0656 12.3681C11.0552 12.8611 10.5622 12.8924 10.524 12.4826C10.465 11.8299 10.6212 11.7292 10.6698 11.5104C10.7045 11.3646 10.7531 11.25 10.7775 11.3299ZM10.524 10.6076C10.8747 10.2083 11.3191 10.0035 11.5448 9.93403C11.6906 9.88889 11.7636 9.83333 11.7636 9.96875C11.774 10.0938 11.7636 10.1076 11.642 10.1424C11.3643 10.2083 10.7879 10.4826 10.5969 10.6215C10.5031 10.691 10.3816 10.7708 10.524 10.6076ZM12.4823 7.17014C12.4476 7.26389 12.4719 7.375 12.5309 7.44444C12.59 7.52431 12.6976 7.52431 12.7705 7.46875C12.8295 7.39931 12.8295 7.38889 12.892 7.47917C12.9268 7.54861 13.0448 7.52431 13.083 7.45486C13.1073 7.39931 13.142 7.34375 13.1073 7.26389C13.0691 7.18403 13.0691 7.20486 13.0448 7.29514C13.024 7.44444 12.8781 7.40972 12.8677 7.22917C12.8677 7.05556 12.8295 7.14931 12.7809 7.26389C12.6976 7.43403 12.5795 7.39931 12.5795 7.25C12.5795 7.125 12.5413 7.02083 12.4823 7.17014ZM11.965 9.56944C12.0031 9.98264 12.1212 10.7465 12.1212 11.0104C12.1351 11.2847 12.1698 11.2049 12.2427 11.0556C12.3156 10.9062 12.3018 10.7465 12.2913 10.5278C12.267 10.3021 12.2531 9.92361 12.2045 9.40972C12.3018 9.34028 12.3851 9.22569 12.4233 9.15972C12.517 8.98611 12.5413 9 12.5795 9.13542C12.649 9.40972 12.9372 9.59375 13.3226 9.32986C13.6837 9.09028 13.5275 8.58681 13.3712 8.03819C13.5031 8.0625 13.5518 7.95833 13.465 7.82292C13.4302 7.74306 13.3573 7.67361 13.2983 7.60417C13.2393 7.53472 13.1768 7.47917 13.1177 7.54861C13.0691 7.61806 13.0101 7.67361 12.9754 7.71875C12.9372 7.76389 12.9372 7.80903 12.9858 7.92361C13.1316 8.24306 13.2254 8.58681 13.2497 8.78125C13.2879 8.96528 13.215 9.01042 13.083 9.01042C12.9511 9.01042 12.7705 8.97569 12.6976 8.70139C12.6247 8.42708 12.59 8.30208 12.6038 8.11806C12.6143 7.9375 12.6386 7.80903 12.5066 7.62847C12.3608 7.44444 12.3504 7.47917 12.3156 7.56944C12.2913 7.67361 12.2427 7.82292 12.2913 7.99306C12.3504 8.24306 12.3851 8.46181 12.4233 8.61111C12.4476 8.71181 12.3365 8.93056 12.1837 9.04514C12.1455 8.70139 12.0865 8.24306 12.0622 7.87847C12.267 7.80903 12.1594 7.54861 11.9893 7.26389C11.8712 7.04514 11.8226 7.13542 11.7393 7.27431C11.6525 7.40972 11.715 7.46875 11.774 7.58333C11.7254 7.67361 11.8087 7.80903 11.8469 8.0625C11.8573 8.22222 11.8955 8.67708 11.9302 9.07986C11.7636 9.07986 11.6663 8.97569 11.6073 8.84028C11.4754 8.55208 11.5101 8.29167 11.5691 8.11806C11.6316 7.94792 11.6906 7.68403 11.583 7.61806C11.4858 7.54861 11.3538 7.62847 11.2705 7.75347C11.1247 7.95833 10.9927 8.25694 10.9823 8.56597C10.9684 8.69097 10.9337 8.93056 10.8747 9.02083C10.8261 9.11458 10.7427 9.125 10.6559 8.98611C10.5136 8.77083 10.465 8.22222 10.4788 7.9375C10.4788 7.79861 10.4406 7.77778 10.392 7.9375C10.3504 8.08333 10.333 8.23264 10.333 8.375C10.333 8.77778 10.4511 9.14583 10.5483 9.32986C10.6802 9.57986 10.8504 9.52431 10.9684 9.31944C11.149 9.01042 11.0761 8.73611 11.2462 8.27778C11.3434 7.99306 11.3781 8.21181 11.3434 8.38194C11.2566 8.84028 11.2809 9.57986 11.965 9.56944ZM10.9337 7.77778C11.0552 7.45486 11.0656 7.17014 10.9233 7.27431C10.8018 7.36458 10.7288 7.27431 10.8261 7.17014C10.9441 7.02083 11.1004 6.97569 11.1386 7.22917C11.149 7.42361 11.0066 7.66319 10.9337 7.77778Z" fill="white"/>
</g>
<rect x="1.33301" y="1" width="36" height="24" rx="4" stroke="#EEEEEE"/>
<defs>
<clipPath id="clip0_2680_4387">
<rect x="1.33301" y="1" width="36" height="24" rx="4" fill="white"/>
</clipPath>
</defs>
</svg>
