<svg width="16" height="16" viewBox="0 0 16 16" fill="none" xmlns="http://www.w3.org/2000/svg">
<g clip-path="url(#clip0_2054_1997)">
<path d="M14 3.99992H3.33333C3.05219 3.9994 2.77429 3.93985 2.51762 3.82513C2.26095 3.7104 2.03123 3.54305 1.84333 3.33392C2.03065 3.12398 2.26023 2.95601 2.51701 2.841C2.77379 2.726 3.05198 2.66656 3.33333 2.66659H15.3333C15.5101 2.66659 15.6797 2.59635 15.8047 2.47132C15.9298 2.3463 16 2.17673 16 1.99992C16 1.82311 15.9298 1.65354 15.8047 1.52851C15.6797 1.40349 15.5101 1.33325 15.3333 1.33325H3.33333C2.44928 1.33325 1.60143 1.68444 0.976311 2.30956C0.351189 2.93468 0 3.78253 0 4.66659L0 11.3333C0 12.2173 0.351189 13.0652 0.976311 13.6903C1.60143 14.3154 2.44928 14.6666 3.33333 14.6666H14C14.5304 14.6666 15.0391 14.4559 15.4142 14.0808C15.7893 13.7057 16 13.197 16 12.6666V5.99992C16 5.46949 15.7893 4.96078 15.4142 4.58571C15.0391 4.21063 14.5304 3.99992 14 3.99992ZM14.6667 12.6666C14.6667 13.0339 14.368 13.3333 14 13.3333H3.33333C2.23067 13.3333 1.33333 12.4359 1.33333 11.3333V4.66525C1.91042 5.09795 2.61204 5.33229 3.33333 5.33325H14C14.368 5.33325 14.6667 5.63259 14.6667 5.99992V12.6666ZM13.3333 9.33325C13.3333 9.51006 13.2631 9.67963 13.1381 9.80466C13.013 9.92968 12.8435 9.99992 12.6667 9.99992C12.4899 9.99992 12.3203 9.92968 12.1953 9.80466C12.0702 9.67963 12 9.51006 12 9.33325C12 9.15644 12.0702 8.98687 12.1953 8.86185C12.3203 8.73682 12.4899 8.66659 12.6667 8.66659C12.8435 8.66659 13.013 8.73682 13.1381 8.86185C13.2631 8.98687 13.3333 9.15644 13.3333 9.33325Z" fill="#006980"/>
</g>
<defs>
<clipPath id="clip0_2054_1997">
<rect width="16" height="16" fill="white"/>
</clipPath>
</defs>
</svg>
