<svg width="450" height="287" viewBox="0 0 450 287" fill="none" xmlns="http://www.w3.org/2000/svg">
<g clip-path="url(#clip0_359_2613)">
<path d="M8.51294 201.789L448.123 194.442C448.123 194.442 452.669 185.582 446.175 178.018C439.682 170.455 422.799 175.864 422.799 175.864C422.799 175.864 422.312 169.441 417.441 168.516C412.571 167.592 412.084 170.347 412.084 170.347C412.084 170.347 413.87 165.971 411.435 163.054C409 160.136 405.266 161.109 405.266 161.109C405.266 161.109 410.136 156.571 409.812 151.546C409.487 146.522 400.883 146.036 400.883 146.036C401.868 142.705 401.787 139.15 400.652 135.867C399.517 132.584 397.385 129.737 394.552 127.721C384.487 120.103 374.097 134.042 374.097 134.042C374.097 134.042 373.448 130.638 368.253 129.504C363.058 128.369 360.683 135.153 360.683 135.153C360.683 135.153 359.503 146.093 350.558 148.862C341.614 151.63 345.851 139.876 335.136 137.121C324.422 134.365 317.536 148.862 317.536 148.862C317.536 148.862 306.772 149.711 303.016 155.571C299.26 161.432 303.016 167.105 303.016 167.105C303.016 167.105 297.799 164.104 293.253 165.443C288.708 166.781 289.357 173.102 289.357 173.102C289.059 172.566 288.604 172.134 288.052 171.863C287.501 171.593 286.88 171.497 286.273 171.589C284 171.806 283.919 174.561 283.919 174.561C283.919 174.561 283.026 170.185 277.101 167.835C271.175 165.485 261.191 173.67 260.38 178.937C259.568 184.204 263.951 187.689 263.951 187.689C263.951 187.689 261.76 185.204 257.756 186.879C253.752 188.554 254.834 192.876 254.834 192.876C254.834 192.876 249.26 183.799 234.974 184.286C220.688 184.772 216.305 195.893 216.305 195.893C216.305 195.893 215.403 189.714 211.149 188.944C206.895 188.175 206.078 194.442 206.078 194.442C206.078 194.442 207.864 187.203 203.643 186.717C199.422 186.23 198.699 186.894 198.699 186.894C198.699 186.894 199.747 184.123 195.039 180.396C190.331 176.668 186.273 181.692 186.273 181.692C186.273 181.692 189.844 150.412 166.954 157.057C144.065 163.702 154.588 180.72 154.588 180.72C154.588 180.72 141.792 170.023 133.188 177.316C124.584 184.61 126.532 189.31 126.532 189.31C126.532 189.31 124.422 181.044 119.877 181.854C115.331 182.665 115.493 186.717 115.493 186.717C115.493 186.717 111.76 159.974 92.1168 164.593C72.474 169.212 75.8831 181.692 75.8831 181.692C75.8831 181.692 63.0584 117.726 21.7168 134.798C-19.6247 151.87 11.9766 183.421 11.9766 183.421C11.9766 183.421 9.56814 182.179 5.7532 185.825C1.93827 189.472 10.461 196.441 10.461 196.441C9.68723 196.03 8.81385 195.842 7.93913 195.9C7.06441 195.957 6.22304 196.257 5.5097 196.765C3.07463 198.548 8.51294 201.79 8.51294 201.79V201.789Z" fill="#BFD5D8"/>
<path d="M73.2318 92.824C73.2318 92.824 71.013 95.0393 76.3701 98.9291C81.7273 102.819 84.974 102.333 84.974 102.333C84.974 102.333 85.1364 110.923 89.1948 115.461C93.2533 119.999 102.019 121.134 113.058 125.51C124.097 129.886 126.532 132.317 129.617 129.724C132.701 127.13 151.045 132.965 151.045 132.965C151.045 132.965 140.169 128.427 139.032 125.023C137.896 121.62 142.279 117.406 138.708 115.785C135.136 114.164 132.864 115.461 132.864 115.461C132.864 115.461 149.131 96.66 136.208 90.6632C123.285 84.6664 117.604 97.766 117.604 97.766C117.604 97.766 111.435 92.9323 107.539 94.7151C103.643 96.498 105.916 100.388 105.916 100.388C105.916 100.388 92.2792 79.3179 84.974 83.0456C77.6688 86.7734 82.539 93.4185 82.539 93.4185C82.539 93.4185 78.4805 89.8528 76.0455 90.3391C75.3841 90.4323 74.7648 90.7175 74.2645 91.1593C73.7643 91.6012 73.4052 92.18 73.2318 92.824Z" fill="#BFD5D8"/>
<path d="M119.034 226.395C119.034 226.395 105.428 227.109 97.4738 231.253C89.5193 235.397 94.5518 239.942 101.37 241.964C108.188 243.987 107.34 248.201 106.222 250.308C105.104 252.415 122.149 259.547 123.448 259.547C124.747 259.547 115.98 254.036 127.019 253.388C138.058 252.739 171.96 255.981 166.697 259.547C161.435 263.112 159.651 264.085 175.641 264.085C191.63 264.085 206.35 254.684 217.497 252.739C228.643 250.794 223.654 260.519 225.174 264.085C226.695 267.65 279.292 256.385 298.123 256.02C316.954 255.656 318.253 267.326 314.357 269.271C310.461 271.216 303.776 281.913 324.651 277.375C345.526 272.837 352.019 262.14 351.045 260.195C350.071 258.25 366.63 250.47 371.175 250.794C375.721 251.119 380.266 246.624 371.175 243.199C362.084 239.774 328.693 231.253 328.693 231.253L119.034 226.395ZM385.461 239.314C385.461 239.314 416.954 235.614 419.552 239.314C422.149 243.015 409.811 248.634 410.028 250.794C410.245 252.955 386.002 254.736 382.539 252.441C379.075 250.146 395.093 244.679 392.496 243.199C389.898 241.719 384.054 244.473 385.461 239.314ZM207.539 273.485C208.863 273.287 221.5 269.919 228.643 273.485C235.786 277.051 212.409 289.369 202.669 285.803C192.928 282.237 201.561 274.378 207.539 273.485ZM88.816 245.824C88.816 245.824 64.1407 242.895 60.0284 247.493C55.9161 252.091 66.0888 247.12 79.5089 249.282C92.929 251.443 94.8764 247.337 88.816 245.824ZM142.787 268.515C136.435 267.866 126.262 272.171 134.487 271.855C142.712 271.539 154.332 273.318 150.362 270.16C146.392 267.002 142.787 268.515 142.787 268.515Z" fill="#307782"/>
<path d="M212.24 6.28412L214.511 6.18447L223.124 201.807L220.853 201.907L212.24 6.28412Z" fill="#494D52"/>
<path d="M133.422 184.129L220.942 178.727L221.076 180.883L133.555 186.286L133.422 184.129Z" fill="#494D52"/>
<path d="M212.24 6.28441L212.288 21.6168C212.288 21.6168 199.26 13.089 180.753 13.9506C162.247 14.8122 161.273 21.7763 151.533 21.6168C141.792 21.4573 131.078 13.9519 131.078 13.9519C131.078 13.9519 144.552 19.4132 155.753 13.9519C166.955 8.49059 172.312 2.00755 186.273 0.873014C200.234 -0.261519 212.24 6.28441 212.24 6.28441Z" fill="#005A64"/>
<path d="M136.208 183.957C136.208 183.957 163.383 173.646 179.779 173.484C196.176 173.322 219.835 178.795 219.835 178.795C219.835 178.795 212.085 127.639 211.598 104.045C211.111 80.4517 212.474 11.5746 212.474 11.5746C212.474 11.5746 179.076 76.4005 165.439 107.519C151.803 138.638 136.208 183.957 136.208 183.957Z" fill="#006980"/>
<path d="M212.474 11.5746C212.474 11.5746 201.37 39.4471 198.99 52.8456C196.609 66.2442 196.609 73.6251 196.609 73.6251L212.474 11.5746ZM136.208 183.957C136.208 183.957 157.539 169.594 166.792 166.839C176.046 164.084 180.753 163.617 180.753 163.617C180.753 163.617 164.033 165.056 154.942 169.108C145.851 173.16 136.208 183.957 136.208 183.957ZM219.835 178.795C219.835 178.795 210.137 173.43 202.237 171.161C194.337 168.892 189.574 169.108 189.574 169.108C189.574 169.108 200.289 168.46 203.102 169.54C205.916 170.621 219.835 178.795 219.835 178.795Z" fill="#005A64"/>
<path d="M219.834 178.795C219.834 178.795 211.435 166.515 206.457 156.358C201.479 146.201 203.643 133.775 203.643 133.775C203.643 133.775 208.219 153.873 211.504 160.572C214.79 167.271 219.834 178.795 219.834 178.795Z" fill="#005A64"/>
<path d="M222.967 198.284C222.967 198.284 267.171 154.683 295.093 145.688C323.015 136.693 359.595 145.688 359.595 145.688C359.595 145.688 342.868 106.407 300.034 71.9771C259.162 39.123 214.916 15.3867 214.916 15.3867C214.916 15.3867 239.433 61.426 246.825 89.1371C255.916 123.217 222.967 198.284 222.967 198.284H222.967Z" fill="#006980"/>
<path d="M229.474 188.616C229.474 188.616 247.907 159.437 252.453 145.688C256.998 131.939 258.297 122.278 258.297 122.278C258.297 122.278 255.483 145.254 251.587 153.507C247.691 161.76 229.474 188.616 229.474 188.616Z" fill="#005A64"/>
<path d="M280.503 140.187C280.3 139.411 279.938 138.685 279.438 138.057C278.116 136.399 275.253 133.562 271.764 134.604C266.93 136.047 264.18 143.484 264.563 144.588C264.946 145.691 267.273 150.828 265.503 151.518C263.732 152.209 262.169 152.828 260.033 152.024C257.897 151.22 250.19 148.177 246.638 152.418C243.086 156.659 245.538 171.945 247.939 179.297C250.34 186.649 250.277 192.924 251.096 193.722C251.915 194.519 258.173 194.28 258.174 192.504C258.175 190.728 255.736 191.496 253.925 186.063C253.071 183.502 258.59 173.677 258.708 172.015C258.826 170.353 269.804 171.902 271.538 171.997C273.271 172.092 276.741 184.966 279.171 185.951C281.602 186.936 287.769 186.883 287.441 184.604C287.113 182.324 284.795 183.667 282.812 180.186C280.829 176.704 278.14 170.301 279.473 167.909C280.807 165.518 284.111 163.677 284.603 160.419C285.023 157.631 281.523 144.052 280.503 140.187Z" fill="#BFD5D8"/>
<path d="M243.195 146.664C243.195 146.664 239.873 148.38 239.601 151.305C239.329 154.23 242.299 158.626 244.92 158.377C247.54 158.127 247.229 155.599 245.747 154.008C244.266 152.417 242.172 148.614 244.855 148.919C247.539 149.223 250.024 150.886 251.747 150.803C253.471 150.72 254.497 151.147 252.712 149.573C250.927 147.999 247.834 144.439 243.195 146.663V146.664ZM264.563 144.587C264.563 144.587 260.638 139.745 260.982 136.435C261.326 133.125 264.837 139.088 266.508 139.217C268.179 139.345 264.563 144.587 264.563 144.587ZM270.325 135.236C270.325 135.236 271.435 131.321 272.937 130.415C274.439 129.508 275.889 135.032 275.889 135.032L270.325 135.236Z" fill="#FFB822"/>
<path d="M258.822 171.77C258.822 171.77 257.618 179.244 258.614 181.369C259.611 183.495 261.762 182.435 262.119 183.906C262.476 185.378 259.223 186.994 257.313 186.986C255.403 186.979 254.872 181.35 254.872 181.35L257.044 174.496L258.822 171.77ZM284.603 160.419C284.111 163.677 280.807 165.517 279.473 167.909C278.138 170.302 280.829 176.704 282.812 180.186C284.268 182.741 285.9 182.7 286.797 183.397H286.8C286.8 183.397 288.551 182.829 288.426 181.432C288.301 180.034 286.362 181.426 284.72 174.326C283.674 169.81 284.603 160.419 284.603 160.419Z" fill="#D6C9C5"/>
<path d="M280.251 139.453C280.048 138.952 279.775 138.482 279.439 138.057C278.116 136.399 275.253 133.562 271.764 134.604C266.93 136.047 264.179 143.484 264.562 144.588C264.945 145.691 267.273 150.828 265.503 151.518C263.732 152.209 262.169 152.828 260.033 152.024C257.897 151.22 250.19 148.177 246.638 152.418C243.247 156.468 245.329 170.582 247.614 178.249L248.55 180.166C250.315 179.356 251.915 178.226 253.268 176.833C255.55 174.499 257.203 169.911 264.074 168.766C270.945 167.621 273.686 172.616 275.977 173.319C278.266 174.022 278.884 168.885 277.603 166.087C276.321 163.289 268.81 149.91 269.817 147.862C270.823 145.815 268.668 141.834 269.851 139.667C269.955 139.477 272.014 139.203 272.675 139.09C273.829 138.89 274.621 137.408 275.558 136.706C276.193 136.232 276.941 137.797 277.908 138.266C279.825 139.193 280.236 139.444 280.251 139.453Z" fill="#FFB822"/>
<path d="M266.105 150.722C266.105 150.722 271.831 153.053 276.332 152.767C280.833 152.481 283.034 150.445 283.034 150.445C283.584 150.725 284.017 151.191 284.256 151.759C284.613 152.677 283.768 153.855 283.768 153.855C283.768 153.855 279.583 156.003 275.91 156.001C272.237 156 267.765 154.037 266.318 153.264C265.602 152.917 264.936 152.477 264.335 151.956C264.335 151.956 264.017 150.819 264.835 150.613C265.043 150.544 265.263 150.518 265.481 150.537C265.7 150.555 265.912 150.618 266.105 150.721V150.722Z" fill="#005A64"/>
<path d="M275.74 141.833C275.545 141.217 277.429 140.564 278.115 140.623C278.802 140.683 278.261 142.515 277.674 142.69C277.087 142.866 275.941 142.467 275.74 141.833Z" fill="#633A2B"/>
<path d="M277.523 144.479C278.122 144.949 278.685 145.464 279.207 146.019C279.706 146.622 280.537 145.884 280.363 145.452C280.149 144.962 279.865 144.506 279.52 144.097C279.13 143.944 278.764 143.732 278.437 143.469C278.168 143.225 277.913 142.965 277.674 142.69C277.68 143.072 277.663 143.453 277.626 143.833C277.568 144.256 277.523 144.479 277.523 144.479Z" fill="#005A64"/>
<path d="M279.279 145.174C278.944 144.967 278.651 144.699 278.415 144.383C278.103 143.85 277.854 143.281 277.674 142.69C277.674 142.69 278.345 143.964 278.629 144.376C278.828 144.656 279.044 144.923 279.279 145.174Z" fill="#BFD5D8"/>
<path d="M275.232 145.988C275.619 145.904 275.997 145.779 276.358 145.616C276.519 145.557 276.667 145.467 276.794 145.35C276.92 145.234 277.023 145.093 277.095 144.937C277.214 144.588 277.286 144.223 277.308 143.855C277.348 143.475 277.35 143.078 277.354 142.7L277.366 141.681L277.94 142.513C278.124 142.762 278.334 142.99 278.567 143.194C278.808 143.404 279.069 143.591 279.344 143.754C279.622 143.92 279.918 144.052 280.227 144.149C280.379 144.208 280.541 144.237 280.704 144.232C280.868 144.228 281.028 144.192 281.177 144.125C281.046 144.251 280.888 144.345 280.715 144.4C280.542 144.455 280.358 144.469 280.178 144.441C279.818 144.414 279.465 144.328 279.133 144.187C278.797 144.051 278.481 143.872 278.193 143.652C277.893 143.431 277.628 143.167 277.408 142.867L277.994 142.681C278.006 143.097 277.985 143.513 277.93 143.926C277.883 144.358 277.762 144.778 277.571 145.169C277.454 145.368 277.294 145.54 277.104 145.672C276.913 145.803 276.697 145.893 276.469 145.933C276.063 146.027 275.644 146.046 275.232 145.988ZM272.96 141.062C272.988 141.144 272.991 141.232 272.969 141.316C272.947 141.4 272.901 141.475 272.836 141.533C272.771 141.59 272.691 141.627 272.605 141.639C272.519 141.651 272.432 141.637 272.354 141.599C272.276 141.561 272.211 141.501 272.167 141.427C272.123 141.352 272.103 141.266 272.108 141.18C272.113 141.093 272.143 141.011 272.196 140.942C272.248 140.873 272.319 140.82 272.401 140.792C272.455 140.773 272.513 140.765 272.571 140.768C272.628 140.772 272.684 140.786 272.736 140.811C272.788 140.836 272.835 140.871 272.873 140.914C272.911 140.957 272.941 141.008 272.96 141.062ZM277.499 139.161C277.528 139.243 277.531 139.331 277.509 139.415C277.487 139.498 277.441 139.574 277.376 139.631C277.312 139.689 277.231 139.726 277.145 139.738C277.06 139.75 276.972 139.736 276.894 139.698C276.816 139.661 276.751 139.601 276.707 139.526C276.663 139.452 276.642 139.366 276.647 139.279C276.652 139.193 276.683 139.11 276.735 139.041C276.787 138.972 276.859 138.92 276.941 138.891C276.995 138.872 277.053 138.864 277.11 138.868C277.168 138.871 277.224 138.885 277.276 138.91C277.328 138.935 277.374 138.971 277.413 139.013C277.451 139.056 277.48 139.107 277.499 139.161Z" fill="#633A2B"/>
<path d="M265.498 141.104C264.674 140.536 264.007 139.77 263.558 138.876C262.866 137.437 262.786 137.098 263.014 137.309C263.242 137.519 264.62 139.203 265.211 139.403C265.55 139.521 265.902 139.598 266.259 139.632L265.498 141.104ZM273.723 134.399C274.06 133.879 274.209 133.259 274.145 132.642C274.088 131.478 273.612 130.665 273.995 131.213C274.586 132.086 275.012 133.059 275.252 134.085L275.273 134.761C275.068 134.572 274.817 134.439 274.546 134.376C274.274 134.313 273.99 134.321 273.723 134.399Z" fill="#BFD5D8"/>
<path d="M109.487 214.813L372.758 157.33C372.758 157.33 369.119 175.159 349.422 205.413C329.724 235.668 322.582 235.883 322.582 235.883C322.582 235.883 260.894 242.151 227.993 240.854C195.093 239.557 131.673 234.587 131.673 234.587C131.673 234.587 117.604 228.968 109.487 214.813Z" fill="#FFB822"/>
<path d="M111.057 217.343L370.792 163.928L380.591 155.169L372.758 157.33L109.487 214.813L104.86 215.543L111.057 217.343ZM360.786 186.256C360.786 186.256 365.412 187.423 363.275 189.854C361.703 191.642 117.652 225.126 117.652 225.126C117.652 225.126 114.628 225.348 114.249 224.592C113.871 223.835 115.719 223.186 115.719 223.186L116.538 224.036L359.846 188.002L360.786 186.256Z" fill="#005A64"/>
<path d="M150.362 211.145C148.37 211.145 146.423 211.734 144.767 212.839C143.111 213.944 141.821 215.514 141.059 217.351C140.296 219.188 140.097 221.21 140.485 223.16C140.874 225.11 141.833 226.902 143.241 228.308C144.65 229.714 146.444 230.671 148.398 231.059C150.351 231.447 152.376 231.248 154.216 230.487C156.056 229.726 157.629 228.438 158.735 226.784C159.842 225.131 160.432 223.187 160.432 221.199C160.432 218.532 159.371 215.975 157.483 214.089C155.594 212.204 153.033 211.145 150.362 211.145ZM150.362 226.226C149.366 226.226 148.393 225.931 147.565 225.378C146.737 224.826 146.091 224.041 145.71 223.122C145.329 222.204 145.23 221.193 145.424 220.218C145.618 219.243 146.098 218.347 146.802 217.644C147.506 216.941 148.403 216.462 149.38 216.268C150.357 216.074 151.369 216.174 152.289 216.554C153.209 216.935 153.995 217.579 154.549 218.406C155.102 219.233 155.397 220.204 155.397 221.199C155.397 222.532 154.867 223.811 153.922 224.753C152.978 225.696 151.698 226.226 150.362 226.226Z" fill="#BFD5D8"/>
<path d="M156.577 213.293C156.584 213.401 156.795 216.644 155.997 217.337C155.541 217.748 154.988 218.038 154.39 218.179V218.187C154.939 218.914 155.278 219.777 155.371 220.683L155.397 220.724C155.397 220.724 157.214 222.224 158.513 221.656C159.162 221.365 159.795 221.036 160.406 220.671C160.333 219.239 159.954 217.84 159.293 216.567C158.633 215.295 157.707 214.178 156.577 213.293ZM156.809 228.921C156.785 228.914 154.047 228.182 153.292 227.509C152.822 227.036 152.549 226.403 152.527 225.737L152.511 225.74C151.663 226.147 150.715 226.303 149.781 226.189L149.775 226.191C149.775 226.191 147.962 228.427 148.422 229.752C148.588 230.239 148.8 230.71 149.053 231.159C150.431 231.35 151.834 231.25 153.17 230.865C154.506 230.479 155.746 229.817 156.809 228.921ZM145.701 223.109L145.7 223.103C145.454 222.501 145.327 221.857 145.327 221.207C145.327 221.171 145.332 221.138 145.332 221.103L145.329 221.088C145.329 221.088 143.902 219.414 142.793 219.035C142.063 218.845 141.3 218.814 140.557 218.945C139.956 221.488 140.384 224.165 141.748 226.395C141.78 226.224 142.368 223.242 143.551 222.979C144.265 222.815 145.012 222.86 145.701 223.109ZM142.787 214.578C142.91 214.566 145.995 214.296 146.804 215.011C147.323 215.508 147.675 216.152 147.813 216.856L147.832 216.849C148.33 216.559 148.875 216.358 149.442 216.253L149.454 216.249C150.109 215.852 150.589 215.221 150.796 214.484C151.151 213.264 148.906 211.383 148.776 211.275C146.454 211.642 144.334 212.81 142.787 214.578Z" fill="#005A64"/>
<path d="M178.887 208.13C177.158 207.142 175.175 206.689 173.188 206.827C171.201 206.964 169.3 207.688 167.725 208.904C166.149 210.121 164.971 211.777 164.338 213.662C163.705 215.548 163.647 217.578 164.17 219.497C164.693 221.415 165.774 223.136 167.277 224.441C168.779 225.746 170.636 226.577 172.611 226.829C174.587 227.081 176.593 226.742 178.376 225.856C180.159 224.969 181.638 223.575 182.627 221.849C183.284 220.703 183.708 219.439 183.876 218.129C184.043 216.82 183.95 215.49 183.603 214.216C183.256 212.942 182.661 211.749 181.851 210.704C181.042 209.66 180.035 208.785 178.887 208.13ZM171.386 221.219C170.521 220.725 169.823 219.986 169.379 219.097C168.935 218.207 168.765 217.205 168.891 216.219C169.017 215.233 169.434 214.306 170.087 213.556C170.741 212.806 171.603 212.266 172.564 212.005C173.525 211.744 174.542 211.773 175.486 212.089C176.43 212.405 177.259 212.993 177.869 213.78C178.478 214.566 178.84 215.516 178.909 216.507C178.978 217.499 178.751 218.489 178.256 219.352C177.593 220.509 176.496 221.356 175.208 221.706C173.92 222.056 172.545 221.881 171.386 221.219V221.219Z" fill="#BFD5D8"/>
<path d="M183.213 213.076C183.166 213.173 181.736 216.092 180.698 216.298C180.097 216.429 179.474 216.406 178.885 216.232L178.881 216.238C178.995 217.142 178.861 218.059 178.491 218.891L178.492 218.941C178.492 218.941 179.324 221.143 180.733 221.294C181.442 221.364 182.154 221.392 182.866 221.378C183.515 220.1 183.882 218.697 183.942 217.265C184.002 215.832 183.753 214.404 183.213 213.076ZM175.641 226.755C175.623 226.737 173.611 224.744 173.29 223.786C173.118 223.143 173.195 222.458 173.507 221.869L173.492 221.863C172.751 221.807 172.032 221.587 171.386 221.219C171.218 221.122 171.056 221.016 170.899 220.9L170.893 220.897C170.893 220.897 168.207 221.941 167.948 223.317C167.85 223.823 167.799 224.336 167.796 224.851C168.896 225.701 170.164 226.309 171.515 226.637C172.867 226.965 174.272 227.005 175.64 226.755H175.641ZM168.89 216.203L168.893 216.197C168.978 215.552 169.188 214.931 169.512 214.366C169.529 214.336 169.551 214.308 169.568 214.279L169.574 214.264C169.574 214.264 169.168 212.104 168.393 211.226C167.854 210.698 167.207 210.293 166.498 210.037C164.711 211.947 163.75 214.483 163.825 217.096C163.938 216.963 165.931 214.666 167.088 215.024C167.79 215.236 168.416 215.645 168.891 216.203H168.89ZM170.605 207.353C170.717 207.404 173.529 208.699 173.877 209.721C174.079 210.409 174.064 211.143 173.834 211.822L173.854 211.825C174.431 211.821 175.004 211.917 175.548 212.107L175.561 212.109C176.327 212.09 177.057 211.78 177.603 211.243C178.518 210.36 177.506 207.615 177.446 207.457C175.249 206.624 172.828 206.587 170.605 207.353Z" fill="#005A64"/>
<path d="M348.773 199.18C348.773 199.18 333.675 221.783 331.078 224.214C328.48 226.645 322.149 228.59 320.039 228.266C317.928 227.942 324.909 227.16 328.643 222.607C332.377 218.055 344.39 202.496 345.688 200.713C346.022 200.21 346.483 199.803 347.025 199.534C347.566 199.265 348.169 199.143 348.773 199.18Z" fill="#BFD5D8"/>
<path d="M328.693 231.253C328.693 231.253 334.938 226.747 340.394 225.157C345.85 223.566 337.865 233.29 337.865 233.29C337.865 233.29 355.613 222.021 362.582 222.632C369.552 223.243 351.554 237.18 351.554 237.18C351.554 237.18 369.146 234.587 372.758 237.18C376.371 239.773 337.412 248.201 337.412 248.201C337.412 248.201 349.343 245.608 350.844 250.794C352.345 255.981 326.262 251.119 322.745 250.794C319.227 250.47 298.773 243.339 283.513 246.256C268.253 249.174 241.927 256.629 239.019 255.981C236.111 255.333 248.123 249.498 245.526 246.905C242.928 244.311 181.699 253.388 177.249 252.415C172.799 251.443 200.721 242.366 192.604 243.015C184.487 243.663 133.405 245.824 126.912 244.96C120.418 244.095 132.972 237.828 124.314 238.261C115.656 238.693 100.126 236.099 104.86 235.235C109.595 234.371 122.582 235.668 120.418 234.371C118.254 233.074 144.462 230.559 142.787 232.209C141.143 233.83 145.773 235.809 146.81 235.645C152.4 234.771 238.018 231.376 241.123 231.253C244.227 231.129 227.344 241.07 232.756 240.637C238.167 240.205 299.639 225.936 302.236 226.912C304.834 227.887 297.907 233.723 300.071 235.451C302.236 237.179 328.693 231.253 328.693 231.253Z" fill="#43CAD9"/>
<path d="M333.87 233.219C335.688 233.447 344.864 231.926 341.905 235.898C341.769 236.08 342.022 236.15 342.155 236.158C343.569 236.231 344.981 235.974 346.278 235.407C347.204 235.041 348.062 234.488 349.002 234.163C349.939 233.839 354.717 233.059 353.727 235.277C353.462 235.868 351.097 236.541 350.385 236.873C349.081 237.483 347.769 238.079 346.451 238.661C344.006 239.743 341.539 240.778 339.053 241.766C337.905 242.221 336.754 242.667 335.598 243.103C333.611 243.853 330.59 244.687 328.527 243.817C327.785 243.504 326.969 242.455 326.262 241.996C325.464 241.482 324.616 241.049 323.731 240.705C320.653 239.493 317.243 239.304 313.974 239.507C304.2 240.113 294.855 243.81 285.17 245.074C279.692 245.789 274.479 245.262 269.013 245.008C265.167 244.829 261.529 245.109 258.011 246.76C257.419 247.039 257.963 247.316 258.376 247.122C263.261 244.83 268.495 245.512 273.685 245.885C277.671 246.177 281.676 246.042 285.634 245.485C294.457 244.244 302.955 241.187 311.811 240.182C316.116 239.695 320.785 239.797 324.674 241.937C327.148 243.298 328.352 245.675 331.388 245.085C334.865 244.409 338.442 242.544 341.707 241.203C346.276 239.325 350.768 237.275 355.199 235.092C355.318 235.034 355.583 234.899 355.454 234.731C354.392 233.344 352.939 232.979 351.234 233.137C349.744 233.275 343.774 236.348 343.159 235.393C343.106 235.309 343.21 234.302 343.126 234.064C342.814 233.371 342.266 232.811 341.579 232.484C339.348 231.34 336.768 233.017 334.451 232.726C334.167 232.691 333.35 233.154 333.87 233.219ZM248.601 244.286C243.708 244.885 239.542 247.142 235.072 249.058C233.54 249.741 231.958 250.302 230.338 250.735C229.297 250.997 225.251 252.054 224.34 251.12C223.263 250.015 223.874 252.038 224.363 250.154C224.609 249.204 225.025 248.728 225.074 247.643C225.071 247.563 225.037 247.488 224.979 247.433C224.921 247.378 224.843 247.348 224.763 247.351C214.927 246.464 205.907 250.679 196.306 251.867C195.215 252.002 194.118 252.103 193.019 252.143C189.118 252.287 191.629 251.432 193.004 250.613C194.158 249.926 195.537 249.581 196.361 248.425C197.564 246.735 196.94 244.485 194.79 244.215C194.341 244.158 193.826 244.798 194.459 244.878L196.009 246.307C195.899 247.055 195.599 247.762 195.137 248.362C194.676 248.961 194.068 249.433 193.373 249.732C192.8 250.115 192.029 250.286 191.426 250.615C190.616 251.042 189.89 251.608 189.279 252.288C189.093 252.494 189.253 252.737 189.505 252.75C195.002 253.053 200.298 251.935 205.603 250.612C208.647 249.853 211.683 249.052 214.776 248.508C216.376 248.211 217.993 248.012 219.618 247.911C221.421 247.817 227.25 247.571 222.342 251.035C222.159 251.165 222.088 251.484 222.378 251.547C231.922 253.652 239.427 246.064 248.511 244.951C249.024 244.888 249.243 244.208 248.601 244.286ZM123.974 234.331C121.17 234.833 118.558 236.094 116.422 237.975C116.281 238.099 116.311 238.285 116.513 238.315C118.979 238.678 126.707 237.137 124.218 241.435C124.113 241.616 124.306 241.726 124.474 241.718L138.268 241.096C141.266 240.96 143.822 240.873 146.572 239.598C149.002 238.472 151.46 237.181 153.64 239.278C154.467 240.074 154.371 240.879 155.598 241.452C158.265 242.696 162.222 241.337 164.929 240.938C165.383 240.87 165.705 240.312 165.055 240.408C163.323 240.664 160.874 241.486 159.16 241.263L154.664 239.33C154.594 239.025 154.504 238.725 154.395 238.432C154.193 238.276 154.157 237.829 153.878 237.645C152.573 236.783 149.851 237.745 148.564 238.181C147.285 238.614 146.14 239.397 144.863 239.813C142.285 240.654 139.431 240.519 136.751 240.639L130.481 240.922C128.887 240.994 124.763 242.032 126.27 239.431C126.292 239.403 126.304 239.368 126.304 239.332C126.303 239.296 126.291 239.262 126.268 239.234C125.379 238.323 124.174 237.787 122.901 237.739C122.033 237.668 121.257 237.832 120.391 237.836C114.051 237.874 122.781 235.066 123.848 234.86C124.294 234.775 124.621 234.207 123.974 234.331Z" fill="#BFD5D8"/>
<path d="M326.979 73.7671C326.979 73.7671 328.197 82.9646 325.396 84.3831C322.596 85.8016 320.973 84.7072 320.973 84.7072V90.0557L315.453 85.6797L315.737 79.5208C315.737 79.5208 312.084 80.2501 311.151 76.6845C310.218 73.1188 314.479 72.9159 314.804 72.9969C315.129 73.0779 316.914 73.8481 317.279 74.4154C317.644 74.9827 319.83 72.7246 321.622 72.5917C325.64 72.2948 326.979 73.7671 326.979 73.7671Z" fill="#FFAA7D"/>
<path d="M318.957 76.6708L319.682 73.3055L317.635 74.4757L318.957 76.6708Z" fill="#494D52"/>
<path d="M314.804 72.9969C315.129 73.0779 316.914 73.8481 317.279 74.4154C317.279 74.4154 317.421 74.4348 317.669 74.466C318.459 74.2021 320.169 72.6993 321.622 72.5917C325.64 72.2948 326.979 73.7671 326.979 73.7671C327.649 71.8416 325.295 69.5324 325.295 69.5324C323.159 69.3922 321.013 69.5559 318.923 70.0186C317.051 70.6504 315.339 71.6837 313.909 73.0462L313.91 73.0468C314.205 72.9907 314.505 72.9739 314.804 72.9969Z" fill="#43CAD9"/>
<path d="M325.295 69.5324C325.295 69.5324 319.877 63.1641 318.389 63.6775C316.901 64.191 318.524 65.9466 318.524 65.9466C318.524 65.9466 313.194 63.1913 311.868 63.8396C310.542 64.4879 313.167 66.5904 313.167 66.5904C313.167 66.5904 306.917 65.8656 305.727 66.9191C304.536 67.9725 309.866 70.1068 309.866 70.1068C309.866 70.1068 305.943 70.2144 305.78 71.2413C305.618 72.2682 312.228 73.6251 312.228 73.6251L313.909 73.0468C315.339 71.6844 317.051 70.651 318.923 70.0192C321.013 69.5565 323.159 69.3922 325.295 69.5324ZM329.208 89.9747L343.125 86.2515V92.2755H329.573C329.386 92.1791 329.223 92.0397 329.1 91.8686C328.977 91.6976 328.896 91.4998 328.864 91.2914C328.851 90.8287 328.97 90.372 329.208 89.9747Z" fill="#494D52"/>
<path d="M344.275 89.2629C344.275 90.9271 343.76 92.2755 343.126 92.2755C342.491 92.2755 341.976 90.9271 341.976 89.2635C341.976 87.6 342.49 86.2515 343.125 86.2515C343.76 86.2515 344.275 87.6 344.275 89.2635V89.2629Z" fill="#BFD5D8"/>
<path d="M329.874 92.669L343.791 88.9458V94.9699H330.241C330.053 94.8736 329.89 94.7341 329.767 94.5631C329.643 94.392 329.562 94.1942 329.53 93.9858C329.518 93.5231 329.637 93.0663 329.875 92.669H329.874Z" fill="#3E5978"/>
<path d="M328.359 88.07C328.359 88.07 326.099 86.8136 324.395 87.624C323.153 88.2815 322.002 89.0989 320.973 90.0551V90.8389C320.973 90.8389 323.489 91.2032 325.139 90.4065C326.315 89.7796 327.399 88.9933 328.359 88.07Z" fill="#FFB822"/>
<path d="M344.94 91.9579C344.94 93.6214 344.426 94.9699 343.791 94.9699C343.157 94.9699 342.641 93.6214 342.641 91.9579C342.641 90.2943 343.155 88.9458 343.79 88.9458C344.426 88.9458 344.94 90.2943 344.94 91.9579Z" fill="#BFD5D8"/>
<path d="M320.973 92.0136C320.973 92.0136 321.399 94.8571 323.976 95.3025C325.159 95.5736 326.378 95.6557 327.588 95.5456C327.588 95.5456 326.35 92.7903 324.463 92.1219C322.576 91.4535 320.973 90.8383 320.973 90.8383V92.0136Z" fill="#FFB822"/>
<path d="M305.591 139.556C305.591 139.556 303.237 118.104 304.211 110.979C305.185 103.854 305.997 94.6542 305.997 94.6542L307.702 90.0531L313.627 87.7458H317.036L319.796 90.0531L327.588 102.965L319.796 112.032C319.796 112.032 324.463 116.768 325.843 117.78C327.223 118.792 328.805 119.723 328.805 119.723L332.702 126.887C328.486 129.482 324.092 131.778 319.552 133.755C313.262 136.346 305.591 139.556 305.591 139.556Z" fill="#43CAD9"/>
<path d="M313.113 99.8477C313.113 99.8477 314.466 105.061 315.413 106.736C316.359 108.411 319.796 112.057 319.796 112.057L313.113 99.8477Z" fill="#307782"/>
<path d="M339.712 92.4058C339.499 92.7598 339.479 93.6311 339.073 94.249C338.845 94.6089 338.522 94.8996 338.14 95.0898C338.355 94.3572 338.448 93.594 338.414 92.8311C338.323 91.7472 337.673 91.3822 337.44 91.565C337.206 91.7478 337.562 92.446 337.44 93.2668C337.276 93.8909 336.954 94.4627 336.506 94.9277C336.577 94.7175 336.625 94.5001 336.648 94.2794C336.644 93.2838 336.419 92.3014 335.989 91.4029C335.634 90.7741 335.197 91.0684 335.249 91.4632C335.436 92.1774 335.527 92.9131 335.522 93.6512C335.399 94.1273 335.166 94.5681 334.842 94.9381C334.86 94.6142 334.86 94.2896 334.842 93.9657C334.716 93.2064 334.433 92.4817 334.01 91.8379C333.706 91.5241 333.605 92.1621 333.675 92.9828C333.64 93.6725 333.438 94.3434 333.087 94.9381H331.606C331.61 95.4772 331.749 96.0066 332.012 96.4778C332.322 97.1963 332.747 97.8599 333.269 98.4428L330.632 107.074L327.588 102.981L319.795 112.057C319.795 112.057 324.463 116.798 325.843 117.811C326.841 118.544 327.943 119.233 328.477 119.558L328.805 119.756C330.24 120.177 331.77 120.148 333.188 119.675C335.38 118.864 336.841 112.057 337.003 109.504C337.166 106.951 338.058 98.8681 338.058 98.8681L339.469 95.7381C339.469 95.7381 339.672 95.4036 339.814 95.1002C340.138 94.4011 340.334 93.6497 340.392 92.8817C340.351 92.2029 339.925 92.0512 339.712 92.4058Z" fill="#FFAA7D"/>
<path d="M315.578 82.962L315.453 85.679L320.973 90.0551V92.0136C320.973 92.0136 317.685 88.2048 314.601 88.5024C311.516 88.8 305.997 94.6613 305.997 94.6613C305.997 94.6613 304.753 91.906 306.62 88.1238C308.487 84.3416 313.14 81.83 313.14 81.83L315.578 82.962Z" fill="#FFB822"/>
<path d="M304.211 111.004C305.185 103.872 305.997 94.6613 305.997 94.6613C305.997 94.6613 300.559 110.869 300.072 114.866C299.585 118.864 304.085 120.433 304.085 120.433V120.428C303.886 117.288 303.928 114.137 304.211 111.004ZM362.409 132.641C361.435 121.133 357.945 116.838 355.997 116.514C354.049 116.19 332.701 126.928 332.701 126.928C328.445 129.423 324.041 131.655 319.512 133.613C316.925 134.685 314.347 135.778 311.779 136.894L311.777 136.895C312.706 138.916 313.931 140.787 315.412 142.447C318.01 145.445 323.205 147.714 330.095 146.904C336.985 146.093 349.991 131.02 349.991 131.02L355.753 149.173L363.951 145.688C363.951 145.688 363.383 144.148 362.409 132.641Z" fill="#FFAA7D"/>
<path d="M355.753 149.173L358.167 160.517L372.758 157.33C372.758 157.33 368.172 155.818 366.63 153.508C365.088 151.198 363.951 145.688 363.951 145.688L355.753 149.173Z" fill="#784735"/>
<path d="M340.213 123.228C336.007 125.261 332.608 126.97 332.608 126.97C328.352 129.465 323.947 131.697 319.418 133.656C316.831 134.727 314.254 135.82 311.686 136.936L311.684 136.937C312.613 138.957 313.838 140.829 315.319 142.489C317.917 145.487 323.111 147.756 330.002 146.946C333.354 146.551 338.261 142.872 342.196 139.013L340.213 123.228Z" fill="#3E5978"/>
<path d="M337.411 124.567L339.555 141.407L342.168 139.124L340.185 123.217L337.411 124.567Z" fill="#307782"/>
<path d="M315.317 142.478C313.836 140.818 312.611 138.947 311.682 136.927L311.684 136.926L309.739 137.74L309.987 157.33L324.652 159.654L326.938 147.101L326.923 147.091C321.565 147.016 317.511 145.011 315.317 142.478Z" fill="#494D52"/>
<path d="M309.938 153.507L325.134 157.004L324.651 159.654L309.987 157.33L309.938 153.507Z" fill="#307782"/>
<path d="M310.309 170.965L323.206 168.15L324.651 159.654L309.986 157.33L310.309 170.965Z" fill="#FFAA7D"/>
<path d="M314.296 74.466C314.636 74.5164 314.956 74.654 315.227 74.8652C315.497 75.0765 315.708 75.3542 315.838 75.6712C316.204 76.7247 313.909 78.1023 313.909 78.1023C314.331 77.6971 314.666 77.21 314.893 76.6709C315.047 76.0563 312.754 76.3804 312.754 76.3804C313.122 76.0226 313.588 75.7826 314.093 75.6913C314.455 75.6901 314.813 75.759 315.149 75.8942C315.149 75.8942 315.493 75.2465 314.296 74.466ZM320.973 84.7072C320.377 84.407 319.862 83.9691 319.471 83.4301C318.68 82.4382 318.659 82.2352 318.659 82.2352C318.884 83.0345 319.233 83.7934 319.694 84.4842C320.059 84.9729 320.489 85.4091 320.973 85.7808V84.7072ZM328.556 104.282L322.056 114.313L319.795 112.057L327.588 102.981L328.556 104.282ZM330.632 107.074C331.083 107.91 331.274 108.863 331.18 109.808C331.08 110.556 330.839 111.278 330.469 111.935C330.469 111.935 331.89 110.315 331.89 109.261C331.89 108.208 330.632 107.073 330.632 107.073V107.074ZM342.175 122.278L344.151 137.192L342.167 139.124L340.185 123.217L342.175 122.278ZM349.99 131.02L351.397 125.618C351.397 125.618 351.749 127.995 351.397 129.048C351.083 129.803 350.602 130.477 349.99 131.02ZM310.045 159.791L324.373 161.286L324.651 159.654L309.986 157.33L310.045 159.791Z" fill="#D65F4D"/>
<path d="M300.692 111.936L304.004 113.854L304.042 112.919C304.042 112.919 304.82 106.263 304.942 105.209C305.063 104.156 305.997 94.6613 305.997 94.6613C305.997 94.6613 303.13 103.399 302.741 104.45C302.381 105.42 300.692 111.936 300.692 111.936Z" fill="#307782"/>
<path d="M318.115 108.987L326.339 100.909L327.064 102.112L318.959 110.528L318.115 108.987ZM301.255 109.788L304.157 111.193L304.281 110.491L301.497 108.766L301.255 109.788Z" fill="#FFB822"/>
<path d="M355.464 148.261L363.557 143.56L363.952 145.688L355.753 149.173L355.464 148.261ZM357.735 158.485L370.744 156.512L372.759 157.33L358.167 160.517L357.735 158.485Z" fill="#494D52"/>
<path d="M364.096 147.51L360.064 149.025C359.998 149.049 359.926 149.047 359.862 149.018C359.799 148.989 359.749 148.936 359.724 148.871C359.7 148.806 359.702 148.734 359.731 148.67C359.76 148.606 359.813 148.557 359.878 148.532L363.911 147.018C363.976 146.994 364.048 146.997 364.112 147.025C364.175 147.054 364.225 147.107 364.25 147.172C364.274 147.237 364.271 147.309 364.242 147.373C364.214 147.436 364.161 147.486 364.096 147.51ZM364.691 149.682L360.659 151.196C360.593 151.22 360.521 151.218 360.457 151.189C360.394 151.16 360.344 151.107 360.32 151.042C360.295 150.977 360.298 150.905 360.327 150.841C360.355 150.778 360.408 150.728 360.474 150.703L364.506 149.19C364.571 149.165 364.644 149.168 364.707 149.197C364.771 149.225 364.82 149.278 364.845 149.343C364.869 149.408 364.867 149.481 364.838 149.544C364.809 149.607 364.756 149.657 364.691 149.682ZM365.537 151.928L361.505 153.442C361.439 153.466 361.367 153.464 361.304 153.435C361.24 153.406 361.191 153.354 361.166 153.289C361.141 153.223 361.144 153.151 361.173 153.088C361.202 153.024 361.254 152.974 361.32 152.95L365.352 151.435C365.418 151.411 365.49 151.414 365.553 151.442C365.617 151.471 365.666 151.524 365.691 151.589C365.716 151.654 365.713 151.727 365.684 151.79C365.655 151.854 365.603 151.903 365.537 151.928Z" fill="#BFD5D8"/>
<path d="M322.745 135.882C322.745 135.882 329.915 132.938 331.376 133.073C332.837 133.209 335.218 139.691 334.515 140.717C333.811 141.744 324.477 143.365 324.477 143.365L322.745 135.882Z" fill="#307782"/>
<path d="M326.455 137.792C326.455 137.792 330.997 135.288 331.836 135.882C332.675 136.477 333.243 137.769 332.972 138.216C332.701 138.664 326.836 139.623 326.836 139.623L326.455 137.792Z" fill="#3E5978"/>
<path d="M324.477 143.365C324.477 143.365 326.427 141.366 326.94 139.259C327.453 137.152 322.745 135.882 322.745 135.882L324.477 143.365ZM323.222 77.3976C323.222 77.4656 323.202 77.532 323.164 77.5885C323.127 77.6451 323.073 77.6891 323.01 77.7151C322.947 77.7411 322.878 77.7478 322.811 77.7345C322.744 77.7212 322.683 77.6884 322.635 77.6403C322.587 77.5922 322.554 77.5309 322.541 77.4642C322.527 77.3975 322.534 77.3284 322.56 77.2656C322.587 77.2029 322.631 77.1492 322.688 77.1116C322.744 77.0739 322.811 77.0538 322.879 77.054C322.924 77.0539 322.969 77.0627 323.011 77.08C323.052 77.0972 323.09 77.1225 323.122 77.1544C323.154 77.1863 323.18 77.2243 323.197 77.266C323.214 77.3077 323.223 77.3524 323.222 77.3976ZM326.185 77.6407C326.185 77.7087 326.165 77.7751 326.127 77.8316C326.09 77.8881 326.036 77.9321 325.973 77.9581C325.91 77.9841 325.841 77.991 325.774 77.9777C325.707 77.9644 325.646 77.9317 325.598 77.8837C325.55 77.8356 325.517 77.7744 325.504 77.7077C325.49 77.6411 325.497 77.572 325.523 77.5092C325.549 77.4464 325.593 77.3928 325.65 77.355C325.707 77.3172 325.773 77.2971 325.841 77.2971C325.886 77.297 325.931 77.3058 325.973 77.3231C326.015 77.3403 326.053 77.3656 326.085 77.3975C326.117 77.4295 326.142 77.4674 326.159 77.5091C326.177 77.5508 326.185 77.5955 326.185 77.6407ZM322.312 76.3331C322.586 76.2942 322.864 76.3454 323.106 76.4789C323.353 76.6035 323.552 76.8058 323.672 77.0546C323.398 77.0943 323.119 77.0428 322.878 76.9081C322.632 76.7828 322.433 76.5809 322.313 76.3331H322.312ZM323.533 81.7944C323.66 81.7176 323.809 81.6843 323.957 81.6997C323.989 81.6627 324.031 81.6366 324.078 81.6251C324.125 81.6137 324.174 81.6175 324.219 81.636C324.264 81.6545 324.302 81.6868 324.327 81.7281C324.352 81.7695 324.363 81.8177 324.359 81.8659C324.355 81.9141 324.335 81.9597 324.303 81.9961C324.271 82.0325 324.229 82.0578 324.182 82.0683C324.134 82.0788 324.085 82.074 324.04 82.0546C323.996 82.0352 323.959 82.0022 323.935 81.9604C323.786 81.9501 323.645 81.8919 323.533 81.7944ZM326.591 76.5049C326.317 76.4662 326.038 76.5176 325.796 76.6514C325.55 76.7758 325.351 76.9779 325.231 77.2264C325.504 77.2664 325.784 77.2151 326.025 77.0806C326.271 76.955 326.47 76.7529 326.591 76.5049ZM324.385 77.4533L324.529 78.8744C324.566 79.349 324.626 79.8222 324.659 80.2968L324.671 80.4861L324.481 80.4712C324.054 80.4455 323.632 80.3722 323.221 80.2527L323.224 80.2203C323.644 80.1447 324.072 80.1165 324.499 80.136L324.322 80.3111C324.313 79.8352 324.333 79.3587 324.329 78.8828L324.352 77.4546L324.385 77.4533Z" fill="#494D52"/>
<path d="M331.675 118.801C331.792 118.616 331.825 118.426 331.748 118.377C331.671 118.328 331.514 118.44 331.396 118.625C331.278 118.811 331.245 119.001 331.322 119.05C331.399 119.098 331.557 118.987 331.675 118.801Z" fill="#D65F4D"/>
<path d="M330.76 119.041C330.701 119.132 330.641 119.198 330.626 119.189C330.61 119.179 330.644 119.097 330.702 119.005C330.76 118.914 330.819 118.848 330.836 118.857C330.852 118.867 330.818 118.95 330.76 119.041ZM331.803 119.261C331.719 119.393 331.626 119.484 331.595 119.465C331.564 119.445 331.605 119.321 331.689 119.189C331.773 119.058 331.866 118.966 331.898 118.986C331.93 119.005 331.887 119.13 331.803 119.261Z" fill="#D65F4D"/>
</g>
<defs>
<clipPath id="clip0_359_2613">
<rect width="450" height="285.902" fill="white" transform="translate(0 0.548889)"/>
</clipPath>
</defs>
</svg>
