<svg width="67" height="59" viewBox="0 0 67 59" fill="none" xmlns="http://www.w3.org/2000/svg">
<path d="M29.2832 4.84756C31.3714 4.92083 33.484 4.98189 35.5844 4.90862C36.2194 4.8842 36.8422 4.85977 37.4772 4.84756C37.4162 4.84756 37.3551 4.84756 37.3063 4.83535C34.6441 4.6766 31.9453 4.70102 29.2954 4.84756" fill="#005A64"/>
<path d="M61.6933 4.43283C61.6933 4.43283 47.1004 6.63093 42.7042 14.9715C42.6309 14.7151 42.1791 10.8195 42.0692 9.41518C41.9959 8.51152 41.7151 6.66756 41.2022 5.91044C40.9091 5.47082 40.1642 5.25101 39.2605 5.06783C39.1995 4.0909 39.1018 3.40705 38.9308 2.99185C38.8331 2.74762 38.5522 2.55223 38.1615 2.36906C38.1615 2.32021 38.1615 2.25915 38.1615 2.21031V1.68521C38.1615 0.757122 37.4044 0 36.4763 0H30.285C29.3569 0 28.5998 0.757122 28.5998 1.68521V2.21031C28.5998 2.21031 28.5998 2.308 28.5998 2.36906C28.2578 2.5156 28.0136 2.69877 27.9159 2.89416C27.6595 3.39484 27.5251 4.13975 27.4519 4.99456C26.4749 5.16553 25.9498 5.27543 25.5468 5.67842C24.8141 6.41112 24.6065 8.34056 24.5088 9.26864C24.3623 10.5875 23.9715 14.3731 23.9715 14.5441C23.251 13.2252 22.384 12.0773 21.4193 11.076C21.1384 10.7829 20.8454 10.5143 20.5645 10.2456C14.3243 4.64043 4.98242 4.42062 4.98242 4.42062C15.5089 10.0868 18.9159 12.8467 21.8345 25.4857C22.616 28.8562 23.8006 31.5793 25.1072 33.7652C25.2538 35.4871 25.4247 36.9891 25.6201 37.8928C26.3772 41.4708 26.8657 45.0854 27.8793 48.6146C28.905 52.1438 30.4803 55.6241 33.1669 58.4328C34.5713 56.4423 35.7558 54.3419 36.7083 52.1682C38.0882 49.0176 39.1628 45.4152 39.6513 43.0949C40.0176 41.3975 40.7259 38.0027 40.9702 36.2808C41.0434 35.7191 41.1289 35.0475 41.2144 34.3148C42.6676 32.0434 43.9864 29.137 44.8412 25.4735C47.7598 12.8345 51.1547 10.0868 61.6933 4.40841M23.7517 25.5102C23.5441 23.6296 23.3732 21.7368 22.9213 19.8806C22.3352 17.9756 21.9322 16.6933 20.8209 15.289C20.4668 14.825 20.1004 14.3853 19.7341 13.9457C19.9661 14.1777 20.1859 14.4098 20.4179 14.654C21.8711 16.1682 22.8847 17.3528 23.654 19.099C23.7639 19.3433 24.1913 20.3202 24.46 21.6635C24.6065 22.3718 24.631 22.8358 24.7409 24.0692C24.7653 24.3134 24.9607 26.5848 25.0584 27.4884C25.1805 28.5631 25.4247 30.1017 25.9865 31.9823C25.0462 29.9064 24.0204 27.7937 23.7517 25.5102ZM38.4912 30.175C38.1615 31.9823 37.8562 35.7557 37.6119 37.6119C37.2822 40.1397 36.574 44.0719 35.6459 47.5156C35.0109 49.8968 34.2171 52.1804 33.2768 54.3663C31.4817 51.289 30.4315 47.4911 29.7476 43.6323C29.0638 39.7734 28.7341 35.829 28.2334 31.9213C27.9037 29.3568 27.806 28.038 27.7083 26.6336C27.4885 23.2388 27.5251 20.2347 27.5618 17.2795C27.5862 15.5699 27.6106 14.8616 27.6228 12.7856C27.6228 9.90365 27.6228 8.68248 27.6228 8.68248C27.5984 5.06783 27.5129 3.19945 28.4776 2.73541C28.5998 2.67435 28.7097 2.64993 28.7707 2.64993V1.66078C28.7707 0.842604 29.4301 0.183175 30.2483 0.183175H36.4518C37.27 0.183175 37.9295 0.842604 37.9295 1.66078V2.63772C38.247 2.79647 38.4668 2.97964 38.5522 3.18724C39.1262 4.55494 38.7965 9.06104 39.0896 17.3284C39.2117 20.54 38.6988 28.8806 38.4668 30.175H38.4912ZM42.7653 25.5102C42.4966 27.7937 41.4708 29.9064 40.5305 31.9823C41.1045 30.1017 41.3487 28.5631 41.4586 27.4884C41.5563 26.5726 41.7517 24.3012 41.7761 24.0692C41.886 22.8236 41.9105 22.3718 42.057 21.6635C42.3379 20.3202 42.7531 19.3433 42.863 19.099C43.6323 17.3528 44.6459 16.1682 46.099 14.654C46.3311 14.422 46.5509 14.19 46.7829 13.9457C46.4166 14.3853 46.0502 14.8372 45.6961 15.289C44.5848 16.6933 44.1696 17.9756 43.5957 19.8806C43.156 21.7245 42.9851 23.6296 42.7653 25.5102Z" fill="#005A64"/>
<path d="M30.7366 43.953C31.3228 46.9937 31.9944 48.1782 32.7393 51.0723L29.9307 36.4062C30.0284 38.3234 30.3703 42.0724 30.7366 43.953Z" fill="#005A64"/>
<path d="M35.4988 44.0937C35.8651 42.2131 36.2071 38.4642 36.3048 36.5469L33.4961 51.2131C34.241 48.319 34.9004 47.1344 35.4988 44.0937Z" fill="#005A64"/>
<path d="M34.3634 10.6875H32.324C31.1639 10.6875 30.2236 11.6278 30.2236 12.7879V30.275C30.2236 31.4351 31.1639 32.3754 32.324 32.3754H34.3634C35.5235 32.3754 36.4638 31.4351 36.4638 30.275V12.7879C36.4638 11.6278 35.5235 10.6875 34.3634 10.6875Z" fill="#005A64"/>
<path d="M30.2236 4.47266V4.38717C30.2969 3.12937 30.2847 1.85936 30.2236 0.601562C30.187 1.59071 30.1748 2.57985 30.1992 3.5812C30.1992 3.87428 30.2236 4.17958 30.2236 4.47266Z" fill="#005A64"/>
<path d="M29.6377 4.47266V4.38717C29.711 3.12937 29.6988 1.85936 29.6377 0.601562C29.6011 1.59071 29.5889 2.57985 29.6133 3.5812C29.6133 3.87428 29.6377 4.17958 29.6377 4.47266Z" fill="#005A64"/>
<path d="M31.3721 4.47266V4.38717C31.4454 3.12937 31.4331 1.85936 31.3721 0.601562C31.3355 1.59071 31.3232 2.57985 31.3477 3.5812C31.3477 3.87428 31.3721 4.17958 31.3721 4.47266Z" fill="#005A64"/>
<path d="M30.7979 4.47266V4.38717C30.8711 3.12937 30.8589 1.85936 30.7979 0.601562C30.7612 1.59071 30.749 2.57985 30.7734 3.5812C30.7734 3.87428 30.7979 4.17958 30.7979 4.47266Z" fill="#005A64"/>
<path d="M32.5322 4.47266V4.38717C32.6055 3.12937 32.5933 1.85936 32.5322 0.601562C32.4956 1.59071 32.4834 2.57985 32.5078 3.5812C32.5078 3.87428 32.5322 4.17958 32.5322 4.47266Z" fill="#005A64"/>
<path d="M31.958 4.47266V4.38717C32.0313 3.12937 32.0191 1.85936 31.958 0.601562C31.9214 1.59071 31.9092 2.57985 31.9336 3.5812C31.9336 3.87428 31.958 4.17958 31.958 4.47266Z" fill="#005A64"/>
<path d="M33.6924 4.47266V4.38717C33.7657 3.12937 33.7535 1.85936 33.6924 0.601562C33.6558 1.59071 33.6436 2.57985 33.668 3.5812C33.668 3.87428 33.6924 4.17958 33.6924 4.47266Z" fill="#005A64"/>
<path d="M33.1182 4.47266V4.38717C33.1914 3.12937 33.1792 1.85936 33.1182 0.601562C33.0815 1.59071 33.0693 2.57985 33.0938 3.5812C33.0938 3.87428 33.1182 4.17958 33.1182 4.47266Z" fill="#005A64"/>
<path d="M34.8516 4.47266V4.38717C34.9248 3.12937 34.9126 1.85936 34.8516 0.601562C34.8149 1.59071 34.8027 2.57985 34.8272 3.5812C34.8272 3.87428 34.8516 4.17958 34.8516 4.47266Z" fill="#005A64"/>
<path d="M34.2656 4.47266V4.38717C34.3389 3.12937 34.3267 1.85936 34.2656 0.601562C34.229 1.59071 34.2168 2.57985 34.2412 3.5812C34.2412 3.87428 34.2656 4.17958 34.2656 4.47266Z" fill="#005A64"/>
<path d="M36.0117 4.47266V4.38717C36.085 3.12937 36.0728 1.85936 36.0117 0.601562C35.9751 1.59071 35.9629 2.57985 35.9873 3.5812C35.9873 3.87428 36.0117 4.17958 36.0117 4.47266Z" fill="#005A64"/>
<path d="M35.4258 4.47266V4.38717C35.4991 3.12937 35.4869 1.85936 35.4258 0.601562C35.3892 1.59071 35.377 2.57985 35.4014 3.5812C35.4014 3.87428 35.4258 4.17958 35.4258 4.47266Z" fill="#005A64"/>
<path d="M37.1358 4.47266V4.38717C37.209 3.12937 37.1968 1.85936 37.1358 0.601562C37.0991 1.59071 37.0869 2.57985 37.1113 3.5812C37.1113 3.87428 37.1358 4.17958 37.1358 4.47266Z" fill="#005A64"/>
<path d="M36.5615 4.47266V4.38717C36.6348 3.12937 36.6226 1.85936 36.5615 0.601562C36.5249 1.59071 36.5127 2.57985 36.5371 3.5812C36.5371 3.87428 36.5615 4.17958 36.5615 4.47266Z" fill="#005A64"/>
<path d="M51.7902 19.7823C51.3384 20.0754 50.8865 20.3685 50.4835 20.7348C50.2027 21.0035 49.9584 21.3087 49.7264 21.614C49.2013 22.3345 48.7739 23.1283 48.2244 23.8366C47.6138 24.5937 46.8933 25.2409 46.2217 25.937C47.4184 25.131 48.6884 24.3372 49.5921 23.2016C50.337 22.2613 51.0697 21.2843 51.9245 20.4417C52.877 19.6113 53.5242 19.0496 54.5989 18.671C54.9408 18.5367 55.2949 18.4268 55.6369 18.3047C55.4415 18.3535 55.2339 18.4024 55.0385 18.4512C53.8906 18.7199 52.7915 19.1229 51.8024 19.7579" fill="#005A64"/>
<path d="M66.5171 7.65625C66.1508 7.68067 65.7844 7.70509 65.4181 7.7173C63.3299 7.80279 61.3394 8.1325 59.6542 8.8652C58.8727 9.19492 58.1155 9.54905 57.4561 10.0131C57.0165 10.3795 56.6135 10.7702 56.2716 11.2098C55.4778 12.2234 54.9039 13.3713 54.0613 14.336C53.121 15.374 51.9364 16.2044 50.874 17.1447C52.9256 16.2044 55.0748 15.3008 56.4792 13.7377C57.6271 12.4432 58.7139 11.0999 60.0938 9.98869C61.6569 8.92626 62.7315 8.23019 64.6488 7.9249C65.2716 7.82721 65.8944 7.74173 66.5171 7.65625Z" fill="#005A64"/>
<path d="M13.457 20.7265C14.3118 21.5691 15.0445 22.546 15.7894 23.4741C16.7053 24.622 17.9631 25.4157 19.1598 26.2095C18.4882 25.5134 17.7677 24.854 17.1571 24.1091C16.6076 23.4008 16.1802 22.6071 15.6551 21.8866C15.423 21.5691 15.1666 21.276 14.8979 21.0073C14.495 20.641 14.0431 20.3479 13.5913 20.0548C12.6021 19.4198 11.5031 19.0046 10.3552 18.7482C10.1598 18.6993 9.95223 18.6505 9.75684 18.6016C10.111 18.7238 10.4529 18.8337 10.7948 18.968C11.8694 19.3466 12.5167 19.9083 13.4692 20.7387L13.457 20.7265Z" fill="#005A64"/>
<path d="M15.6431 16.9963C14.5807 16.0682 13.384 15.2378 12.4559 14.1876C11.6133 13.2229 11.0393 12.0628 10.2456 11.0615C9.90364 10.6218 9.50066 10.2188 9.06104 9.86466C8.40161 9.40062 7.64449 9.04648 6.86294 8.71676C5.16552 7.98407 3.18724 7.65435 1.09904 7.56887C0.732699 7.54445 0.36635 7.52002 0 7.50781C0.622795 7.59329 1.2578 7.67877 1.86838 7.77647C3.79782 8.06955 4.86023 8.77782 6.42332 9.84024C7.81545 10.9393 8.90229 12.2826 10.038 13.5893C11.4301 15.1646 13.5916 16.0682 15.6431 16.9963Z" fill="#005A64"/>
</svg>
