<svg width="109" height="68" viewBox="0 0 109 68" fill="none" xmlns="http://www.w3.org/2000/svg">
<g clip-path="url(#clip0_5475_17095)">
<path d="M63.3286 -64.2416C66.4635 -66.6569 70.9811 -66.0593 73.3923 -62.9102L116.831 -6.18592C119.245 -3.03344 118.654 1.49545 115.519 3.9108L74.9826 35.143C63.0616 44.328 45.902 42.0579 36.7314 30.0825L17.8041 5.3664C8.6335 -6.60895 10.8713 -23.8244 22.7925 -33.0094L63.3286 -64.2416ZM63.0715 -64.5774L22.5354 -33.3451C10.4103 -24.003 8.14243 -6.55624 17.4699 5.6239L36.3972 30.3401C45.7246 42.5202 63.1148 44.8208 75.2396 35.4787L115.776 4.24653C119.102 1.6844 119.724 -3.10294 117.166 -6.44341L73.7266 -63.1677C71.1687 -66.5082 66.3969 -67.1394 63.0715 -64.5774Z" fill="url(#paint0_linear_5475_17095)"/>
<path d="M68.5345 -63.3417C74.7841 -68.1569 83.7841 -66.9663 88.5917 -60.6882L123.343 -15.3081C128.151 -9.03006 126.977 -0.00111389 120.727 4.81414L82.6544 34.1486C72.4914 41.9791 57.859 40.0464 50.0382 29.8336L26.208 -1.28485C18.3898 -11.4943 20.295 -26.1741 30.4616 -34.0072L68.5345 -63.3417ZM68.2774 -63.6774L30.2044 -34.3429C19.8373 -26.3553 17.8987 -11.4416 25.8738 -1.02735L49.704 30.0911C57.6765 40.502 72.5441 42.4719 82.9114 34.4843L120.988 5.14729C127.431 0.182686 128.64 -9.09206 123.68 -15.5682L88.9288 -60.9483C83.966 -67.4219 74.7241 -68.6445 68.2774 -63.6774Z" fill="url(#paint1_linear_5475_17095)"/>
<path d="M73.7439 -62.4444C83.1085 -69.6595 96.5841 -67.8768 103.788 -58.4698L129.85 -24.4372C137.053 -15.0302 135.296 -1.51051 125.932 5.70465L90.3148 33.1465C81.9066 39.6251 69.8058 38.0213 63.3399 29.5778L34.6095 -7.93964C28.141 -16.3865 29.722 -28.5265 38.1274 -35.0026L73.7439 -62.4444ZM73.4869 -62.7801L37.8703 -35.3384C29.2645 -28.7077 27.6551 -16.3271 34.2753 -7.6821L63.0057 29.8353C69.6259 38.4802 81.9665 40.1128 90.5725 33.4822L126.185 6.04296C135.75 -1.3267 137.536 -15.0869 130.181 -24.6921L104.119 -58.7246C96.7667 -68.3324 83.0486 -70.1472 73.4869 -62.7801Z" fill="url(#paint2_linear_5475_17095)"/>
<path d="M78.95 -61.5444C91.4258 -71.1569 109.387 -68.7837 118.987 -56.2477L136.362 -33.5594C145.959 -21.0267 143.619 -3.00704 131.14 6.60802L97.9867 32.1521C91.3363 37.2763 81.763 36.0098 76.6465 29.3288L43.0135 -14.5908C37.8973 -21.2718 39.1458 -30.8761 45.7965 -36.0004L78.95 -61.5444ZM78.693 -61.8801L45.5395 -36.3361C38.6948 -31.0625 37.414 -21.209 42.6793 -14.3333L76.3123 29.5864C81.5775 36.462 91.3991 37.7614 98.2437 32.4877L131.397 6.94375C144.081 -2.82838 146.453 -21.076 136.696 -33.8168L119.321 -56.5052C109.565 -69.2461 91.376 -71.6522 78.693 -61.8801Z" fill="url(#paint3_linear_5475_17095)"/>
<path d="M84.1595 -60.6472C99.7501 -72.6595 122.19 -69.6909 134.183 -54.0292L142.871 -42.685C154.864 -27.0234 151.938 -4.51046 136.347 7.50195L105.653 31.1507C100.761 34.9206 93.7147 33.9915 89.9481 29.0731L51.4176 -21.2422C47.6537 -26.1573 48.5696 -33.2259 53.4657 -36.9983L84.1595 -60.6472ZM83.9025 -60.9829L53.2086 -37.334C48.122 -33.4149 47.1704 -26.0945 51.0834 -20.9847L89.6196 29.3372C93.5321 34.447 100.829 35.4123 105.915 31.4932L136.609 7.8444C152.411 -4.33025 155.363 -27.066 143.21 -42.9358L134.518 -54.2867C122.365 -70.1564 99.7003 -73.155 83.9025 -60.9829Z" fill="url(#paint4_linear_5475_17095)"/>
<path d="M89.3656 -59.7471C108.071 -74.1591 134.993 -70.5978 149.383 -51.8071C163.772 -33.0166 160.262 -6.00696 141.556 8.40529L113.322 30.1589C110.184 32.5769 105.669 31.9766 103.258 28.8276L59.8192 -27.8967C57.4051 -31.0493 57.9968 -35.5781 61.1317 -37.9935L89.3656 -59.7471ZM89.1086 -60.0828L60.8746 -38.3292C57.5492 -35.7671 56.9269 -30.9797 59.485 -27.6393L102.923 29.085C105.482 32.4255 110.254 33.0568 113.579 30.4947L141.813 8.74102C160.732 -5.83604 164.271 -33.0592 149.717 -52.0647C135.163 -71.0702 108.028 -74.6597 89.1086 -60.0828Z" fill="url(#paint5_linear_5475_17095)"/>
</g>
<defs>
<linearGradient id="paint0_linear_5475_17095" x1="51.4068" y1="8.71961" x2="74.4984" y2="27.0993" gradientUnits="userSpaceOnUse">
<stop offset="0.0360106" stop-color="#BBF8E9"/>
<stop offset="0.542776" stop-color="#3FECC1"/>
<stop offset="1" stop-color="#6E45BA"/>
</linearGradient>
<linearGradient id="paint1_linear_5475_17095" x1="62.2634" y1="5.26908" x2="85.3565" y2="23.6496" gradientUnits="userSpaceOnUse">
<stop offset="0.0360106" stop-color="#BBF8E9"/>
<stop offset="0.542776" stop-color="#3FECC1"/>
<stop offset="1" stop-color="#6E45BA"/>
</linearGradient>
<linearGradient id="paint2_linear_5475_17095" x1="73.1123" y1="1.81468" x2="96.2031" y2="20.1934" gradientUnits="userSpaceOnUse">
<stop offset="0.0360106" stop-color="#BBF8E9"/>
<stop offset="0.542776" stop-color="#3FECC1"/>
<stop offset="1" stop-color="#6E45BA"/>
</linearGradient>
<linearGradient id="paint3_linear_5475_17095" x1="83.969" y1="-1.63583" x2="107.061" y2="16.7438" gradientUnits="userSpaceOnUse">
<stop offset="0.0360106" stop-color="#BBF8E9"/>
<stop offset="0.542776" stop-color="#3FECC1"/>
<stop offset="1" stop-color="#6E45BA"/>
</linearGradient>
<linearGradient id="paint4_linear_5475_17095" x1="94.8249" y1="-5.08577" x2="117.918" y2="13.2945" gradientUnits="userSpaceOnUse">
<stop offset="0.0360106" stop-color="#BBF8E9"/>
<stop offset="0.542776" stop-color="#3FECC1"/>
<stop offset="1" stop-color="#6E45BA"/>
</linearGradient>
<linearGradient id="paint5_linear_5475_17095" x1="105.678" y1="-8.53945" x2="128.77" y2="9.84019" gradientUnits="userSpaceOnUse">
<stop offset="0.0360106" stop-color="#BBF8E9"/>
<stop offset="0.542776" stop-color="#3FECC1"/>
<stop offset="1" stop-color="#6E45BA"/>
</linearGradient>
<clipPath id="clip0_5475_17095">
<rect width="109" height="68" fill="white"/>
</clipPath>
</defs>
</svg>
