<svg width="81" height="48" viewBox="0 0 81 48" fill="none" xmlns="http://www.w3.org/2000/svg">
<g clip-path="url(#clip0_5475_17102)">
<g opacity="0.5">
<path d="M51.1134 47.4218C78.5428 47.4218 100.779 41.7527 100.779 34.7596C100.779 27.7666 78.5428 22.0975 51.1134 22.0975C23.6839 22.0975 1.44788 27.7666 1.44788 34.7596C1.44788 41.7527 23.6839 47.4218 51.1134 47.4218Z" stroke="url(#paint0_linear_5475_17102)" stroke-miterlimit="10"/>
<path d="M51.0499 42.63C76.8222 42.63 97.7144 37.304 97.7144 30.734C97.7144 24.164 76.8222 18.838 51.0499 18.838C25.2779 18.838 4.3855 24.164 4.3855 30.734C4.3855 37.304 25.2779 42.63 51.0499 42.63Z" stroke="url(#paint1_linear_5475_17102)" stroke-miterlimit="10"/>
<path d="M50.9796 37.9008C75.2224 37.9008 94.8754 32.8897 94.8754 26.7082C94.8754 20.5268 75.2224 15.5157 50.9796 15.5157C26.7366 15.5157 7.08374 20.5268 7.08374 26.7082C7.08374 32.8897 26.7366 37.9008 50.9796 37.9008Z" stroke="url(#paint2_linear_5475_17102)" stroke-miterlimit="10"/>
<path d="M50.9161 33.2414C73.7893 33.2414 92.3319 28.5141 92.3319 22.6826C92.3319 16.8512 73.7893 12.1239 50.9161 12.1239C28.0426 12.1239 9.5 16.8512 9.5 22.6826C9.5 28.5141 28.0426 33.2414 50.9161 33.2414Z" stroke="url(#paint3_linear_5475_17102)" stroke-miterlimit="10"/>
<path d="M50.8457 28.6724C72.5327 28.6724 90.1131 24.1914 90.1131 18.6639C90.1131 13.1363 72.5327 8.6554 50.8457 8.6554C29.1589 8.6554 11.5782 13.1363 11.5782 18.6639C11.5782 24.1914 29.1589 28.6724 50.8457 28.6724Z" stroke="url(#paint4_linear_5475_17102)" stroke-miterlimit="10"/>
<path d="M50.7821 24.2009C71.4964 24.2009 88.2882 19.9196 88.2882 14.6382C88.2882 9.35684 71.4964 5.07544 50.7821 5.07544C30.068 5.07544 13.2759 9.35684 13.2759 14.6382C13.2759 19.9196 30.068 24.2009 50.7821 24.2009Z" stroke="url(#paint5_linear_5475_17102)" stroke-miterlimit="10"/>
<path d="M50.7188 19.8409C70.713 19.8409 86.9217 15.7092 86.9217 10.6125C86.9217 5.51574 70.713 1.38403 50.7188 1.38403C30.7245 1.38403 14.5159 5.51574 14.5159 10.6125C14.5159 15.7092 30.7245 19.8409 50.7188 19.8409Z" stroke="url(#paint6_linear_5475_17102)" stroke-miterlimit="10"/>
<path d="M50.6484 15.6062C70.1952 15.6062 86.0411 11.5681 86.0411 6.58677C86.0411 1.60542 70.1952 -2.43274 50.6484 -2.43274C31.1015 -2.43274 15.2556 1.60542 15.2556 6.58677C15.2556 11.5681 31.1015 15.6062 50.6484 15.6062Z" stroke="url(#paint7_linear_5475_17102)" stroke-miterlimit="10"/>
<path d="M50.585 11.511C69.98 11.511 85.7032 7.50403 85.7032 2.56116C85.7032 -2.3817 69.98 -6.38867 50.585 -6.38867C31.1898 -6.38867 15.4669 -2.3817 15.4669 2.56116C15.4669 7.50403 31.1898 11.511 50.585 11.511Z" stroke="url(#paint8_linear_5475_17102)" stroke-miterlimit="10"/>
<path d="M50.5216 7.55497C70.0685 7.55497 85.9144 3.51683 85.9144 -1.4645C85.9144 -6.44582 70.0685 -10.484 50.5216 -10.484C30.9747 -10.484 15.1288 -6.44582 15.1288 -1.4645C15.1288 3.51683 30.9747 7.55497 50.5216 7.55497Z" stroke="url(#paint9_linear_5475_17102)" stroke-miterlimit="10"/>
<path d="M50.4511 3.74508C70.4457 3.74508 86.6538 -0.386629 86.6538 -5.48335C86.6538 -10.5801 70.4457 -14.7118 50.4511 -14.7118C30.4567 -14.7118 14.2482 -10.5801 14.2482 -5.48335C14.2482 -0.386629 30.4567 3.74508 50.4511 3.74508Z" stroke="url(#paint10_linear_5475_17102)" stroke-miterlimit="10"/>
<path d="M50.3878 0.0538071C71.1018 0.0538071 87.8943 -4.22758 87.8943 -9.50896C87.8943 -14.7903 71.1018 -19.0717 50.3878 -19.0717C29.6737 -19.0717 12.8816 -14.7903 12.8816 -9.50896C12.8816 -4.22758 29.6737 0.0538071 50.3878 0.0538071Z" stroke="url(#paint11_linear_5475_17102)" stroke-miterlimit="10"/>
</g>
</g>
<defs>
<linearGradient id="paint0_linear_5475_17102" x1="68.0447" y1="22.0975" x2="63.1531" y2="58.2975" gradientUnits="userSpaceOnUse">
<stop stop-color="#F99B94"/>
<stop offset="0.482292" stop-color="#F55247"/>
<stop offset="0.64375" stop-color="#F7D56E"/>
<stop offset="0.961458" stop-color="#9FDFF5"/>
</linearGradient>
<linearGradient id="paint1_linear_5475_17102" x1="66.9581" y1="18.838" x2="62.3631" y2="52.848" gradientUnits="userSpaceOnUse">
<stop stop-color="#F99B94"/>
<stop offset="0.482292" stop-color="#F55247"/>
<stop offset="0.64375" stop-color="#F7D56E"/>
<stop offset="0.961458" stop-color="#9FDFF5"/>
</linearGradient>
<linearGradient id="paint2_linear_5475_17102" x1="65.9439" y1="15.5157" x2="61.62" y2="47.5143" gradientUnits="userSpaceOnUse">
<stop stop-color="#F99B94"/>
<stop offset="0.482292" stop-color="#F55247"/>
<stop offset="0.64375" stop-color="#F7D56E"/>
<stop offset="0.961458" stop-color="#9FDFF5"/>
</linearGradient>
<linearGradient id="paint3_linear_5475_17102" x1="65.0349" y1="12.1239" x2="60.9561" y2="42.3107" gradientUnits="userSpaceOnUse">
<stop stop-color="#F99B94"/>
<stop offset="0.482292" stop-color="#F55247"/>
<stop offset="0.64375" stop-color="#F7D56E"/>
<stop offset="0.961458" stop-color="#9FDFF5"/>
</linearGradient>
<linearGradient id="paint4_linear_5475_17102" x1="64.2325" y1="8.6554" x2="60.367" y2="37.2693" gradientUnits="userSpaceOnUse">
<stop stop-color="#F99B94"/>
<stop offset="0.482292" stop-color="#F55247"/>
<stop offset="0.64375" stop-color="#F7D56E"/>
<stop offset="0.961458" stop-color="#9FDFF5"/>
</linearGradient>
<linearGradient id="paint5_linear_5475_17102" x1="63.5682" y1="5.07543" x2="59.8738" y2="32.4147" gradientUnits="userSpaceOnUse">
<stop stop-color="#F99B94"/>
<stop offset="0.482292" stop-color="#F55247"/>
<stop offset="0.64375" stop-color="#F7D56E"/>
<stop offset="0.961458" stop-color="#9FDFF5"/>
</linearGradient>
<linearGradient id="paint6_linear_5475_17102" x1="63.0608" y1="1.38403" x2="59.4965" y2="27.7677" gradientUnits="userSpaceOnUse">
<stop stop-color="#F99B94"/>
<stop offset="0.482292" stop-color="#F55247"/>
<stop offset="0.64375" stop-color="#F7D56E"/>
<stop offset="0.961458" stop-color="#9FDFF5"/>
</linearGradient>
<linearGradient id="paint7_linear_5475_17102" x1="62.7143" y1="-2.43274" x2="59.2314" y2="23.3538" gradientUnits="userSpaceOnUse">
<stop stop-color="#F99B94"/>
<stop offset="0.482292" stop-color="#F55247"/>
<stop offset="0.64375" stop-color="#F7D56E"/>
<stop offset="0.961458" stop-color="#9FDFF5"/>
</linearGradient>
<linearGradient id="paint8_linear_5475_17102" x1="62.5569" y1="-6.38867" x2="59.1007" y2="19.1987" gradientUnits="userSpaceOnUse">
<stop stop-color="#F99B94"/>
<stop offset="0.482292" stop-color="#F55247"/>
<stop offset="0.64375" stop-color="#F7D56E"/>
<stop offset="0.961458" stop-color="#9FDFF5"/>
</linearGradient>
<linearGradient id="paint9_linear_5475_17102" x1="62.5876" y1="-10.484" x2="59.1042" y2="15.3026" gradientUnits="userSpaceOnUse">
<stop stop-color="#F99B94"/>
<stop offset="0.482292" stop-color="#F55247"/>
<stop offset="0.64375" stop-color="#F7D56E"/>
<stop offset="0.961458" stop-color="#9FDFF5"/>
</linearGradient>
<linearGradient id="paint10_linear_5475_17102" x1="62.7929" y1="-14.7118" x2="59.2286" y2="11.6719" gradientUnits="userSpaceOnUse">
<stop stop-color="#F99B94"/>
<stop offset="0.482292" stop-color="#F55247"/>
<stop offset="0.64375" stop-color="#F7D56E"/>
<stop offset="0.961458" stop-color="#9FDFF5"/>
</linearGradient>
<linearGradient id="paint11_linear_5475_17102" x1="63.1743" y1="-19.0717" x2="59.4799" y2="8.26756" gradientUnits="userSpaceOnUse">
<stop stop-color="#F99B94"/>
<stop offset="0.482292" stop-color="#F55247"/>
<stop offset="0.64375" stop-color="#F7D56E"/>
<stop offset="0.961458" stop-color="#9FDFF5"/>
</linearGradient>
<clipPath id="clip0_5475_17102">
<rect width="81" height="48" fill="white"/>
</clipPath>
</defs>
</svg>
