<svg width="177" height="60" viewBox="0 0 177 60" fill="none" xmlns="http://www.w3.org/2000/svg">
<g clip-path="url(#clip0_7147_2071)">
<path d="M29.2959 4.85977C31.3841 4.93304 33.4967 4.9941 35.5971 4.92083C36.2321 4.89641 36.8549 4.87198 37.4899 4.85977C37.4289 4.85977 37.3678 4.85977 37.319 4.84756C34.6568 4.68881 31.958 4.71323 29.3081 4.85977" fill="#005A64"/>
<path d="M61.706 4.44455C61.706 4.44455 47.1131 6.64265 42.7169 14.9832C42.6436 14.7268 42.1918 10.8312 42.0819 9.4269C42.0086 8.52324 41.7278 6.67928 41.2149 5.92216C40.9218 5.48254 40.1769 5.26273 39.2732 5.07955C39.2122 4.10262 39.1145 3.41877 38.9435 3.00357C38.8458 2.75934 38.5649 2.56395 38.1742 2.38078C38.1742 2.33193 38.1742 2.27087 38.1742 2.22203V1.69693C38.1742 0.768841 37.4171 0.0117188 36.489 0.0117188H30.2977C29.3696 0.0117188 28.6125 0.768841 28.6125 1.69693V2.22203C28.6125 2.22203 28.6125 2.31972 28.6125 2.38078C28.2705 2.52732 28.0263 2.71049 27.9286 2.90588C27.6722 3.40656 27.5378 4.15147 27.4646 5.00628C26.4876 5.17725 25.9625 5.28715 25.5595 5.69014C24.8268 6.42284 24.6192 8.35228 24.5215 9.28036C24.375 10.5992 23.9842 14.3848 23.9842 14.5558C23.2637 13.2369 22.3967 12.089 21.432 11.0877C21.1511 10.7946 20.8581 10.526 20.5772 10.2573C14.337 4.65215 4.99512 4.43234 4.99512 4.43234C15.5216 10.0985 18.9286 12.8584 21.8472 25.4974C22.6287 28.8679 23.8133 31.591 25.1199 33.7769C25.2665 35.4988 25.4374 37.0008 25.6328 37.9045C26.3899 41.4825 26.8784 45.0971 27.892 48.6263C28.9177 52.1555 30.493 55.6358 33.1796 58.4445C34.584 56.454 35.7685 54.3536 36.721 52.1799C38.1009 49.0293 39.1755 45.4269 39.664 43.1066C40.0303 41.4092 40.7386 38.0144 40.9829 36.2925C41.0561 35.7308 41.1416 35.0592 41.2271 34.3265C42.6803 32.0551 43.9991 29.1487 44.8539 25.4852C47.7725 12.8462 51.1674 10.0985 61.706 4.42013M23.7644 25.5219C23.5568 23.6413 23.3859 21.7485 22.934 19.8923C22.3479 17.9873 21.9449 16.705 20.8336 15.3007C20.4795 14.8367 20.1131 14.397 19.7468 13.9574C19.9788 14.1894 20.1986 14.4215 20.4306 14.6657C21.8838 16.1799 22.8974 17.3645 23.6667 19.1107C23.7766 19.355 24.204 20.3319 24.4727 21.6752C24.6192 22.3835 24.6437 22.8475 24.7536 24.0809C24.778 24.3251 24.9734 26.5965 25.0711 27.5001C25.1932 28.5748 25.4374 30.1134 25.9992 31.994C25.0589 29.9181 24.0331 27.8054 23.7644 25.5219ZM38.5039 30.1867C38.1742 31.994 37.8689 35.7674 37.6246 37.6236C37.2949 40.1514 36.5867 44.0836 35.6586 47.5273C35.0236 49.9085 34.2298 52.1921 33.2895 54.378C31.4944 51.3007 30.4442 47.5028 29.7603 43.644C29.0765 39.7851 28.7468 35.8407 28.2461 31.933C27.9164 29.3685 27.8187 28.0497 27.721 26.6453C27.5012 23.2505 27.5378 20.2464 27.5745 17.2912C27.5989 15.5816 27.6233 14.8733 27.6355 12.7973C27.6355 9.91537 27.6355 8.6942 27.6355 8.6942C27.6111 5.07955 27.5256 3.21117 28.4903 2.74713C28.6125 2.68607 28.7224 2.66165 28.7834 2.66165V1.6725C28.7834 0.854323 29.4428 0.194894 30.261 0.194894H36.4645C37.2827 0.194894 37.9422 0.854323 37.9422 1.6725V2.64944C38.2597 2.80819 38.4795 2.99136 38.5649 3.19896C39.1389 4.56666 38.8092 9.07276 39.1023 17.3401C39.2244 20.5517 38.7115 28.8923 38.4795 30.1867H38.5039ZM42.778 25.5219C42.5093 27.8054 41.4835 29.9181 40.5432 31.994C41.1172 30.1134 41.3614 28.5748 41.4713 27.5001C41.569 26.5843 41.7644 24.3129 41.7888 24.0809C41.8987 22.8353 41.9232 22.3835 42.0697 21.6752C42.3506 20.3319 42.7658 19.355 42.8757 19.1107C43.645 17.3645 44.6586 16.1799 46.1117 14.6657C46.3438 14.4337 46.5636 14.2017 46.7956 13.9574C46.4293 14.397 46.0629 14.8489 45.7088 15.3007C44.5975 16.705 44.1823 17.9873 43.6084 19.8923C43.1687 21.7362 42.9978 23.6413 42.778 25.5219Z" fill="#005A64"/>
<path d="M30.7493 43.9614C31.3355 47.0021 32.0071 48.1866 32.752 51.0807L29.9434 36.4146C30.0411 38.3318 30.383 42.0808 30.7493 43.9614Z" fill="#005A64"/>
<path d="M35.5115 44.1083C35.8778 42.2277 36.2198 38.4788 36.3175 36.5615L33.5088 51.2277C34.2537 48.3336 34.9131 47.149 35.5115 44.1083Z" fill="#005A64"/>
<path d="M34.3761 10.6968H32.3367C31.1766 10.6968 30.2363 11.6371 30.2363 12.7972V30.2843C30.2363 31.4444 31.1766 32.3847 32.3367 32.3847H34.3761C35.5362 32.3847 36.4765 31.4444 36.4765 30.2843V12.7972C36.4765 11.6371 35.5362 10.6968 34.3761 10.6968Z" fill="#005A64"/>
<path d="M30.2363 4.48145V4.39596C30.3096 3.13816 30.2974 1.86815 30.2363 0.610352C30.1997 1.5995 30.1875 2.58864 30.2119 3.58999C30.2119 3.88307 30.2363 4.18837 30.2363 4.48145Z" fill="#005A64"/>
<path d="M29.6504 4.48145V4.39596C29.7237 3.13816 29.7115 1.86815 29.6504 0.610352C29.6138 1.5995 29.6016 2.58864 29.626 3.58999C29.626 3.88307 29.6504 4.18837 29.6504 4.48145Z" fill="#005A64"/>
<path d="M31.3848 4.48145V4.39596C31.4581 3.13816 31.4458 1.86815 31.3848 0.610352C31.3482 1.5995 31.3359 2.58864 31.3604 3.58999C31.3604 3.88307 31.3848 4.18837 31.3848 4.48145Z" fill="#005A64"/>
<path d="M30.8106 4.48145V4.39596C30.8838 3.13816 30.8716 1.86815 30.8106 0.610352C30.7739 1.5995 30.7617 2.58864 30.7861 3.58999C30.7861 3.88307 30.8106 4.18837 30.8106 4.48145Z" fill="#005A64"/>
<path d="M32.5449 4.48145V4.39596C32.6182 3.13816 32.606 1.86815 32.5449 0.610352C32.5083 1.5995 32.4961 2.58864 32.5205 3.58999C32.5205 3.88307 32.5449 4.18837 32.5449 4.48145Z" fill="#005A64"/>
<path d="M31.9707 4.48145V4.39596C32.044 3.13816 32.0318 1.86815 31.9707 0.610352C31.9341 1.5995 31.9219 2.58864 31.9463 3.58999C31.9463 3.88307 31.9707 4.18837 31.9707 4.48145Z" fill="#005A64"/>
<path d="M33.7051 4.48145V4.39596C33.7784 3.13816 33.7662 1.86815 33.7051 0.610352C33.6685 1.5995 33.6563 2.58864 33.6807 3.58999C33.6807 3.88307 33.7051 4.18837 33.7051 4.48145Z" fill="#005A64"/>
<path d="M33.1309 4.48145V4.39596C33.2041 3.13816 33.1919 1.86815 33.1309 0.610352C33.0942 1.5995 33.082 2.58864 33.1065 3.58999C33.1065 3.88307 33.1309 4.18837 33.1309 4.48145Z" fill="#005A64"/>
<path d="M34.8643 4.48145V4.39596C34.9375 3.13816 34.9253 1.86815 34.8643 0.610352C34.8276 1.5995 34.8154 2.58864 34.8399 3.58999C34.8399 3.88307 34.8643 4.18837 34.8643 4.48145Z" fill="#005A64"/>
<path d="M34.2783 4.48145V4.39596C34.3516 3.13816 34.3394 1.86815 34.2783 0.610352C34.2417 1.5995 34.2295 2.58864 34.2539 3.58999C34.2539 3.88307 34.2783 4.18837 34.2783 4.48145Z" fill="#005A64"/>
<path d="M36.0244 4.48145V4.39596C36.0977 3.13816 36.0855 1.86815 36.0244 0.610352C35.9878 1.5995 35.9756 2.58864 36 3.58999C36 3.88307 36.0244 4.18837 36.0244 4.48145Z" fill="#005A64"/>
<path d="M35.4385 4.48145V4.39596C35.5118 3.13816 35.4996 1.86815 35.4385 0.610352C35.4019 1.5995 35.3897 2.58864 35.4141 3.58999C35.4141 3.88307 35.4385 4.18837 35.4385 4.48145Z" fill="#005A64"/>
<path d="M37.1485 4.48145V4.39596C37.2217 3.13816 37.2095 1.86815 37.1485 0.610352C37.1118 1.5995 37.0996 2.58864 37.124 3.58999C37.124 3.88307 37.1485 4.18837 37.1485 4.48145Z" fill="#005A64"/>
<path d="M36.5742 4.48145V4.39596C36.6475 3.13816 36.6353 1.86815 36.5742 0.610352C36.5376 1.5995 36.5254 2.58864 36.5498 3.58999C36.5498 3.88307 36.5742 4.18837 36.5742 4.48145Z" fill="#005A64"/>
<path d="M51.8029 19.795C51.3511 20.0881 50.8992 20.3812 50.4962 20.7475C50.2154 21.0162 49.9711 21.3214 49.7391 21.6267C49.214 22.3472 48.7866 23.141 48.2371 23.8493C47.6265 24.6064 46.906 25.2536 46.2344 25.9497C47.4311 25.1437 48.7011 24.3499 49.6048 23.2143C50.3497 22.274 51.0824 21.297 51.9372 20.4544C52.8897 19.624 53.5369 19.0623 54.6116 18.6837C54.9535 18.5494 55.3076 18.4395 55.6496 18.3174C55.4542 18.3662 55.2466 18.4151 55.0512 18.4639C53.9033 18.7326 52.8042 19.1356 51.8151 19.7706" fill="#005A64"/>
<path d="M66.5298 7.66846C66.1635 7.69288 65.7971 7.7173 65.4308 7.72951C63.3426 7.815 61.3521 8.14471 59.6669 8.87741C58.8854 9.20713 58.1282 9.56126 57.4688 10.0253C57.0292 10.3917 56.6262 10.7824 56.2843 11.222C55.4905 12.2356 54.9166 13.3835 54.074 14.3482C53.1337 15.3862 51.9491 16.2166 50.8867 17.1569C52.9383 16.2166 55.0875 15.313 56.4919 13.7499C57.6398 12.4554 58.7266 11.1121 60.1065 10.0009C61.6696 8.93847 62.7442 8.2424 64.6615 7.93711C65.2843 7.83942 65.9071 7.75394 66.5298 7.66846Z" fill="#005A64"/>
<path d="M13.4697 20.7357C14.3245 21.5783 15.0572 22.5552 15.8021 23.4833C16.718 24.6312 17.9758 25.4249 19.1725 26.2187C18.5009 25.5226 17.7804 24.8632 17.1698 24.1183C16.6203 23.41 16.1929 22.6163 15.6678 21.8958C15.4357 21.5783 15.1793 21.2852 14.9106 21.0165C14.5077 20.6502 14.0558 20.3571 13.604 20.064C12.6148 19.429 11.5158 19.0138 10.3679 18.7574C10.1725 18.7085 9.96492 18.6597 9.76953 18.6108C10.1237 18.733 10.4656 18.8429 10.8075 18.9772C11.8821 19.3558 12.5294 19.9175 13.4819 20.7479L13.4697 20.7357Z" fill="#005A64"/>
<path d="M15.6558 17.0109C14.5934 16.0828 13.3967 15.2524 12.4686 14.2022C11.626 13.2375 11.052 12.0774 10.2583 11.0761C9.91634 10.6364 9.51336 10.2334 9.07374 9.87931C8.41431 9.41527 7.65719 9.06113 6.87564 8.73141C5.17822 7.99872 3.19994 7.669 1.11174 7.58352C0.745394 7.5591 0.379045 7.53467 0.0126953 7.52246C0.63549 7.60794 1.2705 7.69342 1.88108 7.79112C3.81052 8.0842 4.87293 8.79247 6.43602 9.85489C7.82815 10.9539 8.91499 12.2972 10.0507 13.6039C11.4428 15.1792 13.6043 16.0828 15.6558 17.0109Z" fill="#005A64"/>
<path d="M79.6689 23.251V24.2035H80.0231C80.4138 24.2035 80.6092 24.2035 80.6336 25.1804V43.0949L65.9308 23.2632H62.9512V24.1791L63.2809 24.1913C63.2809 24.1913 63.7571 24.2157 64.2456 24.3989V42.9972C64.2212 43.9131 64.0258 43.9131 63.6717 43.9131H63.3175V44.8412H66.175V43.9131H65.8209C65.4301 43.9131 65.247 43.9131 65.247 42.8629V25.2659L79.7544 44.8412H81.6106V25.1682C81.635 24.1791 81.8182 24.1791 82.2212 24.1791H82.5753V23.251H79.6811H79.6689Z" fill="#005A64"/>
<path d="M100.868 23.2754V24.2035H101.222C101.613 24.2035 101.809 24.2035 101.87 24.985V37.8561C101.87 41.1044 99.1099 43.5467 95.4586 43.5467L93.3337 43.5101C91.4043 43.5101 87.8507 41.1777 87.8507 37.8561L87.7164 24.7408C87.7897 24.2279 87.9362 24.1791 88.3025 24.1791H88.6567V23.251H84.9443V24.1791H85.2985C85.6892 24.1791 85.8602 24.1791 85.9091 24.924V37.8317C85.9091 41.7028 89.255 44.8534 93.3582 44.8534H95.483C99.5739 44.8534 102.895 41.7028 102.895 37.8317V25.2537C102.895 24.1791 103.079 24.1791 103.543 24.1791H103.897V23.2388L100.905 23.2754H100.868Z" fill="#005A64"/>
<path d="M125.365 43.9986C124.962 43.9986 124.657 43.8032 124.425 43.4002V43.3513L124.168 42.7774L117.33 24.3378C117.403 24.2767 117.513 24.2401 117.77 24.2401H118.124V23.312H115.51L107.548 42.7774L107.28 43.4734C107.011 43.8886 106.657 43.9741 106.413 43.9741H106.059V44.9022H108.818V43.9741H108.464C108.318 43.9741 108.257 43.9497 108.244 43.9497C108.244 43.9253 108.22 43.8032 108.367 43.4612L111.2 36.5128H120.139L122.874 43.9619C122.874 43.9619 122.728 44.0108 122.544 44.0108H122.19V44.9388H125.719V44.0108H125.365V43.9986ZM111.615 35.5359L115.889 25.0705L119.748 35.5359H111.615Z" fill="#005A64"/>
<path d="M145.392 25.2903C144.073 24.0081 142.351 23.2998 140.531 23.2998H129.663V24.2279H130.017C130.371 24.2279 130.567 24.2279 130.591 25.1071V43.0827C130.567 43.9741 130.371 43.9741 130.017 43.9741H129.663V44.9022H133.217V43.9741H132.863C132.472 43.9741 132.289 43.9741 132.289 42.8995V36.9769H139.274L143.157 43.217C143.487 43.7177 143.462 43.9131 143.462 43.9131C143.45 43.9131 143.401 43.9375 143.316 43.9375H142.962V44.8656H146.649V43.9375H146.295C145.856 43.9375 145.184 43.4246 144.769 42.7774L144.647 42.6431L141.215 36.9524C144.476 36.6105 147.077 33.9484 147.346 30.6879H147.382V30.1383C147.382 28.3432 146.674 26.6336 145.379 25.3025L145.392 25.2903ZM139.896 35.8656H139.542H132.313V24.3256H139.896C141.447 24.3256 142.901 24.924 144 26.0108C145.086 27.0976 145.685 28.5386 145.685 30.0773C145.685 33.2645 143.084 35.8656 139.896 35.8656Z" fill="#005A64"/>
<path d="M154.82 25.2048C154.82 24.1913 155.015 24.1913 155.394 24.1913H155.748V23.2632H152.194V24.2035H152.548C152.939 24.2035 153.122 24.2035 153.122 25.217V42.9606C153.098 43.9497 152.903 43.9497 152.548 43.9497H152.194V44.8778H155.724V43.9497H155.369C155.003 43.9497 154.808 43.9497 154.795 43.0461L154.82 43.0094V25.217V25.2048Z" fill="#005A64"/>
<path d="M169.217 33.7287C165.761 32.6419 162.489 31.6161 162.489 28.5754H162.135L162.122 28.5509H162.135L162.452 28.5387C162.452 24.0815 168.362 23.9472 169.034 23.9472C171.672 23.9472 172.978 25.6568 173.04 25.7301L173.381 26.1941L174.102 24.7043L173.943 24.5333C173.882 24.4723 172.502 22.958 169.071 22.958C167.202 22.958 161.084 23.4221 161.084 29.3203C161.084 33.4967 164.931 34.5713 168.326 35.5116C171.403 36.3664 174.065 37.1113 174.065 39.7368C174.065 41.8006 173.333 44.1696 167.642 44.1696C164.748 44.1696 163.234 43.6201 162.257 43.1439C161.658 42.8386 161.585 42.228 161.585 42.2036L161.487 41.0435L160.181 43.437L160.437 43.6201C160.523 43.6812 162.708 45.2076 167.703 45.2076C173.137 45.2076 176.251 43.0706 176.251 39.346C176.251 35.9634 172.673 34.8399 169.217 33.7531V33.7287Z" fill="#005A64"/>
<path d="M173.93 58.8235C173.564 58.8235 173.234 58.7503 172.953 58.6037C172.66 58.4572 172.428 58.2496 172.233 57.9932C172.05 57.7245 171.94 57.4314 171.903 57.0773V55.5875C171.94 55.2333 172.062 54.928 172.245 54.6716C172.428 54.4029 172.672 54.2075 172.965 54.061C173.258 53.9145 173.588 53.8534 173.93 53.8534C174.37 53.8534 174.761 53.9633 175.115 54.1831C175.469 54.4029 175.737 54.696 175.945 55.0746C176.153 55.4409 176.263 55.8683 176.263 56.3324C176.263 56.7964 176.165 57.2116 175.957 57.5902C175.75 57.9565 175.469 58.2618 175.115 58.4816C174.761 58.7014 174.37 58.7991 173.93 58.7991V58.8235ZM171.476 58.7259V51.5698H172.184V55.1356L172.037 56.2835L172.184 57.4558V58.7259H171.476ZM173.808 58.1519C174.15 58.1519 174.443 58.0786 174.699 57.9321C174.956 57.7733 175.151 57.5657 175.298 57.2971C175.444 57.0162 175.518 56.7109 175.518 56.3568C175.518 56.0027 175.444 55.6852 175.298 55.4165C175.151 55.1478 174.956 54.9402 174.699 54.7815C174.443 54.6227 174.15 54.5495 173.82 54.5495C173.491 54.5495 173.197 54.6227 172.941 54.7815C172.697 54.9402 172.501 55.1478 172.355 55.4165C172.208 55.6852 172.147 56.0027 172.147 56.3568C172.147 56.7109 172.22 57.0162 172.355 57.2971C172.501 57.5657 172.697 57.7733 172.941 57.9321C173.185 58.0786 173.478 58.1519 173.808 58.1519Z" fill="#005A64"/>
<path d="M168.141 58.8236C167.763 58.8236 167.409 58.7381 167.116 58.555C166.81 58.3718 166.578 58.1275 166.395 57.8223C166.224 57.517 166.139 57.1506 166.139 56.7354V53.9756H166.859V56.711C166.859 57.0041 166.908 57.2483 167.006 57.4681C167.116 57.6879 167.262 57.8467 167.458 57.9688C167.653 58.0909 167.885 58.152 168.129 58.152C168.532 58.152 168.837 58.0176 169.069 57.7612C169.301 57.4925 169.424 57.1506 169.424 56.711V53.9756H170.132V56.7354C170.132 57.1506 170.046 57.5048 169.875 57.8223C169.704 58.1398 169.472 58.384 169.167 58.555C168.862 58.7259 168.52 58.8236 168.129 58.8236H168.141Z" fill="#005A64"/>
<path d="M159.361 58.7258V51.7651H160.094V58.7258H159.361ZM163.916 58.7258V51.7651H164.649V58.7258H163.916ZM159.838 55.4653V54.7936H164.112V55.4653H159.838Z" fill="#005A64"/>
<path d="M153.769 58.8236C153.292 58.8236 152.865 58.7137 152.486 58.5061C152.108 58.2863 151.815 57.9933 151.583 57.6147C151.363 57.2361 151.253 56.8087 151.253 56.3447C151.253 55.8806 151.363 55.4654 151.583 55.0869C151.802 54.7083 152.096 54.4152 152.462 54.1954C152.828 53.9756 153.243 53.8779 153.707 53.8779C154.135 53.8779 154.526 53.9756 154.855 54.171C155.197 54.3664 155.454 54.6351 155.649 54.9892C155.845 55.3311 155.942 55.7341 155.942 56.1859C155.942 56.2348 155.942 56.308 155.942 56.3813C155.942 56.4546 155.918 56.5279 155.906 56.6256H151.79V56.015H155.515L155.258 56.2348C155.258 55.8806 155.21 55.5876 155.075 55.3311C154.953 55.0747 154.77 54.8793 154.538 54.745C154.306 54.5984 154.025 54.5374 153.695 54.5374C153.366 54.5374 153.048 54.6106 152.792 54.7572C152.535 54.9037 152.328 55.1113 152.181 55.38C152.034 55.6486 151.973 55.9539 151.973 56.3203C151.973 56.6866 152.047 57.0041 152.193 57.285C152.352 57.5659 152.56 57.7734 152.828 57.9322C153.109 58.0909 153.427 58.1642 153.781 58.1642C154.074 58.1642 154.33 58.1154 154.575 58.0177C154.819 57.9078 155.026 57.749 155.185 57.5414L155.637 58.0055C155.417 58.2741 155.136 58.4695 154.807 58.6161C154.489 58.7626 154.135 58.8236 153.756 58.8236H153.769Z" fill="#005A64"/>
<path d="M142.998 58.726V53.9756H143.706V58.726H142.998ZM146.259 58.726V55.8196C146.259 55.4288 146.136 55.1235 145.904 54.8915C145.672 54.6595 145.367 54.5374 145.013 54.5374C144.769 54.5374 144.549 54.5862 144.341 54.6961C144.146 54.7938 143.987 54.9403 143.865 55.1357C143.755 55.3189 143.694 55.5509 143.694 55.8074L143.364 55.673C143.364 55.3067 143.45 54.9892 143.609 54.7205C143.767 54.4519 143.987 54.2443 144.256 54.0977C144.537 53.9512 144.842 53.8779 145.184 53.8779C145.526 53.8779 145.819 53.9512 146.088 54.0977C146.356 54.2443 146.564 54.4519 146.723 54.7205C146.881 54.9892 146.967 55.3067 146.967 55.6853V58.726H146.246H146.259ZM149.531 58.726V55.8196C149.531 55.4288 149.409 55.1235 149.177 54.8915C148.945 54.6595 148.64 54.5374 148.273 54.5374C148.041 54.5374 147.822 54.5862 147.614 54.6961C147.419 54.7938 147.26 54.9403 147.138 55.1357C147.028 55.3189 146.967 55.5509 146.967 55.8074L146.539 55.673C146.564 55.3067 146.649 54.9892 146.82 54.7205C146.991 54.4519 147.223 54.2443 147.492 54.0977C147.773 53.9512 148.09 53.8779 148.42 53.8779C148.75 53.8779 149.055 53.9512 149.336 54.0977C149.617 54.2443 149.824 54.4519 149.983 54.7205C150.142 54.9892 150.227 55.3067 150.227 55.6853V58.726H149.519H149.531Z" fill="#005A64"/>
<path d="M140.849 58.7257V53.9754H141.57V58.7257H140.849ZM141.203 52.9374C141.069 52.9374 140.959 52.8885 140.861 52.7909C140.764 52.6932 140.715 52.571 140.715 52.4367C140.715 52.2902 140.764 52.1803 140.861 52.0826C140.959 51.9849 141.069 51.936 141.203 51.936C141.35 51.936 141.472 51.9849 141.557 52.0826C141.655 52.1803 141.704 52.2902 141.704 52.4367C141.704 52.5833 141.655 52.6932 141.557 52.7909C141.472 52.8885 141.35 52.9374 141.203 52.9374Z" fill="#005A64"/>
<path d="M137.967 58.7257V51.9727H138.675V58.7257H137.967ZM136.758 54.6104V53.9754H139.86V54.6104H136.758Z" fill="#005A64"/>
<path d="M135.073 58.7257V53.9754H135.793V58.7257H135.073ZM135.427 52.9374C135.293 52.9374 135.183 52.8885 135.085 52.7909C134.987 52.6932 134.938 52.571 134.938 52.4367C134.938 52.2902 134.987 52.1803 135.085 52.0826C135.183 51.9849 135.293 51.936 135.427 51.936C135.573 51.936 135.696 51.9849 135.781 52.0826C135.879 52.1803 135.928 52.2902 135.928 52.4367C135.928 52.5833 135.879 52.6932 135.781 52.7909C135.696 52.8885 135.573 52.9374 135.427 52.9374Z" fill="#005A64"/>
<path d="M131.067 58.726V53.9756H131.776V58.726H131.067ZM131.776 55.9539L131.483 55.8196C131.483 55.2212 131.629 54.745 131.922 54.3908C132.215 54.0367 132.618 53.8657 133.131 53.8657C133.363 53.8657 133.583 53.9146 133.778 54.0001C133.974 54.0855 134.157 54.2076 134.328 54.3908L133.864 54.8915C133.754 54.7694 133.62 54.6717 133.485 54.6228C133.351 54.574 133.192 54.5374 133.021 54.5374C132.655 54.5374 132.362 54.6595 132.13 54.9037C131.898 55.1357 131.788 55.4899 131.788 55.9539H131.776Z" fill="#005A64"/>
<path d="M127.221 58.8236C126.769 58.8236 126.366 58.7137 126.012 58.5061C125.658 58.2863 125.377 57.9933 125.157 57.6147C124.949 57.2483 124.852 56.8209 124.852 56.3569C124.852 55.8929 124.949 55.4654 125.157 55.0991C125.364 54.7205 125.645 54.4275 126.012 54.2076C126.366 53.9878 126.769 53.8779 127.221 53.8779C127.587 53.8779 127.904 53.9512 128.185 54.0977C128.478 54.2443 128.71 54.4397 128.881 54.7083C129.065 54.9648 129.174 55.2701 129.211 55.612V57.1018C129.174 57.4437 129.065 57.749 128.881 58.0177C128.71 58.2863 128.478 58.4817 128.185 58.6283C127.904 58.7748 127.587 58.8359 127.221 58.8359V58.8236ZM127.331 58.152C127.819 58.152 128.222 57.981 128.515 57.6513C128.82 57.3216 128.967 56.882 128.967 56.3447C128.967 55.9905 128.894 55.673 128.759 55.4044C128.625 55.1235 128.43 54.9159 128.185 54.7694C127.941 54.6106 127.66 54.5374 127.331 54.5374C127.001 54.5374 126.696 54.6106 126.427 54.7694C126.17 54.9281 125.963 55.1357 125.804 55.4166C125.658 55.6853 125.584 55.9905 125.584 56.3447C125.584 56.6988 125.658 57.0041 125.804 57.2728C125.963 57.5414 126.17 57.749 126.427 57.9078C126.683 58.0665 126.989 58.1398 127.331 58.1398V58.152ZM128.93 58.726V57.4559L129.077 56.2836L128.93 55.1357V53.9756H129.639V58.726H128.93Z" fill="#005A64"/>
<path d="M116.877 58.7258V51.7651H117.402L120.406 56.6864H120.028L123.032 51.7651H123.557V58.7258H122.812V53.0596L122.983 53.0962L120.479 57.2115H119.954L117.451 53.0962L117.622 53.0596V58.7258H116.889H116.877Z" fill="#005A64"/>
<path d="M111.285 58.8236C110.808 58.8236 110.381 58.7137 110.002 58.5061C109.624 58.2863 109.331 57.9933 109.099 57.6147C108.879 57.2361 108.781 56.8087 108.781 56.3447C108.781 55.8806 108.891 55.4654 109.099 55.0869C109.319 54.7083 109.612 54.4152 109.978 54.1954C110.344 53.9756 110.76 53.8779 111.224 53.8779C111.651 53.8779 112.042 53.9756 112.371 54.171C112.713 54.3664 112.97 54.6351 113.165 54.9892C113.361 55.3311 113.458 55.7341 113.458 56.1859C113.458 56.2348 113.458 56.308 113.458 56.3813C113.458 56.4546 113.434 56.5279 113.422 56.6256H109.306V56.015H113.031L112.774 56.2348C112.774 55.8806 112.726 55.5876 112.591 55.3311C112.469 55.0747 112.286 54.8793 112.054 54.745C111.822 54.5984 111.541 54.5374 111.211 54.5374C110.882 54.5374 110.564 54.6106 110.308 54.7572C110.051 54.9037 109.844 55.1113 109.697 55.38C109.551 55.6486 109.49 55.9539 109.49 56.3203C109.49 56.6866 109.563 57.0041 109.709 57.285C109.868 57.5659 110.076 57.7734 110.344 57.9322C110.625 58.0909 110.943 58.1642 111.297 58.1642C111.59 58.1642 111.859 58.1154 112.091 58.0177C112.335 57.9078 112.542 57.749 112.701 57.5414L113.153 58.0055C112.933 58.2741 112.652 58.4695 112.323 58.6161C112.005 58.7626 111.651 58.8236 111.272 58.8236H111.285Z" fill="#005A64"/>
<path d="M107.059 58.726V55.9417C107.059 55.5265 106.937 55.1846 106.681 54.9281C106.437 54.6595 106.119 54.5374 105.716 54.5374C105.435 54.5374 105.203 54.5984 104.983 54.7205C104.776 54.8427 104.605 55.0014 104.483 55.2212C104.361 55.4288 104.3 55.673 104.3 55.9417L103.982 55.7585C103.982 55.4044 104.068 55.0869 104.239 54.7938C104.409 54.5129 104.629 54.2931 104.91 54.1222C105.203 53.9634 105.533 53.8779 105.899 53.8779C106.266 53.8779 106.583 53.9634 106.864 54.1466C107.145 54.3176 107.365 54.5618 107.523 54.8549C107.682 55.1479 107.768 55.4777 107.768 55.8196V58.726H107.047H107.059ZM103.604 58.726V53.9756H104.312V58.726H103.604Z" fill="#005A64"/>
<path d="M101.442 58.7257V53.9754H102.162V58.7257H101.442ZM101.796 52.9374C101.662 52.9374 101.552 52.8885 101.454 52.7909C101.356 52.6932 101.308 52.571 101.308 52.4367C101.308 52.2902 101.356 52.1803 101.454 52.0826C101.552 51.9849 101.662 51.936 101.796 51.936C101.943 51.936 102.065 51.9849 102.15 52.0826C102.248 52.1803 102.297 52.2902 102.297 52.4367C102.297 52.5833 102.248 52.6932 102.15 52.7909C102.065 52.8885 101.943 52.9374 101.796 52.9374Z" fill="#005A64"/>
<path d="M99.3047 58.7259V51.5698H100.013V58.7259H99.3047Z" fill="#005A64"/>
<path d="M97.2655 58.726V55.9417C97.2655 55.5265 97.1433 55.1846 96.8869 54.9281C96.6427 54.6595 96.3252 54.5374 95.9222 54.5374C95.6413 54.5374 95.4093 54.5984 95.1895 54.7205C94.9819 54.8427 94.8109 55.0014 94.6888 55.2212C94.5667 55.4288 94.5056 55.673 94.5056 55.9417L94.1881 55.7585C94.1881 55.4044 94.2736 55.0869 94.4446 54.7938C94.6155 54.5129 94.8353 54.2931 95.1162 54.1222C95.4093 53.9634 95.739 53.8779 96.1054 53.8779C96.4717 53.8779 96.7892 53.9634 97.0701 54.1466C97.3509 54.3176 97.5708 54.5618 97.7295 54.8549C97.8883 55.1479 97.9737 55.4777 97.9737 55.8196V58.726H97.2533H97.2655ZM93.8096 58.726V53.9756H94.5178V58.726H93.8096Z" fill="#005A64"/>
<path d="M89.0834 58.8235C88.5949 58.8235 88.1308 58.738 87.7034 58.5549C87.2882 58.3717 86.9219 58.1152 86.6044 57.7855C86.2869 57.4558 86.0427 57.0772 85.8595 56.6376C85.6885 56.198 85.5908 55.734 85.5908 55.2333C85.5908 54.7326 85.6763 54.2564 85.8595 53.8289C86.0304 53.4015 86.2747 53.023 86.5922 52.6933C86.9097 52.3758 87.276 52.1193 87.6912 51.9361C88.1064 51.753 88.5583 51.6675 89.0589 51.6675C89.5596 51.6675 90.0114 51.753 90.4266 51.9361C90.8541 52.1193 91.2204 52.3758 91.5379 52.6933C91.8554 53.0108 92.0996 53.4015 92.2706 53.8412C92.4416 54.2686 92.5393 54.7448 92.5393 55.2455C92.5393 55.7462 92.4538 56.2102 92.2706 56.6498C92.0996 57.0772 91.8554 57.4558 91.5379 57.7855C91.2326 58.103 90.8663 58.3595 90.4511 58.5549C90.0359 58.738 89.584 58.8235 89.0834 58.8235ZM89.0589 58.103C89.584 58.103 90.0481 57.9809 90.4511 57.7245C90.8663 57.4802 91.1838 57.1383 91.4158 56.6987C91.6478 56.2713 91.7699 55.7706 91.7699 55.2211C91.7699 54.8059 91.6967 54.4273 91.5623 54.0854C91.428 53.7312 91.2448 53.426 91.0006 53.1695C90.7564 52.9009 90.4755 52.7055 90.1458 52.5589C89.8283 52.4124 89.4619 52.3513 89.0589 52.3513C88.5338 52.3513 88.0698 52.4734 87.6668 52.7299C87.2638 52.9741 86.9463 53.3038 86.7021 53.7435C86.4701 54.1709 86.3602 54.6715 86.3602 55.2211C86.3602 55.6363 86.4334 56.0148 86.5678 56.369C86.7021 56.7231 86.8853 57.0284 87.1295 57.2848C87.3737 57.5413 87.6546 57.7367 87.9843 57.8832C88.314 58.0298 88.6682 58.0908 89.0589 58.0908V58.103Z" fill="#005A64"/>
<path d="M79.4238 58.726V53.9756H80.1321V58.726H79.4238ZM80.1321 55.9539L79.839 55.8196C79.839 55.2212 79.9856 54.745 80.2786 54.3908C80.5717 54.0367 80.9747 53.8657 81.4876 53.8657C81.7196 53.8657 81.9394 53.9146 82.1348 54.0001C82.3302 54.0855 82.5134 54.2076 82.6843 54.3908L82.2203 54.8915C82.1104 54.7694 81.9761 54.6717 81.8417 54.6228C81.7074 54.574 81.5487 54.5374 81.3777 54.5374C81.0113 54.5374 80.7183 54.6595 80.4862 54.9037C80.2542 55.1357 80.1443 55.4899 80.1443 55.9539H80.1321Z" fill="#005A64"/>
<path d="M76.1023 58.8236C75.7238 58.8236 75.3696 58.7381 75.0765 58.555C74.7712 58.3718 74.5392 58.1275 74.3561 57.8223C74.1851 57.517 74.0996 57.1506 74.0996 56.7354V53.9756H74.8201V56.711C74.8201 57.0041 74.8689 57.2483 74.9666 57.4681C75.0765 57.6879 75.2231 57.8467 75.4185 57.9688C75.6139 58.0909 75.8337 58.152 76.0901 58.152C76.4931 58.152 76.7984 58.0176 77.0304 57.7612C77.2624 57.4925 77.3845 57.1506 77.3845 56.711V53.9756H78.0928V56.7354C78.0928 57.1506 78.0073 57.5048 77.8364 57.8223C77.6654 58.1398 77.4334 58.384 77.1281 58.555C76.8228 58.7259 76.4809 58.8236 76.0901 58.8236H76.1023Z" fill="#005A64"/>
<path d="M70.6201 58.8236C70.156 58.8236 69.7408 58.7137 69.3623 58.4939C68.9959 58.2741 68.6906 57.9688 68.4708 57.5903C68.251 57.2117 68.1533 56.7965 68.1533 56.3325C68.1533 55.8684 68.2632 55.4654 68.4708 55.0869C68.6906 54.7205 68.9837 54.4275 69.3623 54.2076C69.7408 53.9878 70.156 53.8779 70.6201 53.8779C71.0841 53.8779 71.4993 53.9878 71.8779 54.1954C72.2442 54.4152 72.5373 54.7083 72.7571 55.0869C72.9769 55.4532 73.0868 55.8684 73.0868 56.3325C73.0868 56.7965 72.9769 57.2239 72.7571 57.6025C72.5373 57.9688 72.2442 58.2741 71.8779 58.4939C71.5115 58.7137 71.0841 58.8236 70.6201 58.8236ZM70.6201 58.1398C70.962 58.1398 71.2551 58.0665 71.5115 57.9078C71.7802 57.749 71.9756 57.5414 72.1221 57.2606C72.2809 56.9797 72.3541 56.6744 72.3541 56.3325C72.3541 55.9905 72.2809 55.6853 72.1221 55.4166C71.9756 55.1479 71.768 54.9403 71.5115 54.7816C71.2551 54.6228 70.962 54.5496 70.6201 54.5496C70.2781 54.5496 69.9973 54.6228 69.7286 54.7816C69.46 54.9403 69.2646 55.1479 69.118 55.4166C68.9715 55.6853 68.8982 55.9783 68.8982 56.3325C68.8982 56.6866 68.9715 56.9919 69.118 57.2728C69.2646 57.5414 69.4722 57.749 69.7286 57.9078C69.9973 58.0665 70.2904 58.1398 70.6201 58.1398Z" fill="#005A64"/>
<path d="M65.6983 55.856L62.9385 51.7773H63.8055L66.1013 55.2088H65.7349L68.0552 51.7773H68.8978L66.1135 55.856H65.6983ZM65.5518 58.7258V55.3187H66.2967V58.7258H65.5518Z" fill="#005A64"/>
</g>
<defs>
<clipPath id="clip0_7147_2071">
<rect width="176.471" height="60" fill="white"/>
</clipPath>
</defs>
</svg>
