<svg width="148" height="170" viewBox="0 0 148 170" fill="none" xmlns="http://www.w3.org/2000/svg">
<path d="M66.2878 8.59889C69.9451 8.72721 73.6452 8.83415 77.3239 8.70582C78.436 8.66305 79.5268 8.62027 80.639 8.59889C80.532 8.59889 80.4251 8.59889 80.3395 8.5775C75.677 8.29946 70.9504 8.34223 66.3092 8.59889" fill="white"/>
<path d="M123.051 7.87115C123.051 7.87115 97.4926 11.7209 89.7931 26.3287C89.6647 25.8796 88.8734 19.0569 88.6809 16.5973C88.5526 15.0146 88.0607 11.7851 87.1624 10.4591C86.6491 9.6891 85.3444 9.30412 83.7618 8.9833C83.6548 7.27229 83.4837 6.07458 83.1843 5.3474C83.0132 4.91965 82.5213 4.57744 81.8369 4.25663C81.8369 4.17108 81.8369 4.06414 81.8369 3.97859V3.05892C81.8369 1.43346 80.5108 0.107422 78.8854 0.107422H68.0418C66.4164 0.107422 65.0903 1.43346 65.0903 3.05892V3.97859C65.0903 3.97859 65.0903 4.14969 65.0903 4.25663C64.4915 4.51328 64.0637 4.8341 63.8926 5.1763C63.4435 6.05319 63.2082 7.35784 63.0799 8.85498C61.3689 9.1544 60.4492 9.34689 59.7434 10.0527C58.4601 11.3359 58.0965 14.7152 57.9254 16.3407C57.6688 18.6505 56.9844 25.2807 56.9844 25.5801C55.7225 23.2703 54.204 21.2598 52.5144 19.506C52.0224 18.9927 51.5091 18.5222 51.0172 18.0517C40.0881 8.23473 23.7266 7.84976 23.7266 7.84976C42.1627 17.7736 48.1299 22.6072 53.2415 44.7435C54.6104 50.6465 56.685 55.4159 58.9734 59.2443C59.2301 62.26 59.5295 64.8907 59.8717 66.4734C61.1978 72.7399 62.0533 79.0707 63.8284 85.2517C65.625 91.4328 68.384 97.5283 73.0893 102.447C75.5489 98.9612 77.6235 95.2825 79.2917 91.4755C81.7085 85.9575 83.5906 79.6482 84.4462 75.5845C85.0878 72.6116 86.3283 66.6658 86.756 63.6502C86.8844 62.6663 87.0341 61.49 87.1838 60.2068C89.7289 56.2287 92.0388 51.1384 93.5359 44.7221C98.6476 22.5859 104.593 17.7736 123.051 7.82837M56.5994 44.7863C56.2358 41.4926 55.9364 38.1775 55.1451 34.9265C54.1184 31.5901 53.4126 29.3444 51.4664 26.8848C50.8461 26.0721 50.2045 25.3021 49.5629 24.5321C49.9692 24.9385 50.3542 25.3449 50.7606 25.7726C53.3057 28.4247 55.0809 30.4993 56.4283 33.5577C56.6208 33.9855 57.3694 35.6965 57.8399 38.0491C58.0965 39.2896 58.1393 40.1024 58.3318 42.2625C58.3746 42.6903 58.7168 46.6684 58.8879 48.2511C59.1018 50.1332 59.5295 52.828 60.5134 56.1217C58.8665 52.4858 57.0699 48.7858 56.5994 44.7863ZM82.4143 52.9563C81.8369 56.1217 81.3022 62.7305 80.8744 65.9814C80.2969 70.4087 79.0565 77.2955 77.431 83.3268C76.3188 87.4974 74.9286 91.4969 73.2818 95.3253C70.1378 89.9356 68.2985 83.2841 67.1008 76.5256C65.903 69.7671 65.3256 62.8588 64.4487 56.0148C63.8712 51.5234 63.7001 49.2135 63.529 46.7539C63.144 40.8082 63.2082 35.5468 63.2724 30.371C63.3151 27.3767 63.3579 26.1362 63.3793 22.5003C63.3793 17.4528 63.3793 15.3141 63.3793 15.3141C63.3365 8.9833 63.1868 5.71099 64.8764 4.89826C65.0903 4.79132 65.2828 4.74855 65.3897 4.74855V3.01614C65.3897 1.58317 66.5447 0.428237 67.9777 0.428237H78.8426C80.2756 0.428237 81.4305 1.58317 81.4305 3.01614V4.72716C81.9866 5.0052 82.3716 5.32601 82.5213 5.6896C83.5265 8.08502 82.949 15.9771 83.4623 30.4565C83.6762 36.0815 82.7779 50.6893 82.3716 52.9563H82.4143ZM89.9 44.7863C89.4295 48.7858 87.6329 52.4858 85.9861 56.1217C86.9913 52.828 87.419 50.1332 87.6115 48.2511C87.7826 46.647 88.1248 42.6689 88.1676 42.2625C88.3601 40.081 88.4029 39.2896 88.6595 38.0491C89.1514 35.6965 89.8786 33.9855 90.0711 33.5577C91.4185 30.4993 93.1937 28.4247 95.7388 25.7726C96.1452 25.3663 96.5302 24.9599 96.9366 24.5321C96.2949 25.3021 95.6533 26.0934 95.0331 26.8848C93.0868 29.3444 92.3596 31.5901 91.3544 34.9265C90.5844 38.1561 90.285 41.4926 89.9 44.7863Z" fill="white"/>
<path d="M68.833 77.0821C69.8596 82.4076 71.0359 84.4822 72.3405 89.5511L67.4214 63.8645C67.5925 67.2224 68.1913 73.7884 68.833 77.0821Z" fill="white"/>
<path d="M77.1741 77.3384C77.8157 74.0447 78.4146 67.4787 78.5857 64.1208L73.6665 89.8074C74.9712 84.7386 76.1261 82.664 77.1741 77.3384Z" fill="white"/>
<path d="M75.185 18.8215H71.6132C69.5814 18.8215 67.9346 20.4684 67.9346 22.5002V53.1274C67.9346 55.1592 69.5814 56.806 71.6132 56.806H75.185C77.2168 56.806 78.8637 55.1592 78.8637 53.1274V22.5002C78.8637 20.4684 77.2168 18.8215 75.185 18.8215Z" fill="white"/>
<path d="M67.9344 7.93614V7.78643C68.0627 5.5835 68.0414 3.35918 67.9344 1.15625C67.8703 2.88865 67.8489 4.62105 67.8916 6.37484C67.8916 6.88814 67.9344 7.42284 67.9344 7.93614Z" fill="white"/>
<path d="M66.9076 7.93614V7.78643C67.0359 5.5835 67.0145 3.35918 66.9076 1.15625C66.8434 2.88865 66.822 4.62105 66.8648 6.37484C66.8648 6.88814 66.9076 7.42284 66.9076 7.93614Z" fill="white"/>
<path d="M69.9452 7.93614V7.78643C70.0735 5.5835 70.0521 3.35918 69.9452 1.15625C69.881 2.88865 69.8596 4.62105 69.9024 6.37484C69.9024 6.88814 69.9452 7.42284 69.9452 7.93614Z" fill="white"/>
<path d="M68.94 7.93614V7.78643C69.0684 5.5835 69.047 3.35918 68.94 1.15625C68.8759 2.88865 68.8545 4.62105 68.8973 6.37484C68.8973 6.88814 68.94 7.42284 68.94 7.93614Z" fill="white"/>
<path d="M71.9771 7.93614V7.78643C72.1055 5.5835 72.0841 3.35918 71.9771 1.15625C71.913 2.88865 71.8916 4.62105 71.9344 6.37484C71.9344 6.88814 71.9771 7.42284 71.9771 7.93614Z" fill="white"/>
<path d="M70.972 7.93614V7.78643C71.1003 5.5835 71.079 3.35918 70.972 1.15625C70.9078 2.88865 70.8865 4.62105 70.9292 6.37484C70.9292 6.88814 70.972 7.42284 70.972 7.93614Z" fill="white"/>
<path d="M74.0086 7.93614V7.78643C74.137 5.5835 74.1156 3.35918 74.0086 1.15625C73.9445 2.88865 73.9231 4.62105 73.9659 6.37484C73.9659 6.88814 74.0086 7.42284 74.0086 7.93614Z" fill="white"/>
<path d="M73.0033 7.93614V7.78643C73.1316 5.5835 73.1102 3.35918 73.0033 1.15625C72.9391 2.88865 72.9177 4.62105 72.9605 6.37484C72.9605 6.88814 73.0033 7.42284 73.0033 7.93614Z" fill="white"/>
<path d="M76.0404 7.93614V7.78643C76.1687 5.5835 76.1473 3.35918 76.0404 1.15625C75.9762 2.88865 75.9548 4.62105 75.9976 6.37484C75.9976 6.88814 76.0404 7.42284 76.0404 7.93614Z" fill="white"/>
<path d="M75.0138 7.93614V7.78643C75.1421 5.5835 75.1207 3.35918 75.0138 1.15625C74.9496 2.88865 74.9282 4.62105 74.971 6.37484C74.971 6.88814 75.0138 7.42284 75.0138 7.93614Z" fill="white"/>
<path d="M78.0719 7.93614V7.78643C78.2002 5.5835 78.1788 3.35918 78.0719 1.15625C78.0077 2.88865 77.9863 4.62105 78.0291 6.37484C78.0291 6.88814 78.0719 7.42284 78.0719 7.93614Z" fill="white"/>
<path d="M77.0455 7.93614V7.78643C77.1738 5.5835 77.1524 3.35918 77.0455 1.15625C76.9813 2.88865 76.9599 4.62105 77.0027 6.37484C77.0027 6.88814 77.0455 7.42284 77.0455 7.93614Z" fill="white"/>
<path d="M80.0401 7.93614V7.78643C80.1685 5.5835 80.1471 3.35918 80.0401 1.15625C79.976 2.88865 79.9546 4.62105 79.9974 6.37484C79.9974 6.88814 80.0401 7.42284 80.0401 7.93614Z" fill="white"/>
<path d="M79.035 7.93614V7.78643C79.1633 5.5835 79.1419 3.35918 79.035 1.15625C78.9708 2.88865 78.9494 4.62105 78.9922 6.37484C78.9922 6.88814 79.035 7.42284 79.035 7.93614Z" fill="white"/>
<path d="M105.706 34.7559C104.914 35.2692 104.123 35.7825 103.417 36.4241C102.925 36.8946 102.498 37.4293 102.091 37.964C101.171 39.2259 100.423 40.6161 99.4605 41.8566C98.3911 43.1826 97.1292 44.3162 95.9529 45.5353C98.0489 44.1237 100.273 42.7335 101.856 40.7444C103.161 39.0976 104.444 37.3866 105.941 35.9108C107.609 34.4564 108.743 33.4726 110.625 32.8096C111.224 32.5743 111.844 32.3818 112.443 32.168C112.101 32.2535 111.737 32.3391 111.395 32.4246C109.384 32.8951 107.459 33.6009 105.727 34.7131" fill="white"/>
<path d="M131.499 13.5176C130.857 13.5604 130.215 13.6031 129.574 13.6245C125.917 13.7742 122.43 14.3517 119.479 15.635C118.11 16.2124 116.784 16.8327 115.629 17.6454C114.859 18.287 114.153 18.9714 113.554 19.7414C112.164 21.5166 111.159 23.527 109.683 25.2166C108.036 27.0346 105.962 28.4889 104.101 30.1358C107.694 28.4889 111.458 26.9063 113.918 24.1686C115.928 21.9015 117.832 19.5489 120.249 17.6026C122.986 15.7419 124.869 14.5228 128.226 13.9881C129.317 13.817 130.408 13.6673 131.499 13.5176Z" fill="white"/>
<path d="M38.5691 36.4036C40.0662 37.8793 41.3495 39.5903 42.6541 41.2158C44.2582 43.2262 46.4611 44.6164 48.5571 46.0066C47.3808 44.7875 46.1189 43.6326 45.0496 42.328C44.0871 41.0875 43.3385 39.6973 42.4189 38.4354C42.0125 37.8793 41.5634 37.366 41.0928 36.8955C40.387 36.2539 39.5957 35.7406 38.8044 35.2273C37.072 34.1151 35.1471 33.3879 33.1366 32.9388C32.7944 32.8532 32.4308 32.7677 32.0886 32.6821C32.7089 32.896 33.3077 33.0885 33.9066 33.3238C35.7887 33.9868 36.9222 34.9706 38.5905 36.425L38.5691 36.4036Z" fill="white"/>
<path d="M42.3976 29.8802C40.5369 28.2547 38.4409 26.8004 36.8154 24.961C35.3397 23.2714 34.3345 21.2396 32.9443 19.4858C32.3454 18.7158 31.6396 18.01 30.8696 17.3898C29.7147 16.5771 28.3887 15.9568 27.0199 15.3793C24.047 14.0961 20.5822 13.5186 16.9249 13.3689C16.2833 13.3261 15.6416 13.2834 15 13.262C16.0908 13.4117 17.2029 13.5614 18.2723 13.7325C21.6516 14.2458 23.5123 15.4863 26.2499 17.347C28.6881 19.2719 30.5916 21.6245 32.5807 23.913C35.0189 26.672 38.8045 28.2547 42.3976 29.8802Z" fill="white"/>
<path d="M21.7673 122.829V124.068H22.228C22.7365 124.068 22.9907 124.068 23.0224 125.339V148.647L3.89288 122.844H0.0161133V124.036L0.4451 124.052C0.4451 124.052 1.06475 124.084 1.70028 124.322V148.52C1.6685 149.712 1.41429 149.712 0.953526 149.712H0.492763V150.919H4.21064V149.712H3.74988C3.24145 149.712 3.00313 149.712 3.00313 148.345V125.45L21.8785 150.919H24.2935V125.323C24.3253 124.036 24.5636 124.036 25.0879 124.036H25.5487V122.829H21.7832H21.7673Z" fill="white"/>
<path d="M49.3493 122.861V124.068H49.81C50.3185 124.068 50.5727 124.068 50.6521 125.085V141.831C50.6521 146.058 47.0613 149.235 42.3107 149.235L39.5462 149.188C37.0358 149.188 32.4123 146.153 32.4123 141.831L32.2375 124.767C32.3329 124.1 32.5235 124.036 33.0002 124.036H33.4609V122.829H28.6309V124.036H29.0916C29.6001 124.036 29.8225 124.036 29.886 125.006V141.8C29.886 146.836 34.2394 150.935 39.5779 150.935H42.3425C47.6651 150.935 51.9867 146.836 51.9867 141.8V125.435C51.9867 124.036 52.2251 124.036 52.8288 124.036H53.2896V122.813L49.3969 122.861H49.3493Z" fill="white"/>
<path d="M81.2213 149.823C80.697 149.823 80.2998 149.569 79.9979 149.045V148.981L79.6642 148.234L70.7668 124.243C70.8621 124.164 71.0051 124.116 71.3387 124.116H71.7995V122.908H68.3994L58.0402 148.234L57.6906 149.14C57.3411 149.68 56.8803 149.792 56.5626 149.792H56.1018V150.999H59.6926V149.792H59.2318C59.0412 149.792 58.9617 149.76 58.9458 149.76C58.9458 149.728 58.914 149.569 59.1047 149.124L62.7908 140.084H74.4211L77.9801 149.776C77.9801 149.776 77.7894 149.839 77.5511 149.839H77.0903V151.047H81.6821V149.839H81.2213V149.823ZM63.331 138.813L68.8919 125.196L73.9127 138.813H63.331Z" fill="white"/>
<path d="M107.278 125.482C105.562 123.814 103.322 122.892 100.955 122.892H86.814V124.1H87.2747C87.7355 124.1 87.9897 124.1 88.0215 125.244V148.631C87.9897 149.791 87.7355 149.791 87.2747 149.791H86.814V150.999H91.4375V149.791H90.9767C90.4683 149.791 90.23 149.791 90.23 148.393V140.687H99.3181L104.371 148.806C104.8 149.458 104.768 149.712 104.768 149.712C104.752 149.712 104.688 149.744 104.577 149.744H104.116V150.951H108.915V149.744H108.454C107.882 149.744 107.008 149.076 106.468 148.234L106.309 148.059L101.844 140.656C106.087 140.211 109.471 136.747 109.82 132.505H109.868V131.79C109.868 129.454 108.946 127.23 107.262 125.498L107.278 125.482ZM100.128 139.241H99.6676H90.2617V124.227H100.128C102.146 124.227 104.037 125.005 105.467 126.42C106.881 127.834 107.659 129.708 107.659 131.71C107.659 135.857 104.275 139.241 100.128 139.241Z" fill="white"/>
<path d="M119.544 125.371C119.544 124.052 119.798 124.052 120.291 124.052H120.751V122.845H116.128V124.068H116.589C117.097 124.068 117.335 124.068 117.335 125.387V148.473C117.304 149.76 117.049 149.76 116.589 149.76H116.128V150.967H120.72V149.76H120.259C119.782 149.76 119.528 149.76 119.512 148.584L119.544 148.536V125.387V125.371Z" fill="white"/>
<path d="M138.277 136.461C133.78 135.047 129.522 133.712 129.522 129.756H129.061L129.046 129.724H129.061L129.475 129.708C129.475 123.909 137.164 123.734 138.038 123.734C141.47 123.734 143.17 125.959 143.25 126.054L143.695 126.658L144.632 124.72L144.425 124.497C144.346 124.418 142.551 122.448 138.086 122.448C135.655 122.448 127.695 123.051 127.695 130.725C127.695 136.159 132.7 137.557 137.117 138.781C141.121 139.893 144.584 140.862 144.584 144.278C144.584 146.963 143.631 150.046 136.227 150.046C132.462 150.046 130.491 149.331 129.22 148.711C128.442 148.314 128.346 147.519 128.346 147.488L128.219 145.978L126.519 149.092L126.853 149.331C126.964 149.41 129.808 151.396 136.307 151.396C143.377 151.396 147.428 148.616 147.428 143.77C147.428 139.369 142.773 137.907 138.277 136.493V136.461Z" fill="white"/>
<path d="M144.409 169.112C143.933 169.112 143.504 169.016 143.138 168.826C142.757 168.635 142.455 168.365 142.201 168.031C141.963 167.682 141.82 167.3 141.772 166.839V164.901C141.82 164.44 141.978 164.043 142.217 163.709C142.455 163.36 142.773 163.106 143.154 162.915C143.536 162.724 143.964 162.645 144.409 162.645C144.981 162.645 145.49 162.788 145.951 163.074C146.411 163.36 146.761 163.741 147.031 164.234C147.301 164.71 147.444 165.267 147.444 165.87C147.444 166.474 147.317 167.014 147.047 167.507C146.777 167.983 146.411 168.381 145.951 168.667C145.49 168.953 144.981 169.08 144.409 169.08V169.112ZM141.216 168.984V159.674H142.137V164.313L141.947 165.807L142.137 167.332V168.984H141.216ZM144.251 168.238C144.695 168.238 145.077 168.142 145.41 167.952C145.744 167.745 145.998 167.475 146.189 167.125C146.38 166.76 146.475 166.363 146.475 165.902C146.475 165.441 146.38 165.028 146.189 164.679C145.998 164.329 145.744 164.059 145.41 163.852C145.077 163.646 144.695 163.551 144.266 163.551C143.837 163.551 143.456 163.646 143.122 163.852C142.805 164.059 142.55 164.329 142.36 164.679C142.169 165.028 142.09 165.441 142.09 165.902C142.09 166.363 142.185 166.76 142.36 167.125C142.55 167.475 142.805 167.745 143.122 167.952C143.44 168.142 143.822 168.238 144.251 168.238Z" fill="white"/>
<path d="M136.878 169.111C136.386 169.111 135.925 169 135.544 168.762C135.146 168.524 134.844 168.206 134.606 167.809C134.384 167.411 134.272 166.935 134.272 166.394V162.804H135.21V166.363C135.21 166.744 135.273 167.062 135.401 167.348C135.544 167.634 135.734 167.84 135.988 167.999C136.243 168.158 136.544 168.238 136.862 168.238C137.387 168.238 137.784 168.063 138.086 167.729C138.388 167.38 138.546 166.935 138.546 166.363V162.804H139.468V166.394C139.468 166.935 139.357 167.395 139.134 167.809C138.912 168.222 138.61 168.539 138.213 168.762C137.816 168.984 137.371 169.111 136.862 169.111H136.878Z" fill="white"/>
<path d="M125.455 168.985V159.928H126.408V168.985H125.455ZM131.381 168.985V159.928H132.334V168.985H131.381ZM126.074 164.742V163.869H131.635V164.742H126.074Z" fill="white"/>
<path d="M118.177 169.112C117.558 169.112 117.002 168.969 116.509 168.698C116.016 168.412 115.635 168.031 115.333 167.539C115.047 167.046 114.904 166.49 114.904 165.886C114.904 165.282 115.047 164.742 115.333 164.25C115.619 163.757 116.001 163.376 116.477 163.09C116.954 162.804 117.494 162.677 118.098 162.677C118.654 162.677 119.162 162.804 119.591 163.058C120.036 163.312 120.37 163.662 120.624 164.123C120.878 164.567 121.005 165.092 121.005 165.68C121.005 165.743 121.005 165.839 121.005 165.934C121.005 166.029 120.974 166.125 120.958 166.252H115.603V165.457H120.449L120.116 165.743C120.116 165.282 120.052 164.901 119.877 164.567C119.718 164.234 119.48 163.98 119.178 163.805C118.876 163.614 118.511 163.535 118.082 163.535C117.653 163.535 117.24 163.63 116.906 163.821C116.573 164.011 116.302 164.281 116.112 164.631C115.921 164.981 115.842 165.378 115.842 165.854C115.842 166.331 115.937 166.744 116.128 167.11C116.334 167.475 116.604 167.745 116.954 167.952C117.319 168.158 117.732 168.254 118.193 168.254C118.575 168.254 118.908 168.19 119.226 168.063C119.544 167.92 119.814 167.713 120.02 167.443L120.608 168.047C120.322 168.397 119.957 168.651 119.528 168.841C119.115 169.032 118.654 169.112 118.161 169.112H118.177Z" fill="white"/>
<path d="M104.164 168.984V162.804H105.086V168.984H104.164ZM108.406 168.984V165.203C108.406 164.695 108.247 164.297 107.945 163.995C107.644 163.694 107.246 163.535 106.786 163.535C106.468 163.535 106.182 163.598 105.912 163.741C105.658 163.868 105.451 164.059 105.292 164.313C105.149 164.552 105.07 164.853 105.07 165.187L104.641 165.012C104.641 164.536 104.752 164.123 104.958 163.773C105.165 163.424 105.451 163.153 105.801 162.963C106.166 162.772 106.563 162.677 107.008 162.677C107.453 162.677 107.834 162.772 108.184 162.963C108.533 163.153 108.803 163.424 109.01 163.773C109.217 164.123 109.328 164.536 109.328 165.028V168.984H108.39H108.406ZM112.664 168.984V165.203C112.664 164.695 112.505 164.297 112.204 163.995C111.902 163.694 111.504 163.535 111.028 163.535C110.726 163.535 110.44 163.598 110.17 163.741C109.916 163.868 109.709 164.059 109.55 164.313C109.407 164.552 109.328 164.853 109.328 165.187L108.772 165.012C108.803 164.536 108.915 164.123 109.137 163.773C109.36 163.424 109.661 163.153 110.011 162.963C110.376 162.772 110.79 162.677 111.218 162.677C111.647 162.677 112.045 162.772 112.41 162.963C112.776 163.153 113.046 163.424 113.252 163.773C113.459 164.123 113.57 164.536 113.57 165.028V168.984H112.648H112.664Z" fill="white"/>
<path d="M101.368 168.984V162.804H102.305V168.984H101.368ZM101.828 161.453C101.654 161.453 101.511 161.39 101.384 161.263C101.256 161.135 101.193 160.977 101.193 160.802C101.193 160.611 101.256 160.468 101.384 160.341C101.511 160.214 101.654 160.15 101.828 160.15C102.019 160.15 102.178 160.214 102.289 160.341C102.416 160.468 102.48 160.611 102.48 160.802C102.48 160.992 102.416 161.135 102.289 161.263C102.178 161.39 102.019 161.453 101.828 161.453Z" fill="white"/>
<path d="M97.6179 168.985V160.198H98.5394V168.985H97.6179ZM96.0449 163.63V162.804H100.081V163.63H96.0449Z" fill="white"/>
<path d="M93.8525 168.984V162.804H94.7899V168.984H93.8525ZM94.3133 161.453C94.1385 161.453 93.9955 161.39 93.8684 161.263C93.7413 161.135 93.6777 160.977 93.6777 160.802C93.6777 160.611 93.7413 160.468 93.8684 160.341C93.9955 160.214 94.1385 160.15 94.3133 160.15C94.5039 160.15 94.6628 160.214 94.774 160.341C94.9011 160.468 94.9647 160.611 94.9647 160.802C94.9647 160.992 94.9011 161.135 94.774 161.263C94.6628 161.39 94.5039 161.453 94.3133 161.453Z" fill="white"/>
<path d="M88.6411 168.984V162.804H89.5626V168.984H88.6411ZM89.5626 165.378L89.1813 165.203C89.1813 164.424 89.372 163.805 89.7533 163.344C90.1346 162.883 90.6589 162.661 91.3262 162.661C91.6281 162.661 91.9141 162.724 92.1683 162.836C92.4225 162.947 92.6609 163.106 92.8833 163.344L92.2795 163.996C92.1366 163.837 91.9618 163.71 91.787 163.646C91.6122 163.582 91.4057 163.535 91.1832 163.535C90.7066 163.535 90.3253 163.694 90.0234 164.011C89.7215 164.313 89.5785 164.774 89.5785 165.378H89.5626Z" fill="white"/>
<path d="M83.6363 169.112C83.0484 169.112 82.5241 168.969 82.0634 168.698C81.6026 168.412 81.2372 168.031 80.9512 167.539C80.6811 167.062 80.554 166.506 80.554 165.902C80.554 165.298 80.6811 164.742 80.9512 164.266C81.2213 163.773 81.5867 163.392 82.0634 163.106C82.5241 162.82 83.0484 162.677 83.6363 162.677C84.113 162.677 84.526 162.772 84.8915 162.963C85.2728 163.153 85.5747 163.408 85.7971 163.757C86.0354 164.091 86.1784 164.488 86.2261 164.933V166.871C86.1784 167.316 86.0354 167.713 85.7971 168.063C85.5747 168.412 85.2728 168.667 84.8915 168.857C84.526 169.048 84.113 169.127 83.6363 169.127V169.112ZM83.7793 168.238C84.4148 168.238 84.9391 168.015 85.3205 167.586C85.7177 167.157 85.9083 166.585 85.9083 165.886C85.9083 165.425 85.813 165.012 85.6382 164.663C85.4635 164.297 85.2092 164.027 84.8915 163.837C84.5737 163.63 84.2083 163.535 83.7793 163.535C83.3503 163.535 82.9531 163.63 82.6036 163.837C82.2699 164.043 81.9998 164.313 81.7932 164.679C81.6026 165.028 81.5073 165.425 81.5073 165.886C81.5073 166.347 81.6026 166.744 81.7932 167.094C81.9998 167.443 82.2699 167.713 82.6036 167.92C82.9372 168.126 83.3344 168.222 83.7793 168.222V168.238ZM85.8607 168.984V167.332L86.0513 165.807L85.8607 164.313V162.804H86.7822V168.984H85.8607Z" fill="white"/>
<path d="M70.1787 168.985V159.928H70.8619L74.7704 166.331H74.2779L78.1864 159.928H78.8696V168.985H77.9005V161.612L78.1229 161.66L74.8658 167.014H74.1826L70.9255 161.66L71.1479 161.612V168.985H70.1946H70.1787Z" fill="white"/>
<path d="M62.9021 169.112C62.2825 169.112 61.7264 168.969 61.2339 168.698C60.7413 168.412 60.36 168.031 60.0581 167.539C59.7721 167.046 59.645 166.49 59.645 165.886C59.645 165.282 59.788 164.742 60.0581 164.25C60.3441 163.757 60.7254 163.376 61.2021 163.09C61.6787 162.804 62.2189 162.677 62.8227 162.677C63.3788 162.677 63.8872 162.804 64.3162 163.058C64.7611 163.312 65.0947 163.662 65.3489 164.123C65.6031 164.567 65.7303 165.092 65.7303 165.68C65.7303 165.743 65.7303 165.839 65.7303 165.934C65.7303 166.029 65.6985 166.125 65.6826 166.252H60.3282V165.457H65.1742L64.8405 165.743C64.8405 165.282 64.7769 164.901 64.6022 164.567C64.4433 164.234 64.205 163.98 63.9031 163.805C63.6012 163.614 63.2358 163.535 62.8068 163.535C62.3778 163.535 61.9647 163.63 61.6311 163.821C61.2974 164.011 61.0273 164.281 60.8366 164.631C60.646 164.981 60.5665 165.378 60.5665 165.854C60.5665 166.331 60.6619 166.744 60.8525 167.11C61.0591 167.475 61.3292 167.745 61.6787 167.952C62.0442 168.158 62.4573 168.254 62.918 168.254C63.2993 168.254 63.6489 168.19 63.9508 168.063C64.2685 167.92 64.5386 167.713 64.7452 167.443L65.3331 168.047C65.0471 168.397 64.6816 168.651 64.2526 168.841C63.8395 169.032 63.3788 169.112 62.8862 169.112H62.9021Z" fill="white"/>
<path d="M57.4049 168.984V165.362C57.4049 164.822 57.246 164.377 56.9123 164.043C56.5946 163.694 56.1815 163.535 55.6571 163.535C55.2917 163.535 54.9898 163.614 54.7038 163.773C54.4337 163.932 54.2113 164.138 54.0524 164.424C53.8935 164.695 53.8141 165.012 53.8141 165.362L53.401 165.124C53.401 164.663 53.5122 164.25 53.7346 163.868C53.9571 163.503 54.2431 163.217 54.6085 162.995C54.9898 162.788 55.4188 162.677 55.8955 162.677C56.3721 162.677 56.7852 162.788 57.1506 163.026C57.5161 163.249 57.8021 163.567 58.0086 163.948C58.2152 164.329 58.3264 164.758 58.3264 165.203V168.984H57.389H57.4049ZM52.9084 168.984V162.804H53.83V168.984H52.9084Z" fill="white"/>
<path d="M50.0959 168.984V162.804H51.0333V168.984H50.0959ZM50.5567 161.453C50.3819 161.453 50.2389 161.39 50.1118 161.263C49.9847 161.135 49.9211 160.977 49.9211 160.802C49.9211 160.611 49.9847 160.468 50.1118 160.341C50.2389 160.214 50.3819 160.15 50.5567 160.15C50.7473 160.15 50.9062 160.214 51.0174 160.341C51.1445 160.468 51.2081 160.611 51.2081 160.802C51.2081 160.992 51.1445 161.135 51.0174 161.263C50.9062 161.39 50.7473 161.453 50.5567 161.453Z" fill="white"/>
<path d="M47.3154 168.984V159.674H48.237V168.984H47.3154Z" fill="white"/>
<path d="M44.6622 168.984V165.362C44.6622 164.822 44.5033 164.377 44.1696 164.043C43.8519 163.694 43.4388 163.535 42.9145 163.535C42.549 163.535 42.2471 163.614 41.9612 163.773C41.691 163.932 41.4686 164.138 41.3097 164.424C41.1509 164.695 41.0714 165.012 41.0714 165.362L40.6583 165.124C40.6583 164.663 40.7695 164.25 40.992 163.868C41.2144 163.503 41.5004 163.217 41.8658 162.995C42.2471 162.788 42.6761 162.677 43.1528 162.677C43.6294 162.677 44.0425 162.788 44.408 163.026C44.7734 163.249 45.0594 163.567 45.2659 163.948C45.4725 164.329 45.5837 164.758 45.5837 165.203V168.984H44.6463H44.6622ZM40.1658 168.984V162.804H41.0873V168.984H40.1658Z" fill="white"/>
<path d="M34.017 169.111C33.3814 169.111 32.7777 169 32.2216 168.762C31.6814 168.523 31.2047 168.19 30.7916 167.761C30.3785 167.332 30.0608 166.839 29.8224 166.267C29.6 165.695 29.4729 165.092 29.4729 164.44C29.4729 163.789 29.5841 163.169 29.8224 162.613C30.0449 162.057 30.3627 161.564 30.7758 161.135C31.1889 160.722 31.6655 160.389 32.2057 160.15C32.7459 159.912 33.3338 159.801 33.9852 159.801C34.6366 159.801 35.2245 159.912 35.7647 160.15C36.3208 160.389 36.7974 160.722 37.2105 161.135C37.6236 161.549 37.9414 162.057 38.1638 162.629C38.3863 163.185 38.5134 163.805 38.5134 164.456C38.5134 165.107 38.4022 165.711 38.1638 166.283C37.9414 166.839 37.6236 167.332 37.2105 167.761C36.8133 168.174 36.3367 168.508 35.7965 168.762C35.2563 169 34.6684 169.111 34.017 169.111ZM33.9852 168.174C34.6684 168.174 35.2722 168.015 35.7965 167.681C36.3367 167.364 36.7498 166.919 37.0517 166.347C37.3535 165.791 37.5124 165.139 37.5124 164.424C37.5124 163.884 37.4171 163.392 37.2423 162.947C37.0675 162.486 36.8292 162.089 36.5114 161.755C36.1937 161.406 35.8282 161.151 35.3993 160.961C34.9862 160.77 34.5095 160.691 33.9852 160.691C33.302 160.691 32.6982 160.849 32.1739 161.183C31.6496 161.501 31.2365 161.93 30.9187 162.502C30.6169 163.058 30.4739 163.709 30.4739 164.424C30.4739 164.964 30.5692 165.457 30.744 165.918C30.9187 166.379 31.1571 166.776 31.4748 167.109C31.7926 167.443 32.158 167.697 32.587 167.888C33.016 168.079 33.4768 168.158 33.9852 168.158V168.174Z" fill="white"/>
<path d="M21.4492 168.984V162.804H22.3707V168.984H21.4492ZM22.3707 165.378L21.9894 165.203C21.9894 164.424 22.1801 163.805 22.5614 163.344C22.9427 162.883 23.467 162.661 24.1344 162.661C24.4362 162.661 24.7222 162.724 24.9764 162.836C25.2306 162.947 25.469 163.106 25.6914 163.344L25.0877 163.996C24.9447 163.837 24.7699 163.71 24.5951 163.646C24.4203 163.582 24.2138 163.535 23.9914 163.535C23.5147 163.535 23.1334 163.694 22.8315 164.011C22.5296 164.313 22.3866 164.774 22.3866 165.378H22.3707Z" fill="white"/>
<path d="M17.1277 169.111C16.6351 169.111 16.1744 169 15.793 168.762C15.3958 168.524 15.094 168.206 14.8556 167.809C14.6332 167.411 14.522 166.935 14.522 166.394V162.804H15.4594V166.363C15.4594 166.744 15.5229 167.062 15.65 167.348C15.793 167.634 15.9837 167.84 16.2379 167.999C16.4921 168.158 16.7781 168.238 17.1118 168.238C17.6361 168.238 18.0333 168.063 18.3352 167.729C18.6371 167.38 18.7959 166.935 18.7959 166.363V162.804H19.7175V166.394C19.7175 166.935 19.6062 167.395 19.3838 167.809C19.1614 168.222 18.8595 168.539 18.4623 168.762C18.0651 168.984 17.6202 169.111 17.1118 169.111H17.1277Z" fill="white"/>
<path d="M9.99363 169.112C9.38987 169.112 8.84966 168.969 8.35712 168.683C7.88047 168.397 7.48326 167.999 7.19727 167.507C6.91128 167.014 6.78418 166.474 6.78418 165.87C6.78418 165.267 6.92717 164.742 7.19727 164.25C7.48326 163.773 7.86458 163.392 8.35712 163.106C8.84966 162.82 9.38987 162.677 9.99363 162.677C10.5974 162.677 11.1376 162.82 11.6301 163.09C12.1068 163.376 12.4881 163.757 12.7741 164.25C13.0601 164.726 13.2031 165.267 13.2031 165.87C13.2031 166.474 13.0601 167.03 12.7741 167.523C12.4881 167.999 12.1068 168.397 11.6301 168.683C11.1535 168.969 10.5974 169.112 9.99363 169.112ZM9.99363 168.222C10.4385 168.222 10.8198 168.126 11.1535 167.92C11.503 167.713 11.7572 167.443 11.9479 167.078C12.1544 166.712 12.2498 166.315 12.2498 165.87C12.2498 165.425 12.1544 165.028 11.9479 164.679C11.7572 164.329 11.4871 164.059 11.1535 163.852C10.8198 163.646 10.4385 163.551 9.99363 163.551C9.54875 163.551 9.18332 163.646 8.83377 163.852C8.48423 164.059 8.23002 164.329 8.03935 164.679C7.84869 165.028 7.75336 165.41 7.75336 165.87C7.75336 166.331 7.84869 166.728 8.03935 167.094C8.23002 167.443 8.50012 167.713 8.83377 167.92C9.18332 168.126 9.56464 168.222 9.99363 168.222Z" fill="white"/>
<path d="M3.59077 165.251L0 159.944H1.12807L4.11508 164.409H3.63843L6.65722 159.944H7.75351L4.13097 165.251H3.59077ZM3.40011 168.985V164.552H4.3693V168.985H3.40011Z" fill="white"/>
</svg>
