<?xml version="1.0" encoding="UTF-8"?>
<svg id="Layer_1" data-name="Layer 1" xmlns="http://www.w3.org/2000/svg" viewBox="0 0 239.56 258.06">
  <defs>
    <style>
      .cls-1 {
        fill: #005a64;
      }
    </style>
  </defs>
  <path class="cls-1" d="M39.33,208.74c1.48,0,2.18,.47,2.26,3.12v44.63L5.77,208.2H0v.55s1.56,.08,3.04,.78v44.32c-.08,2.5-.78,2.96-2.18,2.96v.55H5.93v-.55c-1.48,0-2.18-.47-2.18-3.28v-43.54c.23,.24,.55,.47,.78,.7l34.57,46.66h3.12v-45.49c.08-2.65,.78-3.12,2.26-3.12v-.55h-5.15v.55Z"/>
  <path class="cls-1" d="M88.57,208.74c1.48,0,2.18,.47,2.34,2.65v30.27c0,8.27-7.1,14.2-15.92,14.2l-4.99-.08c-5.07,0-13.73-5.85-13.73-14.12l-.31-30.98c.23-1.64,.94-2.03,2.18-2.03v-.55h-7.1v.55c1.4,0,2.11,.39,2.26,2.57v30.35c0,8.66,7.49,15.68,16.7,15.68h4.99c9.21,0,16.62-7.02,16.62-15.68v-29.57c0-2.89,.7-3.35,2.34-3.35v-.55l-5.38,.08v.55Z"/>
  <path class="cls-1" d="M136.17,254.94v-.16l-.55-1.25-16.23-43.77c.39-.78,1.02-.94,1.95-.94v-.55h-4.76l-18.49,45.26-.7,1.79c-.7,1.09-1.72,1.56-2.73,1.56v.54h4.84v-.54c-1.33,0-1.72-.55-1.01-2.34l6.87-16.85h22.16l6.79,18.49c-.31,.62-.86,.78-1.72,.78v.55h6.63v-.55c-1.17,0-2.26-.55-3.04-2.03m-30.51-17.87l11.31-27.7,10.22,27.7h-21.54Z"/>
  <path class="cls-1" d="M184,223.49c0-4.21-1.72-7.96-4.45-10.77-2.81-2.73-6.63-4.45-10.85-4.45h-24.73v.55c1.4,0,2.11,.47,2.18,2.89v42.29c-.08,2.42-.78,2.89-2.18,2.89v.55h6.71v-.55c-1.48,0-2.18-.47-2.18-3.35v-14.75h17.71l9.36,15.06c1.17,1.79,1.17,2.97-.31,2.97v.55h2.42v-.16l.08,.16h4.53v-.55c-1.41,0-3.2-1.4-4.29-3.12h-.08l-8.97-14.9c8.27-.16,15.06-6.95,15.06-15.29m-16.78,14.36h-18.65v-28.79h18.65c4.06,0,7.65,1.64,10.22,4.21,2.57,2.58,4.21,6.17,4.21,10.14,0,7.96-6.48,14.43-14.43,14.43"/>
  <path class="cls-1" d="M190.79,208.74c1.48,0,2.18,.47,2.18,3.2v41.74c-.08,2.65-.78,3.12-2.18,3.12v.55h6.63v-.55c-1.48,0-2.18-.47-2.18-3.28l.08-.08v-41.51c0-2.73,.7-3.2,2.18-3.2v-.55h-6.71v.55Z"/>
  <path class="cls-1" d="M207.18,219.83l-.08-.08c0-10.07,11.78-11.63,16.31-11.63,6.71,0,10.07,4.53,10.07,4.53l.86-1.79s-3.04-3.43-10.85-3.43c-2.34,0-17.95,.08-17.95,14.12,0,17.48,30.51,10.22,30.51,24.5,0,6.63-3.59,11.24-15.92,11.24-6.55,0-10.3-1.17-13.03-2.5-1.87-.94-2.03-2.89-2.03-2.89l-1.4,2.58s4.99,3.59,16.62,3.59c12.87,0,19.27-5.07,19.27-12.95,0-14.83-32.38-9.91-32.38-25.28"/>
  <path class="cls-1" d="M108.02,14.38c6.2,.22,12.44,.38,18.66,.19,1.87-.05,3.74-.13,5.6-.2-.17-.01-.35-.02-.52-.03-7.87-.48-15.87-.39-23.74,.04"/>
  <path class="cls-1" d="M203.99,13.15s-43.2,6.51-56.22,31.18c-.23-.76-1.56-12.3-1.89-16.46-.21-2.66-1.05-8.13-2.59-10.37-.89-1.29-3.08-1.97-5.74-2.51-.16-2.89-.45-4.93-.98-6.14-.31-.71-1.11-1.32-2.27-1.83,.02-.16,.02-.32,.02-.48v-1.56c0-2.76-2.23-4.99-4.99-4.99h-18.34c-2.76,0-4.99,2.23-4.99,4.99v1.56c0,.16,0,.31,.02,.47-1.01,.45-1.72,.97-2.02,1.57-.76,1.47-1.16,3.7-1.37,6.24-2.9,.51-4.46,.83-5.64,2.01-2.17,2.18-2.79,7.88-3.08,10.63-.41,3.91-1.58,15.1-1.58,15.63-2.12-3.91-4.69-7.31-7.55-10.27-.83-.85-1.67-1.67-2.54-2.45C63.76,13.8,36.08,13.15,36.08,13.15c31.18,16.79,41.26,24.94,49.89,62.36,2.31,9.99,5.81,18.06,9.71,24.53,.43,5.1,.95,9.57,1.51,12.24,2.23,10.59,3.69,21.31,6.7,31.76,3.01,10.45,7.69,20.75,15.64,29.1,4.16-5.9,7.67-12.12,10.5-18.56,4.1-9.33,7.27-20,8.72-26.86,1.06-5.03,3.18-15.09,3.9-20.18,.23-1.66,.47-3.65,.7-5.84,4.3-6.73,8.22-15.32,10.73-26.18,8.64-37.42,18.71-45.57,49.89-62.36m-112.31,62.42c-.64-5.57-1.12-11.19-2.45-16.66-1.72-5.64-2.92-9.44-6.23-13.6-1.05-1.35-2.14-2.67-3.24-3.98,.67,.69,1.34,1.38,2,2.08,4.31,4.49,7.29,7.99,9.59,13.16,.32,.73,1.58,3.62,2.4,7.6,.43,2.11,.52,3.46,.84,7.13,.06,.71,.64,7.46,.94,10.14,.35,3.18,1.08,7.73,2.76,13.3-2.79-6.14-5.81-12.39-6.61-19.16m43.67,13.84c-.98,5.36-1.9,16.55-2.61,22.04-.97,7.49-3.08,19.14-5.82,29.33-1.89,7.04-4.24,13.83-7.02,20.27-5.31-9.12-8.44-20.37-10.45-31.78-2.01-11.41-2.98-23.12-4.48-34.68-.98-7.59-1.29-11.49-1.55-15.64-.64-10.05-.53-18.93-.41-27.69,.07-5.05,.16-7.15,.18-13.31,.03-8.56,0-12.16,0-12.16-.08-10.71-.33-16.24,2.52-17.61,.36-.18,.69-.24,.88-.27v-2.93c0-2.42,1.96-4.38,4.38-4.38h18.37c2.42,0,4.38,1.96,4.38,4.38v2.89c.93,.47,1.58,1.02,1.85,1.64,1.69,4.04,.73,17.38,1.61,41.87,.34,9.52-1.14,34.21-1.84,38.03m12.67-13.84c-.8,6.77-3.82,13.02-6.61,19.16,1.68-5.57,2.41-10.12,2.76-13.3,.3-2.69,.88-9.44,.94-10.14,.32-3.67,.41-5.02,.84-7.13,.82-3.98,2.07-6.87,2.4-7.6,2.3-5.17,5.28-8.66,9.59-13.16,.66-.7,1.33-1.39,2-2.08-1.1,1.31-2.18,2.64-3.24,3.98-3.31,4.16-4.51,7.96-6.23,13.6-1.33,5.46-1.81,11.09-2.45,16.66"/>
  <path class="cls-1" d="M112.34,130.19c1.75,9.01,3.73,12.5,5.92,21.07l-8.31-43.41c.3,5.65,1.3,16.77,2.38,22.34"/>
  <path class="cls-1" d="M126.43,130.63c1.08-5.56,2.09-16.68,2.38-22.34l-8.31,43.41c2.19-8.57,4.17-12.06,5.92-21.07"/>
  <path class="cls-1" d="M123.06,31.67h-6.04c-3.44,0-6.23,2.79-6.23,6.23v51.79c0,3.44,2.79,6.23,6.23,6.23h6.04c3.44,0,6.23-2.79,6.23-6.23V37.9c0-3.44-2.79-6.23-6.23-6.23"/>
  <path class="cls-1" d="M110.8,13.25c0-.08,0-.16,.01-.25,.2-3.72,.17-7.49-.02-11.21-.09,2.93-.16,5.87-.08,8.81,.02,.88,.05,1.76,.08,2.64"/>
  <path class="cls-1" d="M109.09,13.25c0-.08,0-.16,.01-.25,.2-3.72,.17-7.49-.02-11.21-.09,2.93-.16,5.87-.08,8.81,.02,.88,.05,1.76,.08,2.64"/>
  <path class="cls-1" d="M114.23,13.25c0-.08,0-.16,.01-.25,.2-3.72,.17-7.49-.02-11.21-.09,2.93-.16,5.87-.08,8.81,.02,.88,.05,1.76,.09,2.64"/>
  <path class="cls-1" d="M112.51,13.25c0-.08,0-.16,.01-.25,.2-3.72,.17-7.49-.02-11.21-.09,2.93-.16,5.87-.08,8.81,.02,.88,.05,1.76,.09,2.64"/>
  <path class="cls-1" d="M117.65,13.25c0-.08,0-.16,.01-.25,.2-3.72,.17-7.49-.02-11.21-.09,2.93-.16,5.87-.08,8.81,.02,.88,.05,1.76,.09,2.64"/>
  <path class="cls-1" d="M115.94,13.25c0-.08,0-.16,.01-.25,.2-3.72,.17-7.49-.02-11.21-.09,2.93-.16,5.87-.08,8.81,.02,.88,.05,1.76,.09,2.64"/>
  <path class="cls-1" d="M121.08,13.25c0-.08,0-.16,.01-.25,.2-3.72,.17-7.49-.02-11.21-.09,2.93-.16,5.87-.08,8.81,.02,.88,.05,1.76,.08,2.64"/>
  <path class="cls-1" d="M119.37,13.25c0-.08,0-.16,.01-.25,.2-3.72,.17-7.49-.02-11.21-.09,2.93-.16,5.87-.08,8.81,.02,.88,.05,1.76,.08,2.64"/>
  <path class="cls-1" d="M124.51,13.25c0-.08,0-.16,.01-.25,.2-3.72,.17-7.49-.02-11.21-.09,2.93-.16,5.87-.08,8.81,.02,.88,.05,1.76,.08,2.64"/>
  <path class="cls-1" d="M122.79,13.25c0-.08,0-.16,.01-.25,.2-3.72,.17-7.49-.02-11.21-.09,2.93-.16,5.87-.08,8.81,.02,.88,.05,1.76,.08,2.64"/>
  <path class="cls-1" d="M127.93,13.25c0-.08,0-.16,.01-.25,.2-3.72,.17-7.49-.02-11.21-.09,2.93-.16,5.87-.08,8.81,.02,.88,.05,1.76,.08,2.64"/>
  <path class="cls-1" d="M126.22,13.25c0-.08,0-.16,.01-.25,.2-3.72,.17-7.49-.02-11.21-.09,2.93-.16,5.87-.08,8.81,.02,.88,.05,1.76,.08,2.64"/>
  <path class="cls-1" d="M131.27,13.25c0-.08,0-.16,.01-.25,.2-3.72,.17-7.49-.02-11.21-.09,2.93-.16,5.87-.08,8.81,.02,.88,.05,1.76,.08,2.64"/>
  <path class="cls-1" d="M129.56,13.25c0-.08,0-.16,.01-.25,.2-3.72,.17-7.49-.02-11.21-.09,2.93-.16,5.87-.08,8.81,.02,.88,.05,1.76,.08,2.64"/>
  <path class="cls-1" d="M174.67,58.61c-1.35,.85-2.68,1.75-3.87,2.81-.82,.81-1.58,1.69-2.26,2.62-1.57,2.14-2.82,4.48-4.46,6.57-1.81,2.24-3.96,4.17-5.94,6.24,3.56-2.37,7.28-4.73,9.98-8.11,2.21-2.79,4.35-5.66,6.9-8.16,2.82-2.46,4.74-4.11,7.91-5.24,1.02-.37,2.05-.72,3.08-1.06-.59,.15-1.18,.3-1.78,.45-3.38,.78-6.65,2-9.57,3.88"/>
  <path class="cls-1" d="M218.27,22.71c-1.08,.07-2.17,.13-3.24,.2-6.19,.26-12.06,1.25-17.07,3.41-2.31,.98-4.58,2.02-6.52,3.38-1.33,1.06-2.5,2.25-3.52,3.55-2.35,2.98-4.05,6.39-6.54,9.26-2.78,3.07-6.29,5.54-9.45,8.29,6.07-2.77,12.45-5.46,16.59-10.11,3.38-3.84,6.61-7.82,10.72-11.09,4.64-3.13,7.8-5.21,13.51-6.1,1.83-.3,3.68-.56,5.54-.8"/>
  <path class="cls-1" d="M61.18,61.4c2.54,2.5,4.69,5.37,6.9,8.16,2.7,3.38,6.42,5.74,9.98,8.11-1.98-2.08-4.13-4-5.94-6.24-1.63-2.09-2.89-4.44-4.46-6.57-.68-.93-1.44-1.81-2.26-2.62-1.19-1.07-2.52-1.96-3.87-2.81-2.93-1.88-6.2-3.1-9.58-3.88-.59-.15-1.18-.3-1.78-.45,1.03,.34,2.06,.69,3.08,1.06,3.17,1.13,5.09,2.78,7.91,5.24"/>
  <path class="cls-1" d="M67.64,50.37c-3.16-2.75-6.68-5.22-9.45-8.29-2.49-2.88-4.19-6.29-6.54-9.26-1.02-1.3-2.19-2.49-3.52-3.55-1.95-1.36-4.22-2.4-6.52-3.38-5.01-2.16-10.88-3.15-17.07-3.41-1.08-.07-2.16-.13-3.24-.2,1.86,.24,3.72,.5,5.54,.8,5.7,.88,8.87,2.97,13.5,6.1,4.1,3.27,7.33,7.26,10.72,11.09,4.14,4.64,10.51,7.34,16.59,10.1"/>
</svg>