<?xml version="1.0" encoding="UTF-8"?>
<svg id="Layer_1" data-name="Layer 1" xmlns="http://www.w3.org/2000/svg" viewBox="0 0 456.49 161.96">
  <defs>
    <style>
      .cls-1 {
        fill: #005a64;
      }
    </style>
  </defs>
  <path class="cls-1" d="M220.63,52.72c1.75,0,2.57,.55,2.67,3.68v52.57l-42.19-56.89h-6.8v.64s1.84,.09,3.59,.92v52.21c-.09,2.94-.92,3.49-2.57,3.49v.64h5.97v-.64c-1.75,0-2.57-.55-2.57-3.86V54.19c.28,.28,.64,.55,.92,.83l40.72,54.96h3.68V56.39c.09-3.12,.92-3.68,2.67-3.68v-.64h-6.07v.64Z"/>
  <path class="cls-1" d="M278.63,52.72c1.75,0,2.57,.55,2.76,3.12v35.66c0,9.74-8.36,16.73-18.75,16.73l-5.88-.09c-5.98,0-16.18-6.89-16.18-16.64l-.37-36.49c.28-1.93,1.1-2.39,2.57-2.39v-.64h-8.36v.64c1.65,0,2.48,.46,2.66,3.03v35.75c0,10.2,8.82,18.47,19.67,18.47h5.88c10.84,0,19.58-8.27,19.58-18.47V56.58c0-3.4,.83-3.95,2.76-3.95v-.64l-6.34,.09v.64Z"/>
  <path class="cls-1" d="M334.7,107.13v-.18l-.64-1.47-19.12-51.56c.46-.92,1.19-1.1,2.3-1.1v-.64h-5.61l-21.78,53.31-.83,2.11c-.83,1.29-2.02,1.84-3.22,1.84v.64h5.7v-.64c-1.56,0-2.02-.64-1.19-2.76l8.09-19.85h26.1l8,21.78c-.37,.74-1.01,.92-2.02,.92v.64h7.81v-.64c-1.38,0-2.67-.64-3.58-2.39m-35.94-21.05l13.33-32.63,12.04,32.63h-25.37Z"/>
  <path class="cls-1" d="M391.04,70.09c0-4.96-2.02-9.38-5.24-12.68-3.31-3.22-7.81-5.24-12.78-5.24h-29.14v.64c1.65,0,2.48,.55,2.57,3.4v49.82c-.09,2.85-.92,3.4-2.57,3.4v.64h7.9v-.64c-1.75,0-2.57-.55-2.57-3.95v-17.37h20.86l11.03,17.74c1.38,2.11,1.38,3.49-.37,3.49v.64h2.85v-.18l.09,.18h5.33v-.64c-1.65,0-3.77-1.65-5.05-3.68h-.09l-10.57-17.55c9.74-.18,17.74-8.18,17.74-18.01m-19.76,16.91h-21.97V53.09h21.97c4.78,0,9.01,1.93,12.04,4.96,3.03,3.03,4.96,7.26,4.96,11.95,0,9.38-7.63,17-17,17"/>
  <path class="cls-1" d="M399.04,52.72c1.75,0,2.57,.55,2.57,3.77v49.17c-.09,3.12-.92,3.68-2.57,3.68v.64h7.81v-.64c-1.75,0-2.57-.55-2.57-3.86l.09-.09V56.49c0-3.22,.83-3.77,2.57-3.77v-.64h-7.9v.64Z"/>
  <path class="cls-1" d="M418.34,65.77l-.09-.09c0-11.86,13.88-13.7,19.21-13.7,7.9,0,11.86,5.33,11.86,5.33l1.01-2.11s-3.59-4.04-12.78-4.04c-2.76,0-21.14,.09-21.14,16.64,0,20.59,35.94,12.04,35.94,28.86,0,7.81-4.23,13.24-18.75,13.24-7.72,0-12.13-1.38-15.35-2.94-2.21-1.1-2.39-3.4-2.39-3.4l-1.66,3.03s5.88,4.23,19.58,4.23c15.16,0,22.7-5.97,22.7-15.26,0-17.46-38.14-11.67-38.14-29.78"/>
  <path class="cls-1" d="M81.13,13.45c5.8,.21,11.64,.35,17.45,.18,1.75-.05,3.49-.12,5.24-.19-.16,0-.32-.02-.49-.03-7.37-.45-14.84-.37-22.21,.04"/>
  <path class="cls-1" d="M170.9,12.3s-40.42,6.09-52.59,29.17c-.22-.71-1.46-11.51-1.77-15.4-.2-2.49-.98-7.61-2.42-9.7-.83-1.21-2.88-1.85-5.37-2.34-.15-2.71-.42-4.61-.92-5.74-.29-.66-1.04-1.23-2.13-1.71,.01-.15,.02-.3,.02-.45v-1.46c0-2.58-2.09-4.67-4.67-4.67h-17.15c-2.58,0-4.67,2.09-4.67,4.67v1.46c0,.15,0,.29,.02,.44-.94,.42-1.61,.91-1.89,1.47-.71,1.38-1.09,3.46-1.28,5.83-2.71,.48-4.17,.78-5.28,1.88-2.04,2.04-2.61,7.37-2.88,9.95-.39,3.65-1.48,14.13-1.48,14.62-1.98-3.66-4.38-6.84-7.06-9.61-.77-.8-1.57-1.56-2.38-2.29C39.73,12.91,13.84,12.3,13.84,12.3c29.17,15.71,38.59,23.34,46.67,58.34,2.16,9.35,5.43,16.89,9.08,22.94,.41,4.77,.89,8.95,1.42,11.45,2.09,9.91,3.45,19.93,6.27,29.71,2.82,9.77,7.2,19.41,14.63,27.22,3.89-5.51,7.18-11.34,9.83-17.36,3.83-8.73,6.8-18.71,8.15-25.13,.99-4.71,2.98-14.12,3.65-18.88,.22-1.55,.44-3.41,.66-5.46,4.02-6.3,7.69-14.34,10.03-24.49,8.08-35,17.5-42.63,46.67-58.34m-105.06,58.39c-.6-5.21-1.05-10.47-2.29-15.58-1.61-5.28-2.73-8.84-5.83-12.72-.98-1.26-2-2.5-3.03-3.73,.62,.65,1.25,1.29,1.87,1.94,4.03,4.2,6.82,7.48,8.97,12.31,.3,.68,1.48,3.39,2.24,7.11,.4,1.97,.49,3.23,.78,6.67,.06,.66,.6,6.98,.88,9.49,.33,2.97,1.01,7.23,2.58,12.44-2.61-5.74-5.43-11.59-6.18-17.92m40.85,12.94c-.92,5.02-1.77,15.48-2.44,20.62-.9,7.01-2.88,17.9-5.45,27.44-1.77,6.58-3.96,12.94-6.56,18.96-4.97-8.53-7.89-19.05-9.77-29.73-1.88-10.67-2.79-21.63-4.19-32.44-.92-7.1-1.2-10.75-1.45-14.63-.6-9.4-.49-17.7-.39-25.91,.06-4.73,.15-6.69,.17-12.45,.02-8,0-11.38,0-11.38-.07-10.01-.31-15.19,2.35-16.47,.34-.16,.65-.23,.83-.26v-2.74c0-2.27,1.84-4.1,4.1-4.1h17.19c2.27,0,4.1,1.84,4.1,4.1v2.7c.87,.44,1.48,.95,1.73,1.54,1.58,3.78,.69,16.26,1.51,39.17,.32,8.9-1.07,32.01-1.72,35.58m11.85-12.94c-.75,6.33-3.57,12.18-6.18,17.92,1.57-5.21,2.25-9.47,2.58-12.44,.28-2.52,.82-8.83,.88-9.49,.3-3.43,.38-4.7,.79-6.67,.76-3.72,1.94-6.43,2.24-7.11,2.15-4.83,4.94-8.1,8.97-12.31,.62-.65,1.25-1.29,1.87-1.94-1.03,1.23-2.04,2.47-3.03,3.73-3.09,3.89-4.21,7.44-5.83,12.72-1.24,5.11-1.69,10.37-2.29,15.58"/>
  <path class="cls-1" d="M85.17,121.79c1.64,8.43,3.49,11.69,5.54,19.71l-7.77-40.61c.27,5.29,1.22,15.69,2.23,20.9"/>
  <path class="cls-1" d="M98.35,122.2c1.01-5.21,1.95-15.61,2.23-20.9l-7.77,40.61c2.05-8.02,3.9-11.28,5.54-19.71"/>
  <path class="cls-1" d="M95.2,29.63h-5.65c-3.22,0-5.83,2.61-5.83,5.83v48.45c0,3.22,2.61,5.83,5.83,5.83h5.65c3.22,0,5.83-2.61,5.83-5.83V35.46c0-3.22-2.61-5.83-5.83-5.83"/>
  <path class="cls-1" d="M83.73,12.4c0-.08,0-.15,.01-.23,.19-3.48,.16-7.01-.02-10.48-.09,2.74-.15,5.49-.08,8.24,.02,.83,.05,1.65,.08,2.47"/>
  <path class="cls-1" d="M82.13,12.4c0-.08,0-.15,.01-.23,.19-3.48,.16-7.01-.02-10.48-.09,2.74-.15,5.49-.08,8.24,.02,.83,.05,1.65,.08,2.47"/>
  <path class="cls-1" d="M86.94,12.4c0-.08,0-.15,.01-.23,.19-3.48,.16-7.01-.02-10.48-.09,2.74-.15,5.49-.08,8.24,.02,.83,.05,1.65,.08,2.47"/>
  <path class="cls-1" d="M85.34,12.4c0-.08,0-.15,.01-.23,.19-3.48,.16-7.01-.02-10.48-.09,2.74-.15,5.49-.08,8.24,.02,.83,.05,1.65,.08,2.47"/>
  <path class="cls-1" d="M90.14,12.4c0-.08,0-.15,.01-.23,.19-3.48,.16-7.01-.02-10.48-.09,2.74-.15,5.49-.08,8.24,.02,.83,.05,1.65,.08,2.47"/>
  <path class="cls-1" d="M88.54,12.4c0-.08,0-.15,.01-.23,.19-3.48,.16-7.01-.02-10.48-.09,2.74-.15,5.49-.08,8.24,.02,.83,.05,1.65,.08,2.47"/>
  <path class="cls-1" d="M93.35,12.4c0-.08,0-.15,.01-.23,.19-3.48,.16-7.01-.02-10.48-.09,2.74-.15,5.49-.08,8.24,.02,.83,.05,1.65,.08,2.47"/>
  <path class="cls-1" d="M91.75,12.4c0-.08,0-.15,.01-.23,.19-3.48,.16-7.01-.02-10.48-.09,2.74-.15,5.49-.08,8.24,.02,.83,.05,1.65,.08,2.47"/>
  <path class="cls-1" d="M96.56,12.4c0-.08,0-.15,.01-.23,.19-3.48,.16-7.01-.02-10.48-.09,2.74-.15,5.49-.08,8.24,.02,.83,.05,1.65,.08,2.47"/>
  <path class="cls-1" d="M94.95,12.4c0-.08,0-.15,.01-.23,.19-3.48,.16-7.01-.02-10.48-.09,2.74-.15,5.49-.08,8.24,.02,.83,.05,1.65,.08,2.47"/>
  <path class="cls-1" d="M99.76,12.4c0-.08,0-.15,.01-.23,.19-3.48,.16-7.01-.02-10.48-.09,2.74-.15,5.49-.08,8.24,.02,.83,.05,1.65,.08,2.47"/>
  <path class="cls-1" d="M98.16,12.4c0-.08,0-.15,.01-.23,.19-3.48,.16-7.01-.02-10.48-.09,2.74-.15,5.49-.08,8.24,.02,.83,.05,1.65,.08,2.47"/>
  <path class="cls-1" d="M102.88,12.4c0-.08,0-.15,.01-.23,.19-3.48,.16-7.01-.02-10.48-.09,2.74-.15,5.49-.08,8.24,.02,.83,.05,1.65,.08,2.47"/>
  <path class="cls-1" d="M101.28,12.4c0-.08,0-.15,.01-.23,.19-3.48,.16-7.01-.02-10.48-.09,2.74-.15,5.49-.08,8.24,.02,.83,.05,1.65,.08,2.47"/>
  <path class="cls-1" d="M143.48,54.82c-1.26,.8-2.5,1.63-3.62,2.63-.77,.76-1.47,1.58-2.11,2.45-1.47,2-2.64,4.2-4.17,6.15-1.69,2.09-3.7,3.9-5.56,5.84,3.33-2.22,6.81-4.42,9.34-7.59,2.07-2.61,4.07-5.29,6.46-7.63,2.64-2.3,4.43-3.84,7.4-4.9,.95-.35,1.92-.68,2.88-.99-.55,.14-1.11,.28-1.66,.42-3.16,.73-6.22,1.87-8.96,3.63"/>
  <path class="cls-1" d="M184.27,21.25c-1.01,.06-2.02,.12-3.04,.18-5.79,.24-11.28,1.17-15.97,3.19-2.16,.91-4.28,1.89-6.1,3.16-1.24,.99-2.34,2.11-3.29,3.33-2.2,2.78-3.79,5.97-6.12,8.66-2.6,2.87-5.89,5.18-8.84,7.76,5.68-2.59,11.65-5.11,15.52-9.45,3.16-3.59,6.18-7.32,10.02-10.38,4.34-2.93,7.3-4.88,12.63-5.71,1.71-.28,3.45-.52,5.19-.75"/>
  <path class="cls-1" d="M37.31,57.44c2.38,2.34,4.39,5.02,6.46,7.63,2.52,3.16,6,5.37,9.33,7.59-1.86-1.94-3.87-3.74-5.56-5.84-1.53-1.95-2.71-4.15-4.17-6.15-.64-.87-1.34-1.7-2.11-2.45-1.11-1-2.36-1.83-3.62-2.63-2.74-1.76-5.8-2.9-8.96-3.63-.55-.14-1.11-.28-1.66-.42,.96,.32,1.93,.64,2.88,.99,2.97,1.06,4.76,2.6,7.4,4.9"/>
  <path class="cls-1" d="M43.36,47.12c-2.96-2.57-6.25-4.89-8.84-7.76-2.33-2.69-3.92-5.88-6.12-8.66-.95-1.22-2.05-2.33-3.29-3.33-1.82-1.27-3.95-2.25-6.1-3.16-4.69-2.02-10.17-2.95-15.97-3.19-1.01-.06-2.02-.12-3.03-.18,1.74,.23,3.47,.47,5.19,.75,5.34,.83,8.3,2.78,12.63,5.71,3.84,3.06,6.86,6.79,10.02,10.38,3.87,4.34,9.84,6.86,15.52,9.45"/>
</svg>